<svg xmlns="http://www.w3.org/2000/svg" viewBox="0 0 32 32"><path d="M16.75 16.376l-.707 1.645c2.756 1.877 5.48 3.756 7.615 6.457l-2.11 1.43c-.708-.768-1.364-1.59-2.132-2.29-1.047-.958-2.156-1.85-3.557-2.285-.586-.183-.98-.086-1.39.41-1.528 1.86-3.26 3.49-5.477 4.52-1.368.64-1.368.644-1.972-.693-.177-.39-.345-.783-.54-1.224 1.828-.433 3.38-1.246 4.62-2.62.74-.822 1.167-1.716 1.26-2.857.17-2.103.63-4.15 1.83-5.95.533-.797 1.767-.98 2.492-.37.062.046.11.126.13.2.48 1.81 2.08 2.005 3.58 1.63.573-.146 1.118-.404 1.73-.63l1.07 1.483c-1.903 1.72-4.075 1.733-6.444 1.147zm.335-11.054c1.78.02 3.254 1.57 3.22 3.386-.032 1.734-1.62 3.284-3.326 3.246-1.826-.04-3.33-1.604-3.288-3.418.04-1.8 1.555-3.236 3.39-3.214z" fill="#FFF"/></svg>