<svg xmlns="http://www.w3.org/2000/svg" viewBox="0 0 32 32"><path d="M24.998 23.842a.901.901 0 0 0-.377.086l-.4.172-.193.08-.25.1v.005c-2.72 1.102-5.573 1.748-8.215 1.805-.097.004-.193.004-.29.004-4.153.003-7.544-1.926-10.964-3.823a.803.803 0 0 0-.36-.093.646.646 0 0 0-.43.164.591.591 0 0 0-.182.427c0 .207.112.395.267.52 3.21 2.786 6.73 5.376 11.46 5.378.094 0 .188-.002.28-.004 3.01-.07 6.415-1.084 9.058-2.744l.017-.01a9.07 9.07 0 0 0 1.018-.703c.205-.15.346-.385.344-.63-.01-.435-.378-.73-.776-.73zm3.666-1.54c-.012-.265-.068-.466-.178-.632l-.01-.016-.015-.02a.863.863 0 0 0-.332-.218c-.347-.133-.853-.205-1.46-.207-.437 0-.92.04-1.4.142l-.002-.03-.486.16-.01.006-.276.09v.012a4.617 4.617 0 0 0-.89.498c-.167.13-.31.297-.317.556a.51.51 0 0 0 .185.395.6.6 0 0 0 .378.13c.027 0 .055 0 .078-.006l.023-.002.02-.003c.237-.054.585-.086.99-.145a10.3 10.3 0 0 1 1.04-.066c.226 0 .43.013.57.044a.558.558 0 0 1 .17.06c.007.02.017.067.015.14.004.268-.11.767-.266 1.25-.153.487-.34.974-.46 1.298a.66.66 0 0 0-.05.247.55.55 0 0 0 .16.392c.11.104.256.145.375.145h.006a.738.738 0 0 0 .464-.176c1.236-1.11 1.666-2.887 1.684-3.887l-.003-.16zm-11.31-11.918c-.727.055-1.564.11-2.403.222-1.28.17-2.57.39-3.63.896-2.07.838-3.466 2.627-3.466 5.254 0 3.3 2.124 4.98 4.81 4.98.894 0 1.622-.114 2.29-.28 1.064-.336 1.958-.95 3.02-2.07.614.838.782 1.23 1.844 2.125.278.115.558.115.78-.05.673-.56 1.85-1.57 2.462-2.126.28-.224.224-.56.056-.837-.613-.783-1.23-1.455-1.23-2.965V10.5c0-2.125.167-4.082-1.397-5.534-1.286-1.173-3.3-1.62-4.865-1.62h-.672c-2.85.164-5.868 1.395-6.54 4.918-.11.447.226.613.45.67l3.13.39c.336-.055.502-.336.56-.613.278-1.23 1.284-1.844 2.4-1.96h.227c.67 0 1.397.28 1.79.84.447.67.39 1.57.39 2.35v.447zm-.612 6.65c-.393.782-1.063 1.286-1.79 1.456-.112 0-.28.055-.448.055-1.228 0-1.956-.95-1.956-2.35 0-1.788 1.06-2.627 2.402-3.018.727-.167 1.567-.225 2.405-.225v.672c0 1.287.057 2.292-.613 3.41z" fill="#FFF"/></svg>