<svg xmlns="http://www.w3.org/2000/svg" viewBox="0 0 32 32"><path d="M17.334 13.26c-2.315 0-4.067 1.8-4.067 4.027 0 2.35 1.824 4.03 4.067 4.03 2.243 0 4.062-1.68 4.062-4.03 0-2.228-1.744-4.027-4.062-4.027zm0 2.127c1-.007 1.82.847 1.82 1.9 0 1.048-.82 1.9-1.82 1.9s-1.818-.853-1.818-1.9c0-1.053.817-1.9 1.818-1.9zm11.59 4.518c0 .778-.63 1.412-1.41 1.412a1.41 1.41 0 1 1 1.41-1.412zm-4.104 1.418h-2.216v-10.28h2.216v10.28zM9.33 11.04s2.585 6.79 3.862 10.13c.015.037.028.078.047.132-.06.006-.106.01-.15.01-.83.002-1.665-.003-2.498.004-.12.002-.17-.04-.204-.156-.116-.385-.247-.766-.365-1.147-.032-.11-.074-.153-.193-.153-1.066.006-2.132.006-3.2 0-.1 0-.142.03-.173.13-.127.405-.26.81-.39 1.21-.02.076-.05.117-.136.117-.873-.006-1.75-.004-2.623-.004-.016 0-.036-.005-.07-.012.023-.06.04-.115.064-.17 1.287-3.306 3.91-10.085 3.91-10.085h2.12zm-.023 6.674c-.343-1.147-.68-2.274-1.02-3.4h-.03l-1.017 3.4h2.067z" fill="#FFF"/></svg>