<svg xmlns="http://www.w3.org/2000/svg" viewBox="0 0 32 32"><path fill="#FFF" d="M8.68 16.617c2.485-.534 2.145-3.51 2.073-4.16-.123-1.002-1.3-2.752-2.9-2.612-2.013.18-2.307 3.087-2.307 3.087-.273 1.346.65 4.22 3.133 3.685m4.613-4.986c1.373 0 2.482-1.58 2.482-3.532s-1.11-3.533-2.482-3.533-2.485 1.58-2.485 3.533 1.112 3.536 2.485 3.536m5.918.233c1.838.24 3.016-1.72 3.25-3.205.24-1.482-.945-3.207-2.243-3.503-1.305-.3-2.93 1.786-3.08 3.147-.177 1.666.237 3.326 2.073 3.56m7.276 2.496c0-.71-.59-2.85-2.78-2.85-2.193 0-2.483 2.02-2.483 3.447 0 1.362.113 3.263 2.84 3.204 2.72-.06 2.422-3.084 2.422-3.8m-2.78 6.237s-2.84-2.196-4.497-4.57c-2.25-3.504-5.445-2.077-6.513-.3-1.062 1.784-2.717 2.91-2.954 3.21-.24.293-3.43 2.018-2.722 5.166.71 3.146 3.2 3.087 3.2 3.087s1.833.18 3.96-.298c2.132-.475 3.966.116 3.966.116s4.97 1.668 6.33-1.54c1.36-3.206-.768-4.87-.768-4.87"/></svg>