<svg xmlns="http://www.w3.org/2000/svg" viewBox="0 0 32 32"><path d="M3.862 8.136h5.66c1.377 0 3.19 0 4.13.566a3.705 3.705 0 0 1 1.837 3.26c0 1.66-.88 2.905-2.32 3.494v.042c1.924.397 2.97 1.838 2.97 3.76 0 2.297-1.636 4.483-4.743 4.483H3.86V8.14zm2.078 6.71h4.152c2.36 0 3.322-.856 3.322-2.493 0-2.16-1.53-2.468-3.322-2.468H5.94v4.96zm0 7.144h5.2c1.792 0 2.93-1.09 2.93-2.797 0-2.03-1.64-2.598-3.388-2.598H5.94v5.395zm22.017-1.833C27.453 22.65 25.663 24 23.127 24c-3.607 0-5.31-2.49-5.422-5.944 0-3.386 2.23-5.878 5.31-5.878 4 0 5.225 3.74 5.116 6.47h-8.455c-.067 1.966 1.05 3.716 3.52 3.716 1.53 0 2.6-.742 2.928-2.206h1.838zm-1.793-3.15c-.088-1.77-1.42-3.19-3.256-3.19-1.946 0-3.106 1.466-3.236 3.19h6.492zM20.614 8h4.935v1.68h-4.94z" fill="#FFF"/></svg>