<svg xmlns="http://www.w3.org/2000/svg" viewBox="0 0 32 32"><path fill="#FFF" d="M25.058 25.892c-.25 0-.484.065-.694.17l-5.907-8.2a1.548 1.548 0 0 0 .344-1.68l4.28-2.573c.288.333.71.552 1.187.552.862 0 1.56-.7 1.56-1.56 0-.776-.567-1.415-1.31-1.535V6.11a1.556 1.556 0 0 0-.25-3.095c-.862 0-1.56.7-1.56 1.56 0 .196.04.383.106.556l-4.256 2.477a1.548 1.548 0 0 0-1.2-.574c-.862 0-1.56.7-1.56 1.56 0 .778.567 1.417 1.31 1.537v5.1c-.218.035-.42.112-.598.23L9.93 8.204c.213-.268.345-.6.345-.97a1.56 1.56 0 1 0-.712 1.309l6.575 7.25c-.213.267-.345.6-.345.968 0 .23.054.45.144.647L8.08 22.66a1.547 1.547 0 0 0-1.138-.5 1.56 1.56 0 1 0 1.56 1.56c0-.23-.053-.45-.144-.646l7.857-5.25c.07.076.147.144.23.204l-1.95 3.927a1.536 1.536 0 0 0-.457-.076c-.862 0-1.56.695-1.56 1.56a1.56 1.56 0 1 0 2.468-1.27l1.95-3.926c.146.045.297.076.458.076.25 0 .484-.064.694-.17l5.907 8.2a1.56 1.56 0 1 0 1.103-.459zM18.914 8.59c0-.197-.04-.383-.106-.556l4.257-2.473c.236.29.567.49.95.55v4.96a1.558 1.558 0 0 0-1.197 2.115l-4.278 2.573a1.542 1.542 0 0 0-.935-.53v-5.102a1.555 1.555 0 0 0 1.31-1.534z"/></svg>