<svg xmlns="http://www.w3.org/2000/svg" viewBox="0 0 32 32"><g fill="#FFF"><path d="M3 10.35v11.3l8.977-5.418"/><path d="M17.55 27.454c-4.397 0-8.314-2.39-10.205-6.36l1.675-1.04a9.49 9.49 0 0 0 8.53 5.388c5.204 0 9.438-4.235 9.438-9.44 0-5.208-4.233-9.443-9.44-9.443a9.424 9.424 0 0 0-8.7 5.762l-1.733-1.057c1.798-4.25 5.82-6.72 10.434-6.72 6.31 0 11.45 5.138 11.45 11.45 0 6.318-5.136 11.458-11.45 11.458z"/><path d="M11.425 18.623a6.708 6.708 0 0 0 6.18 4.09 6.713 6.713 0 0 0 6.715-6.712c0-3.71-3.005-6.71-6.714-6.71a6.71 6.71 0 0 0-6.295 4.38l3.96 2.565-3.84 2.39z"/></g></svg>