<svg xmlns="http://www.w3.org/2000/svg" viewBox="0 0 32 32"><path d="M27.256 9.5c-2.188-3.79-6.36-.54-7.83 2.205a5.533 5.533 0 0 1 2.006 3.475c3.103.094 8.023-1.873 5.824-5.68-.7-1.212.515.894 0 0zM15.998 3c-4.368 0-3.664 5.23-2.013 7.886a5.53 5.53 0 0 1 4.023 0C19.66 8.23 20.366 3 15.998 3zM9.255 8.294c-1.108-.64-2.42-.918-3.49-.053-.96.78-1.79 2.27-1.617 3.54.352 2.563 4.32 3.467 6.416 3.404a5.527 5.527 0 0 1 2.01-3.477c-.67-1.256-1.898-2.59-3.32-3.41-.71-.41 1.422.82 0 0zm2.17 10.756a5.476 5.476 0 0 1-.86-2.23c-2.786-.084-7.77 1.608-6.057 5.24 2.023 4.292 6.448 1.248 8.063-1.765a5.427 5.427 0 0 1-1.14-1.246c-.133-.2.313.47 0 0zm6.777 2.408a6.145 6.145 0 0 0-.198-.342 5.543 5.543 0 0 1-4.02 0C12.338 23.766 11.624 29 16 29c4.218 0 3.67-4.848 2.204-7.542-.064-.12.678 1.243 0 0zm9.628-1.37c-.478-2.46-4.326-3.33-6.398-3.27a5.527 5.527 0 0 1-2.007 3.476c.934 1.744 2.858 3.73 4.913 4.006 2.043.276 3.853-2.332 3.49-4.212-.153-.8.137.706 0 0z" fill="#FFF"/></svg>