<svg xmlns="http://www.w3.org/2000/svg" viewBox="0 0 32 32"><g fill="#FFF"><circle cx="19.587" cy="7.172" r="4.209"/><path d="M21.374 11.668h-3.572c-.085 0-.168.01-.253.013.32.68.51 1.438.51 2.237a5.19 5.19 0 0 1-1.61 3.756 6.416 6.416 0 0 1 4.485 5.08c3.414-.15 5.382-1.114 5.513-1.18l.282-.145h.03V17.06c0-2.97-2.418-5.39-5.39-5.39z"/><circle cx="12.413" cy="13.44" r="4.209"/><path d="M14.198 17.937h-3.57a5.394 5.394 0 0 0-5.39 5.388v4.37l.01.067.303.095c2.84.885 5.3 1.18 7.33 1.18 3.96 0 6.258-1.13 6.4-1.2l.28-.142h.028v-4.37a5.394 5.394 0 0 0-5.388-5.388z"/></g></svg>