<svg xmlns="http://www.w3.org/2000/svg" viewBox="0 0 32 32"><path fill="#FFF" d="M20.56 21.21a20.225 20.225 0 0 0 4.95 2.122c.746.207 1.255.03 1.596-.673.102-.21.25-.405.4-.587 2.322-2.812 1.91-6.988-1.06-7.983.66-.517.662-1.2.47-1.92-.156-.59-.265-1.204-.492-1.767-.514-1.278-.694-2.603-.77-3.964-.047-.815-.1-1.768-1-2.07-.875-.29-1.54.358-2.09.978-1.85 2.082-2.9 4.576-3.644 7.22-.372 1.33-.7 2.676-1.077 4.12-.332-.34-.57-.837-.925-.897-.14-.375-.74-2.2.177-3.78a.11.11 0 0 0 .047-.036l.174-.22a.142.142 0 0 0-.024-.2.138.138 0 0 0-.196.025l-.174.222a.143.143 0 0 0-.02.138c-.84 1.48-.432 3.147-.23 3.76-.422-.616-1.416-1.792-2.95-2.06a.136.136 0 0 0-.116-.067h-.28a.141.141 0 1 0-.001.282h.28a.13.13 0 0 0 .062-.017c1.54.254 2.51 1.48 2.884 2.046-.38.265.128.786.08 1.276-1.985-1.483-4.07-2.605-6.243-3.572-1.956-.87-3.89-1.798-6.008-2.233-.47-.097-.978-.107-1.25.41-.25.474-.094.936.19 1.34.152.222.346.434.565.585 2.44 1.678 4.303 3.93 6.212 6.145.446.517.896 1.027 1.665 1.065.25.012.455.132.445.446v.123c.047.826.25 1.5.774 2.28 1.366 1.67 3.08 2.88 5.055 3.7.4.166.73.25 1.01.25.685 0 1.018-.518 1.116-1.58.027-1.45-.42-2.82-.862-4.153.352-.27.517.24.788.065.237-.33-.216-.68.018-1.08.172.097.316.173.456.256z"/></svg>