<svg xmlns="http://www.w3.org/2000/svg" viewBox="0 0 32 32"><path d="M16.7 26.862V5.138h5.34c1.345 0 2.32.195 2.928.585.61.39 1.098 1.084 1.463 2.082.37.998.55 2.14.55 3.424 0 1.63-.274 2.97-.83 4.035-.553 1.06-1.382 1.73-2.49 2.007a7.827 7.827 0 0 1 1.365 1.823c.356.663.838 1.837 1.444 3.526L28 26.863h-3.035l-1.835-4.726c-.65-1.69-1.097-2.755-1.338-3.194-.24-.44-.494-.74-.763-.905-.275-.162-.698-.245-1.28-.245h-.516v9.07H16.7zm2.537-12.536h1.88c1.215 0 1.976-.09 2.278-.27.304-.175.54-.48.712-.916.173-.434.257-.98.257-1.63 0-.73-.11-1.322-.34-1.772-.224-.448-.543-.732-.955-.85-.21-.05-.828-.075-1.855-.075h-1.98v5.513zM4 5.138h4.64c1.045 0 1.844.14 2.392.415.737.375 1.367 1.042 1.894 2 .526.96.928 2.132 1.2 3.52.276 1.39.41 3.102.41 5.137 0 1.785-.128 3.328-.385 4.623-.31 1.58-.76 2.86-1.34 3.838a4.667 4.667 0 0 1-1.786 1.736c-.56.31-1.307.46-2.244.46H4V5.138zm2.538 3.674v14.39h1.894c.71 0 1.223-.068 1.536-.207.41-.18.753-.48 1.024-.903.27-.424.492-1.125.663-2.097.172-.974.26-2.3.26-3.98 0-1.678-.088-2.97-.26-3.867-.17-.9-.41-1.602-.72-2.104-.31-.504-.7-.846-1.175-1.023-.353-.135-1.047-.205-2.08-.205H6.537z" fill="#FFF"/></svg>