<svg xmlns="http://www.w3.org/2000/svg" viewBox="0 0 32 32"><g fill="#FFF"><path d="M16 3C8.814 3 3 8.814 3 16s5.814 13 13 13 13-5.814 13-13S23.187 3 16 3zm0 25.152c-6.712 0-12.153-5.44-12.153-12.152C3.847 9.288 9.287 3.848 16 3.848S28.152 9.288 28.152 16c0 6.712-5.44 12.152-12.152 12.152z"/><path d="M22.406 16A6.402 6.402 0 0 0 16 9.593 6.402 6.402 0 0 0 9.593 16 6.4 6.4 0 0 0 16 22.406 6.4 6.4 0 0 0 22.406 16zM16 21.39A5.392 5.392 0 0 1 10.61 16 5.403 5.403 0 0 1 16 10.61 5.393 5.393 0 0 1 21.39 16 5.382 5.382 0 0 1 16 21.39z"/><path d="M13.763 9.187V4.864c-4.475.9-8 4.424-8.898 8.898h4.322a7.226 7.226 0 0 1 4.576-4.575zm9.05 4.576h4.32c-.896-4.475-4.422-8-8.896-8.898v4.322a7.224 7.224 0 0 1 4.575 4.576zm-4.576 9.052v4.322c4.475-.9 8-4.424 8.897-8.9h-4.322a7.232 7.232 0 0 1-4.575 4.578zm-9.05-4.578H4.863c.898 4.475 4.424 8 8.898 8.9v-4.323a7.233 7.233 0 0 1-4.574-4.577z"/></g></svg>