<svg xmlns="http://www.w3.org/2000/svg" viewBox="0 0 32 32"><path fill="#FFF" d="M16 3C8.82 3 3 8.82 3 16s5.82 13 13 13 13-5.82 13-13S23.18 3 16 3zm0 24.807C9.48 27.807 4.192 22.522 4.192 16 4.192 9.48 9.48 4.193 16 4.193c3.92 0 7.392 1.91 9.54 4.85h-8.308s-2.863.397-3.18 2.544c-.34 2.293-1.988 2.465-1.988 2.465h-4.69v1.51h9.74a2.343 2.343 0 1 1 4.605.001h1.633v.874H21.72a2.348 2.348 0 0 1-2.304 1.91c-1.147 0-2.1-.823-2.306-1.91H7.37v1.59h4.69s1.67 0 1.988 2.464c.304 2.357 3.18 2.55 3.18 2.55h8.25a11.786 11.786 0 0 1-9.48 4.77z"/></svg>