<svg xmlns="http://www.w3.org/2000/svg" viewBox="0 0 32 32"><path fill="#FFF" d="M21.55 11.33c4.656.062 7.374 2.92 4.294 6.828-1.415 1.798-3.812 3.575-7.003 4.725-.15.056-.303.105-.46.16-.3.098-.595.188-.89.28a24.866 24.866 0 0 1-4.05.814c-.464.043-.91.078-1.35.085-2.97.077-5.205-.74-5.93-2.474-.88-2.077.9-4.976 4.454-7.178-2.627 1.06-7.408 3.546-7.61 7.12v.454c.02.362.09.725.21 1.108.76 2.41 4.333 3.533 8.884 3.13.446-.036.892-.092 1.352-.16.66-.1 1.337-.23 2.027-.39a35.76 35.76 0 0 0 2.02-.558c.154-.056.3-.098.454-.153.31-.094.608-.2.9-.31 3.945-1.436 6.87-3.34 8.58-5.526.975-1.253 1.476-2.424 1.574-3.448v-.787c-.28-2.61-3.317-4.135-7.45-3.717zm-3.024-1.29c.11 0 .21-.014.307-.035.662-.167.983-.87 1.01-1.7.028-.885-.286-1.624-1.01-1.728-.063-.014-.125-.014-.195-.014-.578 0-.955.348-1.157.857-.094.265-.16.564-.163.885-.014.383.034.745.167 1.038.196.418.53.697 1.046.697zm-.014.292c-.293 0-.544.028-.76.084l.063.084.11.202.092.21.077.215.056.223.035.223.02.23.008.223v.237l-.014.23-.018.23-.028.23-.028.23-.043.23-.042.23-.04.223-.056.223-.042.212-.056.21-.057.2-.057.196-.042.19-.04.18-.02.11-.03.125-.028.132-.02.14-.03.152-.02.124v.03l-.028.166-.056.21-.02.172-.03.18-.02.182-.03.18-.02.19-.03.18-.02.188-.02.188-.02.19v.007c.04.537.082.997.103 1.26.02.3.085.517.18.663.14.215.378.292.706.32.28-.028.487-.084.647-.23.153-.14.237-.376.3-.753.118-.774.467-3.31.767-4.397.425-1.568 1.456-4.418-1.066-4.634-.122-.024-.226-.024-.338-.024zm-3.06-.8h.015c.976-.008 1.436-.9 1.436-1.994s-.46-1.993-1.436-2h-.014c-.99 0-1.45.9-1.45 2s.46 1.993 1.45 1.993zm-2.013 4.626c.09.383.18.732.254 1.052.307 1.254.606 4.16.718 5.038.105.885.418 1.073 1.052 1.136.62-.063.94-.25 1.045-1.136.105-.878.41-3.79.71-5.038.08-.314.175-.67.266-1.052.28-1.15.502-2.495 0-3.366-.32-.557-.94-.92-2.02-.92-1.088 0-1.708.37-2.03.92-.5.864-.27 2.216 0 3.366zm-1.35-4.153c.1.02.196.035.308.035.516 0 .857-.28 1.045-.704.118-.293.174-.655.167-1.038a2.96 2.96 0 0 0-.167-.885c-.202-.51-.585-.857-1.157-.857-.07 0-.134 0-.197.014-.725.105-1.045.843-1.01 1.728.02.836.35 1.54 1.01 1.707zm-.3 9.373c.057.376.154.606.3.753.16.157.37.206.65.23.33-.024.557-.1.704-.32.09-.14.153-.36.18-.66.022-.264.064-.72.106-1.253v-.014l-.02-.187-.02-.188-.03-.188-.02-.18-.02-.19-.03-.18-.02-.18-.03-.183-.025-.174-.02-.166-.03-.167v-.02l-.02-.133-.028-.153-.028-.14-.024-.13-.028-.125-.03-.11-.034-.184-.056-.188-.04-.196-.058-.203-.056-.21-.056-.215-.04-.223-.057-.225-.04-.23-.033-.23-.028-.23-.03-.23-.02-.23-.008-.237v-.23l.007-.223.02-.23.034-.223.056-.222.07-.216.1-.21.11-.2.065-.085a3.128 3.128 0 0 0-.76-.083c-.11 0-.216 0-.32.014-2.524.216-1.492 3.066-1.067 4.634.262 1.054.603 3.59.728 4.364z"/></svg>