<svg xmlns="http://www.w3.org/2000/svg" viewBox="0 0 32 32"><path d="M16.957 21.422l8.6-10.75h-7.972V9.008H28v1.628l-8.65 10.69H28v1.667H16.957v-1.57zM4 9.007h5.59c1.898 0 3.37.683 4.416 2.047.933 1.23 1.4 2.81 1.4 4.73 0 1.486-.277 2.83-.828 4.028-.97 2.12-2.64 3.18-5.007 3.18H4V9.007zm5.22 12.367c.626 0 1.14-.066 1.544-.2.72-.247 1.31-.724 1.768-1.428.367-.565.63-1.29.792-2.17.094-.527.14-1.016.14-1.466 0-1.732-.336-3.078-1.01-4.037-.674-.958-1.758-1.438-3.254-1.438H5.913v10.74H9.22z" fill="#FFF"/></svg>