<svg xmlns="http://www.w3.org/2000/svg" viewBox="0 0 32 32"><path fill="#FFF" d="M7.884 8.573h2.276c.13 0 .236-.106.236-.235 0 0-.027-1.95-.027-2.494v-.006c0-.445.09-.833.252-1.16l.078-.145c-.007 0-.017.005-.025.014l-4.42 4.385a.044.044 0 0 0-.017.026c.09-.046.215-.107.233-.115.387-.175.85-.27 1.41-.27zm17.704-.477c-.18-.968-.755-1.444-1.275-1.632-.56-.203-1.698-.413-3.127-.58-1.15-.137-2.504-.126-3.318-.1-.1-.672-.568-1.285-1.096-1.498-1.404-.564-3.573-.428-4.13-.272-.442.125-.932.378-1.205.768-.183.262-.302.595-.302 1.062 0 .265.007.886.015 1.44l.014 1.054c0 .494-.4.896-.896.897H7.99c-.485 0-.856.082-1.14.21a1.572 1.572 0 0 0-.636.508c-.304.408-.357.912-.355 1.426 0 0 0 .415.1 1.23.085.63.768 5.02 1.415 6.355.25.522.42.736.912.966 1.1.47 3.61.995 4.787 1.147 1.174.15 1.912.466 2.35-.457.002 0 .088-.227.208-.56.382-1.156.435-2.18.435-2.924 0-.076.11-.078.11 0 0 .524-.1 2.38 1.303 2.875.554.198 1.7.374 2.864.51 1.055.12 1.82.538 1.82 3.24 0 1.646-.346 1.87-2.152 1.87-1.464 0-2.02.04-2.02-1.124 0-.938.93-.842 1.616-.842.31 0 .086-.23.086-.81 0-.576.36-.91.02-.918-2.384-.065-3.786-.004-3.786 2.978 0 2.706 1.036 3.208 4.418 3.208 2.65 0 3.588-.086 4.682-3.483.22-.67.742-2.72 1.06-6.155.197-2.173-.194-8.732-.502-10.388zm-4.622 7.25a4.915 4.915 0 0 0-.937.056c.08-.667.352-1.488 1.33-1.453 1.08.032 1.23 1.055 1.238 1.75a4.402 4.402 0 0 0-1.635-.358z"/></svg>