<svg xmlns="http://www.w3.org/2000/svg" viewBox="0 0 32 32"><path d="M14.935 6.168l2.89.446v5.695h.12c1.094-.937 2.556-.886 4.376-.886 2.065 0 3.61.568 4.638 1.706 1.03 1.14 1.544 2.94 1.544 5.4 0 2.517-.69 4.392-2.062 5.623C25.053 25.386 23.11 26 20.598 26c-1.233 0-3.025-.643-3.025-.44 0 .297.482.19-2.637.19V6.167zm2.89 17.54a6.61 6.61 0 0 0 1.385.35c.548.083 1.13.125 1.745.125 1.393 0 2.495-.462 3.312-1.386.815-.922 1.224-2.345 1.224-4.266 0-.8-.07-1.52-.22-2.163a5.005 5.005 0 0 0-.68-1.666 3.15 3.15 0 0 0-1.202-1.076c-.498-.25-1.09-.377-1.788-.377-.963 0-1.76.2-2.39.602-.63.4-1.09.945-1.384 1.635v8.224zM12.6 7.888c-.432-.044-.84-.07-1.23-.07-.557 0-.986.076-1.292.224-.305.15-.534.382-.688.7-.15.317-.247.723-.29 1.216-.042.495-.062 6.307-.062 7.015l3.09.02.316 2.6-3.406-.02v6.176h-3v-6.18H3.5l.466-2.6H6.04v-5.99c0-1.753.375-3.02 1.126-3.804C7.913 6.39 9.19 6 10.994 6c.722 0 1.376.028 1.96.084" fill="#FFF"/></svg>