<svg xmlns="http://www.w3.org/2000/svg" viewBox="0 0 32 32"><path fill="#FFF" d="M19.956 10.21c-.183.192-.613.138-.99.14-.102.317-.126.71-.283.974.626.496 1.85.406 2.405.972 1.197-.444.245-1.354.99-2.085 1.134-.14 1.386.59 1.697 1.255-.267.247-.936.102-1.415.14-.26.208-.333.6-.565.833.258.58.96.724 1.133 1.39a52.822 52.822 0 0 1 4.526-.973c.41-.43.317-1.356.99-1.53 1.104.213 1.46 1.16 1.556 2.363-.586 1.043-2.1.605-2.546-.277-1.465.227-2.867.52-4.245.833-.11.325.1 1.263-.145 1.81.926.625 1.29-.49 2.122-.42.48.503.495 2.374-.566 2.224-.603-.053-.673-.634-.707-1.25-.432.1-.515-.143-.85-.14-.646.383-.97 1.083-1.695 1.39.094 1.236 1.462.38 2.12.974-.057 1.01-.8 1.346-1.838 1.39-.066-.835.216-1.502-.707-1.944-.94.142-1.37.782-2.264.973-.014.43.174.663.283.97.248.17 1.165-.21 1.415.28-.01 1.074-1.473 1.827-2.264 1.25-.063-.617.382-.735.565-1.11-.268-.294-.406-.714-.565-1.113-.878.342-1.665.773-2.83.834.004.328-.243.41-.14.834-.056.518.68.26.706.696.24 1.26-1.776 1.455-2.12.555-.03-.86 1.034-.65.707-1.808-.713-.274-1.917-.063-2.55-.417-.374.14-.382.644-.706.835.066.4.5.436.426.974-.925.36-2.313.07-2.12-1.115.533-.615 1.49-.076 1.835-.973-.556-.656-1.165-1.263-1.412-2.223-2.124.463-3.843 1.322-5.8 1.946-.187.467-.196 1.107-.566 1.39-.59.148-.625.036-1.273 0-.56-.854-.258-2.7.85-2.78.61-.135.41.523.85.557 2.015-.472 3.78-1.195 5.8-1.667-.434-2.485 3.205-4.233-.85-3.893-.397-1.225.372-2.164 1.13-2.085 1.272.132.284 1.725 1.272 2.224.908-.498 1.543-1.263 2.69-1.53.08-.45-.097-.646-.143-.972-.09-.33-.87.02-.99-.28v-.97c.46-.426 1.662-.355 1.98.138.113.623-.25.773-.707.834.037.427.308.626.424.972.9-.37 2.268-.273 3.538-.277.2-.17.266-.48.28-.836.108-.52-.75-.094-.564-.693.157-1.48 2.126-.633 2.12.416zm1.132 6.256c.652-.378.368-1.677.424-2.64-1.742-1.426-2.885 2.7-.424 2.64zm-6.224 1.53c1.3.173 3.114-1.23 2.97-2.502-.14-1.227-2.55-2.332-3.96-1.67-1.815.858-.44 3.98.99 4.17z"/></svg>