<svg xmlns="http://www.w3.org/2000/svg" viewBox="0 0 32 32"><path fill="#FFF" d="M21.516 3H7.586C5.66 3 5 4.358 5 5.383v21.995c0 1.097.65 1.407.958 1.53.31.126 1.105.206 1.676-.36l6.72-7.455c.105-.12.49-.284.552-.284h4.184c1.79 0 1.81-1.45 1.997-2.206.157-.63 1.946-9.57 2.58-12.395.523-2.32-.104-3.21-2.15-3.21zM20.2 9.682c-.07.33-.368.66-.75.693h-5.44c-.61-.034-1.108.422-1.108 1.032v.665c0 .61.5 1.24 1.108 1.24h4.607c.43 0 .794.276.7.737-.093.46-.573 2.82-.627 3.07-.052.254-.282.764-.716.764h-3.62c-.682 0-1.36-.008-1.816.56-.458.573-4.534 5.293-4.534 5.293V6.403c0-.438.31-.746.715-.74h11.274c.41-.006.915.41.834 1L20.2 9.68z"/></svg>