<svg xmlns="http://www.w3.org/2000/svg" viewBox="0 0 32 32"><path fill="#FFF" d="M16 3.32c-7.182 0-13 5.82-13 13 0 5.754 3.72 10.612 8.89 12.335.65.114.893-.276.893-.617 0-.31-.016-1.333-.016-2.42-3.266.6-4.11-.797-4.37-1.53-.147-.373-.78-1.527-1.334-1.835-.455-.244-1.105-.845-.016-.86 1.024-.017 1.755.942 2 1.332 1.17 1.966 3.038 1.414 3.785 1.073.114-.845.455-1.414.83-1.74-2.893-.324-5.916-1.445-5.916-6.418 0-1.414.504-2.584 1.333-3.494-.13-.325-.59-1.657.13-3.445 0 0 1.085-.34 3.57 1.337 1.04-.293 2.146-.44 3.25-.44s2.21.147 3.25.44c2.49-1.69 3.58-1.337 3.58-1.337.714 1.79.26 3.12.13 3.446.828.91 1.332 2.064 1.332 3.494 0 4.99-3.04 6.094-5.93 6.42.47.405.876 1.185.876 2.404 0 1.74-.016 3.136-.016 3.575 0 .34.244.743.894.613C25.28 26.933 29 22.053 29 16.32c0-7.182-5.817-13-13-13z"/></svg>