<svg xmlns="http://www.w3.org/2000/svg" viewBox="0 0 32 32"><g fill="#FFF"><path d="M22.667 16.667a1.667 1.667 0 1 0 0-3.334 1.667 1.667 0 0 0 0 3.334zM22.333 18c-1.928 0-4 .946-4 2.117v1.217h8v-1.217c0-1.17-2.072-2.117-4-2.117zm-13-1.333a1.668 1.668 0 1 0-.002-3.336 1.668 1.668 0 0 0 .002 3.336zM9.667 18c-1.928 0-4 .946-4 2.117v1.217h8v-1.217c0-1.17-2.072-2.117-4-2.117z"/><path d="M15.335 15.333A2.332 2.332 0 1 0 13 13a2.333 2.333 0 0 0 2.335 2.333zm.332 1.334c-2.572 0-5.333 1.392-5.333 3.11v1.557H21v-1.556c0-1.72-2.762-3.11-5.333-3.11zm3 10.666h8v2h-8v-2z"/></g></svg>