<svg xmlns="http://www.w3.org/2000/svg" viewBox="0 0 32 32"><g fill="#FFF"><path d="M6.96 8.33h7.328c1.247 0 2.206.366 2.875 1.098.666.733 1.002 1.64 1.002 2.72 0 .91-.24 1.688-.715 2.336-.318.433-.784.773-1.396 1.023.928.266 1.614.72 2.05 1.367.44.645.66 1.457.66 2.432 0 .795-.157 1.512-.468 2.146-.314.635-.74 1.14-1.28 1.508-.337.23-.842.396-1.52.502-.9.14-1.498.21-1.79.21H6.958V8.328zm3.877 6.017h1.74c.623 0 1.058-.13 1.302-.382.24-.255.362-.623.362-1.104 0-.44-.123-.79-.366-1.043-.245-.25-.67-.377-1.276-.377h-1.766v2.91zm0 6.027h2.038c.69 0 1.176-.145 1.458-.434.282-.29.425-.68.425-1.168 0-.453-.142-.818-.42-1.092-.28-.277-.77-.414-1.47-.414h-2.03v3.108zM21.213 8.52h3.584v9.58h-3.584z"/><circle cx="23.005" cy="21.635" r="2.036"/></g></svg>