<svg xmlns="http://www.w3.org/2000/svg" viewBox="0 0 32 32"><g fill="#FFF"><path d="M16 6.162c3.204 0 3.584.012 4.85.07 1.17.053 1.804.25 2.227.413.56.218.96.478 1.38.898.42.42.68.82.898 1.38.164.423.36 1.058.413 2.228.058 1.27.07 1.65.07 4.85s-.012 3.587-.07 4.85c-.053 1.17-.25 1.807-.413 2.23-.218.56-.478.96-.898 1.38-.42.42-.82.68-1.38.898-.423.164-1.058.36-2.228.413-1.27.058-1.65.07-4.85.07s-3.587-.012-4.85-.07c-1.17-.053-1.807-.25-2.23-.413a3.724 3.724 0 0 1-1.38-.898c-.42-.42-.68-.82-.898-1.38-.164-.424-.36-1.06-.413-2.23-.058-1.265-.07-1.645-.07-4.85s.012-3.583.07-4.85c.053-1.17.25-1.803.413-2.226.218-.56.478-.96.898-1.38.42-.42.82-.68 1.38-.898.424-.164 1.06-.36 2.23-.413 1.265-.058 1.645-.07 4.85-.07M16 4c-3.26 0-3.668.014-4.948.072-1.277.058-2.15.26-2.913.558-.79.307-1.46.717-2.13 1.384S4.938 7.35 4.63 8.14c-.297.762-.5 1.635-.558 2.912C4.014 12.332 4 12.742 4 16s.014 3.668.072 4.948c.058 1.277.26 2.15.558 2.913a5.92 5.92 0 0 0 1.384 2.13 5.896 5.896 0 0 0 2.125 1.383c.76.298 1.632.5 2.91.56 1.28.057 1.69.07 4.95.07s3.665-.013 4.945-.07c1.277-.06 2.15-.26 2.913-.56a5.845 5.845 0 0 0 2.125-1.383 5.898 5.898 0 0 0 1.384-2.126c.296-.762.5-1.635.557-2.912.058-1.28.072-1.69.072-4.948s-.015-3.668-.073-4.948c-.058-1.277-.26-2.15-.558-2.913a5.877 5.877 0 0 0-1.385-2.125 5.886 5.886 0 0 0-2.125-1.384c-.76-.296-1.634-.5-2.91-.557C19.667 4.013 19.257 4 16 4z"/><path d="M16 9.838a6.163 6.163 0 0 0 0 12.324c3.402 0 6.162-2.76 6.162-6.162S19.402 9.838 16 9.838zM16 20c-2.21 0-4-1.79-4-4s1.79-4 4-4 4 1.79 4 4-1.79 4-4 4z"/><circle cx="22.406" cy="9.594" r="1.44"/></g></svg>