<svg xmlns="http://www.w3.org/2000/svg" viewBox="0 0 32 32"><path fill="#FFF" d="M16 3C8.82 3 3 8.82 3 16s5.82 13 13 13 13-5.82 13-13S23.18 3 16 3zm0 23.4c-5.743 0-10.4-4.656-10.4-10.4 0-5.744 4.657-10.4 10.4-10.4S26.4 10.256 26.4 16c0 5.744-4.657 10.4-10.4 10.4zm4.76-6.916c.084 1.105-.746 2.11-1.853 2.25-1.108.137-2.076-.646-2.158-1.752-.09-1.105.744-2.113 1.85-2.25.35-.043.687.004.986.127v-5.43l-5.2.963v6.783h-.012a.242.242 0 0 1 .007.054c.086 1.108-.744 2.113-1.85 2.25-1.11.138-2.075-.645-2.16-1.75-.084-1.106.746-2.114 1.854-2.25.35-.045.686.005.986.13v-7.82l7.545-1.29.007-.003h.004l-.003.035v9.894h-.01a.4.4 0 0 1 .01.054z"/></svg>