<svg xmlns="http://www.w3.org/2000/svg" viewBox="0 0 32 32"><g fill="#FFF"><path d="M16.38 2.65c-7.45 0-13.5 6.048-13.5 13.5s6.05 13.5 13.5 13.5 13.5-6.048 13.5-13.5-6.04-13.5-13.5-13.5zm.078 25.203c-6.387 0-11.57-5.184-11.57-11.57 0-6.388 5.183-11.572 11.57-11.572S28.03 9.898 28.03 16.28c0 6.39-5.176 11.573-11.572 11.573z"/><path d="M23.856 21.758c-.393 0-.694-.07-.903-.2-.154-.094-.4-.402-.74-.91l-3.934-5.964 3.3-3.2c.252-.248.46-.433.623-.54.162-.11.293-.178.41-.217.107-.03.307-.046.593-.046h.207v-.01l.555-.01V8.55h-.65v.01h-6.086v2.12h.548c.31 0 .494.023.57.077.078.054.117.13.117.23 0 .055-.024.11-.063.178-.04.07-.154.2-.34.4l-4.257 4.437v-4.08c0-.402.03-.68.1-.826a.698.698 0 0 1 .34-.34c.1-.053.363-.076.78-.076h.44V8.56H8.8v2.113h.563c.34 0 .58.04.71.116.132.073.225.19.286.343.06.154.082.455.082.91v8.37c0 .478-.022.78-.076.903a.615.615 0 0 1-.285.33c-.13.07-.394.108-.78.108h-.5v2.12h6.666v-2.12h-.556c-.363 0-.61-.03-.733-.093a.566.566 0 0 1-.278-.31c-.065-.144-.1-.407-.1-.785V19.02l2.065-2.012 2.4 3.84c.2.333.3.54.3.626 0 .077-.054.147-.162.2-.108.055-.417.078-.918.078h-.278v2.12h6.89v-2.12h-.24z"/></g></svg>