<svg xmlns="http://www.w3.org/2000/svg" viewBox="0 0 32 32"><path fill="#FFF" d="M28 14.304c0-5.37-5.384-9.738-12-9.738S4 8.936 4 14.304c0 4.814 4.27 8.846 10.035 9.608.39.084.923.258 1.058.592.122.303.08.778.04 1.084l-.172 1.028c-.05.303-.24 1.187 1.04.647s6.91-4.07 9.43-6.968c1.74-1.905 2.57-3.842 2.57-5.99zM11.302 17.5H8.918a.631.631 0 0 1-.63-.63V12.1a.63.63 0 0 1 1.26.002v4.14h1.754c.35 0 .63.28.63.628a.63.63 0 0 1-.63.63zm2.467-.63a.631.631 0 0 1-.63.628.629.629 0 0 1-.63-.63V12.1a.63.63 0 1 1 1.26 0v4.77zm5.74 0a.632.632 0 0 1-1.137.378l-2.443-3.33v2.95a.631.631 0 0 1-1.26 0V12.1a.634.634 0 0 1 .63-.63.63.63 0 0 1 .504.252l2.444 3.328V12.1a.63.63 0 0 1 1.26 0v4.77zm3.853-3.014a.63.63 0 1 1 0 1.258H21.61v1.126h1.755a.63.63 0 1 1 0 1.258H20.98a.63.63 0 0 1-.628-.63V12.1a.63.63 0 0 1 .63-.628h2.384a.63.63 0 0 1 0 1.258h-1.754v1.126h1.754z"/></svg>