<svg xmlns="http://www.w3.org/2000/svg" viewBox="0 0 32 32"><path fill="#FFF" d="M19.975 15.894c-.134-2.542-2.02-4.07-4.3-4.07h-.086c-2.63 0-4.09 2.068-4.09 4.417 0 2.635 1.763 4.298 4.075 4.298 2.58 0 4.275-1.89 4.4-4.127l-.003-.514zm-4.372-6.346c1.756 0 3.408.776 4.62 1.993v.008c0-.584.396-1.024.94-1.024h.14c.852 0 1.026.808 1.026 1.063v9.08c-.06.595.614.9.99.52 1.457-1.497 3.203-7.702-.907-11.295-3.83-3.35-8.967-2.8-11.7-.915-2.904 2-4.764 6.436-2.957 10.6 1.968 4.544 7.6 5.897 10.947 4.547 1.696-.683 2.48 1.608.72 2.356-2.66 1.132-10.065 1.02-13.524-4.972-2.34-4.046-2.214-11.163 3.986-14.85 4.74-2.822 10.99-2.042 14.762 1.895 3.936 4.116 3.704 11.82-.138 14.817-1.742 1.36-4.326.035-4.312-1.947l-.02-.65a6.456 6.456 0 0 1-4.58 1.906c-3.475 0-6.53-3.057-6.53-6.53 0-3.507 3.057-6.6 6.53-6.6"/></svg>