<svg xmlns="http://www.w3.org/2000/svg" viewBox="0 0 32 32"><path d="M27 12c0-5.12-3.35-6.62-3.35-6.62C22 4.56 19.05 4.23 16 4.21c-3 0-5.92.35-7.61 1.12C8.36 5.33 5 6.83 5 12v4c.12 5 .92 9.93 5.54 11.16a17.67 17.67 0 0 0 5.44.6 10.88 10.88 0 0 0 4.18-.95l-.09-1.95a13.36 13.36 0 0 1-4.07.54c-2.12-.07-4.37-.23-4.71-2.84a5.58 5.58 0 0 1-.05-.73 27.46 27.46 0 0 0 4.73.63 26.76 26.76 0 0 0 4.68-.28c3-.35 5.53-2.17 5.85-3.83A39.25 39.25 0 0 0 27 12zm-3.95 6.59h-2.46v-6c0-1.27-.53-1.91-1.6-1.91s-1.77.76-1.77 2.27v3.29h-2.44v-3.35c0-1.51-.59-2.27-1.77-2.27s-1.6.64-1.6 1.91v6H9v-6.18a4.49 4.49 0 0 1 1-3 3.39 3.39 0 0 1 2.63-1.12 3.17 3.17 0 0 1 2.84 1.44l.61 1 .61-1a3.17 3.17 0 0 1 2.84-1.44 3.39 3.39 0 0 1 2.63 1.12 4.49 4.49 0 0 1 1 3z" fill="#fff"/></svg>