<svg xmlns="http://www.w3.org/2000/svg" viewBox="0 0 32 32"><path fill="#FFF" d="M16.828 19.498l2.875-2.084a1.692 1.692 0 0 0 2.599-1.436 1.7 1.7 0 1 0-3.385.21l-2.095 1.516v-4.73l2.896-2.1a1.697 1.697 0 0 0 2.581-1.45 1.7 1.7 0 1 0-3.398 0c0 .08.006.16.018.235l-2.097 1.52V4h-1.656v3.79l-2.11-1.528c.02-.102.032-.205.032-.313 0-.94-.766-1.7-1.7-1.7-.94 0-1.7.76-1.7 1.7 0 .934.76 1.7 1.7 1.7.294 0 .57-.08.813-.21l2.962 2.14v4.73l-2.105-1.52c.017-.094.028-.19.028-.286a1.701 1.701 0 0 0-3.4 0 1.7 1.7 0 0 0 2.54 1.476l2.938 2.13v5.044L13.07 19.63a1.7 1.7 0 0 0-1.677-1.98c-.938 0-1.697.762-1.697 1.7a1.698 1.698 0 0 0 2.543 1.474l2.933 2.124V28h1.655v-1.665l2.87-2.077a1.699 1.699 0 1 0-.791-1.432c0 .067.003.134.01.2l-2.09 1.517v-5.045z"/></svg>