<svg xmlns="http://www.w3.org/2000/svg" viewBox="0 0 32 32"><g fill="#FFF"><path d="M23.78 7.35l-1.112 1.663A8.986 8.986 0 0 1 26 16c0 2.822-1.3 5.338-3.332 6.988l1.11 1.662A10.952 10.952 0 0 0 28 16c0-3.515-1.654-6.638-4.22-8.65z"/><path d="M21.55 10.687l-1.122 1.68a4.971 4.971 0 0 1 1.58 3.634 4.98 4.98 0 0 1-1.58 3.64l1.122 1.68A7.005 7.005 0 0 0 24 16c0-2.127-.952-4.03-2.45-5.313z"/><circle cx="19.79" cy="15.999" r="1"/><path d="M16 5c-1.177 0-1.533.684-1.533.684s-3.06 3.363-5.17 4.847c-.387.25-.813.47-1.567.47H6c-1.104 0-2 .9-2 2v6c0 1.107.896 2 2 2h1.73c.754 0 1.18.226 1.566.47 2.107 1.486 5.17 4.85 5.17 4.85S14.822 27 16 27a2 2 0 0 0 2-2V7a2 2 0 0 0-2-2z"/></g></svg>