<svg xmlns="http://www.w3.org/2000/svg" viewBox="0 0 32 32"><path d="M13.333 24.975l-4.605-7.01H7.3v9.502h1.4V20.46l4.603 7.007h1.435v-9.5h-1.405m10.534 1.193c-.837-.896-1.927-1.352-3.24-1.352-1.315 0-2.41.455-3.25 1.352-.84.896-1.265 2.092-1.265 3.557 0 1.46.426 2.655 1.265 3.552.84.9 1.935 1.352 3.25 1.352 1.313 0 2.403-.455 3.24-1.353.835-.895 1.258-2.09 1.258-3.556s-.423-2.66-1.258-3.555zm-.248 3.557c0 1.14-.288 2.04-.85 2.67-.557.624-1.283.94-2.158.94-.866 0-1.59-.317-2.148-.945-.564-.632-.85-1.528-.85-2.665 0-1.142.287-2.04.852-2.67.56-.624 1.29-.94 2.17-.94.862 0 1.58.316 2.136.94.56.63.843 1.528.843 2.67zM11.39 4.375c-1.315 0-2.41.455-3.25 1.352-.84.895-1.265 2.09-1.265 3.556 0 1.46.426 2.656 1.265 3.554.84.9 1.934 1.354 3.25 1.354 1.313 0 2.403-.45 3.24-1.35.835-.893 1.258-2.09 1.258-3.554s-.423-2.66-1.258-3.556c-.837-.898-1.927-1.353-3.24-1.353zm2.992 4.908c0 1.142-.284 2.04-.846 2.67-.557.624-1.283.94-2.158.94-.865 0-1.59-.317-2.148-.944-.563-.636-.85-1.53-.85-2.67s.287-2.038.852-2.668c.562-.626 1.293-.943 2.172-.943.862 0 1.58.317 2.136.942.56.63.842 1.53.842 2.67zm4.14 2.015l.59-.59 2.11 3.326h1.705l-2.838-4.31 2.65-2.636H20.9l-2.377 2.5V4.534h-1.43v9.5h1.43" fill="#FFF"/></svg>