<svg xmlns="http://www.w3.org/2000/svg" viewBox="0 0 32 32"><path fill="none" d="M31.873 8.063c.043 0 .084-.006.127-.006V0h-8.057c0 .043-.006.084-.006.127a7.935 7.935 0 0 0 7.936 7.936zM16 7.398A17.519 17.519 0 0 1 7.398 16 17.519 17.519 0 0 1 16 24.602 17.519 17.519 0 0 1 24.602 16 17.523 17.523 0 0 1 16 7.398zM.127 23.938c-.043 0-.084.005-.127.006V32h8.057c0-.043.006-.084.006-.127a7.935 7.935 0 0 0-7.936-7.935zm17.46 7.935c0 .043.003.084.003.127h3.176c0-.043-.004-.084-.004-.127 0-6.137 4.975-11.11 11.11-11.11.044 0 .085.002.128.003V17.59l-.127-.002c-7.89 0-14.286 6.395-14.286 14.285zM.127 14.413h.008C8.022 14.41 14.413 8.016 14.413.13c0-.043-.003-.084-.003-.127h-3.176c0 .044.003.085.003.128 0 6.14-4.974 11.11-11.11 11.11H0v3.176c.04 0 .078.004.118.004h.01zm0 3.175c-.043 0-.084.002-.127.003v3.18c.043 0 .084-.005.127-.005 6.137 0 11.11 4.975 11.11 11.11 0 .044-.003.085-.003.128h3.176c0-.042.003-.083.003-.126 0-7.89-6.396-14.285-14.286-14.285z"/><path fill="none" d="M23.938 31.873c0 .043.005.084.006.127H32v-8.057c-.043 0-.084-.006-.127-.006a7.934 7.934 0 0 0-7.935 7.936zm7.926-17.46h.018c.04 0 .08-.003.118-.003v-3.176c-.043 0-.084.003-.127.003-6.137 0-11.11-4.973-11.11-11.11 0-.043.002-.084.003-.127H17.59c0 .043-.003.084-.003.127 0 7.887 6.392 14.28 14.277 14.286zM8.062.127c0-.043-.006-.084-.006-.127H0v8.057c.043 0 .084.006.127.006A7.935 7.935 0 0 0 8.062.127z"/><path fill="#FFF" d="M14.41 32h.006c0-.043-.003-.084-.003-.127 0 .043-.003.084-.003.127z"/><path fill="#FFF" d="M14.413 31.873c0-2.596.57-5.057 1.587-7.27A17.52 17.52 0 0 0 7.398 16a17.391 17.391 0 0 1-7.27 1.587c-.044 0-.085-.003-.128-.003v.007h.127c7.89 0 14.286 6.396 14.286 14.286zM.127 20.763c-.043 0-.084.002-.127.003v3.178c.043 0 .084-.006.127-.006a7.936 7.936 0 0 1 7.936 7.935c0 .043-.006.084-.006.127h3.178c0-.043.003-.084.003-.127 0-6.137-4.974-11.11-11.11-11.11zM32 14.415v-.006h-.118c.04 0 .08.004.118.004zM16 7.398A17.519 17.519 0 0 0 24.602 16a17.383 17.383 0 0 1 7.263-1.587c-7.886-.005-14.277-6.4-14.277-14.286 0-.043.003-.084.003-.127h-.002c0 .043.003.084.003.127 0 2.596-.572 5.057-1.59 7.27zm15.873 3.84c.043 0 .084-.003.127-.004V8.057c-.043 0-.084.006-.127.006A7.934 7.934 0 0 1 23.938.127c0-.043.005-.084.006-.127h-3.178c0 .043-.004.084-.004.127 0 6.137 4.974 11.11 11.11 11.11z"/><path fill="#FFF" d="M17.587 31.873c0-7.89 6.396-14.285 14.286-14.285.043 0 .084.002.127.003v-3.17c-.04 0-.078-.003-.118-.003h-.018c-2.593 0-5.05.572-7.263 1.587a17.549 17.549 0 0 0-8.6 8.603 17.421 17.421 0 0 0-1.585 7.27c0 .044.003.085.003.128h3.174l-.002-.126z"/><path fill="#FFF" d="M20.762 31.873c0 .043.003.084.004.127h3.178c0-.043-.006-.084-.006-.127a7.934 7.934 0 0 1 7.935-7.935c.043 0 .084.005.127.006v-3.178c-.043 0-.084-.004-.127-.004-6.137 0-11.11 4.974-11.11 11.11zM7.398 16A17.523 17.523 0 0 0 16 7.398a17.385 17.385 0 0 0 1.587-7.27c0-.044-.003-.085-.003-.128H14.41c0 .043.003.084.003.127 0 7.887-6.392 14.28-14.278 14.286H.117c-.04 0-.078-.003-.117-.003v3.174c.043 0 .084.003.127.003 2.596 0 5.057-.57 7.27-1.587z"/><path fill="#FFF" d="M11.237.127c0-.043-.003-.084-.003-.127H8.057c0 .043.006.084.006.127A7.936 7.936 0 0 1 .127 8.063c-.043 0-.084-.006-.127-.006v3.178c.043 0 .084.003.127.003 6.137 0 11.11-4.974 11.11-11.11z"/></svg>