<svg xmlns="http://www.w3.org/2000/svg" viewBox="0 0 32 32"><g fill="#FFF"><path d="M19.52 8.29v5.5l1.92 1.208a.474.474 0 0 0 .212 0l8.27-5.574c0-.66-.613-1.134-.962-1.134h-9.44z"/><path d="M19.52 15.84l1.755 1.204c.246.183.543 0 .543 0-.297.183 8.104-5.397 8.104-5.397V21.75c0 1.102-.704 1.562-1.496 1.562H19.52V15.84zm-9.075-2.535c-.6 0-1.073.282-1.426.842-.357.56-.53 1.305-.53 2.23 0 .936.173 1.677.53 2.22.345.546.81.82 1.38.82.59 0 1.053-.266 1.4-.795.342-.53.515-1.266.515-2.206 0-.984-.17-1.744-.502-2.288-.333-.55-.79-.823-1.37-.823z"/><path d="M2.123 5.5v21.51l16.362 3.428V2.33L2.123 5.5zm10.95 14.387c-.693.91-1.594 1.367-2.706 1.367-1.082 0-1.967-.442-2.65-1.324-.68-.88-1.02-2.03-1.02-3.448 0-1.496.343-2.707 1.037-3.63.693-.926 1.614-1.388 2.754-1.388 1.08 0 1.955.438 2.62 1.324.667.885 1 2.05 1 3.495.004 1.496-.345 2.695-1.034 3.604z"/></g></svg>