<svg xmlns="http://www.w3.org/2000/svg" viewBox="0 0 32 32"><path fill="#FFF" d="M20.744 8.217c1.112 0 2.296.519 3.106 1.329l.185.185c1.361 1.361 1.402 4.432.042 5.792l-3.103 2.787L16 22.777l-4.974-4.467-3.103-2.787c-1.361-1.361-1.319-4.432.042-5.792l.185-.185c.81-.81 1.994-1.329 3.106-1.329.756 0 1.48.24 2.03.79L16 12.291l2.714-3.284c.55-.55 1.274-.79 2.03-.79m0-2.921c-1.58 0-3.035.585-4.096 1.646l-.098.098-.088.107-.462.558-.462-.559-.088-.106-.098-.098c-1.061-1.061-2.516-1.646-4.096-1.646-1.871 0-3.804.816-5.172 2.184l-.185.185c-2.515 2.515-2.535 7.43-.042 9.924l.055.055.058.052 3.103 2.787 4.974 4.467L16 26.704l1.952-1.753 4.974-4.467 3.103-2.787.058-.052.055-.055c2.494-2.494 2.473-7.409-.042-9.924l-.184-.186c-1.368-1.368-3.301-2.184-5.172-2.184z"/></svg>