<svg xmlns="http://www.w3.org/2000/svg" viewBox="0 0 32 32"><path fill="#FFF" d="M16.005 6.244c2.927 0 5.854-.002 8.782 0 1.396.002 2.195.78 2.188 2.165-.015 2.483.116 4.985-.11 7.454-.75 8.204-10.027 12.607-16.91 8.064-3.086-2.037-4.82-4.926-4.917-8.673-.06-2.34-.034-4.684-.018-7.025.008-1.214.812-1.98 2.056-1.983 2.975-.01 5.952-.005 8.93-.007zm-5.037 5.483c-.867.093-1.365.396-1.62 1.025-.27.67-.078 1.256.417 1.732a529.74 529.74 0 0 0 5.09 4.838c.745.695 1.537.687 2.278-.01a473.74 473.74 0 0 0 4.93-4.686c.827-.797.91-1.714.252-2.38-.694-.704-1.583-.647-2.447.17-1.097 1.04-2.215 2.06-3.266 3.143-.485.492-.77.432-1.227-.027a87.392 87.392 0 0 0-3.39-3.225c-.325-.29-.77-.448-1.017-.584z"/></svg>