<svg xmlns="http://www.w3.org/2000/svg" viewBox="0 0 32 32"><path fill="#FFF" d="M27.996 12.83l-7.423-.737c-.566-.053-.694-.142-.87-.604l-3.175-7.045c-.29-.598-.765-.598-1.055 0l-3.384 7.04c-.23.393-.34.48-.898.534l-7.187.807c-.66.064-.808.493-.327.952l5.64 5.184c.266.25.27.355.195.697l-1.447 7.61c-.124.65.247.915.82.58l6.44-3.715c.45-.284.87-.293 1.31-.018l6.47 3.734c.575.334.948.07.826-.58L22.83 21.2c.66-.226 1.305-.5 1.69-.81l-.156.03c-2.29.547-5.438.872-8.355.872-1.08 0-2.128-.038-3.13-.11l-.006.005a39.39 39.39 0 0 1-2.53-.26c-.3-.05.026-.242.026-.242l7.76-5.513s.202-.126.002-.153c-3.188-.5-6.723-.627-10.042-.627h-.23c2.246-.51 5.07-.815 8.14-.815 1.81 0 3.54.105 5.11.296-.002.003.888.124 1.31.193.33.05.024.24.024.24l-7.77 5.384s-.18.107.015.136c2.39.337 5.332.457 7.98.49l-.118-.65c-.06-.38 0-.51.284-.78l5.478-5.12c.485-.455.34-.88-.318-.945z"/></svg>