<svg xmlns="http://www.w3.org/2000/svg" viewBox="0 0 32 32"><path d="M16.65 11.186c-3.252-1.153-6.64-.972-9.263 1.434-2.76 2.53-3.165 7.208-1.02 10.172 1.948 2.695 6.138 3.82 9.284 3.58.79-.062 5.127-1.776 4.16-2.845-.172-.192-.41-.29-.452-.31a.839.839 0 0 0-.136-.038 5.2 5.2 0 0 0-.52-.078c-1.88-.21-3.746.424-5.64-.325-.826-.328-1.675-.668-2.208-1.41-.375-.524-1.086-2.715.16-2.31l7.453 2.404c1.705.55 2.792.626 3.288-1.404.978-3.978-1.35-7.545-5.1-8.875zm-.09 6.423c-.93.044-3.202-.94-3.617-1.078-1.11-.358-2.117-.922-.537-2.053 1.9-1.36 4.214.537 4.51 2.45.038.26-.1.664-.357.677zm4.77-10.64c-1.732.554-3.154 1.85-4.18 3.315-.01.012-.006.018-.012.03-.006.01-.018.02-.02.03-.664 2.168 4.32.844 5.263.54.75-.242 4.84-1.912 4.61-3.078-.36-1.837-4.383-1.247-5.66-.84zm-4.032 2.373C17.42 8.2 17.02 7.21 16.12 6.488c-.645-.518-2.716-1.49-3.358-.383-.317.55.01 1.31.195 1.862a4.572 4.572 0 0 0 1.137 1.835c.764.747 2.385.972 3.01.01.142-.218.186-.44.19-.448 0-.008.004-.013.004-.02z" fill="#FFF"/></svg>