<svg xmlns="http://www.w3.org/2000/svg" viewBox="0 0 32 32"><g fill="#FFF"><path d="M13.92 24.99c-4.303.424-8.02-1.52-8.3-4.346-.278-2.827 2.987-5.463 7.292-5.888 4.304-.426 8.018 1.52 8.297 4.345.274 2.83-2.987 5.468-7.29 5.89m8.61-9.38c-.367-.11-.62-.184-.428-.663.416-1.046.458-1.946.01-2.59-.846-1.204-3.155-1.14-5.8-.03 0-.004-.834.362-.62-.297.406-1.31.345-2.407-.29-3.04-1.435-1.437-5.255.055-8.53 3.33C4.422 14.77 3 17.37 3 19.617c0 4.3 5.513 6.913 10.907 6.913 7.07 0 11.776-4.105 11.776-7.37 0-1.97-1.66-3.09-3.15-3.55m4.693-7.87a6.89 6.89 0 0 0-6.55-2.12h-.002a.997.997 0 0 0-.765 1.182.99.99 0 0 0 1.18.765 4.91 4.91 0 0 1 4.66 1.508 4.899 4.899 0 0 1 1.02 4.787.995.995 0 1 0 1.894.615v-.004a6.883 6.883 0 0 0-1.44-6.732m-2.622 2.37a3.343 3.343 0 0 0-3.192-1.03.852.852 0 0 0-.655 1.016.854.854 0 0 0 1.016.657v.003a1.655 1.655 0 0 1 1.564.502c.406.453.514 1.066.338 1.606h.005a.858.858 0 1 0 1.63.528 3.345 3.345 0 0 0-.7-3.28"/><path d="M14.16 19.87c-.15.26-.484.383-.746.275-.256-.104-.335-.393-.19-.646.15-.255.47-.378.725-.276.26.094.35.386.21.644m-1.375 1.76c-.417.666-1.308.957-1.98.65-.66-.302-.855-1.072-.44-1.72.413-.645 1.274-.933 1.94-.653.673.287.888 1.054.48 1.724m1.564-4.7c-2.047-.533-4.364.49-5.254 2.293-.904 1.84-.028 3.884 2.04 4.552 2.144.69 4.67-.368 5.55-2.354.865-1.943-.216-3.943-2.336-4.49"/></g></svg>