<svg xmlns="http://www.w3.org/2000/svg" viewBox="0 0 32 32"><path d="M23.506 8.08c.645 0 1.3.073 1.967.225.547.12.937.285 1.173.495.236.21.354.5.354.868 0 .232-.043.414-.13.547-.086.13-.272.29-.56.48-.333.224-.524.49-.573.794-.05.3-.094 1.48-.134 3.54-.018 1.99-.033 3.183-.048 3.58-.015.4-.05.786-.107 1.16-.167 1.1-.504 1.96-1.01 2.583-.414.51-.946.912-1.596 1.205-.65.293-1.335.44-2.054.44-.64 0-1.278-.11-1.92-.326a5.407 5.407 0 0 1-1.67-.902c-.39-.315-.7-.74-.93-1.278a4.326 4.326 0 0 1-.347-1.72c0-.75.186-1.37.548-1.863.362-.49.816-.738 1.363-.738.535 0 .99.207 1.363.62.375.42.56.938.56 1.555 0 .155-.033.42-.102.787-.01.075-.017.157-.017.247 0 .24.066.437.2.587.13.15.307.227.524.227.386 0 .696-.226.933-.677.233-.45.35-1.043.35-1.78l-.01-1.024-.016-2.76c-.052-1.676-.09-2.662-.116-2.96-.027-.296-.09-.538-.195-.725-.086-.15-.162-.247-.23-.29-.065-.047-.245-.118-.538-.216-.138-.038-.256-.144-.353-.315a1.114 1.114 0 0 1-.147-.555c0-.405.122-.73.366-.975.247-.242.646-.44 1.198-.59.62-.17 1.254-.25 1.91-.25zM10.202 8c.593 0 1.37.19 2.33.574a.785.785 0 0 0 .275.068c.058 0 .23-.068.518-.203.093-.05.19-.07.294-.07.38 0 .79.4 1.22 1.193.43.797.64 1.555.64 2.275 0 .42-.097.775-.29 1.065-.19.288-.426.434-.7.434-.23 0-.418-.06-.56-.18-.146-.12-.46-.48-.95-1.07-.69-.843-1.37-1.264-2.037-1.264-.322 0-.58.102-.772.305-.19.204-.29.47-.29.8 0 .654.44 1.147 1.32 1.477 1.193.46 1.955.793 2.288 1.003 1.466.934 2.2 2.305 2.2 4.114 0 1.6-.5 2.907-1.5 3.922C13.162 23.48 11.825 24 10.175 24a8.64 8.64 0 0 1-2.33-.344c-.816-.23-1.406-.497-1.77-.805-.274-.24-.523-.762-.745-1.57a8.972 8.972 0 0 1-.33-2.36c0-.368.06-.647.174-.834.143-.24.324-.36.543-.36.22 0 .43.146.63.438.12.165.405.695.855 1.59.215.42.553.768 1.016 1.048.463.28.94.418 1.437.418.426 0 .77-.104 1.035-.31a.964.964 0 0 0 .396-.794c0-.3-.103-.56-.31-.777-.208-.22-.544-.423-1.01-.61-.823-.338-1.45-.65-1.88-.93a5.844 5.844 0 0 1-1.21-1.064c-.908-1.053-1.362-2.246-1.362-3.583 0-.66.12-1.305.355-1.932s.57-1.17 1-1.627C7.63 8.53 8.81 8 10.2 8z" fill="#FFF"/></svg>