<svg xmlns="http://www.w3.org/2000/svg" viewBox="0 0 32 32"><path fill="#FFF" d="M27.15 18c-.007.04-.012.084-.02.126l-.04-.24.06.113c.124-.678.19-1.37.19-2.06 0-1.53-.3-3.013-.892-4.41a11.273 11.273 0 0 0-2.43-3.602 11.288 11.288 0 0 0-8.012-3.32c-.72 0-1.443.068-2.146.203h-.005c.04.023.08.04.118.063l-.238-.037c.04-.01.08-.018.12-.026a6.717 6.717 0 0 0-3.146-.787 6.67 6.67 0 0 0-4.748 1.965A6.7 6.7 0 0 0 4 10.738c0 1.14.293 2.262.844 3.253.007-.04.012-.08.02-.12l.04.238-.06-.114c-.112.643-.17 1.3-.17 1.954a11.285 11.285 0 0 0 3.32 8.012c1.04 1.04 2.25 1.86 3.602 2.43 1.397.592 2.882.89 4.412.89.666 0 1.334-.06 1.985-.175-.038-.02-.077-.04-.116-.063l.242.04c-.046.01-.088.015-.13.02a6.68 6.68 0 0 0 3.3.87 6.661 6.661 0 0 0 4.743-1.963A6.666 6.666 0 0 0 28 21.26c0-1.145-.295-2.27-.85-3.264zm-11.098 4.885c-4.027 0-5.828-1.98-5.828-3.463 0-.76.562-1.294 1.336-1.294 1.723 0 1.277 2.474 4.49 2.474 1.647 0 2.556-.893 2.556-1.808 0-.55-.27-1.16-1.355-1.426l-3.58-.895c-2.88-.723-3.405-2.282-3.405-3.748 0-3.043 2.865-4.186 5.556-4.186 2.478 0 5.4 1.37 5.4 3.192 0 .783-.677 1.237-1.45 1.237-1.472 0-1.2-2.035-4.163-2.035-1.47 0-2.285.666-2.285 1.618 0 .95 1.16 1.254 2.17 1.484l2.65.587c2.905.647 3.64 2.342 3.64 3.94 0 2.47-1.895 4.318-5.726 4.318z"/></svg>