<svg xmlns="http://www.w3.org/2000/svg" viewBox="0 0 32 32"><path fill="#FFF" d="M26.177 20.978c-2.867-.473-4.157-3.414-4.21-3.54l-.01-.02c-.153-.31-.187-.57-.1-.772.164-.39.774-.583 1.177-.71.113-.037.22-.07.306-.105.715-.28 1.073-.625 1.066-1.03-.006-.312-.252-.593-.642-.732a1.168 1.168 0 0 0-.44-.084.975.975 0 0 0-.405.083c-.34.16-.65.246-.91.258a.789.789 0 0 1-.357-.087l.027-.45.005-.062c.09-1.432.203-3.215-.266-4.264C20.03 6.34 17.073 6.1 16.2 6.1h-.052l-.363.003c-.87 0-3.818.243-5.208 3.36-.47 1.05-.357 2.833-.268 4.264l.03.513a.83.83 0 0 1-.41.09c-.276 0-.6-.087-.97-.26a.795.795 0 0 0-.335-.067c-.43 0-.946.282-1.026.704-.06.305.077.748 1.054 1.134.087.036.193.07.305.105.403.128 1.012.322 1.18.71.084.203.05.463-.103.773l-.01.022c-.054.125-1.344 3.068-4.21 3.54a.437.437 0 0 0-.366.455.6.6 0 0 0 .048.196c.216.504 1.123.87 2.775 1.13.055.075.113.34.148.5.036.16.07.32.12.494.05.17.18.374.514.374.133 0 .292-.03.475-.067.275-.053.652-.127 1.124-.127.26 0 .532.022.805.067.532.09.985.41 1.51.78.75.53 1.6 1.132 2.894 1.132.034 0 .07 0 .105-.005.04.002.095.004.153.004 1.29 0 2.142-.6 2.892-1.132.526-.37.978-.69 1.51-.78.274-.045.545-.068.807-.068.45 0 .805.056 1.123.12.2.037.36.057.476.057h.024c.246 0 .42-.13.488-.365.05-.17.086-.327.12-.49.037-.16.094-.422.15-.496 1.65-.256 2.56-.624 2.773-1.125a.568.568 0 0 0 .047-.196.433.433 0 0 0-.363-.458z"/></svg>