<svg xmlns="http://www.w3.org/2000/svg" viewBox="0 0 32 32"><g fill="#FFF"><path d="M11.328 14.309l-1.793-.736c-1.303-.536-1.955-1.244-1.955-2.123 0-.637.249-1.166.746-1.587.498-.427 1.123-.642 1.878-.642.614 0 1.115.125 1.504.373.373.218.766.684 1.178 1.399l2.204-1.306c-1.166-2.024-2.788-3.037-4.863-3.037-1.539 0-2.828.459-3.866 1.376-1.039.909-1.559 2.039-1.559 3.391 0 2.005 1.232 3.528 3.698 4.569l1.738.722c.451.194.84.399 1.167.612.326.214.593.443.799.687.206.245.358.513.455.805.097.291.146.612.146.961 0 .871-.28 1.59-.84 2.156-.56.568-1.263.851-2.111.851-1.073 0-1.889-.389-2.449-1.166-.311-.405-.529-1.135-.653-2.193L4 20.028c.249 1.679.875 2.986 1.878 3.92 1.018.936 2.309 1.403 3.872 1.403 1.648 0 3.028-.544 4.139-1.634 1.102-1.082 1.653-2.451 1.653-4.109 0-1.237-.338-2.281-1.012-3.134-.676-.852-1.743-1.573-3.202-2.165zM28 7.023H17.037v2.571h4.14v15.425h2.695V9.594H28z"/></g></svg>