<svg xmlns="http://www.w3.org/2000/svg" viewBox="0 0 32 32"><g fill="#FFF"><path d="M19.1 6.875s-.13.717-.293.912c-.163.197-.62.166-1.045 0-.427-.162-.85-.195-1.274-.03-.426.162-.785.134-.718-.357.064-.492.326-.983.686-1.016.36-.03 1.11-.163 1.207-.36.1-.194-.07-.456-.23-.718-.16-.26-.455-.652-.585-.555-.13.1-.49-.13-.62.266s-.85 1.403-1.372 1.958c-.523.558-1.21 1.603-.85 2.254.36.654.947.688 1.732.688h1.165s.273.23.238.523c-.03.292.267 2.71.267 3.526s-.033.85.195.85h.39s-.16.652-.652 2.284c-.488 1.633-.88 2.875-1.143 3.202-.26.325-.424.587-.424 1.01 0 .427-.13 1.08-.325 1.44-.196.358-.262.88-.523 1.144-.26.262-.26.328-.356.72-.1.392-.527.882-.656 1.075-.127.2-1.817 1.488-1.915 1.85-.1.358 1.576.53 2.31.44.88-.11 1.134-.01 1.387-.436.274-.46.877-1.508 1.193-2.307.18-.457-.1-.816.294-1.34.39-.522 1.01-1.403 1.434-1.895.425-.49.425-1.075.784-1.796.36-.716.785-1.565 1.11-1.5.327.065.75.456 1.34 1.076.588.62.523.946.62 1.533.1.588.228 1.34.523 1.863.295.524.458 1.014.52 1.47.068.458-.096.88 0 1.405.1.52.56.947.82 1.37.26.425 1.273.394 2.122.425.85.035 1.635.167 1.404-.226-.23-.393-1.044-.917-1.274-1.046-.23-.132-.36-.132-.554-.818-.197-.685-.85-3.722-1.047-4.8-.195-1.078-.65-2.385-1.046-3.104-.39-.716-1.6-2.872-1.6-2.872l-.1-.293h.392s-.163-.69-.262-.85c-.098-.165-.49-1.44-.556-2.09-.065-.655-.197-1.08.13-1.046.326.03 1.567 0 2.32-.197.75-.195.685-.262.716-.88.033-.622 0-1.798-.03-2.58-.034-.784-.296-1.015-.49-1.11-.195-.1-.817.13-.914.326-.1.193-.49.488-.13.75.358.26.424.393.62.457.196.066.196.196.196.36 0 .163.13.913-.196 1.044-.323.134-1.273.036-1.663-.062-.395-.097-1.177-.815-1.503-.782-.325.032-.62-.295-.653-.72-.03-.425.59-.162.686-.815.1-.65.59-2.102-.814-2.45-.785-.19-1.374.426-1.57 1.373-.15.698-.003 1.007.586 1.465z"/><path d="M15.687 6.736c-.183.46-1.135 2.4-1.135 2.4s-1.28-.712-3.423-.712c-1.88 0-3.005.924-3.328 1.962-.176.562-.552 2.19 1.475 3.18 1.415.69 3.286 1.465 4.752 2.45 1.905 1.276 2.81 3.327 2.453 5.87-.41 2.92-2.443 5.56-5.472 5.822-2.402.208-6-.536-6.91-1.314.276-.816.56-1.975.78-2.634 1.006.493 2.72.936 4.185 1.11 2.756.326 4.15-.908 4.552-2.44.284-1.087.332-2.204-.12-3.013-1.093-1.96-3.375-2.244-5.392-3.24-3.016-1.492-3.69-3.54-3.308-5.774.44-2.546 1.92-3.803 4.183-4.356 2.128-.52 4.59-.305 6.703.69z"/></g></svg>