<svg xmlns="http://www.w3.org/2000/svg" viewBox="0 0 32 32"><g fill="#FFF"><path d="M19.865 10.524c.31.16.48.29.48.29l.04-.02c.2-4.96-2.933-7.41-2.933-7.41-.688.87-1.147 2.21-1.387 3.04.26.11.51.24.76.38 2.13 1.19 2.83 2.92 3.04 3.72zm0 0c-.22-.8-.91-2.53-3.04-3.73-.25-.14-.5-.26-.76-.38-2.27-.99-4.73-.96-4.73-.96s0 2.92 3.08 4.95c.48-.17 1-.31 1.57-.42 1.81-.32 3.19.19 3.88.54zm-9.07 2.72c-.93 1.82 2.15 6.7 4.75 9.37 1.29 1.33 1.93 2.48 2.19 3.052 2.1.5 3.28-.29 3.42-.4l.07-.12c.93-1.94-1.46-4.818-3.19-7.068-2.14-2.78-2.7-4.832-2.7-4.832l-.01-.01c-3.5-1.582-4.53.008-4.53.008z"/><path d="M21.176 25.274c-.15.11-1.32.9-3.42.4-1.1-.26-2.47-.88-4.07-2.15-2.31-1.818-4.03-3.43-5.2-5.53-.3-.528-.98-.568-1.37.2-.6 1.19-.67 4.5.7 6.44 0 0-.38 1.28.62 2.37.67.73 2.22 1.06 3.06.76l.17-.07s1.73 1.302 4.37.813c2.64-.49 4.33-1.73 5.18-3.24l-.04.007zm3.01-11.4s.38-1.28-.62-2.37c-.67-.73-2.22-1.06-3.06-.76l-.12.05-.04.02s-.17-.13-.48-.28c-.69-.36-2.07-.87-3.89-.53-.57.102-1.09.25-1.57.42-1.68.59-2.83 1.542-3.51 2.66l-.1.17s1.02-1.59 4.53-.01c.84.382 1.83.94 2.978 1.75 2.41 1.692 4.03 3.432 5.2 5.53.3.53.98.57 1.37-.198.612-1.2.682-4.512-.69-6.45z"/></g></svg>