<svg xmlns="http://www.w3.org/2000/svg" viewBox="0 0 32 32"><path fill="#FFF" d="M27.074 18.342a4.149 4.149 0 0 1-4.142 4.156 4.15 4.15 0 0 1-4.143-4.156 4.146 4.146 0 0 1 4.14-4.155c.98 0 1.88.344 2.59.915l.373.34a4.147 4.147 0 0 1 1.178 2.9m-13.834 0a4.156 4.156 0 1 1-8.311 0 4.156 4.156 0 0 1 8.311 0m14.76 0a5.079 5.079 0 0 0-2.26-4.23l-5.912-5.38c-.142-.13-.4-.1-.58.065-.183.164-.214.4-.074.53l4.366 3.972c-.2-.028-.4-.04-.607-.04-2.8-.005-5.07 2.272-5.07 5.08 0 .103.01.205.015.31a2.75 2.75 0 0 0-3.726-.002c.006-.104.016-.205.016-.31a5.084 5.084 0 0 0-5.084-5.083c-.238 0-.47.023-.698.054l4.465-4.064c.14-.128.11-.366-.07-.53-.183-.165-.44-.193-.583-.065l-6.284 5.72c-.17.135-.33.28-.48.436l-.03.03.002.002a5.082 5.082 0 1 0 8.557 4.937 2.76 2.76 0 0 1 4.11 0 5.07 5.07 0 0 0 4.86 3.65c2.8 0 5.068-2.276 5.068-5.084"/></svg>