<svg xmlns="http://www.w3.org/2000/svg" viewBox="0 0 32 32"><path fill="#FFF" d="M5 22.92a2.507 2.507 0 0 0 2.504 2.504H25.61V24.31h-1.16v-2.782h1.16v-.486H27V19.93h-.834v-2.782H27v-1.112h-.904v-.952l-1.374-2.573h1.444v-1.494l-3.63-4.438H9.726L6.42 11.782a2.494 2.494 0 0 0-.933 1.936 2.503 2.503 0 0 0 2.478 2.5A2.508 2.508 0 0 0 6.39 18.54c0 .764.352 1.44.893 1.9A2.493 2.493 0 0 0 5 22.92zm1.6-9.203c0-.52.288-.967.71-1.206h16.584v2.6H7.99c-.766 0-1.39-.624-1.39-1.39zm2.294 3.43h16.16v2.78H8.894a1.39 1.39 0 1 1 0-2.78zm-1.39 4.38h15.833v2.783H7.504a1.393 1.393 0 0 1-1.392-1.39c0-.768.624-1.392 1.392-1.392z"/></svg>