<svg xmlns="http://www.w3.org/2000/svg" viewBox="0 0 32 32"><g fill="#FFF"><path d="M11.4 25.941a1.734 1.734 0 1 1-3.467 0 1.734 1.734 0 0 1 3.467 0M24.067 25.941a1.734 1.734 0 1 1-3.467 0 1.734 1.734 0 0 1 3.467 0M17.733 25.941a1.734 1.734 0 1 1-3.467 0 1.734 1.734 0 0 1 3.467 0"/><g><path d="M16.082 8.716h-.262c-.886 0-1.507.682-1.507 1.568v2.015h3.372v-2.015c.001-.886-.718-1.568-1.603-1.568z"/><path d="M16 4.325c-6.075 0-11 3.752-11 8.381 0 1.924.851 3.697 2.283 5.111.49.484.607 1.231.283 1.839l-1.479 2.776 4.39-1.384a6.183 6.183 0 0 1 1.863-.284c.383 0 .766.034 1.145.102.807.144 1.649.22 2.514.22 6.075 0 11-3.752 11-8.381S22.075 4.325 16 4.325zm3.793 12.432c0 .368-.409.6-.777.6H12.85c-.368 0-.643-.231-.643-.6v-3.733c0-.368.275-.725.643-.725h.2v-2.015c0-1.585 1.187-2.832 2.771-2.832h.262c1.583 0 2.868 1.247 2.868 2.832v2.015h.066c.368 0 .777.357.777.725v3.733z"/></g></g></svg>