<svg xmlns="http://www.w3.org/2000/svg" viewBox="0 0 32 32"><path d="M13.907 19.803l-2.463 5.062a1.836 1.836 0 0 1-2.463.847 1.844 1.844 0 0 1-.844-2.465l2.46-5.062a1.844 1.844 0 0 1 3.314 1.618zm-.053-7.497a2.394 2.394 0 0 1-1.682.698 2.383 2.383 0 0 1-2.378-2.378c0-.626.255-1.236.7-1.68.885-.888 2.48-.888 3.36 0 .442.444.696 1.054.696 1.68 0 .626-.254 1.235-.696 1.68zm9.834 7.17a16.055 16.055 0 0 1-2.445 5.73 1.81 1.81 0 0 1-2.522.478 1.815 1.815 0 0 1-.473-2.52 12.532 12.532 0 0 0 1.896-4.448c.38-1.775.38-3.654 0-5.432a12.506 12.506 0 0 0-1.895-4.445 1.82 1.82 0 0 1 .48-2.527 1.815 1.815 0 0 1 2.522.48c1.177 1.727 2 3.655 2.442 5.73a16.68 16.68 0 0 1-.002 6.95z" fill="#FFF"/></svg>