<svg xmlns="http://www.w3.org/2000/svg" viewBox="0 0 32 32"><g fill="#FFF"><path d="M15.107 4s2.838 1.88 3.326 7.05c0 0 .957 12.423-5.47 14.858 0 0 .577.106 1.224.076 0 0 7.947-5.012 4.3-14.742 0 0-1.09-3.396-3.38-7.242zm4.15 8.483s-1.48-2.29.397-4.18c0 0 .658-.725 2.537-1.202 0 0 1.88-.4 2.897-2.553 0 0 2.105 2.94.81 6.807 0 0-.64 1.742-1.976 2.538-1.01.6-2.535.788-4.133-.776 0 0 4.83-2.644 5.01-4.884 0 0-1.483 3.334-5.54 4.256z"/><path d="M19.256 12.483s-1.48-2.29.398-4.18c0 0 .658-.725 2.537-1.202 0 0 1.88-.4 2.897-2.553 0 0 2.105 2.94.81 6.807 0 0-.64 1.742-1.976 2.538-1.01.6-2.535.788-4.133-.776 0 0 4.83-2.644 5.01-4.884 0 0-1.483 3.334-5.54 4.256zm1.23 6.95c0 1.19-.283 2.3-.85 3.33-.57 1.03-1.34 1.825-2.306 2.384-.967.56-2.03.84-3.186.84-1.156 0-2.22-.28-3.186-.84-.97-.56-1.736-1.354-2.305-2.383a6.787 6.787 0 0 1-.853-3.33c0-1.847.625-3.42 1.87-4.723 1.247-1.3 2.74-1.95 4.474-1.95.824 0 1.596.15 2.313.45.072-.754.336-1.456.63-2.03a8.578 8.578 0 0 0-2.936-.49c-2.504 0-4.58.92-6.22 2.77-1.495 1.675-2.24 3.65-2.24 5.933 0 2.3.79 4.31 2.366 6.03C9.63 27.14 11.666 28 14.15 28c2.48 0 4.508-.86 6.086-2.58 1.578-1.72 2.367-3.73 2.367-6.03 0-1.233-.22-2.374-.65-3.427a6.21 6.21 0 0 1-1.982.797c.347.816.52 1.707.52 2.674z"/></g></svg>