<svg xmlns="http://www.w3.org/2000/svg" viewBox="0 0 32 32"><title>viber</title><path d="M22.57,27.22a7.39,7.39,0,0,1-1.14-.32,29,29,0,0,1-16-16.12c-1-2.55,0-4.7,2.66-5.58a2,2,0,0,1,1.39,0c1.12.41,3.94,4.3,4,5.46a2,2,0,0,1-1.16,1.78,2,2,0,0,0-.66,2.84A10.3,10.3,0,0,0,17,20.55,1.67,1.67,0,0,0,19.35,20c1.07-1.62,2.38-1.54,3.82-.54.72.51,1.45,1,2.14,1.55.93.75,2.1,1.37,1.55,2.94A5.21,5.21,0,0,1,22.57,27.22Z" fill="#fff" fill-rule="evenodd"/><path d="M17.06,4.79A10.42,10.42,0,0,1,26.79,15c0,.51.18,1.27-.58,1.25s-.54-.78-.6-1.29c-.7-5.52-3.23-8.13-8.71-9-.45-.07-1.15,0-1.11-.57C15.84,4.52,16.66,4.85,17.06,4.79Z" fill="#fff" fill-rule="evenodd"/><path d="M24.09,14.06c-.05.38.17,1-.45,1.13-.83.13-.67-.64-.75-1.13-.56-3.36-1.74-4.59-5.12-5.35-.5-.11-1.27,0-1.15-.8s.82-.48,1.35-.42A6.9,6.9,0,0,1,24.09,14.06Z" fill="#fff" fill-rule="evenodd"/><path d="M21.52,13.45c0,.43,0,.87-.53.93s-.6-.26-.64-.64a2.47,2.47,0,0,0-2.26-2.43c-.42-.07-.82-.2-.63-.76.13-.38.47-.41.83-.42A3.66,3.66,0,0,1,21.52,13.45Z" fill="#fff" fill-rule="evenodd"/></svg>