<svg xmlns="http://www.w3.org/2000/svg" viewBox="0 0 32 32"><path fill="#FFF" d="M26.926 10.627c-.103 2.25-1.675 5.332-4.716 9.245C19.066 23.957 16.406 26 14.23 26c-1.348 0-2.49-1.244-3.42-3.732l-1.867-6.844C8.25 12.937 7.51 11.69 6.715 11.69c-.173 0-.778.365-1.815 1.09l-1.088-1.4a300.012 300.012 0 0 0 3.374-3.01c1.522-1.315 2.666-2.007 3.427-2.076 1.8-.173 2.907 1.057 3.322 3.69.45 2.84.76 4.608.935 5.3.52 2.356 1.09 3.534 1.713 3.534.483 0 1.21-.764 2.18-2.294.97-1.528 1.488-2.692 1.558-3.49.14-1.32-.38-1.98-1.553-1.98-.554 0-1.125.126-1.712.378 1.137-3.722 3.308-5.53 6.513-5.426 2.378.068 3.498 1.61 3.36 4.62z"/></svg>