<svg xmlns="http://www.w3.org/2000/svg" viewBox="0 0 32 32"><g fill="#FFF"><path d="M20.674 12.458c-2.228.116-4.165.792-5.738 2.318-1.59 1.542-2.315 3.43-2.116 5.772-.87-.108-1.664-.227-2.462-.294-.276-.023-.602.01-.836.14-.774.438-1.517.932-2.397 1.482.16-.73.266-1.37.45-1.985.137-.45.074-.7-.342-.994-2.673-1.89-3.803-4.714-2.958-7.624.78-2.69 2.697-4.323 5.302-5.173 3.555-1.16 7.55.022 9.712 2.845a6.632 6.632 0 0 1 1.38 3.516zm-10.253-.906c.025-.532-.44-1.01-.984-1.027a.997.997 0 0 0-1.038.964.984.984 0 0 0 .977 1.02 1.017 1.017 0 0 0 1.05-.96zm5.35-1.028c-.55.01-1.01.478-1 1.012.01.554.466.987 1.03.98a.982.982 0 0 0 .99-1.01.992.992 0 0 0-1.02-.982z"/><path d="M25.68 26.347c-.705-.314-1.352-.785-2.042-.857-.686-.072-1.408.324-2.126.398-2.187.224-4.147-.386-5.762-1.88-3.073-2.842-2.634-7.2.92-9.53 3.16-2.07 7.795-1.38 10.022 1.493 1.944 2.51 1.716 5.837-.658 7.94-.687.61-.934 1.11-.493 1.917.086.148.095.336.14.523zm-8.03-7.775c.448 0 .818-.35.835-.795a.835.835 0 0 0-.83-.865.845.845 0 0 0-.84.86c.016.442.388.8.834.8zm5.176-1.658a.83.83 0 0 0-.824.794c-.02.47.347.858.813.86.45 0 .807-.34.823-.79a.825.825 0 0 0-.812-.864z"/></g></svg>