<svg xmlns="http://www.w3.org/2000/svg" viewBox="0 0 32 32"><g fill="#FFF"><path d="M20.777 13.256a4.777 4.777 0 0 0-4.786-4.77c-1.74 0-3.26.926-4.1 2.312a4.787 4.787 0 0 0-4.1-2.313c-2.647 0-4.79 2.137-4.79 4.77 0 1.372.58 2.607 1.51 3.477l6.852 6.535a.685.685 0 0 0 1.022.032l6.886-6.57h-.002a4.747 4.747 0 0 0 1.51-3.477"/><path d="M29 13.256c0-2.635-2.143-4.77-4.786-4.77-1.363 0-2.592.57-3.464 1.48.592.895.938 1.963.938 3.115 0 1.636-.69 3.107-1.798 4.14h.002l-3.324 3.17 3.016 2.88a.677.677 0 0 0 1.018.032l6.885-6.567a4.744 4.744 0 0 0 1.51-3.476z"/></g></svg>