<svg xmlns="http://www.w3.org/2000/svg" viewBox="0 0 32 32"><g fill="#FFF"><path d="M3.176 16c0 5.076 2.95 9.462 7.226 11.54L4.287 10.78A12.77 12.77 0 0 0 3.177 16zm21.48-.646c0-1.586-.57-2.684-1.06-3.537-.647-1.058-1.26-1.95-1.26-3.008 0-1.18.897-2.28 2.156-2.28.057 0 .11.01.166.01A12.772 12.772 0 0 0 16 3.172c-4.48 0-8.422 2.3-10.715 5.78.302.01.585.017.826.017 1.345 0 3.42-.163 3.42-.163.69-.042.774.974.084 1.056 0 0-.694.08-1.466.12l4.668 13.892 2.808-8.417-1.998-5.476c-.69-.04-1.345-.12-1.345-.12-.69-.04-.61-1.1.08-1.058 0 0 2.117.164 3.38.164 1.34 0 3.417-.163 3.417-.163.69-.04.77.976.08 1.058 0 0-.694.08-1.467.12l4.633 13.785 1.28-4.272c.552-1.773.975-3.048.975-4.144zm-8.43 1.766l-3.85 11.18c1.15.34 2.365.523 3.624.523 1.492 0 2.925-.26 4.26-.728a1.235 1.235 0 0 1-.093-.177L16.225 17.12zM27.25 9.848c.055.408.086.848.086 1.318 0 1.3-.242 2.764-.975 4.594l-3.914 11.324C26.26 24.86 28.822 20.73 28.822 16c0-2.23-.568-4.326-1.57-6.152z"/><path d="M16 1.052C7.757 1.052 1.052 7.757 1.052 16c0 8.242 6.705 14.948 14.948 14.948 8.242 0 14.948-6.706 14.948-14.95 0-8.24-6.706-14.946-14.948-14.946zm0 29.212c-7.865 0-14.264-6.4-14.264-14.265S8.136 1.732 16 1.732c7.863 0 14.264 6.398 14.264 14.263 0 7.863-6.4 14.264-14.264 14.264z"/></g></svg>