<svg xmlns="http://www.w3.org/2000/svg" viewBox="0 0 32 32"><path d="M7.647 8.74c-.208 0-.384.072-.473.216-.09.147-.075.338.02.53l2.342 4.053c.003.004.003.01 0 .02l-3.68 6.49c-.095.19-.09.38 0 .53.09.14.245.23.454.23h3.46c.52 0 .768-.347.945-.667l3.736-6.607-2.38-4.15c-.17-.308-.43-.65-.96-.65H7.65zM22.187 4c-.516 0-.74.325-.926.66l-7.7 13.657 4.92 9.023c.17.307.437.66.967.66h3.458c.208 0 .37-.08.46-.222.092-.148.09-.344-.008-.535l-4.88-8.915c-.005-.007-.005-.017 0-.023l7.665-13.55c.096-.19.097-.387.006-.535-.088-.142-.25-.22-.46-.22H22.19z" fill="#FFF"/></svg>