<svg xmlns="http://www.w3.org/2000/svg" viewBox="0 0 32 32"><path fill="#FFF" d="M16 4C9.37 4 4 9.373 4 16c0 6.628 5.372 12 12 12 6.626 0 12-5.372 12-12 0-6.627-5.374-12-12-12zm5.81 7.1c-.128.275-.346.655-.655 1.14l-3.694 5.942v4.908c0 .64-.14 1.118-.42 1.436a1.38 1.38 0 0 1-1.08.474c-.44 0-.8-.157-1.075-.47-.274-.313-.412-.794-.412-1.44v-4.91l-3.603-5.855c-.316-.528-.54-.94-.67-1.235-.13-.295-.197-.553-.197-.77 0-.36.133-.67.398-.93s.59-.39.98-.39c.41 0 .72.12.93.364.213.243.53.727.953 1.45l2.758 4.697 2.79-4.693c.17-.287.31-.53.423-.727.114-.198.24-.384.378-.556.14-.172.29-.305.46-.396.166-.09.37-.136.613-.136.376 0 .688.13.94.386.252.258.378.554.378.892 0 .275-.064.55-.19.823z"/></svg>