<svg xmlns="http://www.w3.org/2000/svg" viewBox="0 0 32 32"><path d="M8.52 19.736L5.94 9.468l-.022-.095H3.875v12.97H5.34V14.71c0-.3-.01-.77-.023-1.41l-.013-.78 2.453 9.728.023.095h1.457l2.452-9.823-.015.9c-.008.6-.01 1.03-.01 1.29v7.633h1.463V9.373H11.1L8.52 19.736zm8.995-7.186c-1.02 0-1.84.486-2.44 1.442-.59.94-.89 2.216-.89 3.787 0 1.465.284 2.66.845 3.54.572.892 1.356 1.35 2.333 1.35 1.164 0 2.035-.517 2.59-1.528.54-.988.815-2.255.815-3.764 0-1.564-.314-2.77-.933-3.588-.628-.824-1.41-1.242-2.32-1.242zm-.046 8.528c-.64 0-1.098-.3-1.395-.913-.306-.64-.46-1.452-.46-2.41 0-1.003.155-1.872.462-2.582.296-.682.755-1.013 1.402-1.013.73 0 1.232.392 1.537 1.198.197.525.297 1.22.297 2.065 0 .935-.14 1.798-.413 2.566-.264.73-.733 1.085-1.434 1.085zm9.833-7.256c-.554-.827-1.288-1.246-2.183-1.246a2.15 2.15 0 0 0-1.21.37c-.262.176-.5.41-.71.698V9.33h-1.37v13.012h1.31v-.854c.167.26.324.46.477.603.383.365.856.55 1.41.55.977 0 1.75-.513 2.294-1.52.535-.98.806-2.23.806-3.715 0-1.564-.277-2.768-.82-3.58zm-.612 3.658c0 1.074-.15 1.948-.45 2.597-.292.627-.714.932-1.287.932-.774 0-1.29-.476-1.58-1.447-.158-.533-.24-1.234-.24-2.085 0-1.174.192-2.02.57-2.52.373-.498.792-.74 1.282-.74.553 0 .964.29 1.256.89.3.62.45 1.417.45 2.37z" fill="#FFF"/></svg>