<svg xmlns="http://www.w3.org/2000/svg" viewBox="0 0 32 32"><path fill="#FFF" d="M27.127 21.682c-.015-.137-.132-.213-.216-.236-.21-.06-.43-.01-1.06-.29-.51-.23-2.875-1.37-6.13-1.746l2.357-13.426c.105-.602.1-1.087-.09-1.394-.277-.45-.886-.573-1.586-.514-.545.05-.98.25-1.07.312a.325.325 0 0 0-.145.288c.023.253.22.45.057 1.425-.032.21-.802 4.505-1.453 8.14-1.724 1.038-4.018 1.527-4.488.905-.228-.31-.177-.89.04-1.757.05-.193 1.06-4.03 1.347-5.135.54-2.105.13-4.035-2.05-4.23-1.88-.17-3.676.935-4.216 1.51-.39.415-.26.916.09 1.52.275.473.642.78.735.836.115.07.263.07.32.01.63-.71 1.775-1.243 2.173-.915.35.29.216.83.08 1.35 0 0-1.227 4.606-1.723 6.526-.366 1.417-.007 2.705 1.027 3.32.77.473 1.914.435 2.816.32 1.96-.24 3.11-1.066 3.296-1.208l-.363 2.02s-2.214.2-4.027 1.286c-2.383 1.428-3.345 4.673-1.82 6.347 1.526 1.674 4.193 1.04 5.277.308 1.045-.7 2.407-2.18 3.023-5.535 3.596.184 4.53 2.046 6.063 2.113 1.1.048 1.876-1.014 1.737-2.142zm-12.23 3.214c-.51.297-1.03.337-1.35-.03-.337-.388-.435-2.5 2.914-3.13.005 0-.523 2.56-1.56 3.16z"/></svg>