<?xml version="1.0" encoding="utf-8"?>
<!-- Generator: Adobe Illustrator 16.0.0, SVG Export Plug-In . SVG Version: 6.00 Build 0)  -->
<!DOCTYPE svg PUBLIC "-//W3C//DTD SVG 1.1//EN" "http://www.w3.org/Graphics/SVG/1.1/DTD/svg11.dtd">
<svg version="1.1" xmlns="http://www.w3.org/2000/svg" xmlns:xlink="http://www.w3.org/1999/xlink" x="0px" y="0px"
	 width="430.848px" height="572.643px" viewBox="0 0 430.848 572.643" enable-background="new 0 0 430.848 572.643"
	 xml:space="preserve">
<g id="Layer_4">
	<g>
		<path fill="#414042" d="M31.536,485.667l-8.712-14.904c-0.385,0.049-0.984,0.072-1.8,0.072H9.648v14.832H0v-50.4h21.024
			c6.527,0,11.567,1.512,15.12,4.535c3.552,3.025,5.328,7.297,5.328,12.816c0,3.938-0.853,7.297-2.556,10.08
			c-1.704,2.785-4.188,4.873-7.452,6.264l11.088,16.705H31.536z M9.648,462.338h11.376c3.647,0,6.432-0.793,8.352-2.377
			c1.919-1.584,2.88-3.936,2.88-7.055c0-3.072-0.961-5.375-2.88-6.912c-1.92-1.537-4.705-2.305-8.352-2.305H9.648V462.338z"/>
		<path fill="#414042" d="M115.956,438.002c4.104,2.256,7.332,5.352,9.684,9.287c2.351,3.938,3.528,8.305,3.528,13.104
			c0,4.801-1.177,9.182-3.528,13.141c-2.353,3.961-5.58,7.092-9.684,9.396s-8.652,3.455-13.644,3.455
			c-4.993,0-9.54-1.15-13.644-3.455s-7.333-5.436-9.684-9.396c-2.352-3.959-3.528-8.34-3.528-13.141
			c0-4.799,1.176-9.166,3.528-13.104c2.352-3.936,5.58-7.031,9.684-9.287s8.651-3.385,13.644-3.385
			C107.303,434.618,111.852,435.747,115.956,438.002z M93.888,445.526c-2.641,1.512-4.729,3.576-6.264,6.191
			c-1.537,2.617-2.304,5.508-2.304,8.676c0,3.17,0.779,6.074,2.34,8.713c1.559,2.641,3.647,4.729,6.264,6.264
			c2.615,1.537,5.459,2.305,8.532,2.305c3.024,0,5.832-0.768,8.424-2.305c2.592-1.535,4.644-3.623,6.156-6.264
			c1.512-2.639,2.268-5.543,2.268-8.713c0-3.168-0.756-6.059-2.268-8.676c-1.512-2.615-3.564-4.68-6.156-6.191
			c-2.592-1.512-5.4-2.268-8.424-2.268C99.383,443.258,96.527,444.014,93.888,445.526z"/>
		<path fill="#414042" d="M193.5,444.987c-2.424-1.152-4.885-1.729-7.38-1.729c-3.121,0-5.976,0.744-8.568,2.232
			c-2.592,1.488-4.633,3.539-6.12,6.156c-1.488,2.615-2.232,5.484-2.232,8.604c0,3.121,0.744,5.988,2.232,8.604
			c1.487,2.617,3.528,4.68,6.12,6.191c2.592,1.512,5.447,2.27,8.568,2.27c2.399,0,4.812-0.529,7.236-1.584
			c2.423-1.057,4.572-2.521,6.444-4.393l5.688,6.336c-2.64,2.688-5.712,4.813-9.216,6.371c-3.504,1.561-7.056,2.34-10.656,2.34
			c-4.849,0-9.288-1.15-13.32-3.455c-4.032-2.305-7.2-5.436-9.504-9.396c-2.304-3.959-3.456-8.34-3.456-13.141
			c0-4.799,1.176-9.166,3.528-13.104c2.352-3.936,5.556-7.031,9.612-9.287c4.056-2.256,8.556-3.385,13.5-3.385
			c3.6,0,7.128,0.721,10.584,2.16s6.408,3.432,8.856,5.977l-5.616,7.055C198.023,447.747,195.923,446.137,193.5,444.987z"/>
		<path fill="#414042" d="M285.768,485.667h-11.592l-15.84-21.6l-7.92,8.711v12.889h-9.648v-50.4h9.648v25.127l22.752-25.127h11.375
			l-19.367,21.313L285.768,485.667z"/>
		<path fill="#414042" d="M320.399,435.266h36.937v8.424h-27.289v12.457h24.48v8.424h-24.48v12.672h28.152v8.424h-37.8V435.266z"/>
		<path fill="#414042" d="M389.735,435.266h41.112v8.568h-15.696v41.832h-9.72v-41.832h-15.696V435.266z"/>
		<path fill="#414042" d="M117,572.067l-4.464-10.656H87.913l-4.464,10.656H73.441l22.104-50.4h10.008l21.816,50.4H117z
			 M91.369,553.131h17.712l-8.784-21.168L91.369,553.131z"/>
		<path fill="#414042" d="M196.236,526.202c3.479,3.025,5.22,7.297,5.22,12.816c0,5.76-1.74,10.236-5.22,13.428
			c-3.481,3.193-8.388,4.789-14.724,4.789h-11.016v14.832h-9.648v-50.4h20.664C187.848,521.667,192.755,523.178,196.236,526.202z
			 M189.396,546.362c1.944-1.584,2.916-3.936,2.916-7.055c0-3.072-0.972-5.375-2.916-6.912c-1.944-1.537-4.741-2.305-8.388-2.305
			h-10.512v18.648h10.512C184.655,548.739,187.452,547.946,189.396,546.362z"/>
		<path fill="#414042" d="M272.195,526.202c3.479,3.025,5.22,7.297,5.22,12.816c0,5.76-1.74,10.236-5.22,13.428
			c-3.48,3.193-8.389,4.789-14.725,4.789h-11.016v14.832h-9.648v-50.4h20.664C263.807,521.667,268.715,523.178,272.195,526.202z
			 M265.355,546.362c1.943-1.584,2.916-3.936,2.916-7.055c0-3.072-0.973-5.375-2.916-6.912c-1.944-1.537-4.741-2.305-8.389-2.305
			h-10.512v18.648h10.512C260.614,548.739,263.411,547.946,265.355,546.362z"/>
		<path fill="#414042" d="M336.49,530.954c-2.712-0.863-5.1-1.295-7.164-1.295c-2.303,0-4.129,0.432-5.472,1.295
			c-1.345,0.865-2.016,2.064-2.016,3.602c0,1.393,0.468,2.555,1.403,3.492c0.937,0.936,2.112,1.703,3.528,2.303
			c1.415,0.602,3.349,1.26,5.796,1.98c3.408,1.008,6.203,2.016,8.389,3.023c2.184,1.008,4.043,2.496,5.58,4.465
			c1.535,1.969,2.304,4.561,2.304,7.775c0,3.072-0.828,5.748-2.484,8.027c-1.655,2.281-3.937,4.021-6.84,5.221
			c-2.905,1.201-6.228,1.801-9.972,1.801c-3.937,0-7.776-0.732-11.52-2.197c-3.744-1.463-7.01-3.42-9.793-5.867l4.032-8.209
			c2.544,2.354,5.399,4.201,8.567,5.545s6.121,2.016,8.856,2.016c2.688,0,4.8-0.516,6.337-1.547
			c1.535-1.033,2.303-2.436,2.303-4.213c0-1.439-0.467-2.629-1.403-3.564s-2.124-1.691-3.563-2.268
			c-1.44-0.576-3.409-1.225-5.904-1.943c-3.409-1.008-6.192-1.992-8.353-2.953c-2.159-0.959-4.009-2.412-5.544-4.355
			c-1.537-1.943-2.304-4.5-2.304-7.668c0-2.928,0.779-5.482,2.34-7.668c1.56-2.184,3.768-3.875,6.624-5.076
			c2.855-1.199,6.156-1.801,9.9-1.801c3.264,0,6.49,0.48,9.684,1.441c3.191,0.961,6.035,2.256,8.531,3.887l-3.887,8.424
			C341.854,533.042,339.202,531.819,336.49,530.954z"/>
	</g>
	<path fill="#723860" d="M425.984,308c0,0,0-106,0-154s-56-78.667-56-78.667s-71.333-40.667-112-64.667s-84.667,0-84.667,0
		s-62,34-114,64S2.651,153.333,2.651,153.333V310c3.93,22.192,15.156,39.25,28.143,52.071c2.419-0.8,5.002-1.238,7.69-1.238
		c8.537,0,16.051,4.369,20.437,10.99c3.34-0.643,6.785-0.99,10.313-0.99c2.449,0,4.855,0.175,7.218,0.489
		c2.677-2.859,6.474-4.656,10.699-4.656c8.1,0,14.667,6.566,14.667,14.667c0,0.133-0.017,0.262-0.02,0.394
		c1.897,1.429,3.693,2.983,5.388,4.641c2.055-1.483,4.571-2.367,7.299-2.367c1.454,0,2.843,0.261,4.141,0.717
		c6.023-7.478,15.089-12.397,25.328-12.845c-0.628-2.07-0.969-4.266-0.969-6.539c0-12.426,10.074-22.5,22.5-22.5
		c2.214,0,4.351,0.325,6.372,0.921c2.072-4.757,6.319-8.339,11.487-9.504c-0.232-1.103-0.359-2.245-0.359-3.417
		c0-4.521,1.822-8.614,4.767-11.595c-1.418-1.558-2.442-3.475-2.934-5.597c-1.163-2.431-1.833-5.142-1.833-8.016
		c0-5.709,2.575-10.811,6.619-14.228c0.377-0.563,0.792-1.099,1.252-1.592c-1.179-1.908-1.872-4.148-1.872-6.556
		c0-6.903,5.597-12.5,12.5-12.5c5.959,0,10.936,4.174,12.188,9.755l19.312,0.828l0.115,0.692
		c5.894,1.007,10.385,6.127,10.385,12.308c0,2.98-1.047,5.713-2.787,7.861c4.979,3.202,8.287,8.779,8.287,15.139
		c0,1.809-0.273,3.552-0.77,5.199c4.691,3.249,7.77,8.663,7.77,14.801c0,0.092-0.013,0.181-0.014,0.272
		c0.982-0.166,1.984-0.272,3.014-0.272c9.94,0,18,8.059,18,18c0,0.545-0.034,1.08-0.081,1.613
		c5.577,2.529,9.629,7.813,10.423,14.119c2.269-3.164,5.968-5.232,10.158-5.232c6.903,0,12.5,5.596,12.5,12.5
		c0,1.158-0.17,2.275-0.465,3.34c1.122-0.219,2.278-0.34,3.465-0.34c3.78,0,7.284,1.17,10.181,3.16
		c2.334-4.266,6.863-7.16,12.069-7.16c3.298,0,6.322,1.162,8.691,3.1c5.771-6.5,14.185-10.6,23.559-10.6
		c5.441,0,10.561,1.379,15.026,3.809c1.822-1.881,4.229-3.184,6.93-3.627c1.889-5.16,6.428-9.037,11.975-9.965
		C429.971,328.848,425.984,308,425.984,308z"/>
</g>
<g id="Layer_5">
	<g>
		<circle fill="none" cx="215.338" cy="181.349" r="18.654"/>
		<path fill="#FFD105" d="M166.836,196.272l-44.771,44.771c0,0-3.731,18.656,11.192,29.847l22.386,3.73l0.088-0.016
			c0.634-29.988,5.025-56.047,11.171-78.174L166.836,196.272z"/>
		<path fill="#A473B2" d="M308.61,241.095l-44.771-44.771l-0.066,0.158c6.145,22.127,10.537,48.187,11.17,78.175l0.089,0.016
			l22.386-3.73C312.342,259.75,308.61,241.095,308.61,241.095z"/>
		<path fill="#F7912A" d="M196.684,181.349c0-10.302,8.352-18.654,18.654-18.654v-59.643V103c0,0-31.138,31.148-48.435,93.431
			c-6.146,22.127-10.538,48.187-11.171,78.174c-0.052,2.469-0.088,4.955-0.088,7.479l59.694,7.41v-89.491
			C205.035,200.003,196.684,191.651,196.684,181.349z"/>
		<path fill="#ED664A" d="M215.338,103.052v59.643c10.303,0,18.654,8.353,18.654,18.654c0,10.303-8.352,18.654-18.654,18.654v89.491
			v0.051l59.694-7.41c0-2.521-0.036-5.008-0.089-7.477c-0.633-29.989-5.025-56.048-11.17-78.175
			C246.476,134.2,215.338,103.052,215.338,103.052z"/>
	</g>
</g>
</svg>
