<?xml version="1.0" encoding="UTF-8" standalone="no"?>
<!-- Created with Inkscape (http://www.inkscape.org/) -->

<svg
   xmlns:dc="http://purl.org/dc/elements/1.1/"
   xmlns:cc="http://creativecommons.org/ns#"
   xmlns:rdf="http://www.w3.org/1999/02/22-rdf-syntax-ns#"
   xmlns:svg="http://www.w3.org/2000/svg"
   xmlns="http://www.w3.org/2000/svg"
   xmlns:sodipodi="http://sodipodi.sourceforge.net/DTD/sodipodi-0.dtd"
   xmlns:inkscape="http://www.inkscape.org/namespaces/inkscape"
   width="500"
   height="500"
   viewBox="0 0 132.29166 132.29167"
   version="1.1"
   id="svg8"
   inkscape:version="0.92.4 (5da689c313, 2019-01-14)"
   sodipodi:docname="icom.svg">
  <defs
     id="defs2" />
  <sodipodi:namedview
     id="base"
     pagecolor="#ee644f"
     bordercolor="#666666"
     borderopacity="1.0"
     inkscape:pageopacity="0.94117647"
     inkscape:pageshadow="2"
     inkscape:zoom="0.98994949"
     inkscape:cx="97.668904"
     inkscape:cy="274.56179"
     inkscape:document-units="px"
     inkscape:current-layer="layer1"
     showgrid="false"
     inkscape:pagecheckerboard="true"
     units="px"
     inkscape:showpageshadow="false"
     inkscape:window-width="1366"
     inkscape:window-height="768"
     inkscape:window-x="0"
     inkscape:window-y="0"
     inkscape:window-maximized="1" />
  <metadata
     id="metadata5">
    <rdf:RDF>
      <cc:Work
         rdf:about="">
        <dc:format>image/svg+xml</dc:format>
        <dc:type
           rdf:resource="http://purl.org/dc/dcmitype/StillImage" />
        <dc:title></dc:title>
      </cc:Work>
    </rdf:RDF>
  </metadata>
  <g
     inkscape:label="Layer 1"
     inkscape:groupmode="layer"
     id="layer1"
     transform="translate(0,-164.70831)">
    <g
       aria-label="ESTIMATED 
DELIVERY 
DATE"
       transform="matrix(0.38007147,0,0,0.38007147,-87.855452,183.30368)"
       style="font-style:normal;font-variant:normal;font-weight:normal;font-stretch:normal;font-size:53.33333206px;line-height:1.25;font-family:'Open Sans Condensed';-inkscape-font-specification:'Open Sans Condensed, ';font-variant-ligatures:normal;font-variant-caps:normal;font-variant-numeric:normal;font-feature-settings:normal;text-align:center;letter-spacing:0px;word-spacing:0px;writing-mode:lr-tb;text-anchor:middle;fill:#ffffff;fill-opacity:1;stroke:none"
       id="flowRoot815">
      <path
         d="M 257.71094,66.371834 V 80.564542 H 246.20052 V 46.007251 h 11.51042 v 13.697917 h 11.01563 v 6.666666 z m 1.82292,-13.671875 v -6.692708 h 17.99479 v 10 h -10.83333 v -3.307292 z m 0,27.864583 v -6.901041 h 6.48437 v -3.463542 h 11.51042 v 10.364583 z"
         style="font-style:normal;font-variant:normal;font-weight:bold;font-stretch:normal;line-height:0;font-family:'Black Ops One';-inkscape-font-specification:'Black Ops One Bold';text-align:center;text-anchor:middle;fill:#ffffff"
         id="path945" />
      <path
         d="M 304.42969,80.564542 V 67.621834 h -14.94792 l -6.92708,-6.927083 v -7.786458 l 6.92708,-6.901042 h 3.90625 v 12.265625 h 15.88542 l 6.69271,6.927083 v 8.463542 l -6.90104,6.901041 z m -9.21875,-28.333333 v -6.223958 h 13.82813 l 5.98958,6.015625 v 3.671875 h -10.59896 v -3.463542 z m -12.65625,17.96875 h 11.51042 v 4.114583 h 8.54166 v 6.25 h -14.24479 l -5.80729,-6.901041 z"
         style="font-style:normal;font-variant:normal;font-weight:bold;font-stretch:normal;line-height:0;font-family:'Black Ops One';-inkscape-font-specification:'Black Ops One Bold';text-align:center;text-anchor:middle;fill:#ffffff"
         id="path947" />
      <path
         d="m 328.83073,55.330168 h 11.97917 v 25.234374 h -11.97917 z m -9.01041,-9.322917 h 30 v 7.526042 h -30 z"
         style="font-style:normal;font-variant:normal;font-weight:bold;font-stretch:normal;line-height:0;font-family:'Black Ops One';-inkscape-font-specification:'Black Ops One Bold';text-align:center;text-anchor:middle;fill:#ffffff"
         id="path949" />
      <path
         d="m 353.70052,73.194751 h 3.46354 v -19.84375 h -3.46354 v -7.34375 h 18.4375 v 7.34375 h -3.46354 v 19.84375 h 3.46354 v 7.369791 h -18.4375 z"
         style="font-style:normal;font-variant:normal;font-weight:bold;font-stretch:normal;line-height:0;font-family:'Black Ops One';-inkscape-font-specification:'Black Ops One Bold';text-align:center;text-anchor:middle;fill:#ffffff"
         id="path951" />
      <path
         d="m 377.78907,46.007251 h 12.23958 l 9.27083,15.364583 7.29167,-12.499999 v 17.395832 l -8.30729,14.296875 z m 30.49479,34.557291 V 46.007251 h 11.51041 v 34.557291 z m -30.52084,0 V 49.210376 l 10.75521,18.046875 v 13.307291 z"
         style="font-style:normal;font-variant:normal;font-weight:bold;font-stretch:normal;line-height:0;font-family:'Black Ops One';-inkscape-font-specification:'Black Ops One Bold';text-align:center;text-anchor:middle;fill:#ffffff"
         id="path953" />
      <path
         d="m 448.57032,76.788501 h -11.30209 l 2.39584,-6.848959 h 6.25 l -9.2448,-23.932291 h 11.22396 l 13.77604,34.557291 h -11.64062 z m -14.375,3.776041 h -11.1198 l 12.34375,-32.994791 5.10417,13.723958 z"
         style="font-style:normal;font-variant:normal;font-weight:bold;font-stretch:normal;line-height:0;font-family:'Black Ops One';-inkscape-font-specification:'Black Ops One Bold';text-align:center;text-anchor:middle;fill:#ffffff"
         id="path955" />
      <path
         d="m 468.83073,55.330168 h 11.97917 v 25.234374 h -11.97917 z m -9.01041,-9.322917 h 30 v 7.526042 h -30 z"
         style="font-style:normal;font-variant:normal;font-weight:bold;font-stretch:normal;line-height:0;font-family:'Black Ops One';-inkscape-font-specification:'Black Ops One Bold';text-align:center;text-anchor:middle;fill:#ffffff"
         id="path957" />
      <path
         d="M 505.73177,66.371834 V 80.564542 H 494.22135 V 46.007251 h 11.51042 v 13.697917 h 11.01562 v 6.666666 z m 1.82292,-13.671875 v -6.692708 h 17.99479 v 10 h -10.83334 v -3.307292 z m 0,27.864583 v -6.901041 h 6.48437 v -3.463542 h 11.51042 v 10.364583 z"
         style="font-style:normal;font-variant:normal;font-weight:bold;font-stretch:normal;line-height:0;font-family:'Black Ops One';-inkscape-font-specification:'Black Ops One Bold';text-align:center;text-anchor:middle;fill:#ffffff"
         id="path959" />
      <path
         d="m 544.4297,80.564542 v -6.901041 h 8.54167 V 52.908293 h -8.54167 v -6.901042 h 13.15104 l 6.92709,6.901042 v 20.755208 l -6.92709,6.901041 z M 531.09637,46.007251 h 11.51041 v 34.557291 h -11.51041 z"
         style="font-style:normal;font-variant:normal;font-weight:bold;font-stretch:normal;line-height:0;font-family:'Black Ops One';-inkscape-font-specification:'Black Ops One Bold';text-align:center;text-anchor:middle;fill:#ffffff"
         id="path961" />
      <path
         d="m 282.71094,147.23121 v -6.90105 h 8.54167 v -20.7552 h -8.54167 v -6.90104 h 13.15104 l 6.92708,6.90104 v 20.7552 l -6.92708,6.90105 z m -13.33333,-34.55729 h 11.51041 v 34.55729 h -11.51041 z"
         style="font-style:normal;font-variant:normal;font-weight:bold;font-stretch:normal;line-height:0;font-family:'Black Ops One';-inkscape-font-specification:'Black Ops One Bold';text-align:center;text-anchor:middle;fill:#ffffff"
         id="path963" />
      <path
         d="m 319.63802,133.0385 v 14.19271 h -11.51041 v -34.55729 h 11.51041 v 13.69791 h 11.01563 v 6.66667 z m 1.82292,-13.67188 v -6.6927 h 17.99479 v 10 H 328.6224 v -3.3073 z m 0,27.86459 v -6.90105 h 6.48438 v -3.46354 h 11.51041 v 10.36459 z"
         style="font-style:normal;font-variant:normal;font-weight:bold;font-stretch:normal;line-height:0;font-family:'Black Ops One';-inkscape-font-specification:'Black Ops One Bold';text-align:center;text-anchor:middle;fill:#ffffff"
         id="path965" />
      <path
         d="m 345.00261,147.23121 v -34.55729 h 11.51041 v 34.55729 z m 13.33333,0 v -6.90105 h 5.70313 v -4.375 h 10.4427 v 11.27605 z"
         style="font-style:normal;font-variant:normal;font-weight:bold;font-stretch:normal;line-height:0;font-family:'Black Ops One';-inkscape-font-specification:'Black Ops One Bold';text-align:center;text-anchor:middle;fill:#ffffff"
         id="path967" />
      <path
         d="m 377.5026,139.86141 h 3.46354 v -19.84374 h -3.46354 v -7.34375 h 18.4375 v 7.34375 h -3.46354 v 19.84374 h 3.46354 v 7.3698 h -18.4375 z"
         style="font-style:normal;font-variant:normal;font-weight:bold;font-stretch:normal;line-height:0;font-family:'Black Ops One';-inkscape-font-specification:'Black Ops One Bold';text-align:center;text-anchor:middle;fill:#ffffff"
         id="path969" />
      <path
         d="m 421.53907,147.23121 h -11.19792 l -12.5,-34.55729 h 11.74479 z m 1.79687,-34.55729 h 11.5625 l -11.95312,33.51562 -5.1823,-15.20833 z"
         style="font-style:normal;font-variant:normal;font-weight:bold;font-stretch:normal;line-height:0;font-family:'Black Ops One';-inkscape-font-specification:'Black Ops One Bold';text-align:center;text-anchor:middle;fill:#ffffff"
         id="path971" />
      <path
         d="m 448.80468,133.0385 v 14.19271 h -11.51042 v -34.55729 h 11.51042 v 13.69791 h 11.01563 v 6.66667 z m 1.82292,-13.67188 v -6.6927 h 17.99479 v 10 h -10.83333 v -3.3073 z m 0,27.86459 v -6.90105 h 6.48437 v -3.46354 h 11.51042 v 10.36459 z"
         style="font-style:normal;font-variant:normal;font-weight:bold;font-stretch:normal;line-height:0;font-family:'Black Ops One';-inkscape-font-specification:'Black Ops One Bold';text-align:center;text-anchor:middle;fill:#ffffff"
         id="path973" />
      <path
         d="m 474.16926,147.23121 v -34.55729 h 11.51042 v 34.55729 z m 13.33334,-27.65625 v -6.90104 h 13.15104 l 6.92708,6.90104 v 10.36458 l -5.3125,5.3125 -0.36458,-0.72917 -10.80729,1.43229 0.41666,0.91146 h -4.01041 v -6.69271 h 8.64583 v -10.59895 z m 21.25,27.65625 h -12.29167 l -4.94792,-10.36459 h 9.14063 l 1.61458,-1.61458 z"
         style="font-style:normal;font-variant:normal;font-weight:bold;font-stretch:normal;line-height:0;font-family:'Black Ops One';-inkscape-font-specification:'Black Ops One Bold';text-align:center;text-anchor:middle;fill:#ffffff"
         id="path975" />
      <path
         d="m 520.91406,136.24162 -11.71875,-23.5677 h 11.30208 l 11.95312,24.37499 v 10.1823 h -11.53645 z m 12.26562,-1.61458 -5.59896,-11.35417 5.67709,-10.59895 h 11.0677 z"
         style="font-style:normal;font-variant:normal;font-weight:bold;font-stretch:normal;line-height:0;font-family:'Black Ops One';-inkscape-font-specification:'Black Ops One Bold';text-align:center;text-anchor:middle;fill:#ffffff"
         id="path977" />
      <path
         d="m 349.37761,213.89787 v -6.90104 h 8.54166 v -20.75521 h -8.54166 v -6.90104 h 13.15104 l 6.92708,6.90104 v 20.75521 l -6.92708,6.90104 z m -13.33334,-34.55729 h 11.51042 v 34.55729 h -11.51042 z"
         style="font-style:normal;font-variant:normal;font-weight:bold;font-stretch:normal;line-height:0;font-family:'Black Ops One';-inkscape-font-specification:'Black Ops One Bold';text-align:center;text-anchor:middle;fill:#ffffff"
         id="path979" />
      <path
         d="m 397.47656,210.12183 h -11.30208 l 2.39583,-6.84896 h 6.25 l -9.24479,-23.93229 h 11.22396 l 13.77604,34.55729 H 398.9349 Z m -14.375,3.77604 h -11.11979 l 12.34375,-32.99479 5.10417,13.72396 z"
         style="font-style:normal;font-variant:normal;font-weight:bold;font-stretch:normal;line-height:0;font-family:'Black Ops One';-inkscape-font-specification:'Black Ops One Bold';text-align:center;text-anchor:middle;fill:#ffffff"
         id="path981" />
      <path
         d="m 417.73698,188.6635 h 11.97917 v 25.23437 h -11.97917 z m -9.01042,-9.32292 h 30 v 7.52604 h -30 z"
         style="font-style:normal;font-variant:normal;font-weight:bold;font-stretch:normal;line-height:0;font-family:'Black Ops One';-inkscape-font-specification:'Black Ops One Bold';text-align:center;text-anchor:middle;fill:#ffffff"
         id="path983" />
      <path
         d="m 454.63802,199.70516 v 14.19271 H 443.1276 v -34.55729 h 11.51042 v 13.69792 h 11.01562 v 6.66666 z m 1.82291,-13.67187 v -6.69271 h 17.99479 v 10 h -10.83333 v -3.30729 z m 0,27.86458 v -6.90104 h 6.48438 v -3.46354 h 11.51041 v 10.36458 z"
         style="font-style:normal;font-variant:normal;font-weight:bold;font-stretch:normal;line-height:0;font-family:'Black Ops One';-inkscape-font-specification:'Black Ops One Bold';text-align:center;text-anchor:middle;fill:#ffffff"
         id="path985" />
    </g>
    <g
       id="g885"
       transform="translate(0,-9.9219317e-6)">
      <path
         id="path846"
         d="m 79.586254,178.99971 c -0.566931,3.60495 -1.669983,4.6587 -3.623433,7.08049 -1.953449,2.05204 -4.763458,5.47828 -8.744305,5.28725 -3.604946,-0.56693 -4.658699,-1.66998 -7.080484,-3.62343 -2.052046,-1.95345 -5.478285,-4.76346 -5.287254,-8.74431 0.566932,-3.60494 1.669984,-4.6587 3.623433,-7.08048 1.953449,-2.05205 4.763459,-5.47829 8.744305,-5.28726 3.604946,0.56694 4.6587,1.66999 7.080484,3.62344 2.052046,1.95345 5.472123,4.76346 5.287254,8.7443 z"
         inkscape:connector-curvature="0"
         style="fill:#1a4562;fill-opacity:0.94117647;stroke-width:0.06162301" />
      <g
         transform="matrix(0.06162301,0,0,0.06162301,51.245832,163.21806)"
         id="g856">
        <path
           id="path848"
           d="m 146.6,191.2 h 225.1 c 14.2,0 25.8,11.5 25.8,25.8 v 85.9 c 0,14.2 -11.5,25.8 -25.8,25.8 H 291 l 11.1,27.1 -48.7,-27.1 H 146.7 c -14.2,0 -25.8,-11.5 -25.8,-25.8 V 217 c -0.1,-14.2 11.4,-25.8 25.7,-25.8 z"
           inkscape:connector-curvature="0"
           style="fill:#ffffff" />
        <path
           id="path850"
           d="m 134.7,214.6 c 1.6,-2.1 4,-3.3 7.1,-3.5 5.8,-0.5 9,2.3 9.8,8.1 3.5,23.6 7.3,43.6 11.4,60 l 24.8,-47.1 c 2.3,-4.3 5.1,-6.6 8.5,-6.8 5,-0.3 8,2.8 9.3,9.5 2.8,15 6.4,27.8 10.7,38.7 2.9,-28.7 7.9,-49.4 14.9,-62.2 1.7,-3.2 4.2,-4.7 7.5,-5 2.6,-0.2 5,0.6 7.1,2.3 2.1,1.7 3.3,3.8 3.5,6.4 0.1,2 -0.2,3.7 -1.1,5.4 -4.4,8.1 -8,21.8 -11,40.8 -2.8,18.4 -3.8,32.8 -3.2,43.1 0.2,2.8 -0.2,5.3 -1.4,7.5 -1.4,2.5 -3.4,3.8 -6,4.1 -2.9,0.2 -6,-1.1 -8.9,-4.2 -10.5,-10.7 -18.9,-26.8 -25,-48.2 -7.3,14.5 -12.8,25.3 -16.3,32.6 -6.7,12.8 -12.3,19.3 -17.1,19.7 -3.1,0.2 -5.7,-2.4 -7.9,-7.8 -5.8,-14.8 -12,-43.4 -18.7,-85.8 -0.1,-3 0.4,-5.6 2,-7.6 z"
           inkscape:connector-curvature="0"
           style="fill:#1a456f;fill-opacity:0.94117647" />
        <path
           id="path852"
           d="m 377.8,232.3 c -4.1,-7.1 -10.1,-11.4 -18.1,-13.1 -2.1,-0.5 -4.2,-0.7 -6.1,-0.7 -10.9,0 -19.7,5.7 -26.6,17 -5.9,9.6 -8.8,20.2 -8.8,31.9 0,8.7 1.8,16.2 5.4,22.4 4.1,7.1 10.1,11.4 18.1,13.1 2.1,0.5 4.2,0.7 6.1,0.7 11,0 19.8,-5.7 26.6,-17 5.9,-9.7 8.8,-20.3 8.8,-32 0,-8.8 -1.8,-16.2 -5.4,-22.3 z m -14.3,31.4 c -1.6,7.5 -4.4,13 -8.6,16.7 -3.3,2.9 -6.3,4.2 -9.2,3.6 -2.7,-0.6 -5,-2.9 -6.7,-7.3 -1.4,-3.5 -2,-7 -2,-10.3 0,-2.8 0.2,-5.7 0.8,-8.3 1,-4.6 2.9,-9.2 6,-13.5 3.7,-5.5 7.7,-7.8 11.8,-7 2.7,0.6 5,2.9 6.7,7.3 1.4,3.5 2,7 2,10.3 0,3 -0.3,5.9 -0.8,8.5 z"
           inkscape:connector-curvature="0"
           style="fill:#1a4562;fill-opacity:1" />
        <path
           id="path854"
           d="m 306.9,232.3 c -4.1,-7.1 -10.2,-11.4 -18.1,-13.1 -2.1,-0.5 -4.2,-0.7 -6.1,-0.7 -10.9,0 -19.7,5.7 -26.6,17 -5.9,9.6 -8.8,20.2 -8.8,31.9 0,8.7 1.8,16.2 5.4,22.4 4.1,7.1 10.1,11.4 18.1,13.1 2.1,0.5 4.2,0.7 6.1,0.7 11,0 19.8,-5.7 26.6,-17 5.9,-9.7 8.8,-20.3 8.8,-32 0,-8.8 -1.8,-16.2 -5.4,-22.3 z m -14.3,31.4 c -1.6,7.5 -4.4,13 -8.6,16.7 -3.3,2.9 -6.3,4.2 -9.2,3.6 -2.7,-0.6 -5,-2.9 -6.7,-7.3 -1.4,-3.5 -2,-7 -2,-10.3 0,-2.8 0.2,-5.7 0.8,-8.3 1,-4.6 2.9,-9.2 6,-13.5 3.7,-5.5 7.7,-7.8 11.8,-7 2.7,0.6 5,2.9 6.7,7.3 1.4,3.5 2,7 2,10.3 0,3 -0.2,5.9 -0.8,8.5 z"
           inkscape:connector-curvature="0"
           style="fill:#1a456f;fill-opacity:0.94117647" />
      </g>
    </g>
    <g
       id="g943"
       transform="translate(0.26389118)"
       style="fill:#ffffff;fill-opacity:1">
      <path
         style="opacity:1;fill:#ffffff;fill-opacity:1;fill-rule:evenodd;stroke:#ffffff;stroke-width:0;stroke-miterlimit:4;stroke-dasharray:none;stroke-opacity:1;paint-order:markers fill stroke"
         d="m 17.105249,279.62744 a 5.6126599,5.6126599 0 0 1 -5.61266,5.61266 5.6126599,5.6126599 0 0 1 -5.6126599,-5.61266 5.6126599,5.6126599 0 0 1 5.6126599,-5.61266 5.6126599,5.6126599 0 0 1 5.61266,5.61266 z"
         id="path889" />
      <path
         style="opacity:1;fill:#ffffff;fill-opacity:1;fill-rule:evenodd;stroke:#ffffff;stroke-width:0;stroke-miterlimit:4;stroke-dasharray:none;stroke-opacity:1;paint-order:markers fill stroke"
         d="m 71.494603,279.62744 a 5.6126599,5.6126599 0 0 1 -5.61266,5.61266 5.6126599,5.6126599 0 0 1 -5.61266,-5.61266 5.6126599,5.6126599 0 0 1 5.61266,-5.61266 5.6126599,5.6126599 0 0 1 5.61266,5.61266 z"
         id="path889-4" />
      <path
         style="opacity:1;fill:#ffffff;fill-opacity:1;fill-rule:evenodd;stroke:#ffffff;stroke-width:0;stroke-miterlimit:4;stroke-dasharray:none;stroke-opacity:1;paint-order:markers fill stroke"
         d="m 125.88395,279.62744 a 5.6126599,5.6126599 0 0 1 -5.61266,5.61266 5.6126599,5.6126599 0 0 1 -5.61266,-5.61266 5.6126599,5.6126599 0 0 1 5.61266,-5.61266 5.6126599,5.6126599 0 0 1 5.61266,5.61266 z"
         id="path889-4-2" />
      <path
         style="opacity:1;fill:#ffffff;fill-opacity:1;fill-rule:evenodd;stroke:#ffffff;stroke-width:0;stroke-miterlimit:4;stroke-dasharray:none;stroke-opacity:1;paint-order:markers fill stroke"
         d="m 17.07981,278.4599 h 43.482176 c 0.245025,0 0.442283,0.19726 0.442283,0.44228 v 1.45053 c 0,0.24502 -0.197258,0.44228 -0.442283,0.44228 H 17.07981 c -0.245024,0 -0.442283,-0.19726 -0.442283,-0.44228 v -1.45053 c 0,-0.24502 0.197259,-0.44228 0.442283,-0.44228 z"
         id="rect921" />
      <path
         style="opacity:1;fill:#ffffff;fill-opacity:1;fill-rule:evenodd;stroke:#ffffff;stroke-width:0;stroke-miterlimit:4;stroke-dasharray:none;stroke-opacity:1;paint-order:markers fill stroke"
         d="m 70.670022,278.45285 h 43.744118 c 0.2465,0 0.44495,0.19845 0.44495,0.44495 v 1.45926 c 0,0.2465 -0.19845,0.44495 -0.44495,0.44495 H 70.670022 c -0.246501,0 -0.444947,-0.19845 -0.444947,-0.44495 v -1.45926 c 0,-0.2465 0.198446,-0.44495 0.444947,-0.44495 z"
         id="rect921-2" />
    </g>
  </g>
</svg>
