<?xml version="1.0" encoding="UTF-8" standalone="no"?>
<!-- Created with Inkscape (http://www.inkscape.org/) -->

<svg
   xmlns:dc="http://purl.org/dc/elements/1.1/"
   xmlns:cc="http://creativecommons.org/ns#"
   xmlns:rdf="http://www.w3.org/1999/02/22-rdf-syntax-ns#"
   xmlns:svg="http://www.w3.org/2000/svg"
   xmlns="http://www.w3.org/2000/svg"
   xmlns:sodipodi="http://sodipodi.sourceforge.net/DTD/sodipodi-0.dtd"
   xmlns:inkscape="http://www.inkscape.org/namespaces/inkscape"
   width="655.03"
   height="166.17"
   enable-background="new"
   version="1.1"
   viewBox="0 0 173.31 43.965"
   id="svg57"
   sodipodi:docname="pi-web-solution.svg"
   inkscape:version="0.92.4 (5da689c313, 2019-01-14)">
  <sodipodi:namedview
     pagecolor="#ffffff"
     bordercolor="#666666"
     borderopacity="1"
     objecttolerance="10"
     gridtolerance="10"
     guidetolerance="10"
     inkscape:pageopacity="0"
     inkscape:pageshadow="2"
     inkscape:window-width="1366"
     inkscape:window-height="741"
     id="namedview59"
     showgrid="false"
     inkscape:zoom="0.50226705"
     inkscape:cx="63.711127"
     inkscape:cy="83.084999"
     inkscape:window-x="-9"
     inkscape:window-y="-9"
     inkscape:window-maximized="1"
     inkscape:current-layer="svg57" />
  <defs
     id="defs17">
    <filter
       id="filter916"
       color-interpolation-filters="sRGB">
      <feBlend
         in2="BackgroundImage"
         mode="overlay"
         result="fbSourceGraphic"
         id="feBlend2" />
      <feColorMatrix
         in="fbSourceGraphic"
         result="fbSourceGraphicAlpha"
         values="0 0 0 -1 0 0 0 0 -1 0 0 0 0 -1 0 0 0 0 1 0"
         id="feColorMatrix4" />
      <feFlood
         flood-color="rgb(0,0,0)"
         flood-opacity=".49804"
         in="fbSourceGraphic"
         result="flood"
         id="feFlood6" />
      <feComposite
         in="flood"
         in2="fbSourceGraphic"
         operator="in"
         result="composite1"
         id="feComposite8" />
      <feGaussianBlur
         in="composite1"
         result="blur"
         stdDeviation="1.3"
         id="feGaussianBlur10" />
      <feOffset
         dx="3.7"
         dy="3"
         result="offset"
         id="feOffset12" />
      <feComposite
         in="fbSourceGraphic"
         in2="offset"
         result="composite2"
         id="feComposite14" />
    </filter>
    <filter
       style="color-interpolation-filters:sRGB;"
       inkscape:label="Drop Shadow"
       id="filter1032">
      <feFlood
         flood-opacity="0.498039"
         flood-color="rgb(0,0,0)"
         result="flood"
         id="feFlood1022" />
      <feComposite
         in="flood"
         in2="SourceGraphic"
         operator="in"
         result="composite1"
         id="feComposite1024" />
      <feGaussianBlur
         in="composite1"
         stdDeviation="0.8"
         result="blur"
         id="feGaussianBlur1026" />
      <feOffset
         dx="1.6"
         dy="0.5"
         result="offset"
         id="feOffset1028" />
      <feComposite
         in="SourceGraphic"
         in2="offset"
         operator="over"
         result="composite2"
         id="feComposite1030" />
    </filter>
  </defs>
  <metadata
     id="metadata19">
    <rdf:RDF>
      <cc:Work
         rdf:about="">
        <dc:format>image/svg+xml</dc:format>
        <dc:type
           rdf:resource="http://purl.org/dc/dcmitype/StillImage" />
        <dc:title></dc:title>
      </cc:Work>
    </rdf:RDF>
  </metadata>
  <g
     style="fill:#ffffff"
     id="g23"
     transform="matrix(0.024939,0,0,0.024939,15.198,14.13)">
    <title
       id="title21">Layer 1</title>
  </g>
  <g
     id="g31"
     aria-label="WEB"
     style="font-variant-ligatures:normal;font-variant-caps:normal;font-variant-numeric:normal;font-feature-settings:normal;fill:#ffffff"
     transform="matrix(0.50216,0,0,0.50216,-70.703,-62.7)">
    <path
       inkscape:connector-curvature="0"
       id="path25"
       d="m 259.21,187.68 h -8.8542 l -3.724,-19.948 q -0.85938,-4.0885 -1.224,-9.6615 l -0.20834,1.9271 -1.0677,7.8385 -3.6198,19.844 h -8.8542 l -6.901,-38.073 h 6.9531 l 3.4115,21.484 q 0.49479,3.2292 1.3281,10.13 0.65105,-6.9792 1.224,-9.974 l 4.0625,-21.641 h 7.3438 l 4.0625,21.641 q 0.80729,4.8177 1.276,10.026 0.91146,-7.7083 1.3281,-10.182 l 3.3073,-21.484 h 7.0052 z"
       style="fill:#ffffff" />
    <path
       inkscape:connector-curvature="0"
       id="path27"
       d="m 289.18,187.68 h -17.161 v -38.073 h 17.161 v 6.1198 h -10.078 v 9.0625 h 9.349 v 6.1458 h -9.349 v 10.547 h 10.078 z"
       style="fill:#ffffff" />
    <path
       inkscape:connector-curvature="0"
       id="path29"
       d="m 296.82,149.6 h 9.7135 q 5.9375,0 8.6458,2.3177 2.7083,2.2917 2.7083,7.3177 0,3.3073 -1.4323,5.5469 -1.4323,2.2136 -3.9062,2.6823 v 0.26041 q 3.2292,0.80729 4.6614,3.0208 1.4323,2.2135 1.4323,5.8854 0,5.1823 -2.7865,8.125 -2.7604,2.9167 -7.5781,2.9167 h -11.458 z m 6.6667,15.312 h 3.2552 q 2.2396,0 3.151,-1.1979 0.91145,-1.1979 0.91145,-3.5677 0,-2.3698 -1.0417,-3.3854 -1.0417,-1.0417 -3.2812,-1.0417 h -2.9948 z m 0,5.9115 v 10.651 h 3.5677 q 2.2136,0 3.2812,-1.3542 1.0938,-1.3542 1.0938,-4.1927 0,-5.1042 -4.4792,-5.1042 z"
       style="fill:#ffffff" />
  </g>
  <g
     id="g49"
     aria-label="Solution"
     style="font-variant-ligatures:normal;font-variant-caps:normal;font-variant-numeric:normal;font-feature-settings:normal;fill:#3eb1cb;stroke-width:0.47764"
     transform="translate(-16.55,-221.99)">
    <path
       inkscape:connector-curvature="0"
       id="path33"
       d="m 118.95,248.51 q 0,2.5499 -1.2936,3.9057 -1.2812,1.3558 -3.7067,1.3558 -2.3758,0 -4.0426,-0.9329 v -3.346 q 2.0399,1.3309 3.744,1.3309 0.97021,0 1.4553,-0.53487 0.49754,-0.53486 0.49754,-1.4553 0,-0.90802 -0.58461,-1.6543 -0.58462,-0.75876 -1.928,-1.6792 -1.1692,-0.80851 -1.7787,-1.5424 -0.59706,-0.74632 -0.9329,-1.6668 -0.32341,-0.92046 -0.32341,-2.1394 0,-2.3385 1.2936,-3.7067 1.3061,-1.3682 3.4953,-1.3682 2.0897,0 4.0177,1.1692 l -1.1195,2.7116 q -0.59705,-0.34828 -1.2563,-0.62193 -0.64681,-0.27365 -1.3931,-0.27365 -0.82095,0 -1.2687,0.5473 -0.43535,0.53486 -0.43535,1.4678 0,0.92046 0.52242,1.6046 0.53486,0.68412 1.8534,1.5548 1.7787,1.1941 2.4753,2.438 0.709,1.2439 0.709,2.836 z" />
    <path
       inkscape:connector-curvature="0"
       id="path35"
       d="m 131.28,246.57 q 0,3.4082 -1.4429,5.3113 -1.4429,1.8907 -3.9555,1.8907 -1.5922,0 -2.8111,-0.8707 -1.219,-0.87071 -1.8782,-2.5002 -0.65925,-1.6419 -0.65925,-3.8311 0,-3.3709 1.4304,-5.2615 1.4304,-1.9031 3.9679,-1.9031 2.4504,0 3.8933,1.9404 1.4553,1.928 1.4553,5.2242 z m -7.3637,0 q 0,2.1643 0.47267,3.2714 0.47267,1.1071 1.5175,1.107 1.9902,0 1.9902,-4.3784 0,-2.1768 -0.48511,-3.2465 -0.47267,-1.0822 -1.5051,-1.0822 -1.0448,0 -1.5175,1.0822 -0.47267,1.0697 -0.47267,3.2465 z" />
    <path
       inkscape:connector-curvature="0"
       id="path37"
       d="m 136.91,253.52 h -3.3087 v -19.355 h 3.3087 z" />
    <path
       inkscape:connector-curvature="0"
       id="path39"
       d="m 147.16,253.52 -0.41047,-1.7787 h -0.17414 q -0.46023,0.94534 -1.3185,1.4926 -0.84582,0.53486 -1.9404,0.53486 -1.8658,0 -2.8236,-1.2687 -0.95778,-1.2687 -0.95778,-3.7938 v -9.0429 h 3.346 v 8.2468 q 0,1.5175 0.36072,2.2887 0.36072,0.7712 1.1692,0.7712 1.0697,0 1.5548,-1.0697 0.49754,-1.0697 0.49754,-3.5948 v -6.6422 h 3.346 v 13.857 z" />
    <path
       inkscape:connector-curvature="0"
       id="path41"
       d="m 157.42,250.97 q 0.69656,0 1.5051,-0.34828 v 2.5872 q -0.80851,0.55974 -2.4255,0.55974 -1.8036,0 -2.6743,-1.0697 -0.8707,-1.0822 -0.8707,-3.234 v -7.1771 h -1.3434 v -1.4802 l 1.729,-1.1941 0.84582,-2.9355 h 2.1146 v 2.9853 h 2.5126 v 2.6246 h -2.5126 v 7.289 q 0,1.3931 1.1195,1.3931 z" />
    <path
       inkscape:connector-curvature="0"
       id="path43"
       d="m 164.2,253.52 h -3.3087 V 239.663 H 164.2 Z m -3.4455,-17.476 q 0,-0.82095 0.47267,-1.2936 0.48511,-0.48511 1.3434,-0.48511 0.80851,0 1.2936,0.48511 0.48511,0.47267 0.48511,1.2936 0,0.84582 -0.49755,1.3185 -0.49754,0.46023 -1.2812,0.46023 -0.82095,0 -1.3185,-0.46023 -0.49755,-0.47267 -0.49755,-1.3185 z" />
    <path
       inkscape:connector-curvature="0"
       id="path45"
       d="m 177.3,246.57 q 0,3.4082 -1.4429,5.3113 -1.4429,1.8907 -3.9555,1.8907 -1.5922,0 -2.8111,-0.8707 -1.219,-0.87071 -1.8782,-2.5002 -0.65924,-1.6419 -0.65924,-3.8311 0,-3.3709 1.4304,-5.2615 1.4304,-1.9031 3.9679,-1.9031 2.4504,0 3.8933,1.9404 1.4553,1.928 1.4553,5.2242 z m -7.3637,0 q 0,2.1643 0.47266,3.2714 0.47267,1.107 1.5175,1.107 1.9902,0 1.9902,-4.3784 0,-2.1768 -0.48511,-3.2465 -0.47267,-1.0822 -1.5051,-1.0822 -1.0448,0 -1.5175,1.0822 -0.47266,1.0697 -0.47266,3.2465 z" />
    <path
       inkscape:connector-curvature="0"
       id="path47"
       d="m 186.53,253.52 v -8.2592 q 0,-1.5051 -0.36072,-2.2763 -0.36072,-0.7712 -1.1692,-0.7712 -1.0697,0 -1.5673,1.0697 -0.49754,1.0573 -0.49754,3.5823 v 6.6547 h -3.3087 v -13.857 h 2.6246 l 0.39804,1.7787 h 0.21146 q 0.44779,-0.95777 1.2812,-1.4926 0.83338,-0.5473 1.9529,-0.5473 1.8907,0 2.8236,1.2936 0.94534,1.2936 0.94534,3.7813 v 9.0429 z" />
  </g>
  <g
     transform="translate(-16.55,-221.99)"
     id="g55"
     style="filter:url(#filter1032);enable-background:new">
    <path
       transform="matrix(0.26458,0,0,0.26458,0,191.17)"
       d="m 199.57,130.34 c -13.052,0.18644 -20.495,30.334 -42.256,32.973 -19.476,2.3612 -61.191,-42.557 -76.139,-27.609 -17.03,17.03 24.109,50.564 23.416,72.875 -0.75173,24.204 -41.89,37.223 -23.416,55.697 19.025,19.025 44.384,-27.858 69.289,-29.223 21.572,-1.1817 42.804,45.702 59.283,29.223 16.142,-16.142 -24.341,-36.842 -22.877,-57.957 1.7566,-25.328 42.239,-51.253 22.877,-70.615 -3.8543,-3.8543 -7.1658,-5.4063 -10.178,-5.3633 z m -24.992,42.465 -0.0957,9.1484 -13.102,-0.63671 c -1.303,9.2911 -1.9183,17.864 -1.4688,27.256 0.42896,2.6912 1.4614,4.5425 3.1484,5.6445 1.7357,1.0248 3.8135,1.3198 5.7676,0.73632 1.5762,-0.55196 2.7818,-1.6911 3.4043,-3.2207 0.21792,-0.53538 0.32811,-0.96001 0.60938,-2.3262 l 1.6406,-0.0332 c 0,0.44998 -0.51724,3.2089 -0.84375,4.4863 -0.8468,3.3132 -1.9736,5.507 -3.7207,7.25 -1.3451,1.3418 -2.9457,2.3316 -4.4356,2.7422 -0.88412,0.24366 -2.6975,0.29331 -3.5684,0.0996 -1.9416,-0.43197 -4.0645,-1.0845 -5.6367,-2.5371 -1.5722,-1.4526 -4.3514,-4.6105 -4.7051,-9.9902 -0.12659,-1.9259 -0.4246,-6.4618 -0.0937,-12.551 0.33084,-6.089 0.10378,-12.001 0.40625,-17.957 l -6.6211,0.0195 c 0.6598,0.41831 -0.45439,5.5184 -1.0391,16.193 -0.58468,10.675 -3.8658,19.14 -5.8438,22.207 -1.978,3.067 -3.186,3.841 -4.3223,4.4004 v -0.004 c -0.98771,0.45884 -2.1808,0.45268 -3.207,0.11524 -2.2007,-0.76574 -3.3991,-2.6701 -3.1133,-4.9492 0.20576,-1.6409 0.63159,-2.4465 3.1133,-5.8984 2.7539,-3.8307 3.6627,-6.3373 4.6953,-12.949 0.35431,-2.2692 0.36233,-2.3812 0.99414,-11.17 0.2034,-2.8125 0.39174,-5.6263 0.63671,-8.4356 h -1.0684 c -3.1637,0.002 -5.428,0.51952 -7.123,1.6211 -1.3584,0.8828 -3.0557,2.8302 -4.4746,5.1367 l -0.59766,0.96876 -1.6367,0.002 0.14063,-0.49414 c 0.32735,-1.143 1.039,-3.2086 1.4609,-4.2363 1.3093,-3.1884 2.7873,-5.4362 4.9492,-7.5273 1.8723,-1.811 3.1182,-2.3961 6.1348,-2.8848 0.50022,-0.0811 1.1683,-0.16967 4.3613,-0.19531 11.751,-0.0442 23.503,0.038 35.254,-0.0312 z"
       style="fill:#ee6443;fill-rule:evenodd;paint-order:markers fill stroke"
       id="path53"
       inkscape:connector-curvature="0" />
  </g>
</svg>
