
<svg width="640px" height="58px" viewBox="-190 -3 640 58" version="1.1" xmlns="http://www.w3.org/2000/svg" xmlns:xlink="http://www.w3.org/1999/xlink">
	<!-- Generator: Sketch 42 (36781) - http://www.bohemiancoding.com/sketch -->
	<desc>Created with Sketch.</desc>
	<defs>
		<rect id="path-1" x="10.880651" y="11" width="419.399638" height="10"></rect>
		<mask id="mask-2" maskContentUnits="userSpaceOnUse" maskUnits="objectBoundingBox" x="-1" y="-1" width="421.399638" height="12">
			<rect x="9.88065099" y="10" width="421.399638" height="12" fill="white"></rect>
			<use xlink:href="#path-1" fill="black"></use>
		</mask>
	</defs>
	<g id="Artboard" stroke="none" stroke-width="1" fill="none" fill-rule="evenodd" transform="translate(-190.000000, -3.000000)">
		<g id="player" transform="translate(83.000000, 17.000000)">
			<rect id="Rectangle-1" fill-opacity="0.75" fill="#172322" x="0" y="0" width="547" height="32" rx="3"></rect>
			<use id="play-bar" stroke="#898F8F" mask="url(#mask-2)" stroke-width="2" stroke-linejoin="round" xlink:href="#path-1"></use>
		</g>
		<g id="play" transform="translate(10.000000, 9.000000)">
			<rect id="Rectangle-1-copy" fill-opacity="0.75" fill="#172322" x="0" y="0" width="65" height="40" rx="4"></rect>
			<polygon id="Triangle-1" fill="#FFFFFF" points="23 30 23 10 42 20"></polygon>
		</g>
		<g id="Group" transform="translate(532.000000, 27.000000)">
			<path d="M44.618,0 L48.392,0 L47.474,4.301 L51.537,4.301 L52.489,0 L56.263,0 L53.645,12.172 L49.871,12.172 L50.925,7.225 L46.845,7.225 L45.808,12.172 L42,12.172 L44.618,0 Z M56.161,12.172 L58.711,0 L63.709,0 C63.913,0 65.63,0 66.718,0.68 C68.129,1.564 68.809,3.179 68.809,5.1 C68.809,7.752 67.5,10.387 65.545,11.458 C64.712,11.917 63.335,12.172 62.57,12.172 L56.161,12.172 Z M61.924,2.686 L60.513,9.486 L62.06,9.486 C62.808,9.486 63.216,9.231 63.471,9.044 C64.253,8.466 65.12,6.681 65.12,4.709 C65.12,2.686 63.709,2.686 63.114,2.686 L61.924,2.686 Z" id="HD" fill="#00ADEF"></path>
			<path d="M84.0537308,8.5301333 C83.9859522,8.46235468 83.9857058,8.34528252 84.0537308,8.27725743 L85.2804006,7.05058766 C85.3479328,6.98305551 85.4647585,6.98305551 85.5327835,7.0510806 L87.6245549,9.14285201 L88.9015041,7.86590283 C88.9692827,7.79812421 89.0368149,7.82277098 89.0488918,7.91766105 L89.0384711,11.9001417 C89.0414295,11.9229806 89.0397432,11.9442143 89.0341554,11.963127 C89.0164672,12.022996 88.9596841,12.0596055 88.8873864,12.0502405 L84.9210507,12.0459951 C84.8256677,12.0344111 84.8010209,11.966386 84.8685531,11.8988539 L86.1455023,10.6219047 L84.0537308,8.5301333 Z M85.5301333,4.99796538 C85.4623547,5.065744 85.3452825,5.06599047 85.2772574,4.99796538 L84.0505877,3.77129562 C83.9830555,3.70376347 83.9830555,3.58693777 84.0510806,3.51891269 L86.142852,1.42714128 L84.8659028,0.150192101 C84.7981242,0.0824134821 84.822771,0.014881331 84.917661,0.00280441347 L88.9001417,0.0132251352 C88.9229806,0.0102667359 88.9442143,0.0119530754 88.963127,0.017540798 C89.022996,0.0352290575 89.0596055,0.0920121467 89.0502405,0.164309838 L89.0459951,4.13064553 C89.0344111,4.22602853 88.966386,4.2506753 88.8988539,4.18314315 L87.6219047,2.90619397 L85.5301333,4.99796538 Z M80.5215629,7.05373084 C80.5893416,6.98595223 80.7064137,6.98570576 80.7744388,7.05373084 L82.0011086,8.28040061 C82.0686407,8.34793276 82.0686407,8.46475845 82.0006156,8.53278354 L79.9088442,10.6245549 L81.1857934,11.9015041 C81.253572,11.9692827 81.2289252,12.0368149 81.1340352,12.0488918 L77.1515545,12.0384711 C77.1287157,12.0414295 77.1074819,12.0397432 77.0885693,12.0341554 C77.0287002,12.0164672 76.9920907,11.9596841 77.0014557,11.8873864 L77.0057011,7.9210507 C77.0172851,7.8256677 77.0853102,7.80102093 77.1528423,7.86855308 L78.4297915,9.14550225 L80.5215629,7.05373084 Z M81.9979654,3.52156293 C82.065744,3.58934155 82.0659905,3.70641371 81.9979654,3.7744388 L80.7712956,5.00110856 C80.7037635,5.06864071 80.5869378,5.06864071 80.5189127,5.00061563 L78.4271413,2.90884422 L77.1501921,4.1857934 C77.0824135,4.25357202 77.0148813,4.22892524 77.0028044,4.13403518 L77.0132251,0.151554519 C77.0102667,0.128715676 77.0119531,0.107481896 77.0175408,0.088569256 C77.0352291,0.0287001858 77.0920121,-0.00790929921 77.1643098,0.00145568673 L81.1306455,0.00570112622 C81.2260285,0.0172851083 81.2506753,0.0853101948 81.1831432,0.152842346 L79.906194,1.42979152 L81.9979654,3.52156293 Z" id="fullscreen" fill="#FFFFFF"></path>
			<path d="M0,0 L3,0 L3,12 L0,12 L0,0 Z M5,0 L8,0 L8,12 L5,12 L5,0 Z M10,0 L13,0 L13,12 L10,12 L10,0 Z M15,0 L18,0 L18,12 L15,12 L15,0 Z M20,0 L23,0 L23,12 L20,12 L20,0 Z M25,0 L28,0 L28,12 L25,12 L25,0 Z M30,0 L33,0 L33,12 L30,12 L30,0 Z" id="volume" fill="#00ADEF"></path>
		</g>
	</g>
</svg>