<?xml version="1.0" standalone="no"?>
<!DOCTYPE svg PUBLIC "-//W3C//DTD SVG 1.1//EN" "http://www.w3.org/Graphics/SVG/1.1/DTD/svg11.dtd" >
<svg xmlns="http://www.w3.org/2000/svg">
<metadata>
This is a custom SVG webfont generated by Font Squirrel.
Copyright   : copyright 19941996 Jos Buivenga
</metadata>
<defs>
<font id="webfontedw351Al" horiz-adv-x="921" >
<font-face units-per-em="2048" ascent="1638" descent="-410" />
<missing-glyph horiz-adv-x="614" />
<glyph unicode=" "  horiz-adv-x="614" />
<glyph unicode="&#x09;" horiz-adv-x="614" />
<glyph unicode="&#xa0;" horiz-adv-x="614" />
<glyph unicode="!" horiz-adv-x="540" d="M424 94q0 -49 -40 -87t-91 -38q-49 0 -84 33t-35 82q0 51 40 88t91 37q49 0 84 -33t35 -82zM399 1432q-35 -203 -34 -396v-704h-123q-29 528 -29 753q0 180 31 326z" />
<glyph unicode="&#x22;" horiz-adv-x="708" d="M258 1450l29 -129l-45 -322h-68l-43 322l27 129h100zM541 1450l28 -129l-45 -322h-67l-43 322l26 129h101z" />
<glyph unicode="#" horiz-adv-x="1138" d="M666 571l39 312h-234l-39 -312h234zM768 1382h123l-45 -364h174l-12 -135h-181l-39 -312h154l-12 -135h-158l-53 -418h-123l53 418h-235l-47 -379h-123l47 379h-166l20 135h164l39 312h-145l20 135h142l51 403h123l-52 -403h236z" />
<glyph unicode="$" horiz-adv-x="911" d="M539 524v-411q68 23 104.5 79t36.5 130q0 110 -141 202zM446 776v412q-76 -12 -117.5 -63.5t-41.5 -127.5q0 -55 25.5 -98t51 -63.5t82.5 -59.5zM838 319q0 -135 -83 -228t-216 -116v-125h-93v119q-164 4 -309 88l47 123q154 -76 262 -82v484l-46 29l-49 32l-43 30 q-34 24 -44 33l-37 33q-27 25 -35 40.5t-25 41t-23.5 49t-11.5 53t-5 60.5q0 147 86 236.5t233 99.5v113h93v-115q147 -18 249 -98l-55 -111q-82 59 -194 78v-467q158 -100 206 -152q93 -98 93 -248z" />
<glyph unicode="%" horiz-adv-x="1431" d="M518 1048.5q0 63.5 -44 107.5t-107.5 44t-107.5 -44t-44 -107.5t44 -107.5t107.5 -44t107.5 44t44 107.5zM987 1290l-455 -1290h-135l432 1196q-35 -18 -88 -27.5t-90 -9.5l-35 -2q23 -43 23 -108q0 -113 -80 -193t-192.5 -80t-192.5 80t-80 192.5t80 192.5t193 80 q80 0 145 -41q82 -23 143 -23q57 0 114.5 15.5t86.5 30.5l27 16zM1333 241.5q0 -112.5 -79.5 -192.5t-192.5 -80t-193 80t-80 192.5t80 192.5t193 80t192.5 -80t79.5 -192.5zM1212 241.5q0 63.5 -44 107.5t-107.5 44t-107.5 -44t-44 -107.5t44 -107.5t107.5 -44t107.5 44 t44 107.5z" />
<glyph unicode="&#x26;" horiz-adv-x="1290" d="M846 1004v96q0 94 -51.5 155.5t-143.5 61.5q-82 0 -145.5 -46t-63.5 -126q0 -76 65.5 -108.5t149.5 -32.5h189zM1227 27q-115 -57 -209 -58q-96 0 -138 64.5t-42 165.5v686h-199q-203 0 -290 -97.5t-87 -302.5q0 -193 64 -313q41 -76 77 -76q23 0 56 34t79 67.5t103 33.5 q51 0 100 -22l-30 -111q-41 12 -64 13q-47 0 -112.5 -71t-133.5 -71q-84 0 -148.5 52.5t-98 134.5t-51 164.5t-17.5 158.5q0 174 90 324.5t252 157.5q-141 59 -141 184q0 123 107.5 199.5t236.5 76.5q141 0 249.5 -77.5t108.5 -213.5v-126h203v-119h-199v-678 q0 -113 80 -113q53 0 119 29z" />
<glyph unicode="'" horiz-adv-x="425" d="M258 1450l29 -129l-45 -322h-68l-43 322l27 129h100z" />
<glyph unicode="(" horiz-adv-x="688" d="M629 -172l-15 -127q-262 199 -390 431.5t-128 547.5q0 272 140.5 518t373.5 391l17 -116q-190 -125 -300 -343.5t-110 -453.5q0 -518 412 -848z" />
<glyph unicode=")" horiz-adv-x="694" d="M82 1589q233 -145 373.5 -391t140.5 -518q0 -315 -128 -547.5t-390 -431.5l-15 127q414 330 414 848q0 236 -110.5 454t-300.5 343z" />
<glyph unicode="*" horiz-adv-x="868" d="M543 1380l-70 -231l305 106v-127l-268 -86l217 -333h-143l-158 252l-156 -252h-133l201 333l-266 86v132l307 -111l-74 231h238z" />
<glyph unicode="+" horiz-adv-x="964" d="M872 451h-331v-355h-119v355h-330v122h330v355h119v-355h331v-122z" />
<glyph unicode="," horiz-adv-x="528" d="M285 178q27 0 59.5 -23.5t52.5 -48.5l19 -22q-84 -178 -264 -377l-93 64q98 141 123 239q10 41 11 84l-5 49q58 35 97 35z" />
<glyph unicode="-" horiz-adv-x="618" d="M502 584v-123h-391v123h391z" />
<glyph unicode="." horiz-adv-x="528" d="M397 94q0 -49 -40 -87t-91 -38q-49 0 -84 33t-35 82q0 51 40 88t92 37q49 0 83.5 -33t34.5 -82z" />
<glyph unicode="/" horiz-adv-x="729" d="M694 1550l-530 -1853h-129l530 1853h129z" />
<glyph unicode="0" d="M461 905q-94 0 -154.5 -70.5t-81 -155.5t-20.5 -177t20.5 -177t81 -156t154.5 -71t154.5 71t81 156t20.5 177t-20.5 177t-81 155.5t-154.5 70.5zM864 502q0 -133 -39 -250t-133 -200t-231 -83t-231.5 83t-133.5 200t-39 250t39 249.5t133.5 199.5t231.5 83t231 -83 t133 -199.5t39 -249.5z" />
<glyph unicode="1" d="M612 0h-151v858h-258v98q88 0 194 29l74 19h141v-1004z" />
<glyph unicode="2" d="M465 1034q143 0 228 -70.5t85 -211.5q0 -188 -190 -404q-131 -147 -228 -213h455v-135h-659l-29 127q156 84 325 279.5t169 343.5q0 74 -52.5 113.5t-128.5 39.5q-133 0 -284 -117l-29 119q92 72 162 100.5t176 28.5z" />
<glyph unicode="3" d="M530 1034q109 0 179.5 -63.5t70.5 -171.5q0 -57 -24.5 -106.5t-73.5 -91.5t-86 -66.5t-98 -59.5q129 0 218 -78t89 -204q0 -178 -95.5 -304.5t-238.5 -180.5t-315 -52h-9v119q68 0 146 20q358 82 358 365q0 193 -289 192q-59 0 -174 -12v119l91 12q133 72 258 172 q90 70 90 152q0 51 -39 81.5t-92 30.5q-51 0 -142.5 -38t-156.5 -76l-37 108q206 133 370 133z" />
<glyph unicode="4" d="M864 0h-135v-283h-145v283h-512l-9 133q139 387 502 871h168v-871h131v-133zM584 133v680q-242 -354 -369 -680h369z" />
<glyph unicode="5" d="M797 197q0 -322 -285 -457q-176 -84 -367 -80h-8v119q164 4 312 80q193 100 192 305q0 98 -65.5 145t-167.5 47q-98 0 -236 -41l57 689h508v-123h-366l-33 -412q57 12 86 12q10 0 26.5 -1t26.5 -1q133 -6 226.5 -80.5t93.5 -201.5z" />
<glyph unicode="6" d="M690 451q0 113 -64.5 173t-179.5 60q-66 0 -184 -51q-16 -78 -16 -152q0 -82 18.5 -163.5t73.5 -153.5t139 -72q213 1 213 359zM676 1315l55 -101q-184 -115 -284.5 -213t-157.5 -264q127 47 215 47q150 0 244 -95t94 -245q0 -125 -37 -229t-125 -175t-215 -71 q-102 0 -178 53.5t-115 139.5t-57.5 176t-18.5 186q0 264 160 465t420 326z" />
<glyph unicode="7" d="M793 1004v-132q0 -272 -137.5 -640.5t-313.5 -591.5l-135 57q180 238 309 570.5t129 604.5h-524v132h672z" />
<glyph unicode="8" d="M690 338q0 49 -13 86t-45 65.5t-54.5 45t-74.5 44t-73 39.5q-193 -100 -192 -278q0 -100 64.5 -177t162.5 -77t161.5 76t63.5 176zM647 991q0 188 -194 189q-84 0 -135.5 -63.5t-51.5 -149.5q0 -82 44 -132.5t128 -93.5l69 36q13 7 52 33t50.5 46.5t24.5 55t13 79.5z M844 346q0 -174 -110.5 -275.5t-287.5 -101.5q-147 0 -254.5 100.5t-107.5 247.5q0 117 66.5 211.5t177.5 145.5q-102 61 -154.5 128.5t-52.5 172.5q0 143 100.5 229t247.5 86q152 0 237 -77.5t85 -229.5q0 -96 -69 -174t-167 -121q66 -33 91.5 -48t73.5 -49t68.5 -63.5 t38 -77t17.5 -104.5z" />
<glyph unicode="9" d="M668 373q16 78 16 151q0 82 -18.5 163t-73.5 152.5t-139 71.5q-213 0 -213 -360q0 -98 61 -165t160 -67q119 1 207 54zM461 1034q102 0 179 -56t118 -146.5t59.5 -184.5t18.5 -188q0 -266 -190.5 -480.5t-461.5 -324.5l-43 117q203 102 321 208.5t179 284.5 q-131 -47 -219 -47q-68 0 -131 29q-203 86 -203 311q0 199 92.5 338t280.5 139z" />
<glyph unicode=":" horiz-adv-x="528" d="M397 94q0 -49 -40 -87t-91 -38q-49 0 -84 33t-35 82q0 51 40 88t92 37q49 0 83.5 -33t34.5 -82zM397 723q0 -49 -40 -87t-91 -38q-49 0 -84 33t-35 82q0 51 40 88t92 37q49 0 83.5 -33t34.5 -82z" />
<glyph unicode=";" horiz-adv-x="528" d="M279 178q27 0 59.5 -23.5t50.5 -48.5l21 -22q-84 -178 -265 -377l-92 64q98 141 123 239q10 41 10 84l-4 49q58 35 97 35zM397 721q0 -51 -40 -89t-91 -38q-49 0 -84 32.5t-35 82.5q0 51 40 89t92 38q49 0 83.5 -33t34.5 -82z" />
<glyph unicode="&#x3c;" horiz-adv-x="614" d="M547 205l-96 -78l-383 385l378 385l97 -78l-305 -307z" />
<glyph unicode="=" horiz-adv-x="983" d="M872 416v-123h-782v123h782zM872 721v-123h-782v123h782z" />
<glyph unicode="&#x3e;" horiz-adv-x="614" d="M68 205l96 -78l383 385l-379 385l-96 -78l305 -307z" />
<glyph unicode="?" horiz-adv-x="733" d="M397 94q0 -49 -40 -87t-91 -38q-49 0 -84 33t-35 82q0 51 40 88t92 37q49 0 83.5 -33t34.5 -82zM336 332h-125v104q0 86 2 127t20.5 103.5t55.5 111.5l168 226q70 96 69 161q0 57 -30.5 92t-87.5 35q-88 0 -172 -18v117q96 27 184 26q121 0 190.5 -63.5t69.5 -184.5 q0 -98 -100 -229l-164 -217q-45 -59 -62.5 -120.5t-17.5 -166.5v-104z" />
<glyph unicode="@" horiz-adv-x="1622" d="M1018 936q-76 98 -205 98q-78 0 -132 -83t-73.5 -174t-19.5 -167q0 -59 21.5 -106t74.5 -47q18 0 43 6t41 12t47 22.5t41 22.5l43 26q33 19 35 21zM1081 299q-72 0 -119 35t-47 104q0 12 5 33q-119 -102 -175 -127q-45 -20 -90 -20q-98 0 -152 80.5t-54 183.5 q0 94 18 185t58 178t116 141.5t176 54.5q145 0 225 -117l21 84h133l-141 -592q-12 -45 -13 -67q0 -55 56 -56q125 0 218 151.5t93 285.5q0 252 -163 394t-419 142q-254 0 -429 -195.5t-175 -453.5q0 -270 179.5 -457.5t449.5 -187.5q152 0 292 65.5t230 182.5l96 -52 q-94 -139 -270 -225t-348 -86q-319 0 -541.5 222.5t-222.5 541.5q0 299 223.5 529.5t519.5 230.5q295 0 490 -179.5t195 -471.5q0 -113 -56.5 -236t-160 -212t-218.5 -89z" />
<glyph unicode="A" horiz-adv-x="1044" d="M522 1120l-153 -569h307zM1020 0h-168l-137 416h-385l-137 -416h-168l409 1290h176z" />
<glyph unicode="B" horiz-adv-x="1028" d="M782 377q0 74 -23.5 123t-69.5 72.5t-96 31.5t-122 8h-143v-477q92 -27 153 -26q135 0 218 67.5t83 200.5zM713 967q0 197 -234 196h-151v-418h151q104 0 169 60t65 162zM481 1290q123 0 203 -30q190 -76 190 -295q0 -86 -57 -169t-137 -106q125 -8 195.5 -97t70.5 -218 q0 -195 -131 -300.5t-330 -105.5q-125 0 -321 51v1270h317z" />
<glyph unicode="C" horiz-adv-x="1017" d="M967 84q-68 -53 -166.5 -84t-190.5 -31q-135 0 -235.5 60.5t-155.5 161t-80.5 214t-25.5 240.5q0 119 29.5 233.5t87 216t157.5 164t227 62.5q195 0 332 -88l-59 -107q-119 66 -273 66q-86 0 -154.5 -58.5t-106.5 -147.5t-57.5 -180t-19.5 -169q0 -90 16.5 -176 t52.5 -171t106.5 -136.5t166.5 -51.5q166 0 279 84z" />
<glyph unicode="D" horiz-adv-x="1120" d="M528 1159h-202v-1028h190q98 0 166 47t100.5 128t46 161t13.5 172q-1 520 -314 520zM537 1290q133 0 228 -56t146.5 -152.5t74 -205t22.5 -233.5t-27 -234.5t-82 -203.5t-153.5 -149.5t-229.5 -55.5h-352v1290h373z" />
<glyph unicode="E" horiz-adv-x="929" d="M827 1290v-137h-499v-410h383v-141h-383v-461h520v-141h-684v1290h663z" />
<glyph unicode="F" horiz-adv-x="843" d="M770 1290v-135h-442v-412h350v-141h-350v-602h-164v1290h606z" />
<glyph unicode="G" horiz-adv-x="1073" d="M950 23q-129 -53 -336 -54q-135 0 -236.5 59.5t-156.5 160t-81.5 215t-26.5 241.5q0 119 29.5 233.5t87 216t157.5 164t227 62.5q96 0 168 -20.5t166 -67.5l-63 -109q-113 70 -271 70q-111 0 -190.5 -96.5t-113.5 -219t-34 -241.5q0 -90 15.5 -176t51.5 -171 t106.5 -137.5t168.5 -52.5q109 0 181 29v422h151v-528z" />
<glyph unicode="H" horiz-adv-x="1122" d="M958 0h-163v604h-467v-604h-164v1290h164v-547h467v547h163v-1290z" />
<glyph unicode="I" horiz-adv-x="487" d="M324 1290v-1290h-160v1290h160z" />
<glyph unicode="J" horiz-adv-x="501" d="M338 -57q0 -205 -291 -277l-35 111q166 55 166 178v1335h160v-1347z" />
<glyph unicode="K" horiz-adv-x="993" d="M977 0h-164l-485 539v-539h-164v1290h164v-590l450 590h174l-495 -663l520 -578v-49z" />
<glyph unicode="L" horiz-adv-x="782" d="M319 1290v-1155h445v-135h-600v1290h155z" />
<glyph unicode="M" horiz-adv-x="1519" d="M1356 1290v-1290h-164v877l10 178l-371 -1055h-143l-371 1057q10 -106 11 -176v-881h-164v1290h217l379 -1089l379 1089h217z" />
<glyph unicode="N" horiz-adv-x="1134" d="M971 0h-168l-486 1053q10 -96 11 -176v-877h-164v1290h217l436 -987q-10 98 -10 180v807h164v-1290z" />
<glyph unicode="O" horiz-adv-x="1122" d="M561 1186q-78 0 -137 -59.5t-89 -150.5t-44.5 -175t-14.5 -156t14.5 -155.5t44.5 -175t89 -151t137 -59.5t137.5 59.5t89 151t44 175t14.5 155.5t-14.5 156t-44 175t-89 150.5t-137.5 59.5zM561 1321q119 0 210 -65.5t141.5 -171t74 -217t23.5 -222t-23.5 -222.5 t-74 -217.5t-141.5 -171t-210 -65.5t-210 65.5t-141 171t-73.5 217.5t-23.5 222.5t23.5 222t73.5 217t141 171t210 65.5z" />
<glyph unicode="P" horiz-adv-x="1001" d="M442 1159h-114v-522q98 -43 166 -43q121 0 192.5 89t71.5 212q0 133 -89.5 198.5t-226.5 65.5zM442 1290q211 0 345.5 -98t134.5 -299q0 -190 -114 -311t-304 -121q-100 0 -176 41v-502h-164v1290h278z" />
<glyph unicode="Q" horiz-adv-x="1122" d="M686 -10q129 -137 262 -137q41 0 74 8l-43 -156q-33 -4 -49 -4q-51 0 -96.5 13.5t-88.5 45t-67.5 52t-69.5 66.5l-57 59l-37 34q-106 12 -188 83t-126 172.5t-65.5 208t-21.5 210.5q0 111 23.5 222.5t73.5 217t141 171t210 65.5t210 -65.5t141.5 -171t74 -217 t23.5 -222.5q0 -209 -80 -402.5t-244 -252.5zM561 1186q-78 0 -137 -59.5t-89 -150.5t-44.5 -175t-14.5 -156t14.5 -155.5t44.5 -175t89 -151t137 -59.5t137.5 59.5t89 151t44 175t14.5 155.5t-14.5 156t-44 175t-89 150.5t-137.5 59.5z" />
<glyph unicode="R" horiz-adv-x="1034" d="M758 895q0 133 -89 198.5t-227 65.5h-114v-522q94 -43 151 -43q129 0 204 85t75 216zM983 0h-160l-424 471q-39 12 -71 31v-502h-164v1290h278q211 0 345.5 -98t134.5 -299q0 -158 -84 -274.5t-236 -147.5l381 -422v-49z" />
<glyph unicode="S" horiz-adv-x="888" d="M451 1321q88 0 173 -41t130 -111l-92 -77q-78 98 -211 98q-86 0 -142.5 -49t-56.5 -133q0 -82 57.5 -146.5t138 -109.5t161.5 -96.5t138.5 -136.5t57.5 -200q0 -158 -110.5 -254t-270.5 -96q-76 0 -161 34t-146 87l69 117q129 -106 240 -107q96 0 158.5 62.5t62.5 159.5 q0 72 -57.5 132t-137.5 107l-163 99q-82 52 -139.5 134.5t-57.5 188.5q0 162 97.5 250t261.5 88z" />
<glyph unicode="T" horiz-adv-x="829" d="M809 1147h-315v-1147h-160v1147h-314v143h789v-143z" />
<glyph unicode="U" horiz-adv-x="1142" d="M981 494q0 -225 -98.5 -375t-311.5 -150t-311 151.5t-98 381.5v788h164v-790q0 -395 245.5 -395.5t245.5 397.5v788h164v-796z" />
<glyph unicode="V" horiz-adv-x="1044" d="M1034 1290l-422 -1290h-180l-420 1290h178l336 -1093l338 1093h170z" />
<glyph unicode="W" horiz-adv-x="1449" d="M1434 1290l-304 -1290h-174l-229 1042l-229 -1042h-174l-304 1290h175l198 -913q16 -72 17 -135l235 1048h164l235 -1048q0 63 17 135l207 913h166z" />
<glyph unicode="X" horiz-adv-x="1007" d="M983 0h-188l-303 512l-293 -512h-179l383 662l-372 628h178l285 -473l274 473h168l-354 -620z" />
<glyph unicode="Y" horiz-adv-x="964" d="M940 1290l-377 -817v-473h-162v473l-374 817h174l286 -643l289 643h164z" />
<glyph unicode="Z" horiz-adv-x="937" d="M821 1290v-141q-301 -496 -567 -1006h623v-143h-803v139q283 559 557 1010h-512v141h702z" />
<glyph unicode="[" horiz-adv-x="507" d="M375 1499v-119h-191v-1581h191v-118h-318v1818h318z" />
<glyph unicode="\" horiz-adv-x="686" d="M682 -303h-127l-530 1853h127z" />
<glyph unicode="]" horiz-adv-x="509" d="M453 1499v-1818h-318v118h191v1581h-191v119h318z" />
<glyph unicode="^" horiz-adv-x="1277" d="M1128 655h-143l-348 629l-348 -629h-144l435 795h114q405 -746 434 -795z" />
<glyph unicode="_" d="M922 -154v-122h-922v122h922z" />
<glyph unicode="`" horiz-adv-x="692" d="M535 1241l-66 -92q-240 127 -377 262l127 129q107 -147 316 -299z" />
<glyph unicode="a" horiz-adv-x="954" d="M627 426v84l-361 -152q-27 -57 -26 -106q0 -68 36.5 -114t102.5 -46q109 0 178.5 109.5t69.5 224.5zM928 10q-59 -37 -119 -37q-82 0 -131 49.5t-49 131.5q-25 -86 -106 -135.5t-175 -49.5q-123 0 -192.5 76t-69.5 201q0 72 59 182l482 205v129q0 72 -43 108.5t-115 36.5 q-70 0 -146.5 -44t-129.5 -103l-58 96q61 78 157.5 128t190.5 50q137 0 218 -68.5t81 -203.5v-625q0 -61 66 -61q25 0 41 12z" />
<glyph unicode="b" horiz-adv-x="1030" d="M770 537q0 63 -8 119.5t-30.5 117t-69 96t-111.5 35.5q-59 0 -122.5 -32.5t-104.5 -79.5v-615q35 -39 92 -61.5t110 -22.5q72 0 123 46t76 120t35 141.5t10 135.5zM930 559q0 -92 -12.5 -172t-43 -158.5t-78.5 -135t-125 -90.5t-175 -34q-78 0 -169 36t-159 87v1329h156 v-493q43 49 113.5 77.5t135.5 28.5q172 0 264.5 -146.5t92.5 -328.5z" />
<glyph unicode="c" horiz-adv-x="843" d="M793 86q-57 -49 -137.5 -83t-151.5 -34q-197 0 -300.5 158t-103.5 365q0 129 39 247.5t134.5 206.5t228.5 88q156 0 262 -102l-70 -92q-86 72 -190 71q-86 0 -145.5 -71.5t-81 -157.5t-21.5 -170q0 -90 21.5 -180t84 -165t154.5 -75q86 0 225 90z" />
<glyph unicode="d" horiz-adv-x="1048" d="M729 459v413q-88 37 -184 37q-283 0 -283 -442q0 -55 11.5 -114.5t34 -121t68.5 -100.5t105 -39q115 0 181.5 121t66.5 246zM940 70l-43 -101q-78 4 -113 39q-47 51 -47 142q-23 -86 -102.5 -133.5t-173.5 -47.5q-172 0 -265.5 146.5t-93.5 328.5q0 119 20.5 218.5 t68 186.5t134.5 136t207 49q88 0 197 -30v417h156v-1233q0 -112 55 -118z" />
<glyph unicode="e" horiz-adv-x="964" d="M715 668q0 94 -55.5 168.5t-147.5 74.5q-90 0 -151.5 -73.5t-81.5 -169.5h436zM879 551h-619v-39q0 -84 20.5 -174t79 -168t144.5 -78q100 0 284 127l50 -98q-72 -61 -170.5 -106.5t-180.5 -45.5q-104 0 -183 52.5t-121 138.5t-62.5 179t-20.5 189q0 197 118 351.5 t308 154.5q145 0 241.5 -114.5t106.5 -264.5q2 -16 2.5 -51t2.5 -53z" />
<glyph unicode="f" horiz-adv-x="585" d="M565 1327q-8 0 -26.5 -2t-54 -14.5t-66.5 -30.5t-53.5 -56t-22.5 -87v-133h199v-119h-199v-885h-156v885l-135 18v101h135v159q0 242 351 285z" />
<glyph unicode="g" horiz-adv-x="931" d="M885 881h-146q47 -82 47 -192.5t-70.5 -196.5t-178.5 -119q-4 -2 -23.5 -7.5t-30 -9.5t-32 -11t-36 -13t-32.5 -15.5t-30 -18.5l-23 -19q-12 -10 -17.5 -23.5t-5.5 -26.5q0 -72 254 -71h70q100 0 168.5 -56.5t68.5 -152.5q0 -166 -137 -262.5t-309 -96.5 q-137 0 -238.5 56.5t-101.5 183.5q0 47 15.5 85t49 67.5t60 47t76.5 44.5q-55 6 -95.5 42t-40.5 87q0 37 15.5 66.5t48.5 52t56.5 34t64.5 27.5q-98 35 -157.5 121t-59.5 190q0 152 96 246t248 94q90 0 149 -30h277v-123zM637 700q0 86 -51 157t-135 71t-135.5 -71 t-51.5 -157t51.5 -156.5t135.5 -70.5t135 70.5t51 156.5zM717 -70q0 119 -197 119h-121q-37 -20 -58.5 -34.5t-50 -39t-43 -53t-14.5 -61.5q0 -80 56.5 -119t140.5 -39q102 0 194.5 64.5t92.5 162.5z" />
<glyph unicode="h" horiz-adv-x="1062" d="M899 0h-156v762q0 76 -24.5 110.5t-95.5 34.5q-78 0 -167 -33.5t-132 -70.5v-803h-156v1421h156v-491q55 39 151 71.5t174 32.5q147 0 198.5 -69.5t51.5 -202.5v-762z" />
<glyph unicode="i" horiz-adv-x="487" d="M319 1004v-1004h-151v1004h151zM123 1284q0 47 35 78t82 31q45 0 78.5 -30t33.5 -75q0 -47 -34.5 -77.5t-81.5 -30.5q-45 0 -79 29.5t-34 74.5z" />
<glyph unicode="j" horiz-adv-x="487" d="M319 -119q0 -195 -282 -274l-35 108q166 63 166 181v1108h151v-1123zM123 1284q0 47 35 78t82 31q45 0 78.5 -30t33.5 -75q0 -47 -34.5 -77.5t-81.5 -30.5q-45 0 -79 29.5t-34 74.5z" />
<glyph unicode="k" horiz-adv-x="964" d="M956 0h-163l-469 559v-559h-156v1421h156v-837l362 420h184l-368 -433l454 -534v-37z" />
<glyph unicode="l" horiz-adv-x="483" d="M307 1421v-1018q0 -203 62 -403h-162q-51 139 -51 403v1018h151z" />
<glyph unicode="m" horiz-adv-x="1579" d="M1415 0h-155v762q0 74 -29 109.5t-101 35.5q-150 0 -262 -92q2 -18 2 -53v-762h-155v762q0 74 -29 109.5t-100 35.5q-131 0 -262 -104v-803h-156v1004h156v-74q145 104 276 104q182 0 238 -106q53 43 146 74.5t161 31.5q270 0 270 -272v-762z" />
<glyph unicode="n" horiz-adv-x="1062" d="M899 0h-156v762q0 76 -24.5 110.5t-95.5 34.5q-78 0 -168 -34.5t-131 -69.5v-803h-156v1004h156v-74q55 39 151 71.5t174 32.5q147 0 198.5 -69.5t51.5 -202.5v-762z" />
<glyph unicode="o" horiz-adv-x="999" d="M500 911q-80 0 -138.5 -72.5t-82 -163.5t-23.5 -175q0 -139 64.5 -273.5t179 -134.5t179 134t64.5 274q0 84 -23.5 175t-81.5 163.5t-138 72.5zM500 1034q131 0 225 -87t134 -203.5t40 -243.5q0 -125 -41 -243t-135 -203t-223 -85t-223.5 85t-135.5 203t-41 243 q0 127 40 243.5t134.5 203.5t225.5 87z" />
<glyph unicode="p" horiz-adv-x="1056" d="M795 537q0 63 -8.5 120.5t-31 119t-68.5 98t-112 36.5q-61 0 -128.5 -34.5t-118.5 -83.5v-295q0 -68 10 -131.5t35.5 -129t78 -105.5t123.5 -40q68 0 115 47t68.5 124t29 141.5t7.5 132.5zM598 1034q172 0 264 -146.5t92 -328.5q0 -78 -9 -152.5t-33.5 -156.5 t-64.5 -142.5t-107.5 -99.5t-153.5 -39q-188 0 -258 158v-487h-156v1364h156v-76q51 47 126.5 76.5t143.5 29.5z" />
<glyph unicode="q" horiz-adv-x="1056" d="M731 498v376q-84 33 -190 33q-137 0 -207 -112.5t-70 -257.5q0 -442 217 -443q51 0 99 29q151 92 151 375zM887 -360h-156v487q-74 -158 -258 -158q-98 0 -173 47t-116 124t-61.5 163t-20.5 178q0 96 24 190.5t70 177.5t126.5 134t183.5 51q150 0 381 -63v-1331z" />
<glyph unicode="r" horiz-adv-x="653" d="M643 1004l-55 -140q-33 27 -92 27q-33 0 -70 -22.5t-51.5 -36t-50.5 -50.5v-782h-156v1004h158v-80q4 4 18 19t22 22l23 19q16 13 29.5 20.5t33 15.5t42 11t49.5 3q25 0 50 -7t38 -15z" />
<glyph unicode="s" horiz-adv-x="860" d="M764 260q0 -143 -103.5 -217t-250.5 -74q-160 0 -293 119l57 111q141 -109 244 -109q82 0 139 38t57 116q0 94 -127 157l-213 107q-178 90 -178 260q0 131 101.5 198.5t238.5 67.5q90 0 175 -35.5t134 -103.5l-81 -82q-100 100 -232 100q-72 0 -127 -34.5t-55 -102.5 q0 -37 25.5 -68.5t49.5 -44.5l66 -36l189 -92q184 -91 184 -275z" />
<glyph unicode="t" horiz-adv-x="626" d="M575 27q-90 -57 -208 -58q-80 0 -130.5 54.5t-50.5 175.5v686l-135 18v101h144v178h143v-178h203v-119h-199v-678q0 -113 80 -113q23 0 52.5 7.5t47.5 13.5l19 8z" />
<glyph unicode="u" horiz-adv-x="1062" d="M938 72l-51 -103q-55 0 -95 32t-49 85q-61 -53 -151 -85t-172 -32q-139 0 -197.5 66.5t-58.5 206.5v762h155v-762q0 -76 21.5 -111t93.5 -35q68 0 161 36t144 81v791h156v-850q0 -78 43 -82z" />
<glyph unicode="v" horiz-adv-x="925" d="M899 1004q-129 -543 -360 -1004h-154l-365 1004h168l277 -828q199 453 278 828h156z" />
<glyph unicode="w" horiz-adv-x="1372" d="M1339 1004q-86 -520 -276 -1004h-166l-139 512q-14 53 -29.5 130t-23.5 128l-9 49q-25 -182 -57 -307l-137 -512h-172l-305 1004h163l230 -816l194 816h162l213 -816q125 379 203 816h149z" />
<glyph unicode="x" horiz-adv-x="868" d="M844 0h-174l-244 391l-238 -391h-163l317 520l-301 484h170l217 -349l211 349h164l-293 -478z" />
<glyph unicode="y" horiz-adv-x="929" d="M905 1004q-250 -973 -493 -1256q-78 -90 -240 -129l-33 119q70 16 152 86q43 37 106 160l-374 1020h163l234 -658q39 -115 55 -205q154 383 275 863h155z" />
<glyph unicode="z" horiz-adv-x="872" d="M807 0h-737v133q279 463 518 739h-477v132h657v-136q-291 -354 -518 -735h557v-133z" />
<glyph unicode="{" horiz-adv-x="681" d="M594 -221l-23 -111h-116q-41 0 -72 8.5t-64.5 33t-51 80.5t-17.5 142v361q0 102 -52.5 175t-115.5 73v96q63 0 115.5 71.5t52.5 174.5v360q0 160 55 213t146 53h120l23 -110h-121q-57 0 -77.5 -36t-20.5 -149v-360q0 -82 -38 -149.5t-75 -94.5l-39 -26l16.5 -10.5t37 -30 t46 -51t36 -73.5t16.5 -97v-361q0 -113 21.5 -147.5t88.5 -34.5h109z" />
<glyph unicode="|" horiz-adv-x="454" d="M289 1548v-1585h-123v1585h123z" />
<glyph unicode="}" horiz-adv-x="681" d="M594 541q-63 0 -115.5 -73t-52.5 -175v-361q0 -86 -17.5 -142t-51 -80.5t-64.5 -33t-72 -8.5h-117l-22 111h108q68 0 89.5 34.5t21.5 147.5v361q0 51 15.5 97t38 74.5t45 50t38.5 29.5l15 11q-6 4 -16.5 10t-37 31.5t-46 54.5t-36 76t-16.5 98v360q0 113 -20.5 149 t-77.5 36h-121l22 110h121q41 0 72 -8t62.5 -33.5t49 -82t17.5 -142.5v-360q0 -102 52 -174t116 -72v-96z" />
<glyph unicode="~" horiz-adv-x="1363" d="M299 631q25 53 74 90t104 37q78 0 213 -70t209 -70q113 0 166 119l-2 -147q-25 -47 -75 -77t-103 -30q-76 0 -213 70t-209 70q-106 0 -164 -119v127z" />
<glyph unicode="&#xa1;" horiz-adv-x="540" d="M119 905q0 51 40 89t91 38q49 0 84 -33.5t35 -83t-40 -87t-91 -37.5q-49 0 -84 32.5t-35 81.5zM143 -430q35 199 35 395v705h123q31 -565 31 -754q0 -170 -33 -326z" />
<glyph unicode="&#xa2;" horiz-adv-x="843" d="M449 102v795q-100 -33 -146.5 -147.5t-46.5 -237.5q0 -125 47.5 -249t145.5 -161zM541 1169v-139q137 -14 223 -98l-70 -92q-63 51 -153 65v-811q82 10 200 88l52 -96q-98 -92 -252 -115v-123h-92v123q-133 23 -226 131q-123 141 -123 390q0 238 101 372q96 133 248 164 v141h92z" />
<glyph unicode="&#xa3;" horiz-adv-x="905" d="M815 76q-41 -45 -102.5 -76t-118.5 -31q-27 0 -72 7.5t-76 15.5l-30 8h-307q74 330 73 514v264l-121 13l41 102h80v270q0 129 97.5 191.5t232.5 62.5q145 0 213 -57l-35 -94q-63 37 -166 37q-186 0 -186 -170v-240h274v-123h-274v-260q0 -180 -47 -385h145 q119 -39 180 -39q47 0 96.5 26.5t80.5 65.5z" />
<glyph unicode="&#xa4;" horiz-adv-x="1110" d="M1126 1270l-57 -123q-113 137 -301 137q-330 0 -379 -399h561l-61 -129h-516q-4 -53 -4 -68q0 -16 4 -61h456l-61 -129h-379q23 -190 119 -292t240 -102q86 0 171 43t146 119v-164q-127 -127 -328 -127q-195 0 -332 141.5t-159 381.5h-226l62 129h149q-2 27 -2 63 q0 39 2 66h-211l62 129h164q25 229 167 378.5t365 149.5q205 0 348 -143z" />
<glyph unicode="&#xa5;" horiz-adv-x="974" d="M956 649h-303l-84 -182v-10h383v-123h-383v-334h-163v334h-375v123h375v12l-84 180h-287v123h229l-239 518h174l288 -643l289 643h172q-238 -518 -239 -518h247v-123z" />
<glyph unicode="&#xa7;" horiz-adv-x="860" d="M616 537q0 66 -52 105.5t-120 39.5q-94 0 -150 -47t-56 -139q0 -57 52 -93t111 -36q92 0 153.5 41t61.5 129zM432 1325q158 0 295 -78l-55 -106q-139 66 -244 65q-80 0 -131 -42t-51 -120q0 -51 53 -92t129 -74.5t150.5 -72.5t128 -105.5t53.5 -152.5 q0 -109 -59.5 -179.5t-165.5 -93.5q63 -33 103 -59.5t77 -77.5t37 -110q0 -154 -98.5 -236t-254.5 -82q-186 0 -356 101l57 112q147 -90 308 -90q86 0 141 42t55 126q0 61 -53 108.5t-130 80.5l-154 71q-77 37 -130 95.5t-53 133.5q0 125 73.5 195t200.5 88 q-147 70 -192 111q-74 66 -74 155q0 139 98.5 213t241.5 74z" />
<glyph unicode="&#xa8;" horiz-adv-x="786" d="M322 1315q0 -45 -39 -80t-84 -35q-33 0 -55.5 21.5t-22.5 54.5q0 45 36 83t81 38q35 0 59.5 -23.5t24.5 -58.5zM637 1315q0 -45 -39 -80t-84 -35q-33 0 -55.5 21.5t-22.5 54.5q0 45 36 83t81 38q35 0 59.5 -23.5t24.5 -58.5z" />
<glyph unicode="&#xa9;" horiz-adv-x="1800" d="M1563 501.5q0 -272.5 -193.5 -466t-466 -193.5t-465 193.5t-192.5 466t192.5 465t464.5 192.5q274 0 467 -192.5t193 -465zM1462 501.5q0 231.5 -163.5 395.5t-395 164t-394.5 -164t-163 -395q0 -236 164 -397.5t399 -161.5q229 0 391 163.5t162 395zM1137 233 q-41 -39 -104.5 -68.5t-114.5 -29.5q-152 0 -238 104.5t-86 260.5q0 154 82 262t231 108q123 0 209 -79l-55 -70q-61 51 -154 51q-104 0 -150 -77t-46 -189q0 -117 50 -196t161 -79q76 0 172 70z" />
<glyph unicode="&#xaa;" horiz-adv-x="860" d="M764 260q0 -143 -103.5 -217t-250.5 -74q-160 0 -293 119l57 111q141 -109 244 -109q82 0 139 38t57 116q0 94 -127 157l-213 107q-178 90 -178 260q0 131 101.5 198.5t238.5 67.5q90 0 175 -35.5t134 -103.5l-81 -82q-100 100 -232 100q-72 0 -127 -34.5t-55 -102.5 q0 -37 25.5 -68.5t49.5 -44.5l66 -36l189 -92q184 -91 184 -275zM182 1501q119 -63 248 -205q166 158 252 203l66 -92q-203 -145 -316 -299q-137 178 -315 301z" />
<glyph unicode="&#xab;" horiz-adv-x="1024" d="M547 205l-96 -78l-383 385l378 385l97 -78l-305 -307zM911 205l-96 -78l-383 385l379 385l96 -78l-305 -307z" />
<glyph unicode="&#xac;" horiz-adv-x="1095" d="M920 360l-121 -22v422h-705v123h826v-523z" />
<glyph unicode="&#xad;" horiz-adv-x="618" d="M502 584v-123h-391v123h391z" />
<glyph unicode="&#xae;" horiz-adv-x="1800" d="M1556 499.5q0 -274.5 -192.5 -467t-464.5 -192.5t-464.5 193.5t-192.5 466.5q0 274 191.5 465.5t466 191.5t465.5 -191.5t191 -466zM1456 499.5q0 231.5 -164 395.5t-393 164q-231 0 -394 -164t-163 -395q0 -238 163 -398.5t400 -160.5q231 0 391 163.5t160 395z M1192 145h-109l-245 248q-23 6 -45 19v-267h-105v727h176q125 0 212 -59t87 -178q0 -84 -57 -159t-139 -83l225 -217v-31zM1055 639q0 78 -54.5 113.5t-136.5 35.5h-71v-290q57 -27 94 -27q76 0 122 45t46 123z" />
<glyph unicode="&#xaf;" horiz-adv-x="686" d="M623 1294v-120h-562v120h562z" />
<glyph unicode="&#xb0;" horiz-adv-x="720" d="M352 1231q-80 0 -136 -56.5t-56 -136.5t56 -136t136 -56t136.5 56t56.5 136t-56.5 136.5t-136.5 56.5zM352.5 1323q116.5 0 200.5 -84t84 -200.5t-84 -200.5t-200.5 -84t-200.5 84t-84 200.5t84 200.5t200.5 84z" />
<glyph unicode="&#xb1;" horiz-adv-x="915" d="M852 121v-123h-739v123h739zM872 451h-331v-256h-119v256h-330v122h330v355h119v-355h331v-122z" />
<glyph unicode="&#xb2;" d="M465 1034q143 0 228 -70.5t85 -211.5q0 -188 -190 -404q-131 -147 -228 -213h455v-135h-659l-29 127q156 84 325 279.5t169 343.5q0 74 -52.5 113.5t-128.5 39.5q-133 0 -284 -117l-29 119q92 72 162 100.5t176 28.5z" />
<glyph unicode="&#xb3;" d="M530 1034q109 0 179.5 -63.5t70.5 -171.5q0 -57 -24.5 -106.5t-73.5 -91.5t-86 -66.5t-98 -59.5q129 0 218 -78t89 -204q0 -178 -95.5 -304.5t-238.5 -180.5t-315 -52h-9v119q68 0 146 20q358 82 358 365q0 193 -289 192q-59 0 -174 -12v119l91 12q133 72 258 172 q90 70 90 152q0 51 -39 81.5t-92 30.5q-51 0 -142.5 -38t-156.5 -76l-37 108q206 133 370 133z" />
<glyph unicode="&#xb4;" horiz-adv-x="692" d="M436 1540l127 -129q-139 -137 -377 -262l-65 92q200 145 315 299z" />
<glyph unicode="&#xb5;" horiz-adv-x="1062" d="M371 -180q0 -76 -39 -144l-205 -36q59 137 59 229q0 61 -11 186t-11 187v762h155v-762q0 -76 21.5 -111t93.5 -35q70 0 162 36t143 81v791h156v-850q0 -80 43 -82l-51 -103q-55 0 -95 32t-49 85q-63 -51 -152 -84t-171 -33q-31 0 -88 31q39 -117 39 -180z" />
<glyph unicode="&#xb6;" horiz-adv-x="1112" d="M1018 1309l-6 -105l-107 -24q0 -348 -69.5 -741.5t-200.5 -659.5l-131 41q141 256 212.5 635t71.5 725q-256 27 -292 26q-86 0 -122 -72.5t-36 -166.5q0 -51 7 -99.5t25.5 -98.5t56.5 -81t93 -31q88 0 166 62q-102 -203 -293 -203q-164 0 -251 121t-87 291 q0 172 105.5 282.5t275.5 110.5q53 0 113.5 -5t133.5 -13l112 -13l-2 88h114q0 -59 -2 -88z" />
<glyph unicode="&#xb7;" horiz-adv-x="528" d="M397 504q0 -49 -40 -87t-91 -38q-49 0 -84 32.5t-35 82.5q0 51 40 87.5t92 36.5q49 0 83.5 -32.5t34.5 -81.5z" />
<glyph unicode="&#xb8;" horiz-adv-x="823" d="M678 -129q0 -68 -67.5 -131.5t-143.5 -95.5l-78 63q166 90 166 154q0 27 -18.5 43t-47.5 16q-27 0 -100 -18v96h213q76 -55 76 -127z" />
<glyph unicode="&#xb9;" d="M612 0h-151v858h-258v98q88 0 194 29l74 19h141v-1004z" />
<glyph unicode="&#xba;" horiz-adv-x="843" d="M793 86q-57 -49 -137.5 -83t-151.5 -34q-197 0 -300.5 158t-103.5 365q0 129 39 247.5t134.5 206.5t228.5 88q156 0 262 -102l-70 -92q-86 72 -190 71q-86 0 -145.5 -71.5t-81 -157.5t-21.5 -170q0 -90 21.5 -180t84 -165t154.5 -75q86 0 225 90zM571 1540l127 -129 q-139 -137 -376 -262l-66 92q200 145 315 299z" />
<glyph unicode="&#xbb;" horiz-adv-x="1024" d="M496 205l96 -78l383 385l-379 385l-96 -78l305 -307zM131 205l96 -78l383 385l-379 385l-96 -78l305 -307z" />
<glyph unicode="&#xbc;" horiz-adv-x="2537" d="M2480 0h-135v-283h-145v283h-512l-9 133q139 387 502 871h168v-871h131v-133zM2200 133v680q-242 -354 -369 -680h369zM1782 1526l-880 -1794h-130l881 1794h129zM612 0h-151v858h-258v98q88 0 194 29l74 19h141v-1004z" />
<glyph unicode="&#xbd;" horiz-adv-x="2537" d="M2081 1034q143 0 228 -70.5t85 -211.5q0 -188 -190 -404q-131 -147 -228 -213h455v-135h-659l-29 127q156 84 325 279.5t169 343.5q0 74 -52.5 113.5t-128.5 39.5q-133 0 -284 -117l-29 119q92 72 162 100.5t176 28.5zM1782 1526l-880 -1794h-130l881 1794h129zM612 0 h-151v858h-258v98q88 0 194 29l74 19h141v-1004z" />
<glyph unicode="&#xbe;" horiz-adv-x="2537" d="M2480 0h-135v-283h-145v283h-512l-9 133q139 387 502 871h168v-871h131v-133zM2200 133v680q-242 -354 -369 -680h369zM1782 1526l-880 -1794h-130l881 1794h129zM530 1034q109 0 179.5 -63.5t70.5 -171.5q0 -57 -24.5 -106.5t-73.5 -91.5t-86 -66.5t-98 -59.5 q129 0 218 -78t89 -204q0 -178 -95.5 -304.5t-238.5 -180.5t-315 -52h-9v119q68 0 146 20q358 82 358 365q0 193 -289 192q-59 0 -174 -12v119l91 12q133 72 258 172q90 70 90 152q0 51 -39 81.5t-92 30.5q-51 0 -142.5 -38t-156.5 -76l-37 108q206 133 370 133z" />
<glyph unicode="&#xbf;" horiz-adv-x="733" d="M369 909q0 51 40 88t91 37q49 0 83.5 -32.5t34.5 -82t-39.5 -87t-91.5 -37.5q-49 0 -83.5 32.5t-34.5 81.5zM430 666h125v-99q0 -86 -2 -127t-20.5 -103.5t-55.5 -111.5l-168 -225q-70 -92 -69 -160q0 -59 30.5 -94t87.5 -35q88 0 172 19v-117q-111 -27 -184 -27 q-121 0 -190.5 63.5t-69.5 186.5q0 94 100 230l164 215q47 61 63.5 121.5t16.5 164.5v99z" />
<glyph unicode="&#xc0;" horiz-adv-x="1044" d="M522 1120l-153 -569h307zM1020 0h-168l-137 416h-385l-137 -416h-168l409 1290h176zM750 1507l-66 -92q-240 127 -377 262l127 129q107 -147 316 -299z" />
<glyph unicode="&#xc1;" horiz-adv-x="1044" d="M522 1120l-153 -569h307zM1020 0h-168l-137 416h-385l-137 -416h-168l409 1290h176zM623 1806l127 -129q-139 -137 -377 -262l-66 92q201 145 316 299z" />
<glyph unicode="&#xc2;" horiz-adv-x="1044" d="M522 1120l-153 -569h307zM1020 0h-168l-137 416h-385l-137 -416h-168l409 1290h176zM829 1507l-65 -94q-117 61 -248 205q-133 -145 -248 -205l-65 92q164 113 313 301q127 -164 313 -299z" />
<glyph unicode="&#xc3;" horiz-adv-x="1044" d="M522 1120l-153 -569h307zM1020 0h-168l-137 416h-385l-137 -416h-168l409 1290h176zM385 1700q59 0 146 -45t135 -45q53 0 83.5 13t88.5 52l63 -78q-74 -68 -125 -91t-125 -23q-41 0 -128 45t-144 45q-18 0 -35.5 -4t-40.5 -16l-33 -16q-10 -5 -38.5 -23.5t-32.5 -20.5 l-60 88q152 119 246 119z" />
<glyph unicode="&#xc4;" horiz-adv-x="1044" d="M522 1120l-153 -569h307zM1020 0h-168l-137 416h-385l-137 -416h-168l409 1290h176zM459 1581q0 -45 -39 -80t-84 -35q-33 0 -55.5 21.5t-22.5 54.5q0 45 36 83t81 38q35 0 59.5 -23.5t24.5 -58.5zM774 1581q0 -45 -39 -80t-84 -35q-33 0 -55.5 21.5t-22.5 54.5 q0 45 36 83t81 38q35 0 59.5 -23.5t24.5 -58.5z" />
<glyph unicode="&#xc5;" horiz-adv-x="1044" d="M522 1120l-153 -569h307zM1020 0h-168l-137 416h-385l-137 -416h-168l409 1290h176zM645 1605.5q0 49.5 -35 86.5t-82 37q-51 0 -89 -37t-38 -86.5t37 -86t84 -36.5q49 0 86 36.5t37 86zM739 1606q0 -90 -64.5 -153.5t-152.5 -63.5t-150.5 63.5t-62.5 153.5 q0 88 64.5 152.5t152.5 64.5t150.5 -63.5t62.5 -153.5z" />
<glyph unicode="&#xc6;" horiz-adv-x="1486" d="M522 1120l-151 -569h305zM1384 1290v-137h-499v-410h383v-141h-383v-461h520v-141h-684v416h-389l-137 -416h-170l407 1290h191l98 -432v432h663z" />
<glyph unicode="&#xc7;" horiz-adv-x="1017" d="M770 -129q0 -68 -67.5 -131.5t-143.5 -95.5l-78 63q166 90 166 154q0 27 -18.5 43t-46.5 16q-27 0 -101 -18v82q-102 29 -177 98.5t-114.5 164.5t-58 194.5t-18.5 203.5q0 119 29.5 233.5t87 216t157.5 164t227 62.5q199 0 332 -88l-59 -107q-127 68 -273 68 q-82 0 -154.5 -62.5t-111.5 -144.5q-72 -145 -72 -350q0 -90 16.5 -176t52.5 -172t106.5 -138.5t166.5 -52.5q164 0 277 90l72 -104q-98 -80 -250 -107q53 -53 53 -106z" />
<glyph unicode="&#xc8;" horiz-adv-x="929" d="M827 1290v-137h-499v-410h383v-141h-383v-461h520v-141h-684v1290h663zM727 1507l-65 -92q-233 123 -377 262l127 129q112 -152 315 -299z" />
<glyph unicode="&#xc9;" horiz-adv-x="929" d="M827 1290v-137h-499v-410h383v-141h-383v-461h520v-141h-684v1290h663zM604 1806l127 -129q-139 -137 -377 -262l-65 92q200 145 315 299z" />
<glyph unicode="&#xca;" horiz-adv-x="929" d="M827 1290v-137h-499v-410h383v-141h-383v-461h520v-141h-684v1290h663zM811 1507l-66 -94q-117 61 -247 205q-141 -150 -248 -205l-66 92q164 113 314 301q131 -170 313 -299z" />
<glyph unicode="&#xcb;" horiz-adv-x="929" d="M827 1290v-137h-499v-410h383v-141h-383v-461h520v-141h-684v1290h663zM438 1581q0 -45 -38 -80t-83 -35q-33 0 -55 21.5t-22 54.5q0 45 34.5 83t81.5 38q35 0 58.5 -23.5t23.5 -58.5zM754 1581q0 -45 -38 -80t-83 -35q-33 0 -55.5 21.5t-22.5 54.5q0 45 35 83t82 38 q35 0 58.5 -23.5t23.5 -58.5z" />
<glyph unicode="&#xcc;" horiz-adv-x="487" d="M467 1507l-66 -92q-236 123 -376 262l127 129q110 -154 315 -299zM324 1290v-1290h-160v1290h160z" />
<glyph unicode="&#xcd;" horiz-adv-x="487" d="M338 1806l127 -129q-139 -137 -377 -262l-65 92q200 145 315 299zM324 1290v-1290h-160v1290h160z" />
<glyph unicode="&#xce;" horiz-adv-x="487" d="M557 1507l-65 -94q-117 61 -248 205q-133 -145 -248 -205l-66 92q164 113 314 301q127 -164 313 -299zM324 1290v-1290h-160v1290h160z" />
<glyph unicode="&#xcf;" horiz-adv-x="487" d="M186 1581q0 -45 -38.5 -80t-84.5 -35q-33 0 -55 21.5t-22 54.5q0 45 35.5 83t80.5 38q35 0 59.5 -23.5t24.5 -58.5zM502 1581q0 -45 -39 -80t-84 -35q-33 0 -55.5 21.5t-22.5 54.5q0 45 36 83t81 38q35 0 59.5 -23.5t24.5 -58.5zM324 1290v-1290h-160v1290h160z" />
<glyph unicode="&#xd1;" horiz-adv-x="1134" d="M971 0h-168l-486 1053q10 -96 11 -176v-877h-164v1290h217l436 -987q-10 98 -10 180v807h164v-1290zM440 1700q59 0 146.5 -45t134.5 -45q53 0 84 13t88 52l63 -78q-74 -68 -125 -91t-124 -23q-41 0 -128 45t-145 45q-18 0 -35.5 -4t-40.5 -16l-32 -16q-10 -5 -39 -23.5 t-33 -20.5l-59 88q151 119 245 119z" />
<glyph unicode="&#xd2;" horiz-adv-x="1122" d="M778 1507l-65 -92q-240 127 -377 262l127 129q106 -147 315 -299zM561 1186q-78 0 -137 -59.5t-89 -150.5t-44.5 -175t-14.5 -156t14.5 -155.5t44.5 -175t89 -151t137 -59.5t137.5 59.5t89 151t44 175t14.5 155.5t-14.5 156t-44 175t-89 150.5t-137.5 59.5zM561 1321 q119 0 210 -65.5t141.5 -171t74 -217t23.5 -222t-23.5 -222.5t-74 -217.5t-141.5 -171t-210 -65.5t-210 65.5t-141 171t-73.5 217.5t-23.5 222.5t23.5 222t73.5 217t141 171t210 65.5z" />
<glyph unicode="&#xd3;" horiz-adv-x="1122" d="M657 1806l127 -129q-139 -137 -376 -262l-66 92q200 145 315 299zM561 1186q-78 0 -137 -59.5t-89 -150.5t-44.5 -175t-14.5 -156t14.5 -155.5t44.5 -175t89 -151t137 -59.5t137.5 59.5t89 151t44 175t14.5 155.5t-14.5 156t-44 175t-89 150.5t-137.5 59.5zM561 1321 q119 0 210 -65.5t141.5 -171t74 -217t23.5 -222t-23.5 -222.5t-74 -217.5t-141.5 -171t-210 -65.5t-210 65.5t-141 171t-73.5 217.5t-23.5 222.5t23.5 222t73.5 217t141 171t210 65.5z" />
<glyph unicode="&#xd4;" horiz-adv-x="1122" d="M872 1513l-65 -94q-113 57 -248 205q-129 -145 -248 -205l-65 92q160 109 313 301q127 -164 313 -299zM561 1186q-78 0 -137 -59.5t-89 -150.5t-44.5 -175t-14.5 -156t14.5 -155.5t44.5 -175t89 -151t137 -59.5t137.5 59.5t89 151t44 175t14.5 155.5t-14.5 156t-44 175 t-89 150.5t-137.5 59.5zM561 1321q119 0 210 -65.5t141.5 -171t74 -217t23.5 -222t-23.5 -222.5t-74 -217.5t-141.5 -171t-210 -65.5t-210 65.5t-141 171t-73.5 217.5t-23.5 222.5t23.5 222t73.5 217t141 171t210 65.5z" />
<glyph unicode="&#xd5;" horiz-adv-x="1122" d="M422 1700q59 0 146 -45t134 -45q53 0 84 13t88 52l64 -78q-74 -68 -125 -91t-125 -23q-41 0 -128 45t-144 45q-18 0 -36 -4t-40 -16l-33 -16q-10 -5 -38.5 -23.5t-32.5 -20.5l-60 88q152 119 246 119zM561 1186q-78 0 -137 -59.5t-89 -150.5t-44.5 -175t-14.5 -156 t14.5 -155.5t44.5 -175t89 -151t137 -59.5t137.5 59.5t89 151t44 175t14.5 155.5t-14.5 156t-44 175t-89 150.5t-137.5 59.5zM561 1321q119 0 210 -65.5t141.5 -171t74 -217t23.5 -222t-23.5 -222.5t-74 -217.5t-141.5 -171t-210 -65.5t-210 65.5t-141 171t-73.5 217.5 t-23.5 222.5t23.5 222t73.5 217t141 171t210 65.5z" />
<glyph unicode="&#xd6;" horiz-adv-x="1122" d="M561 1186q-78 0 -137 -59.5t-89 -150.5t-44.5 -175t-14.5 -156t14.5 -155.5t44.5 -175t89 -151t137 -59.5t137.5 59.5t89 151t44 175t14.5 155.5t-14.5 156t-44 175t-89 150.5t-137.5 59.5zM561 1321q119 0 210 -65.5t141.5 -171t74 -217t23.5 -222t-23.5 -222.5 t-74 -217.5t-141.5 -171t-210 -65.5t-210 65.5t-141 171t-73.5 217.5t-23.5 222.5t23.5 222t73.5 217t141 171t210 65.5zM500 1581q0 -45 -39 -80t-84 -35q-33 0 -55.5 21.5t-22.5 54.5q0 45 36 83t81 38q35 0 59.5 -23.5t24.5 -58.5zM815 1581q0 -45 -39 -80t-84 -35 q-33 0 -55.5 21.5t-22.5 54.5q0 45 36 83t81 38q35 0 59.5 -23.5t24.5 -58.5z" />
<glyph unicode="&#xd8;" horiz-adv-x="1122" d="M743 1087l-276 -964q45 -18 94 -19q90 0 150.5 55.5t87 147.5t37 172t10.5 166q-1 297 -103 442zM385 190l279 971q-45 25 -103 25q-88 0 -149.5 -57.5t-88 -152.5t-37 -176t-10.5 -167q0 -308 109 -443zM350 -287h-102l94 330q-119 92 -174 262t-55 348 q0 111 24.5 221.5t73.5 214t140 168t210 64.5q78 0 139 -27l70 240h102l-84 -293q115 -92 168.5 -257t53.5 -339q0 -111 -23.5 -222.5t-73 -217t-140.5 -171t-212 -65.5q-63 0 -131 23z" />
<glyph unicode="&#xd9;" horiz-adv-x="1142" d="M797 1507l-66 -92q-240 127 -377 262l127 129q107 -147 316 -299zM981 494q0 -225 -98.5 -375t-311.5 -150t-311 151.5t-98 381.5v788h164v-790q0 -395 245.5 -395.5t245.5 397.5v788h164v-796z" />
<glyph unicode="&#xda;" horiz-adv-x="1142" d="M674 1806l127 -129q-139 -137 -377 -262l-66 92q201 145 316 299zM981 494q0 -225 -98.5 -375t-311.5 -150t-311 151.5t-98 381.5v788h164v-790q0 -395 245.5 -395.5t245.5 397.5v788h164v-796z" />
<glyph unicode="&#xdb;" horiz-adv-x="1142" d="M881 1507l-66 -94q-117 61 -248 205q-133 -145 -248 -205l-65 92q164 113 313 301q128 -164 314 -299zM981 494q0 -225 -98.5 -375t-311.5 -150t-311 151.5t-98 381.5v788h164v-790q0 -395 245.5 -395.5t245.5 397.5v788h164v-796z" />
<glyph unicode="&#xdc;" horiz-adv-x="1126" d="M981 494q0 -225 -98.5 -375t-311.5 -150t-311 151.5t-98 381.5v788h164v-790q0 -395 245.5 -395.5t245.5 397.5v788h164v-796zM512 1581q0 -45 -39 -80t-84 -35q-33 0 -55.5 21.5t-22.5 54.5q0 45 36 83t81 38q35 0 59.5 -23.5t24.5 -58.5zM827 1581q0 -45 -38.5 -80 t-83.5 -35q-33 0 -55.5 21.5t-22.5 54.5q0 45 35.5 83t80.5 38q35 0 59.5 -23.5t24.5 -58.5z" />
<glyph unicode="&#xdd;" horiz-adv-x="964" d="M733 1835l127 -129q-139 -137 -377 -262l-65 92q200 145 315 299zM940 1290l-377 -817v-473h-162v473l-374 817h174l286 -643l289 643h164z" />
<glyph unicode="&#xdf;" horiz-adv-x="1171" d="M1110 254q0 -141 -103.5 -213t-250.5 -72q-188 0 -357 103l58 112q147 -92 307 -92q84 0 140.5 45t56.5 125q0 59 -53.5 106.5t-130.5 81.5l-153 70q-77 37 -130.5 95.5t-53.5 136.5q0 137 90.5 210.5t231.5 73.5q14 53 14 94q0 94 -62.5 145.5t-156.5 51.5 q-88 0 -153.5 -54t-65.5 -140v-1133h-156v885l-135 18v101h135v155q0 133 110.5 211t250.5 78q156 0 260 -92t104 -246q0 -53 -41 -209q-35 18 -90 19q-80 0 -131 -42t-51 -120q0 -49 53 -90t129 -75t152 -74t129 -107.5t53 -157.5z" />
<glyph unicode="&#xe0;" horiz-adv-x="954" d="M627 426v84l-361 -152q-27 -57 -26 -106q0 -68 36.5 -114t102.5 -46q109 0 178.5 109.5t69.5 224.5zM928 10q-59 -37 -119 -37q-82 0 -131 49.5t-49 131.5q-25 -86 -106 -135.5t-175 -49.5q-123 0 -192.5 76t-69.5 201q0 72 59 182l482 205v129q0 72 -43 108.5t-115 36.5 q-70 0 -146.5 -44t-129.5 -103l-58 96q61 78 157.5 128t190.5 50q137 0 218 -68.5t81 -203.5v-625q0 -61 66 -61q25 0 41 12zM686 1241l-65 -92q-240 127 -377 262l127 129q106 -147 315 -299z" />
<glyph unicode="&#xe1;" horiz-adv-x="954" d="M627 426v84l-361 -152q-27 -57 -26 -106q0 -68 36.5 -114t102.5 -46q109 0 178.5 109.5t69.5 224.5zM928 10q-59 -37 -119 -37q-82 0 -131 49.5t-49 131.5q-25 -86 -106 -135.5t-175 -49.5q-123 0 -192.5 76t-69.5 201q0 72 59 182l482 205v129q0 72 -43 108.5t-115 36.5 q-70 0 -146.5 -44t-129.5 -103l-58 96q61 78 157.5 128t190.5 50q137 0 218 -68.5t81 -203.5v-625q0 -61 66 -61q25 0 41 12zM573 1540l127 -129q-139 -137 -376 -262l-66 92q200 145 315 299z" />
<glyph unicode="&#xe2;" horiz-adv-x="954" d="M627 426v84l-361 -152q-27 -57 -26 -106q0 -68 36.5 -114t102.5 -46q109 0 178.5 109.5t69.5 224.5zM928 10q-59 -37 -119 -37q-82 0 -131 49.5t-49 131.5q-25 -86 -106 -135.5t-175 -49.5q-123 0 -192.5 76t-69.5 201q0 72 59 182l482 205v129q0 72 -43 108.5t-115 36.5 q-70 0 -146.5 -44t-129.5 -103l-58 96q61 78 157.5 128t190.5 50q137 0 218 -68.5t81 -203.5v-625q0 -61 66 -61q25 0 41 12zM774 1241l-65 -94q-117 61 -248 205q-133 -145 -248 -205l-66 92q164 113 314 301q127 -164 313 -299z" />
<glyph unicode="&#xe3;" horiz-adv-x="954" d="M332 1434q59 0 146 -45.5t134 -45.5q53 0 84 13.5t88 52.5l64 -78q-74 -68 -125 -91t-125 -23q-41 0 -128 45t-144 45q-18 0 -36 -4.5t-40 -15.5l-33 -16q-10 -5 -38.5 -23.5t-33.5 -20.5l-59 88q152 119 246 119zM627 426v84l-361 -152q-27 -57 -26 -106 q0 -68 36.5 -114t102.5 -46q109 0 178.5 109.5t69.5 224.5zM928 10q-59 -37 -119 -37q-82 0 -131 49.5t-49 131.5q-25 -86 -106 -135.5t-175 -49.5q-123 0 -192.5 76t-69.5 201q0 72 59 182l482 205v129q0 72 -43 108.5t-115 36.5q-70 0 -146.5 -44t-129.5 -103l-58 96 q61 78 157.5 128t190.5 50q137 0 218 -68.5t81 -203.5v-625q0 -61 66 -61q25 0 41 12z" />
<glyph unicode="&#xe4;" horiz-adv-x="954" d="M627 426v84l-361 -152q-27 -57 -26 -106q0 -68 36.5 -114t102.5 -46q109 0 178.5 109.5t69.5 224.5zM928 10q-59 -37 -119 -37q-82 0 -131 49.5t-49 131.5q-25 -86 -106 -135.5t-175 -49.5q-123 0 -192.5 76t-69.5 201q0 72 59 182l482 205v129q0 72 -43 108.5t-115 36.5 q-70 0 -146.5 -44t-129.5 -103l-58 96q61 78 157.5 128t190.5 50q137 0 218 -68.5t81 -203.5v-625q0 -61 66 -61q25 0 41 12zM403 1315q0 -45 -38.5 -80t-83.5 -35q-33 0 -55.5 21.5t-22.5 54.5q0 45 35.5 83t80.5 38q35 0 59.5 -23.5t24.5 -58.5zM719 1315q0 -45 -39 -80 t-84 -35q-33 0 -55.5 21.5t-22.5 54.5q0 45 36 83t81 38q35 0 59.5 -23.5t24.5 -58.5z" />
<glyph unicode="&#xe5;" horiz-adv-x="954" d="M627 426v84l-361 -152q-27 -57 -26 -106q0 -68 36.5 -114t102.5 -46q109 0 178.5 109.5t69.5 224.5zM928 10q-59 -37 -119 -37q-82 0 -131 49.5t-49 131.5q-25 -86 -106 -135.5t-175 -49.5q-123 0 -192.5 76t-69.5 201q0 72 59 182l482 205v129q0 72 -43 108.5t-115 36.5 q-70 0 -146.5 -44t-129.5 -103l-58 96q61 78 157.5 128t190.5 50q137 0 218 -68.5t81 -203.5v-625q0 -61 66 -61q25 0 41 12zM463 1473q-51 0 -89 -36t-38 -87q0 -49 36 -86t85 -37t86 36.5t37 86t-34 86.5t-83 37zM461 1567q88 0 150.5 -64.5t62.5 -152.5t-64.5 -152.5 t-152.5 -64.5t-150.5 64.5t-62.5 152.5t64.5 152.5t152.5 64.5z" />
<glyph unicode="&#xe6;" horiz-adv-x="1484" d="M621 508q-319 -115 -345 -150q-37 -51 -36.5 -110.5t34 -104.5t91.5 -45q72 0 145 62l141 119q-26 88 -30 229zM1032 915q-90 0 -151.5 -74.5t-81.5 -172.5h436q0 94 -56.5 170.5t-146.5 76.5zM1399 551h-619v-39q0 -63 12.5 -131t40 -135.5t80 -110.5t121.5 -43 q156 0 254 60l47 -101q-133 -82 -327 -82q-102 0 -190.5 61.5t-133.5 155.5l-170 -145q-84 -72 -174 -72q-125 0 -189.5 77t-64.5 206q0 111 59 180q33 37 482 201v129q0 72 -43 108.5t-115 36.5t-147.5 -43t-128.5 -104l-58 96q61 78 157.5 128t190.5 50q197 0 269 -137 q121 137 295 137q145 0 243.5 -114.5t104.5 -264.5z" />
<glyph unicode="&#xe7;" horiz-adv-x="843" d="M678 -129q0 -68 -67.5 -131.5t-143.5 -95.5l-78 63q166 90 166 154q0 27 -18.5 43t-47.5 16q-27 0 -100 -18v84q-147 51 -218 192t-71 314q0 238 101 372q55 74 135 122t166 48q68 0 141.5 -27.5t120.5 -74.5l-70 -92q-84 70 -190 69q-84 0 -142.5 -68.5t-82.5 -158.5 q-23 -76 -23 -170q0 -86 21.5 -176t81 -167t147.5 -77q96 0 235 90l52 -96q-72 -66 -179 -98q64 -60 64 -117z" />
<glyph unicode="&#xe8;" horiz-adv-x="964" d="M715 668q0 94 -55.5 168.5t-147.5 74.5q-90 0 -151.5 -73.5t-81.5 -169.5h436zM879 551h-619v-39q0 -84 20.5 -174t79 -168t144.5 -78q100 0 284 127l50 -98q-72 -61 -170.5 -106.5t-180.5 -45.5q-104 0 -183 52.5t-121 138.5t-62.5 179t-20.5 189q0 197 118 351.5 t308 154.5q145 0 241.5 -114.5t106.5 -264.5q2 -16 2.5 -51t2.5 -53zM735 1241l-65 -92q-240 127 -377 262l127 129q106 -147 315 -299z" />
<glyph unicode="&#xe9;" horiz-adv-x="964" d="M715 668q0 94 -55.5 168.5t-147.5 74.5q-90 0 -151.5 -73.5t-81.5 -169.5h436zM879 551h-619v-39q0 -84 20.5 -174t79 -168t144.5 -78q100 0 284 127l50 -98q-72 -61 -170.5 -106.5t-180.5 -45.5q-104 0 -183 52.5t-121 138.5t-62.5 179t-20.5 189q0 197 118 351.5 t308 154.5q145 0 241.5 -114.5t106.5 -264.5q2 -16 2.5 -51t2.5 -53zM629 1540l127 -129q-139 -137 -377 -262l-66 92q201 145 316 299z" />
<glyph unicode="&#xea;" horiz-adv-x="964" d="M715 668q0 94 -55.5 168.5t-147.5 74.5q-90 0 -151.5 -73.5t-81.5 -169.5h436zM879 551h-619v-39q0 -84 20.5 -174t79 -168t144.5 -78q100 0 284 127l50 -98q-72 -61 -170.5 -106.5t-180.5 -45.5q-104 0 -183 52.5t-121 138.5t-62.5 179t-20.5 189q0 197 118 351.5 t308 154.5q145 0 241.5 -114.5t106.5 -264.5q2 -16 2.5 -51t2.5 -53zM825 1241l-65 -94q-117 61 -248 205q-133 -145 -248 -205l-65 92q164 113 313 301q127 -164 313 -299z" />
<glyph unicode="&#xeb;" horiz-adv-x="964" d="M715 668q0 94 -55.5 168.5t-147.5 74.5q-90 0 -151.5 -73.5t-81.5 -169.5h436zM879 551h-619v-39q0 -84 20.5 -174t79 -168t144.5 -78q100 0 284 127l50 -98q-72 -61 -170.5 -106.5t-180.5 -45.5q-104 0 -183 52.5t-121 138.5t-62.5 179t-20.5 189q0 197 118 351.5 t308 154.5q145 0 241.5 -114.5t106.5 -264.5q2 -16 2.5 -51t2.5 -53zM471 1315q0 -45 -39 -80t-84 -35q-33 0 -55.5 21.5t-22.5 54.5q0 45 36 83t81 38q35 0 59.5 -23.5t24.5 -58.5zM786 1315q0 -45 -38.5 -80t-83.5 -35q-33 0 -55.5 21.5t-22.5 54.5q0 45 35.5 83t80.5 38 q35 0 59.5 -23.5t24.5 -58.5z" />
<glyph unicode="&#xec;" horiz-adv-x="487" d="M319 1004v-1004h-151v1004h151zM465 1241l-66 -92q-240 127 -376 262l127 129q106 -147 315 -299z" />
<glyph unicode="&#xed;" horiz-adv-x="487" d="M319 1004v-1004h-151v1004h151zM356 1540l127 -129q-139 -137 -377 -262l-65 92q200 145 315 299z" />
<glyph unicode="&#xee;" horiz-adv-x="487" d="M319 1004v-1004h-151v1004h151zM551 1241l-66 -94q-117 61 -247 205q-133 -145 -248 -205l-66 92q164 113 314 301q127 -164 313 -299z" />
<glyph unicode="&#xef;" horiz-adv-x="487" d="M500 1315q0 -45 -39 -80t-84 -35q-33 0 -55.5 21.5t-22.5 54.5q0 45 35 83t82 38q33 0 58.5 -24.5t25.5 -57.5zM184 1315q0 -45 -39 -80t-84 -35q-33 0 -55 21.5t-22 54.5q0 45 34.5 83t81.5 38q33 0 58.5 -24.5t25.5 -57.5zM319 0h-151v1004h151v-1004z" />
<glyph unicode="&#xf1;" horiz-adv-x="1062" d="M899 0h-156v762q0 76 -24.5 110.5t-95.5 34.5q-78 0 -168 -34.5t-131 -69.5v-803h-156v1004h156v-74q55 39 151 71.5t174 32.5q147 0 198.5 -69.5t51.5 -202.5v-762zM412 1434q59 0 146 -45.5t134 -45.5q53 0 84 13.5t88 52.5l64 -78q-74 -68 -125 -91t-125 -23 q-41 0 -128 45t-144 45q-18 0 -36 -4.5t-40 -15.5l-33 -16q-10 -5 -39 -23.5t-33 -20.5l-59 88q152 119 246 119z" />
<glyph unicode="&#xf2;" horiz-adv-x="999" d="M500 911q-80 0 -138.5 -72.5t-82 -163.5t-23.5 -175q0 -139 64.5 -273.5t179 -134.5t179 134t64.5 274q0 84 -23.5 175t-81.5 163.5t-138 72.5zM500 1034q131 0 225 -87t134 -203.5t40 -243.5q0 -125 -41 -243t-135 -203t-223 -85t-223.5 85t-135.5 203t-41 243 q0 127 40 243.5t134.5 203.5t225.5 87zM723 1241l-66 -92q-240 127 -376 262l127 129q106 -147 315 -299z" />
<glyph unicode="&#xf3;" horiz-adv-x="999" d="M500 911q-80 0 -138.5 -72.5t-82 -163.5t-23.5 -175q0 -139 64.5 -273.5t179 -134.5t179 134t64.5 274q0 84 -23.5 175t-81.5 163.5t-138 72.5zM500 1034q131 0 225 -87t134 -203.5t40 -243.5q0 -125 -41 -243t-135 -203t-223 -85t-223.5 85t-135.5 203t-41 243 q0 127 40 243.5t134.5 203.5t225.5 87zM608 1540l127 -129q-139 -137 -377 -262l-65 92q200 145 315 299z" />
<glyph unicode="&#xf4;" horiz-adv-x="999" d="M500 911q-80 0 -138.5 -72.5t-82 -163.5t-23.5 -175q0 -139 64.5 -273.5t179 -134.5t179 134t64.5 274q0 84 -23.5 175t-81.5 163.5t-138 72.5zM500 1034q131 0 225 -87t134 -203.5t40 -243.5q0 -125 -41 -243t-135 -203t-223 -85t-223.5 85t-135.5 203t-41 243 q0 127 40 243.5t134.5 203.5t225.5 87zM819 1241l-65 -94q-117 61 -248 205q-133 -145 -248 -205l-65 92q164 113 313 301q127 -164 313 -299z" />
<glyph unicode="&#xf5;" horiz-adv-x="999" d="M500 911q-80 0 -138.5 -72.5t-82 -163.5t-23.5 -175q0 -139 64.5 -273.5t179 -134.5t179 134t64.5 274q0 84 -23.5 175t-81.5 163.5t-138 72.5zM500 1034q131 0 225 -87t134 -203.5t40 -243.5q0 -125 -41 -243t-135 -203t-223 -85t-223.5 85t-135.5 203t-41 243 q0 127 40 243.5t134.5 203.5t225.5 87zM362 1434q59 0 146.5 -45.5t134.5 -45.5q53 0 84 13.5t88 52.5l64 -78q-74 -68 -125.5 -91t-124.5 -23q-41 0 -128 45t-145 45q-18 0 -35.5 -4.5t-39.5 -15.5l-33 -16q-10 -5 -39 -23.5t-33 -20.5l-59 88q151 119 245 119z" />
<glyph unicode="&#xf6;" horiz-adv-x="999" d="M500 911q-80 0 -138.5 -72.5t-82 -163.5t-23.5 -175q0 -139 64.5 -273.5t179 -134.5t179 134t64.5 274q0 84 -23.5 175t-81.5 163.5t-138 72.5zM500 1034q131 0 225 -87t134 -203.5t40 -243.5q0 -125 -41 -243t-135 -203t-223 -85t-223.5 85t-135.5 203t-41 243 q0 127 40 243.5t134.5 203.5t225.5 87zM451 1315q0 -45 -39 -80t-84 -35q-33 0 -55.5 21.5t-22.5 54.5q0 45 36 83t81 38q35 0 59.5 -23.5t24.5 -58.5zM766 1315q0 -45 -39 -80t-84 -35q-33 0 -55.5 21.5t-22.5 54.5q0 45 36 83t81 38q35 0 59.5 -23.5t24.5 -58.5z" />
<glyph unicode="&#xf7;" horiz-adv-x="1001" d="M631 827.5q0 -49.5 -40 -87.5t-91 -38q-49 0 -84 33t-35 82q0 51 40 88t91 37q49 0 84 -32.5t35 -82zM631 219q0 -49 -40 -87t-91 -38q-49 0 -84 33t-35 82q0 51 40 88t91 37q49 0 84 -33t35 -82zM889 573v-122h-778v122h778z" />
<glyph unicode="&#xf8;" horiz-adv-x="999" d="M340 -227h-102l71 254q-104 72 -156.5 201.5t-52.5 271.5q0 92 25 183t72 171t125.5 130t177.5 50q49 0 94 -12l49 170h102l-61 -213q106 -72 160.5 -204t54.5 -275q0 -125 -41 -243t-135 -203t-223 -85q-55 0 -101 15zM647 846l-213 -746q35 -10 66 -10q72 0 123 41 t75.5 107.5t34.5 130t10 131.5q0 233 -96 346zM348 162l213 741q-27 8 -61 8q-72 0 -123 -41t-76 -108.5t-35 -132t-10 -129.5q0 -229 92 -338z" />
<glyph unicode="&#xf9;" horiz-adv-x="1058" d="M938 72l-51 -103q-55 0 -95 32t-49 85q-61 -53 -151 -85t-172 -32q-139 0 -197.5 66.5t-58.5 206.5v762h155v-762q0 -76 21.5 -111t93.5 -35q68 0 161 36t144 81v791h156v-850q0 -78 43 -82zM756 1241l-66 -92q-240 127 -377 262l127 129q107 -147 316 -299z" />
<glyph unicode="&#xfa;" horiz-adv-x="1058" d="M938 72l-51 -103q-55 0 -95 32t-49 85q-61 -53 -151 -85t-172 -32q-139 0 -197.5 66.5t-58.5 206.5v762h155v-762q0 -76 21.5 -111t93.5 -35q68 0 161 36t144 81v791h156v-850q0 -78 43 -82zM629 1540l127 -129q-139 -137 -377 -262l-66 92q201 145 316 299z" />
<glyph unicode="&#xfb;" horiz-adv-x="1058" d="M938 72l-51 -103q-55 0 -95 32t-49 85q-61 -53 -151 -85t-172 -32q-139 0 -197.5 66.5t-58.5 206.5v762h155v-762q0 -76 21.5 -111t93.5 -35q68 0 161 36t144 81v791h156v-850q0 -78 43 -82zM834 1241l-66 -94q-117 61 -248 205q-133 -145 -248 -205l-65 92 q164 113 313 301q128 -164 314 -299z" />
<glyph unicode="&#xfc;" horiz-adv-x="1058" d="M938 72l-51 -103q-55 0 -95 32t-49 85q-61 -53 -151 -85t-172 -32q-139 0 -197.5 66.5t-58.5 206.5v762h155v-762q0 -76 21.5 -111t93.5 -35q68 0 161 36t144 81v791h156v-850q0 -78 43 -82zM471 1315q0 -45 -39 -80t-84 -35q-33 0 -55.5 21.5t-22.5 54.5q0 45 36 83 t81 38q35 0 59.5 -23.5t24.5 -58.5zM786 1315q0 -45 -38.5 -80t-83.5 -35q-33 0 -55.5 21.5t-22.5 54.5q0 45 35.5 83t80.5 38q35 0 59.5 -23.5t24.5 -58.5z" />
<glyph unicode="&#xfd;" horiz-adv-x="929" d="M715 1548l127 -129q-139 -137 -377 -262l-65 92q200 145 315 299zM905 1004q-250 -973 -493 -1256q-78 -90 -240 -129l-33 119q70 16 152 86q43 37 106 160l-374 1020h163l234 -658q39 -115 55 -205q154 383 275 863h155z" />
<glyph unicode="&#xff;" horiz-adv-x="929" d="M905 1004q-250 -973 -493 -1256q-78 -90 -240 -129l-33 119q70 16 152 86q43 37 106 160l-374 1020h163l234 -658q39 -115 55 -205q154 383 275 863h155zM418 1315q0 -45 -39 -80t-84 -35q-33 0 -55.5 21.5t-22.5 54.5q0 45 36 83t81 38q35 0 59.5 -23.5t24.5 -58.5z M733 1315q0 -45 -39 -80t-84 -35q-33 0 -55.5 21.5t-22.5 54.5q0 45 36 83t81 38q35 0 59.5 -23.5t24.5 -58.5z" />
<glyph unicode="&#x152;" horiz-adv-x="1306" d="M541 1159q-84 0 -142.5 -55t-84 -145.5t-35 -167t-9.5 -158.5q0 -80 10.5 -155t36 -160t84 -137t140.5 -52v1030zM1204 1290v-137h-499v-410h382v-141h-382v-461h520v-141h-686q-115 0 -202 64.5t-133 167t-68.5 209t-22.5 212.5q0 102 23.5 208t70.5 205t133 161.5 t199 62.5h665z" />
<glyph unicode="&#x153;" horiz-adv-x="1558" d="M1106 915q-88 0 -150.5 -75.5t-83.5 -171.5h437q0 94 -55.5 170.5t-147.5 76.5zM721 696q-61 215 -221 215q-72 0 -123 -41t-76 -108.5t-35 -132t-10 -129.5q0 -68 10 -131.5t35 -130t76 -107.5t123 -41q160 0 219 209q-25 100 -25 229q0 78 27 168zM1473 551h-619v-39 q0 -63 12.5 -131t40 -135.5t79.5 -110.5t122 -43q154 0 254 60l47 -101q-133 -82 -328 -82q-86 0 -161.5 44t-126.5 116q-113 -160 -293 -160q-129 0 -223.5 85t-135.5 203t-41 243q0 92 25 183t72 171t125.5 130t177.5 50q197 0 297 -172q123 172 323 172 q145 0 242.5 -114.5t105.5 -264.5q2 -16 2.5 -51t2.5 -53z" />
<glyph unicode="&#x178;" horiz-adv-x="964" d="M940 1290l-377 -817v-473h-162v473l-374 817h174l286 -643l289 643h164zM444 1581q0 -45 -38.5 -80t-83.5 -35q-33 0 -55.5 21.5t-22.5 54.5q0 45 35.5 83t80.5 38q35 0 59.5 -23.5t24.5 -58.5zM760 1581q0 -45 -39 -80t-84 -35q-33 0 -55.5 21.5t-22.5 54.5q0 45 36 83 t81 38q35 0 59.5 -23.5t24.5 -58.5z" />
<glyph unicode="&#x2c6;" horiz-adv-x="823" d="M750 1241l-66 -94q-117 61 -248 205q-133 -145 -248 -205l-65 92q164 113 313 301q128 -164 314 -299z" />
<glyph unicode="&#x2dc;" horiz-adv-x="778" d="M248 1434q59 0 146 -45.5t134 -45.5q53 0 84 13.5t88 52.5l64 -78q-74 -68 -125 -91t-125 -23q-41 0 -128 45t-144 45q-18 0 -36 -4.5t-40 -15.5l-33 -16q-10 -5 -38.5 -23.5t-33.5 -20.5l-59 88q152 119 246 119z" />
<glyph unicode="&#x2000;" horiz-adv-x="917" />
<glyph unicode="&#x2001;" horiz-adv-x="1835" />
<glyph unicode="&#x2002;" horiz-adv-x="917" />
<glyph unicode="&#x2003;" horiz-adv-x="1835" />
<glyph unicode="&#x2004;" horiz-adv-x="610" />
<glyph unicode="&#x2005;" horiz-adv-x="458" />
<glyph unicode="&#x2006;" horiz-adv-x="305" />
<glyph unicode="&#x2007;" horiz-adv-x="305" />
<glyph unicode="&#x2008;" horiz-adv-x="229" />
<glyph unicode="&#x2009;" horiz-adv-x="366" />
<glyph unicode="&#x200a;" horiz-adv-x="100" />
<glyph unicode="&#x2010;" horiz-adv-x="618" d="M502 584v-123h-391v123h391z" />
<glyph unicode="&#x2011;" horiz-adv-x="618" d="M502 584v-123h-391v123h391z" />
<glyph unicode="&#x2012;" horiz-adv-x="618" d="M502 584v-123h-391v123h391z" />
<glyph unicode="&#x2013;" horiz-adv-x="733" d="M733 584v-123h-733v123h733z" />
<glyph unicode="&#x2014;" horiz-adv-x="1245" d="M1245 586v-123h-1245v123h1245z" />
<glyph unicode="&#x2018;" horiz-adv-x="546" d="M225 883q-27 0 -59.5 23.5t-50.5 47.5l-21 23q84 178 264 377l93 -64q-98 -141 -123 -239q-10 -41 -11 -84l5 -49q-58 -35 -97 -35z" />
<glyph unicode="&#x2019;" horiz-adv-x="552" d="M324 1323q27 0 59.5 -23.5t50.5 -46.5l21 -24q-84 -178 -265 -377l-92 63q98 141 123 240q10 41 10 84l-4 49q58 35 97 35z" />
<glyph unicode="&#x201a;" horiz-adv-x="528" d="M285 184q27 0 59.5 -23.5t52.5 -45.5l19 -25q-84 -178 -264 -377l-93 64q98 141 123 239q10 41 11 84l-5 50q58 34 97 34z" />
<glyph unicode="&#x201c;" horiz-adv-x="913" d="M590 883q-27 0 -59.5 23.5t-51.5 47.5l-20 23q84 178 264 377l92 -64q-98 -141 -123 -239q-10 -41 -10 -84l4 -49q-57 -35 -96 -35zM227 883q-27 0 -59.5 23.5t-52.5 47.5l-19 23q84 178 264 377l93 -64q-98 -141 -123 -239q-10 -41 -11 -84l5 -49q-58 -35 -97 -35z" />
<glyph unicode="&#x201d;" horiz-adv-x="913" d="M322 1323q27 0 59.5 -23.5t52.5 -46.5l19 -24q-84 -178 -265 -377l-92 63q98 141 123 240q10 41 10 84l-4 49q58 35 97 35zM684 1323q27 0 59.5 -23.5t51.5 -46.5l20 -24q-84 -178 -264 -377l-92 63q98 141 123 240q10 41 10 84l-4 49q57 35 96 35z" />
<glyph unicode="&#x201e;" horiz-adv-x="888" d="M285 184q27 0 59.5 -23.5t52.5 -45.5l19 -25q-84 -178 -264 -377l-93 64q98 141 123 239q10 41 11 84l-5 50q58 34 97 34zM647 184q27 0 59.5 -23.5t51.5 -45.5l20 -25q-84 -178 -264 -377l-92 64q98 141 123 239q10 41 10 84l-4 50q57 34 96 34z" />
<glyph unicode="&#x2022;" horiz-adv-x="868" d="M432.5 997q145.5 0 249.5 -103t104 -248.5t-104 -249t-249.5 -103.5t-249 103.5t-103.5 249t103.5 248.5t249 103z" />
<glyph unicode="&#x2026;" horiz-adv-x="1236" d="M393 94q0 -49 -40 -87t-91 -38q-49 0 -84 33t-35 82q0 51 40 88t91 37q49 0 84 -33t35 -82zM745 94q0 -49 -39.5 -87t-91.5 -38q-49 0 -83.5 33t-34.5 82q0 51 39.5 88t91.5 37q49 0 83.5 -33t34.5 -82zM1094 94q0 -49 -40 -87t-91 -38q-49 0 -84 33t-35 82q0 51 40 88 t91 37q49 0 84 -33t35 -82z" />
<glyph unicode="&#x202f;" horiz-adv-x="366" />
<glyph unicode="&#x2039;" horiz-adv-x="614" d="M547 205l-96 -78l-383 385l378 385l97 -78l-305 -307z" />
<glyph unicode="&#x203a;" horiz-adv-x="614" d="M68 205l96 -78l383 385l-379 385l-96 -78l305 -307z" />
<glyph unicode="&#x2044;" horiz-adv-x="694" d="M860 1526l-880 -1794h-130l881 1794h129z" />
<glyph unicode="&#x205f;" horiz-adv-x="458" />
<glyph unicode="&#x2122;" horiz-adv-x="1642" d="M635 1331h-199v-723h-100v723h-199v90h498v-90zM1483 1421v-813h-103v553l6 111l-233 -664h-90l-234 666q6 -68 7 -111v-555h-105v813h137l240 -686l238 686h137z" />
<glyph unicode="&#xe000;" horiz-adv-x="1004" d="M0 1005h1005v-1005h-1005v1005z" />
<glyph unicode="&#xfb01;" horiz-adv-x="1069" d="M911 0h-151v1004h151v-1004zM946 1292q0 -49 -36 -80.5t-87 -31.5q-43 0 -64.5 18.5t-28.5 43t-19.5 50t-51 44t-110.5 18.5q-106 0 -158.5 -78t-52.5 -191v-81h199v-119h-199v-885h-156v885l-135 18v101h135v112q0 168 115 249t291 81q43 0 96 -6t115.5 -21.5 t104.5 -48.5t42 -78z" />
<glyph unicode="&#xfb02;" horiz-adv-x="1069" d="M975 0h-162q-51 137 -51 403v828q-72 111 -201 110q-63 0 -107 -20.5t-66.5 -47t-34 -78.5t-13.5 -88t-2 -103h199v-119h-199v-885h-156v885l-135 18v101h135v112q0 152 100.5 238t254 86t225.5 -78v57h151v-1016q1 -196 62 -403z" />
<glyph unicode="&#xfb03;" horiz-adv-x="1658" d="M1490 1004v-1004h-151v1004h151zM1294 1284q0 47 35 78t82 31q45 0 78.5 -30t33.5 -75q0 -47 -34.5 -77.5t-81.5 -30.5q-45 0 -79 29.5t-34 74.5zM1151 1327q-8 0 -26.5 -2t-54 -14.5t-66.5 -30.5t-53.5 -56t-22.5 -87v-133h199v-119h-199v-885h-156v885l-135 18v101h135 v159q0 242 351 285zM565 1327q-8 0 -26.5 -2t-54 -14.5t-66.5 -30.5t-53.5 -56t-22.5 -87v-133h199v-119h-199v-885h-156v885l-135 18v101h135v159q0 242 351 285z" />
<glyph unicode="&#xfb04;" horiz-adv-x="1654" d="M1478 1421v-1018q0 -203 62 -403h-162q-51 139 -51 403v1018h151zM1151 1327q-8 0 -26.5 -2t-54 -14.5t-66.5 -30.5t-53.5 -56t-22.5 -87v-133h199v-119h-199v-885h-156v885l-135 18v101h135v159q0 242 351 285zM565 1327q-8 0 -26.5 -2t-54 -14.5t-66.5 -30.5t-53.5 -56 t-22.5 -87v-133h199v-119h-199v-885h-156v885l-135 18v101h135v159q0 242 351 285z" />
</font>
</defs>
</svg>
