<?xml version="1.0" encoding="utf-8"?>
<!-- Generator: Adobe Illustrator 15.0.0, SVG Export Plug-In . SVG Version: 6.00 Build 0)  -->
<!DOCTYPE svg PUBLIC "-//W3C//DTD SVG 1.1//EN" "http://www.w3.org/Graphics/SVG/1.1/DTD/svg11.dtd">
<svg version="1.1" id="Layer_2" xmlns="http://www.w3.org/2000/svg" xmlns:xlink="http://www.w3.org/1999/xlink" x="0px" y="0px"
	 width="1872px" height="2598px" viewBox="0 0 1872 2598" enable-background="new 0 0 1872 2598" xml:space="preserve">
<polygon id="fundo_1_" fill="#808285" points="0.002,0 1871.808,0 1871.07,2598 -0.737,2598 "/>
<rect x="0.002" fill="#BCBEC0" width="1871.802" height="661.659"/>
<text id="numero_1_" transform="matrix(1 0 0 1 1025.7471 524.5093)" font-family="'ArialMT'" font-size="225.8362">00000</text>
<text id="grafica_1_" transform="matrix(0 -1 1 0 1747.5059 2415.5088)" font-family="'ArialMT'" font-size="33.8754">Gráfica</text>
<text id="tiragem_1_" transform="matrix(0 -1 1 0 1747.5166 1767.4492)" font-family="'ArialMT'" font-size="33.8754">tiragem</text>
<text id="cnpj_1_" transform="matrix(0 -1 1 0 1747.5166 1204.5283)" font-family="'ArialMT'" font-size="33.8754">CNPJ: 00.000.000.000/0001 -00</text>
<text id="nome-do-candidato_1_" transform="matrix(1 0 0 1 223.8696 322.5083)" font-family="'ArialMT'" font-size="161.0615">Nome do Candidato</text>
<text id="cargo_1_" transform="matrix(1 0 0 1 1515.3477 591.3149)" font-family="'ArialMT'" font-size="50.8131">Cargo</text>
<rect x="263.014" y="853.62" fill="none" width="1350.749" height="308.283"/>
<text transform="matrix(1 0 0 1 335.9077 902.1265)" font-family="'ArialMT'" font-size="67.7509">Lorem ipsum dolor sit amet, consectetur </text>
<text transform="matrix(1 0 0 1 339.6294 983.4277)" font-family="'ArialMT'" font-size="67.7509">adipiscing elit. Fusce aliquam, diam nec </text>
<text transform="matrix(1 0 0 1 326.4463 1064.7295)" font-family="'ArialMT'" font-size="67.7509">tristique porttitor, odio nibh sagittis elit, in </text>
<text transform="matrix(1 0 0 1 533.5669 1146.0288)" font-family="'ArialMT'" font-size="67.7509">laoreet nibh massa ac orci. </text>
<rect x="318.969" y="1340.504" fill="none" width="1307.968" height="159.274"/>
<text transform="matrix(1 0 0 1 318.9678 1376.8828)" font-family="'ArialMT'" font-size="50.8131">Suspendisse quis purus sit amet augue laoreet vehicula. </text>
<text transform="matrix(1 0 0 1 318.9678 1437.8594)" font-family="'ArialMT'" font-size="50.8131">Sed fringilla neque vitae nisl adipiscing non pretium metus </text>
<text transform="matrix(1 0 0 1 318.9678 1498.8359)" font-family="'ArialMT'" font-size="50.8131">feugiat. Lorem ipsum dolor sit amet, consectetur </text>
<rect x="318.969" y="1664.479" fill="none" width="1306.586" height="159.026"/>
<text transform="matrix(1 0 0 1 318.9678 1700.8604)" font-family="'ArialMT'" font-size="50.8131">Aliquam sed libero id leo aliquam interdum sed in risus. </text>
<text transform="matrix(1 0 0 1 318.9678 1761.833)" font-family="'ArialMT'" font-size="50.8131">Cras sit amet dui eget turpis cursus facilisis sit amet et </text>
<text transform="matrix(1 0 0 1 318.9678 1822.8115)" font-family="'ArialMT'" font-size="50.8131">quam. Vestibulum eu elit lacus.</text>
<rect x="318.969" y="1986.869" fill="none" width="1306.586" height="161.85"/>
<text transform="matrix(1 0 0 1 318.9678 2023.25)" font-family="'ArialMT'" font-size="50.8131">Nam elementum, leo in adipiscing tincidunt, urna tellus </text>
<text transform="matrix(1 0 0 1 318.9678 2084.2227)" font-family="'ArialMT'" font-size="50.8131">dignissim magna, vitae sagittis enim nunc id leo. In </text>
<text transform="matrix(1 0 0 1 318.9678 2145.2021)" font-family="'ArialMT'" font-size="50.8131">porttitor lacinia sapien at vulputate.</text>
<g id="right_x5F_arrow_6_">
	<path fill="#BCBEC0" d="M112.566,1526.096v-67.102H2.637c-3.569,0-6.637-3.065-6.637-6.637v-64.449
		c0-3.562,3.067-6.618,6.637-6.618h109.93v-67.099c0-3.567,2.409-4.692,5.23-2.52l135.061,104.511
		c2.81,2.177,2.786,5.744-0.024,7.917L117.81,1528.615C114.992,1530.792,112.566,1529.65,112.566,1526.096z"/>
</g>
<g id="right_x5F_arrow_4_">
	<path fill="#BCBEC0" d="M112.566,1849.948v-67.102H2.637c-3.569,0-6.637-3.066-6.637-6.638v-64.452c0-3.56,3.067-6.616,6.637-6.616
		h109.93v-67.099c0-3.566,2.409-4.691,5.23-2.521l135.061,104.513c2.81,2.176,2.786,5.743-0.024,7.92L117.81,1852.467
		C114.992,1854.643,112.566,1853.502,112.566,1849.948z"/>
</g>
<g id="right_x5F_arrow_5_">
	<path fill="#BCBEC0" d="M112.566,2173.747v-67.101H2.637c-3.569,0-6.637-3.066-6.637-6.633v-64.455
		c0-3.561,3.067-6.616,6.637-6.616h109.93v-67.097c0-3.569,2.409-4.693,5.23-2.521l135.061,104.51
		c2.81,2.175,2.786,5.746-0.024,7.918L117.81,2176.267C114.992,2178.442,112.566,2177.303,112.566,2173.747z"/>
</g>
<g>
	<line fill="none" stroke="#000000" x1="58.5" y1="5" x2="58.5" y2="41"/>
	<line fill="none" stroke="#000000" x1="5" y1="59.5" x2="41" y2="59.5"/>
	<line fill="none" stroke="#000000" x1="5" y1="2539.5" x2="41" y2="2539.5"/>
	<line fill="none" stroke="#000000" x1="58.5" y1="2593" x2="58.5" y2="2557"/>
	<line fill="none" stroke="#000000" x1="1812.5" y1="5" x2="1812.5" y2="41"/>
	<line fill="none" stroke="#000000" x1="1867" y1="59.5" x2="1831" y2="59.5"/>
	<line fill="none" stroke="#000000" x1="1867" y1="2539.5" x2="1831" y2="2539.5"/>
	<line fill="none" stroke="#000000" x1="1812.5" y1="2593" x2="1812.5" y2="2557"/>
</g>
</svg>
