<?xml version="1.0" encoding="utf-8"?>
<!-- Generator: Adobe Illustrator 15.0.0, SVG Export Plug-In . SVG Version: 6.00 Build 0)  -->
<!DOCTYPE svg PUBLIC "-//W3C//DTD SVG 1.1//EN" "http://www.w3.org/Graphics/SVG/1.1/DTD/svg11.dtd">
<svg version="1.1" id="Layer_2" xmlns="http://www.w3.org/2000/svg" xmlns:xlink="http://www.w3.org/1999/xlink" x="0px" y="0px"
	 width="1872px" height="2598px" viewBox="0 0 1872 2598" enable-background="new 0 0 1872 2598" xml:space="preserve">
<polygon id="fundo" fill="#808285" points="0.368,23 1870.939,23 1870.201,2598 -0.371,2598 "/>
<rect x="0.368" fill="#BCBEC0" width="1870.569" height="683.697"/>
<text id="numero" transform="matrix(1 0 0 1 1026.1084 546.749)" font-family="'ArialMT'" font-size="225.5081">00000</text>
<text id="grafica" transform="matrix(0 -1 1 0 1756.8633 2435)" font-family="'ArialMT'" font-size="33.8262">Gráfica</text>
<text id="tiragem" transform="matrix(0 -1 1 0 1756.873 1787.8828)" font-family="'ArialMT'" font-size="33.8262">tiragem</text>
<text id="cnpj" transform="matrix(0 -1 1 0 1756.873 1225.7808)" font-family="'ArialMT'" font-size="33.8262">CNPJ: 00.000.000.000/0001 -00</text>
<text id="nome-do-candidato" transform="matrix(1 0 0 1 225.3955 345.042)" font-family="'ArialMT'" font-size="160.8275">Nome do Candidato</text>
<text id="cargo" transform="matrix(1 0 0 1 1514.999 613.459)" font-family="'ArialMT'" font-size="50.7393">Cargo</text>
<rect x="264.483" y="811.485" fill="none" width="1348.787" height="372.089"/>
<text transform="matrix(1 0 0 1 321.2695 847.8135)" font-family="'ArialMT'" font-size="50.7393">Lorem ipsum dolor sit amet, consectetur adipiscing elit. </text>
<text transform="matrix(1 0 0 1 264.8447 908.7021)" font-family="'ArialMT'" font-size="50.7393">Fusce aliquam, diam nec tristique porttitor, odio nibh sagittis </text>
<text transform="matrix(1 0 0 1 283.1787 969.5898)" font-family="'ArialMT'" font-size="50.7393">elit, in laoreet nibh massa ac orci. Etiam porttitor urna eget </text>
<text transform="matrix(1 0 0 1 283.1787 1030.4766)" font-family="'ArialMT'" font-size="50.7393">mauris placerat posuere. Vestibulum lacus magna, sagittis </text>
<text transform="matrix(1 0 0 1 301.4004 1091.3643)" font-family="'ArialMT'" font-size="50.7393">quis porta at, consequat sed nulla. Quisque blandit elit at </text>
<text transform="matrix(1 0 0 1 756.9893 1152.25)" font-family="'ArialMT'" font-size="50.7393">leo luctus trices.</text>
<rect x="277.638" y="1375.256" fill="none" width="1348.786" height="176.648"/>
<text transform="matrix(1 0 0 1 277.6357 1411.5859)" font-family="'ArialMT'" font-size="50.7393">Suspendisse quis purus sit amet augue laoreet vehicula. </text>
<text transform="matrix(1 0 0 1 277.6357 1472.4727)" font-family="'ArialMT'" font-size="50.7393">Sed fringilla neque vitae nisl adipiscing non pretium metus </text>
<text transform="matrix(1 0 0 1 277.6357 1533.3604)" font-family="'ArialMT'" font-size="50.7393">feugiat. Lorem ipsum dolor sit amet, consectetur adipiscing.</text>
<rect x="276.257" y="1686.269" fill="none" width="1348.783" height="172.891"/>
<text transform="matrix(1 0 0 1 276.2559 1722.6006)" font-family="'ArialMT'" font-size="50.7393">Aliquam sed libero id leo aliquam interdum sed in risus. </text>
<text transform="matrix(1 0 0 1 276.2559 1783.4844)" font-family="'ArialMT'" font-size="50.7393">Cras sit amet dui eget turpis cursus facilisis sit amet et </text>
<text transform="matrix(1 0 0 1 276.2559 1844.373)" font-family="'ArialMT'" font-size="50.7393">quam. Vestibulum eu elit lacus.</text>
<rect x="276.257" y="1993.523" fill="none" width="1348.783" height="172.89"/>
<text transform="matrix(1 0 0 1 276.2559 2029.8535)" font-family="'ArialMT'" font-size="50.7393">Nam elementum, leo in adipiscing tincidunt, urna tellus </text>
<text transform="matrix(1 0 0 1 276.2559 2090.7383)" font-family="'ArialMT'" font-size="50.7393">dignissim magna, vitae sagittis enim nunc id leo. In porttitor </text>
<text transform="matrix(1 0 0 1 276.2559 2151.6279)" font-family="'ArialMT'" font-size="50.7393">lacinia sapien at vulputate.</text>
<g id="right_x5F_arrow_2_">
	<path d="M243.362,1410.75v-11.043h-18.089c-0.586,0-1.094-0.504-1.094-1.091v-10.607c0-0.587,0.507-1.089,1.094-1.089h18.089
		v-11.042c0-0.586,0.399-0.772,0.861-0.415l22.226,17.196c0.464,0.358,0.46,0.944-0.004,1.303l-22.221,17.199
		C243.761,1411.522,243.362,1411.335,243.362,1410.75z"/>
</g>
<g id="right_x5F_arrow_1_">
	<path d="M243.365,2028.994v-11.043h-18.09c-0.586,0-1.093-0.505-1.093-1.091v-10.608c0-0.587,0.507-1.087,1.093-1.087h18.09
		v-11.043c0-0.587,0.398-0.772,0.859-0.418l22.227,17.199c0.464,0.355,0.46,0.944-0.004,1.303l-22.22,17.196
		C243.763,2029.767,243.365,2029.582,243.365,2028.994z"/>
</g>
<g id="right_x5F_arrow_3_">
	<path d="M243.362,1718.819v-11.042h-18.089c-0.586,0-1.094-0.509-1.094-1.092v-10.611c0-0.585,0.507-1.088,1.094-1.088h18.089
		v-11.042c0-0.586,0.399-0.77,0.861-0.416l22.226,17.2c0.464,0.354,0.46,0.944-0.004,1.299l-22.221,17.2
		C243.761,1719.592,243.362,1719.404,243.362,1718.819z"/>
</g>
<g>
	<line fill="none" stroke="#000000" x1="58.5" y1="5" x2="58.5" y2="41"/>
	<line fill="none" stroke="#000000" x1="5" y1="59.5" x2="41" y2="59.5"/>
	<line fill="none" stroke="#000000" x1="5" y1="2539.5" x2="41" y2="2539.5"/>
	<line fill="none" stroke="#000000" x1="58.5" y1="2593" x2="58.5" y2="2557"/>
	<line fill="none" stroke="#000000" x1="1812.5" y1="5" x2="1812.5" y2="41"/>
	<line fill="none" stroke="#000000" x1="1867" y1="59.5" x2="1831" y2="59.5"/>
	<line fill="none" stroke="#000000" x1="1867" y1="2539.5" x2="1831" y2="2539.5"/>
	<line fill="none" stroke="#000000" x1="1812.5" y1="2593" x2="1812.5" y2="2557"/>
</g>
</svg>
