<?xml version="1.0" encoding="utf-8"?>
<!-- Generator: Adobe Illustrator 15.0.0, SVG Export Plug-In . SVG Version: 6.00 Build 0)  -->
<!DOCTYPE svg PUBLIC "-//W3C//DTD SVG 1.1//EN" "http://www.w3.org/Graphics/SVG/1.1/DTD/svg11.dtd">
<svg version="1.1" id="Layer_2" xmlns="http://www.w3.org/2000/svg" xmlns:xlink="http://www.w3.org/1999/xlink" x="0px" y="0px"
	 width="1872px" height="2598px" viewBox="0 0 1872 2598" enable-background="new 0 0 1872 2598" xml:space="preserve">
<g>
	<line fill="none" stroke="#000000" x1="58.5" y1="5" x2="58.5" y2="41"/>
	<line fill="none" stroke="#000000" x1="5" y1="59.5" x2="41" y2="59.5"/>
	<line fill="none" stroke="#000000" x1="5" y1="2539.5" x2="41" y2="2539.5"/>
	<line fill="none" stroke="#000000" x1="58.5" y1="2593" x2="58.5" y2="2557"/>
	<line fill="none" stroke="#000000" x1="1812.5" y1="5" x2="1812.5" y2="41"/>
	<line fill="none" stroke="#000000" x1="1867" y1="59.5" x2="1831" y2="59.5"/>
	<line fill="none" stroke="#000000" x1="1867" y1="2539.5" x2="1831" y2="2539.5"/>
	<line fill="none" stroke="#000000" x1="1812.5" y1="2593" x2="1812.5" y2="2557"/>
</g>
<path fill="#BCBEC0" d="M1648.641,1577.485c0,9.38-7.603,16.984-16.982,16.984H238.719c-9.38,0-16.983-7.604-16.983-16.984v-233.497
	c0-9.38,7.604-16.983,16.983-16.983h1392.939c9.38,0,16.982,7.604,16.982,16.983V1577.485z"/>
<path fill="#BCBEC0" d="M1648.641,1920.434c0,9.38-7.603,16.982-16.982,16.982H238.719c-9.38,0-16.983-7.603-16.983-16.982v-233.497
	c0-9.38,7.604-16.984,16.983-16.984h1392.939c9.38,0,16.982,7.604,16.982,16.984V1920.434z"/>
<path fill="#BCBEC0" d="M1648.641,2262.897c0,9.38-7.603,16.983-16.982,16.983H238.719c-9.38,0-16.983-7.604-16.983-16.983v-233.495
	c0-9.382,7.604-16.983,16.983-16.983h1392.939c9.38,0,16.982,7.602,16.982,16.983V2262.897z"/>
<path fill="#BCBEC0" d="M1871.962,610.652C1411.243,1112.254,828.078,293.18,0,610.652V41.55h1871.962V610.652z"/>
<path fill="#808285" d="M1871.962,566.475C1411.243,1068.077,828.078,249.004,0,566.475V-2.628h1871.962V566.475z"/>
<text id="numero_3_" transform="matrix(1 0 0 1 1023.6064 523.3091)" font-family="'ArialMT'" font-size="226.4497">00000</text>
<text id="grafica_3_" transform="matrix(0 -1 1 0 1747.2422 2419.4453)" font-family="'ArialMT'" font-size="33.9674">Gráfica</text>
<text id="tiragem_3_" transform="matrix(0 -1 1 0 1747.2529 1769.625)" font-family="'ArialMT'" font-size="33.9674">tiragem</text>
<text id="nome-do-candidato_3_" transform="matrix(1 0 0 1 219.5498 320.7598)" font-family="'ArialMT'" font-size="161.499">Nome do Candidato</text>
<text id="cargo_3_" transform="matrix(1 0 0 1 1514.5371 590.2969)" font-family="'ArialMT'" font-size="50.9512">Cargo</text>
<polygon fill="none" points="1613.218,1200.172 258.799,1200.172 258.799,646.501 895.397,646.501 895.296,791.037 
	1613.218,791.037 "/>
<text transform="matrix(1 0 0 1 258.7988 738.5425)" font-family="'ArialMT'" font-size="67.9349">Praesent eu </text>
<text transform="matrix(1 0 0 1 258.7988 820.0649)" font-family="'ArialMT'" font-size="67.9349">hendrerit purus. </text>
<text transform="matrix(1 0 0 1 258.7988 901.5874)" font-family="'ArialMT'" font-size="67.9349">Mauris lacus leo, commodo eu congue sit </text>
<text transform="matrix(1 0 0 1 258.7988 983.1094)" font-family="'ArialMT'" font-size="67.9349">amet, gravida et orci. Suspendisse quis </text>
<text transform="matrix(1 0 0 1 258.7988 1064.6318)" font-family="'ArialMT'" font-size="67.9349">purus sit amet augue laoreet vehicula. Sed </text>
<text transform="matrix(1 0 0 1 258.7988 1146.1523)" font-family="'ArialMT'" font-size="67.9349">fringilla neque vitae nisl adipiscing non </text>
<text transform="matrix(1 0 0 1 258.7988 1227.6748)" font-family="'ArialMT'" font-size="67.9349">pretium metus feugiat. Lorem ipsum dolor sit </text>
<rect x="279.424" y="1380.883" fill="none" width="1311.521" height="159.707"/>
<text transform="matrix(1 0 0 1 272.4487 1413.1855)" font-family="'ArialMT'" font-size="50.9512">Suspendisse quis purus sit amet augue laoreet vehicula. </text>
<text transform="matrix(1 0 0 1 272.4487 1474.3271)" font-family="'ArialMT'" font-size="50.9512">Sed fringilla neque vitae nisl adipiscing non pretium metus </text>
<text transform="matrix(1 0 0 1 272.4487 1535.4697)" font-family="'ArialMT'" font-size="50.9512">feugiat. Lorem ipsum dolor sit amet, consectetur </text>
<rect x="272.451" y="1723.956" fill="none" width="1310.133" height="159.458"/>
<text transform="matrix(1 0 0 1 272.5259 1760.4385)" font-family="'ArialMT'" font-size="50.9512">Aliquam sed libero id leo aliquam interdum sed in risus. </text>
<text transform="matrix(1 0 0 1 272.5259 1821.5762)" font-family="'ArialMT'" font-size="50.9512">Cras sit amet dui eget turpis cursus facilisis sit amet et </text>
<text transform="matrix(1 0 0 1 272.5259 1882.7207)" font-family="'ArialMT'" font-size="50.9512">quam. Vestibulum eu elit lacus.</text>
<rect x="272.451" y="2065.005" fill="none" width="1310.133" height="162.289"/>
<text transform="matrix(1 0 0 1 272.4487 2101.4873)" font-family="'ArialMT'" font-size="50.9512">Nam elementum, leo in adipiscing tincidunt, urna tellus </text>
<text transform="matrix(1 0 0 1 272.4487 2162.626)" font-family="'ArialMT'" font-size="50.9512">dignissim magna, vitae sagittis enim nunc id leo. In </text>
<text transform="matrix(1 0 0 1 272.4487 2223.7695)" font-family="'ArialMT'" font-size="50.9512">porttitor lacinia sapien at vulputate.</text>
<text id="cnpj_3_" transform="matrix(0 -1 1 0 1747.2529 1325.1758)" font-family="'ArialMT'" font-size="33.9674">CNPJ: 00.000.000.000/0001 -00</text>
</svg>
