<?xml version="1.0" encoding="utf-8"?>
<!-- Generator: Adobe Illustrator 15.0.0, SVG Export Plug-In . SVG Version: 6.00 Build 0)  -->
<!DOCTYPE svg PUBLIC "-//W3C//DTD SVG 1.1//EN" "http://www.w3.org/Graphics/SVG/1.1/DTD/svg11.dtd">
<svg version="1.1" id="Layer_2" xmlns="http://www.w3.org/2000/svg" xmlns:xlink="http://www.w3.org/1999/xlink" x="0px" y="0px"
	 width="1872px" height="2598px" viewBox="0 0 1872 2598" enable-background="new 0 0 1872 2598" xml:space="preserve">
<polygon id="fundo" fill="#808285" points="0.368,23 1870.938,23 1870.201,2598 -0.371,2598 "/>
<rect id="borda" x="0.368" fill="#BCBEC0" width="1870.568" height="683.697"/>
<text id="numero" transform="matrix(1 0 0 1 1026.1084 546.749)" font-family="Arial" font-size="225.5081">00000</text>
<text id="nome-do-candidato" transform="matrix(1 0 0 1 225.3955 345.042)" font-family="Arial" font-size="160.8275">Nome do Candidato</text>
<text id="cargo" transform="matrix(1 0 0 1 1514.999 613.459)" font-family="Arial" font-size="50">Cargo</text>
<text id="texto" transform="matrix(1 0 0 1 321.2695 847.8135)" font-family="Arial" font-size="50">
	<tspan x="0" y="0">Lorem ipsum dolor sit amet, consectetur adipiscing elit. </tspan>
	<tspan x="0" y="60">Fusce aliquam, diam nec tristique porttitor, odio nibh sagittis </tspan>
	<tspan x="0" y="120">elit, in laoreet nibh massa ac orci. Etiam porttitor urna eget </tspan>
	<tspan x="0" y="180">mauris placerat posuere. Vestibulum lacus magna, sagittis </tspan>
	<tspan x="0" y="240">quis porta at, consequat sed nulla. Quisque blandit elit at </tspan>
	<tspan x="0" y="300">leo luctus trices.</tspan>
</text>
<text id="topico-1" transform="matrix(1 0 0 1 277.6357 1411.5859)" font-family="Arial" font-size="50">
	<tspan x="0" y="0">Suspendisse quis purus sit amet augue laoreet vehicula. </tspan>
	<tspan x="0" y="60">Sed fringilla neque vitae nisl adipiscing non pretium metus </tspan>
	<tspan x="0" y="120">feugiat. Lorem ipsum dolor sit amet, consectetur adipiscing.</tspan>
</text>
<text id="topico-2" transform="matrix(1 0 0 1 276.2559 1722.6006)" font-family="Arial" font-size="50">
	<tspan x="0" y="0">Aliquam sed libero id leo aliquam interdum sed in risus. </tspan>
	<tspan x="0" y="60">Cras sit amet dui eget turpis cursus facilisis sit amet et </tspan>
	<tspan x="0" y="120">quam. Vestibulum eu elit lacus.</tspan>
</text>
<text id="topico-3" transform="matrix(1 0 0 1 276.2559 2029.8535)" font-family="Arial" font-size="50">
	<tspan x="0" y="0">Nam elementum, leo in adipiscing tincidunt, urna tellus </tspan>
	<tspan x="0" y="60">dignissim magna, vitae sagittis enim nunc id leo. In porttitor </tspan>
	<tspan x="0" y="120">lacinia sapien at vulputate.</tspan>
</text>

<path id="forma-1" d="M243.362,1410.75v-11.043h-18.089c-0.586,0-1.094-0.504-1.094-1.091v-10.607c0-0.587,0.507-1.089,1.094-1.089h18.089
	v-11.042c0-0.586,0.399-0.771,0.861-0.415l22.226,17.196c0.464,0.358,0.46,0.944-0.004,1.303l-22.221,17.199
	C243.761,1411.521,243.362,1411.335,243.362,1410.75z"/>

<path id="forma-2" d="M243.365,2028.994v-11.043h-18.09c-0.586,0-1.093-0.505-1.093-1.091v-10.608c0-0.587,0.507-1.087,1.093-1.087h18.09
	v-11.043c0-0.587,0.398-0.772,0.859-0.418l22.227,17.199c0.464,0.354,0.46,0.943-0.004,1.303l-22.22,17.196
	C243.763,2029.767,243.365,2029.582,243.365,2028.994z"/>

<path id="forma-3" d="M243.362,1718.819v-11.042h-18.089c-0.586,0-1.094-0.51-1.094-1.093v-10.61c0-0.585,0.507-1.088,1.094-1.088h18.089
	v-11.042c0-0.587,0.399-0.771,0.861-0.416l22.226,17.199c0.464,0.354,0.46,0.944-0.004,1.3l-22.221,17.199
	C243.761,1719.592,243.362,1719.404,243.362,1718.819z"/>

<text id="grafica" transform="matrix(0 -1 1 0 1756.8633 2435)" font-family="Arial" font-size="33.8262">Gráfica</text>
<text id="tiragem" transform="matrix(0 -1 1 0 1756.873 1787.8828)" font-family="Arial" font-size="33.8262">tiragem</text>
<text id="cnpj" transform="matrix(0 -1 1 0 1756.873 1225.7813)" font-family="Arial" font-size="33.8262">CNPJ: 00.000.000.000/0001 -00</text>
<g id="corte">
	<line fill="none" stroke="#000000" x1="58.5" y1="5" x2="58.5" y2="41"/>
	<line fill="none" stroke="#000000" x1="5" y1="59.5" x2="41" y2="59.5"/>
	<line fill="none" stroke="#000000" x1="5" y1="2539.5" x2="41" y2="2539.5"/>
	<line fill="none" stroke="#000000" x1="58.5" y1="2593" x2="58.5" y2="2557"/>
	<line fill="none" stroke="#000000" x1="1812.5" y1="5" x2="1812.5" y2="41"/>
	<line fill="none" stroke="#000000" x1="1867" y1="59.5" x2="1831" y2="59.5"/>
	<line fill="none" stroke="#000000" x1="1867" y1="2539.5" x2="1831" y2="2539.5"/>
	<line fill="none" stroke="#000000" x1="1812.5" y1="2593" x2="1812.5" y2="2557"/>
</g>
</svg>
