<?xml version="1.0" encoding="utf-8"?>
<!-- Generator: Adobe Illustrator 15.0.0, SVG Export Plug-In . SVG Version: 6.00 Build 0)  -->
<!DOCTYPE svg PUBLIC "-//W3C//DTD SVG 1.1//EN" "http://www.w3.org/Graphics/SVG/1.1/DTD/svg11.dtd">
<svg version="1.1" id="Layer_2" xmlns="http://www.w3.org/2000/svg" xmlns:xlink="http://www.w3.org/1999/xlink" x="0px" y="0px"
	 width="1872px" height="2598px" viewBox="0 0 1872 2598" enable-background="new 0 0 1872 2598" xml:space="preserve">
<path id="fundo" fill="#818285" d="M-0.204,1583.89c0,0,299.224-269.31,842.488-36.76C1428.991,1798.264,1872,1583.89,1872,1583.89
	V2598H-0.204V1583.89z"/>
<path id="borda" fill="#BDBEC0" d="M842.285,1547.13c-543.267-232.546-842.488,36.76-842.488,36.76v-120.354
	c0,0,305.908-279.331,849.176,13.355C1410.807,1779.597,1872,1550.453,1872,1550.453v33.435
	C1872,1583.89,1428.991,1798.264,842.285,1547.13z"/>
<text id="cargo" transform="matrix(1 0 0 1 225.3301 1669.1465)" fill="#F2F2F2" font-family="'Arial-BoldMT'" font-size="139.8746">vereador</text>
<text id="nome-do-candidato" transform="matrix(1 0 0 1 216.6226 1942.5195)" fill="#F2F2F2" font-family="'Arial-BoldMT'" font-size="266.5178">Candidato</text>
<text id="slogan" transform="matrix(1 0 0 1 225.3364 2104.0576)" fill="#F2F2F2" font-family="'Arial-BoldMT'" font-size="109.6314">Lorem ipsum dolor</text>
<text id="numero" transform="matrix(1 0 0 1 935.896 2374.8066)" fill="#F2F2F2" font-family="'Arial-BoldMT'" font-size="266.5178">00000</text>
<text id="coligação" transform="matrix(1 0 0 1 351.9307 2445.0254)" fill="#FFFFFF" font-family="'ArialMT'" font-size="62.3765">coligação: partido, partido, partido, partido</text>
<g id="corte">
	<line fill="none" stroke="#000000" x1="58.5" y1="5" x2="58.5" y2="41"/>
	<line fill="none" stroke="#000000" x1="5" y1="59.5" x2="41" y2="59.5"/>
	<line fill="none" stroke="#000000" x1="5" y1="2539.5" x2="41" y2="2539.5"/>
	<line fill="none" stroke="#000000" x1="58.5" y1="2593" x2="58.5" y2="2557"/>
	<line fill="none" stroke="#000000" x1="1812.5" y1="5" x2="1812.5" y2="41"/>
	<line fill="none" stroke="#000000" x1="1867" y1="59.5" x2="1831" y2="59.5"/>
	<line fill="none" stroke="#000000" x1="1867" y1="2539.5" x2="1831" y2="2539.5"/>
	<line fill="none" stroke="#000000" x1="1812.5" y1="2593" x2="1812.5" y2="2557"/>
</g>
</svg>
