<?xml version="1.0" encoding="utf-8"?>
<!-- Generator: Adobe Illustrator 15.0.0, SVG Export Plug-In . SVG Version: 6.00 Build 0)  -->
<!DOCTYPE svg PUBLIC "-//W3C//DTD SVG 1.1//EN" "http://www.w3.org/Graphics/SVG/1.1/DTD/svg11.dtd">
<svg version="1.1" id="Layer_2" xmlns="http://www.w3.org/2000/svg" xmlns:xlink="http://www.w3.org/1999/xlink" x="0px" y="0px"
	 width="1872px" height="2598px" viewBox="0 0 1872 2598" enable-background="new 0 0 1872 2598" xml:space="preserve">
<path id="forma-1" fill="#BCBEC0" d="M1648.641,1577.485c0,9.38-7.603,16.983-16.981,16.983H238.719
	c-9.38,0-16.983-7.604-16.983-16.983v-233.497c0-9.38,7.604-16.983,16.983-16.983h1392.939c9.38,0,16.981,7.604,16.981,16.983
	L1648.641,1577.485L1648.641,1577.485z"/>
<path id="forma-2" fill="#BCBEC0" d="M1648.641,1920.434c0,9.381-7.603,16.982-16.981,16.982H238.719
	c-9.38,0-16.983-7.604-16.983-16.982v-233.496c0-9.381,7.604-16.984,16.983-16.984h1392.939c9.38,0,16.981,7.604,16.981,16.984
	L1648.641,1920.434L1648.641,1920.434z"/>
<path id="forma-3" fill="#BCBEC0" d="M1648.641,2262.896c0,9.381-7.603,16.983-16.981,16.983H238.719
	c-9.38,0-16.983-7.604-16.983-16.983v-233.494c0-9.383,7.604-16.983,16.983-16.983h1392.939c9.38,0,16.981,7.603,16.981,16.983
	L1648.641,2262.896L1648.641,2262.896z"/>
<path id="borda" fill="#BCBEC0" d="M1871.962,610.652C1411.243,1112.254,828.078,293.18,0,610.652V41.55h1871.962V610.652z"/>
<path id="fundo" fill="#808285" d="M1871.962,566.475C1411.243,1068.077,828.078,249.004,0,566.475V-2.628h1871.962V566.475z"/>
<text id="numero" transform="matrix(1 0 0 1 1023.6064 523.3091)" font-family="Arial" font-size="226.4497">00000</text>
<text id="nome-do-candidato" transform="matrix(1 0 0 1 219.5498 320.7598)" font-family="Arial" font-size="161.499">Nome do Candidato</text>
<text id="cargo" transform="matrix(1 0 0 1 1514.5371 590.2969)" font-family="Arial" font-size="50.9512">Cargo</text>
<text id="texto" transform="matrix(1 0 0 1 258.7988 738.5425)" font-family="Arial" font-size="68">
	<tspan x="0" y="0">Praesent eu </tspan>
	<tspan x="0" y="80">hendrerit purus. </tspan>
	<tspan x="0" y="160">Mauris lacus leo, commodo eu congue sit </tspan>
	<tspan x="0" y="240">amet, gravida et orci. Suspendisse quis </tspan>
	<tspan x="0" y="320">purus sit amet augue laoreet vehicula. Sed </tspan>
	<tspan x="0" y="400">fringilla neque vitae nisl adipiscing non </tspan>
	<tspan x="0" y="480">pretium metus feugiat. Lorem ipsum dolor sit </tspan>
</text>
<text id="topico-1" transform="matrix(1 0 0 1 272.4487 1413.1855)" font-family="Arial" font-size="50">
	<tspan x="0" y="0">Suspendisse quis purus sit amet augue laoreet vehicula. </tspan>
	<tspan x="0" y="60">Sed fringilla neque vitae nisl adipiscing non pretium metus </tspan>
	<tspan x="0" y="120">feugiat. Lorem ipsum dolor sit amet, consectetur </tspan>
</text>
<text id="topico-2" transform="matrix(1 0 0 1 272.5259 1760.4385)" font-family="Arial" font-size="50">
	<tspan x="0" y="0">Aliquam sed libero id leo aliquam interdum sed in risus. </tspan>
	<tspan x="0" y="60">Cras sit amet dui eget turpis cursus facilisis sit amet et </tspan>
	<tspan x="0" y="120">quam. Vestibulum eu elit lacus.</tspan>
</text>
<text id="topico-3" transform="matrix(1 0 0 1 272.4487 2101.4873)" font-family="Arial" font-size="50">
	<tspan x="0" y="0">Nam elementum, leo in adipiscing tincidunt, urna tellus </tspan>
	<tspan x="0" y="60">dignissim magna, vitae sagittis enim nunc id leo. In </tspan>
	<tspan x="0" y="120">porttitor lacinia sapien at vulputate.</tspan>
</text>
<text id="grafica" transform="matrix(0 -1 1 0 1747.2422 2419.4453)" font-family="Arial" font-size="33.9674">Gráfica</text>
<text id="tiragem" transform="matrix(0 -1 1 0 1747.2529 1769.625)" font-family="Arial" font-size="33.9674">tiragem</text>
<text id="cnpj" transform="matrix(0 -1 1 0 1747.2529 1325.1758)" font-family="Arial" font-size="33.9674">CNPJ: 00.000.000.000/0001 -00</text>
<g id="corte">
	<line fill="none" stroke="#000000" x1="58.5" y1="5" x2="58.5" y2="41"/>
	<line fill="none" stroke="#000000" x1="5" y1="59.5" x2="41" y2="59.5"/>
	<line fill="none" stroke="#000000" x1="5" y1="2539.5" x2="41" y2="2539.5"/>
	<line fill="none" stroke="#000000" x1="58.5" y1="2593" x2="58.5" y2="2557"/>
	<line fill="none" stroke="#000000" x1="1812.5" y1="5" x2="1812.5" y2="41"/>
	<line fill="none" stroke="#000000" x1="1867" y1="59.5" x2="1831" y2="59.5"/>
	<line fill="none" stroke="#000000" x1="1867" y1="2539.5" x2="1831" y2="2539.5"/>
	<line fill="none" stroke="#000000" x1="1812.5" y1="2593" x2="1812.5" y2="2557"/>
</g>
</svg>
