<?xml version="1.0" encoding="utf-8"?>
<!-- Generator: Adobe Illustrator 15.0.0, SVG Export Plug-In . SVG Version: 6.00 Build 0)  -->
<!DOCTYPE svg PUBLIC "-//W3C//DTD SVG 1.1//EN" "http://www.w3.org/Graphics/SVG/1.1/DTD/svg11.dtd">
<svg version="1.1" id="Layer_1" xmlns="http://www.w3.org/2000/svg" xmlns:xlink="http://www.w3.org/1999/xlink" x="0px" y="0px"
	 width="960px" height="198px" viewBox="0 0 960 198" enable-background="new 0 0 960 198" xml:space="preserve">
<path id="fundo" fill="#808285" d="M960.808,84.562c0,0-30.309-118.062-339.309-11.062c-302,113-621.5-5-621.5-5v86.87V198h960.809
	v-64.132V84.562z"/>
<path id="borda" fill="#BCBEC0" d="M621.5,73.5c309-107,339.309,11.062,339.309,11.062v49.306c0,0.001,0.001,0.002,0.001,0.002
	V54.104c0,0-23.41-102.598-376.31,22.396C275.399,172.629,0,50.131,0,50.131V68.5C0,68.5,319.5,186.5,621.5,73.5z"/>
	<text id="cargo" transform="matrix(1 0 0 1 820 89.877)" fill="#F1F2F2" text-anchor="middle" font-family="Arial" font-weight="bold" font-size="36">vereador</text>
	<text id="nome-do-candidato" transform="matrix(1 0 0 1 11.2263 166.6221)" fill="#F1F2F2" font-family="Arial" font-weight="bold" font-size="48">Candidato Fulano de Total</text>
	<text id="slogan" transform="matrix(1 0 0 1 11.2263 190.877)" fill="#F1F2F2" font-family="Arial" font-style="italic" font-size="21">Lorem ipsum dolor</text>
	<text id="numero" transform="matrix(1 0 0 1 820 171.6221)" fill="#F1F2F2" text-anchor="middle" font-family="Arial" font-weight="bold" font-size="80">00000</text>
</svg>
