<?xml version="1.0" encoding="utf-8"?>
<!-- Generator: Adobe Illustrator 15.0.0, SVG Export Plug-In . SVG Version: 6.00 Build 0)  -->
<!DOCTYPE svg PUBLIC "-//W3C//DTD SVG 1.1//EN" "http://www.w3.org/Graphics/SVG/1.1/DTD/svg11.dtd">
<svg version="1.1" id="Layer_1" xmlns="http://www.w3.org/2000/svg" xmlns:xlink="http://www.w3.org/1999/xlink" x="0px" y="0px"
	 width="992px" height="1358px" viewBox="0 0 992 1358" enable-background="new 0 0 992 1358" xml:space="preserve">
<path id="fundo" fill="#808285" d="M561.82,714.419C152.694,802.611,1.514,835.489,1.514,835.489V1358h990.48V835.489
	C991.995,835.489,938.384,633.246,561.82,714.419z"/>
<path id="borda" fill="#BCBEC0" d="M561.82,675.419C152.694,763.611,1.514,796.489,1.514,796.489v39
	c0,0,151.181-32.878,560.307-121.07c376.563-81.173,430.175,121.07,430.175,121.07v-39
	C991.995,796.489,938.384,594.246,561.82,675.419z"/>
<text id="cargo" transform="matrix(1 0 0 1 552.8318 780.6572)" fill="#FFFFFF" font-family="'Arial-BoldMT'" font-size="74.8756">vereador</text>
<text id="nome-do-candidato" transform="matrix(1 0 0 1 383.7502 903.6328)" fill="#FFFFFF" font-family="'Arial-BoldMT'" font-size="99.488">Candidato</text>
<text id="slogan" transform="matrix(1 0 0 1 341.9666 991.9961)" fill="#FFFFFF" font-family="'Arial-BoldMT'" font-size="58.2366">Lorem ipsum dolor</text>
<text id="numero" transform="matrix(1 0 0 1 120.8337 1215.9824)" fill="#FFFFFF" font-family="'Arial-BoldMT'" font-size="230.0778">00000</text>
<text id="coligação" transform="matrix(1 0 0 1 120.8342 1277.0703)" fill="#FFFFFF" font-family="'ArialMT'" font-size="33.2781">coligação: partido, partido, partido, partido</text>
<text id="grafica" transform="matrix(0 -1 1 0 102.6248 1239.9141)" font-family="'ArialMT'" font-size="33.2781">Gráfica</text>
<text id="tiragem" transform="matrix(0 -1 1 0 102.6316 895.5625)" font-family="'ArialMT'" font-size="33.2781">tiragem</text>
<text id="cnpj" transform="matrix(0 -1 1 0 102.6316 596.4482)" font-family="'ArialMT'" font-size="33.2781">CNPJ: 00.000.000.000/0001 -00</text>
<g id="corte">
	<line fill="none" stroke="#000000" stroke-miterlimit="10" x1="61.183" y1="2" x2="61.183" y2="44.664"/>
	<line fill="none" stroke="#000000" stroke-miterlimit="10" x1="1.514" y1="60.558" x2="44.18" y2="60.558"/>
	<line fill="none" stroke="#000000" stroke-miterlimit="10" x1="1.514" y1="1298.334" x2="44.175" y2="1298.334"/>
	<line fill="none" stroke="#000000" stroke-miterlimit="10" x1="60.071" y1="1358" x2="60.071" y2="1315.33"/>
	<line fill="none" stroke="#000000" stroke-miterlimit="10" x1="932.329" y1="1358" x2="932.329" y2="1315.338"/>
	<line fill="none" stroke="#000000" stroke-miterlimit="10" x1="992" y1="1299.442" x2="949.33" y2="1299.442"/>
	<line fill="none" stroke="#000000" stroke-miterlimit="10" x1="991.99" y1="61.666" x2="949.334" y2="61.666"/>
	<line fill="none" stroke="#000000" stroke-miterlimit="10" x1="933.438" y1="2" x2="933.438" y2="44.67"/>
</g>
</svg>
