<?xml version="1.0" encoding="utf-8"?>
<!-- Generator: Adobe Illustrator 15.0.0, SVG Export Plug-In . SVG Version: 6.00 Build 0)  -->
<!DOCTYPE svg PUBLIC "-//W3C//DTD SVG 1.1//EN" "http://www.w3.org/Graphics/SVG/1.1/DTD/svg11.dtd">
<svg version="1.1" id="Layer_1" xmlns="http://www.w3.org/2000/svg" xmlns:xlink="http://www.w3.org/1999/xlink" x="0px" y="0px"
	 width="992px" height="1358px" viewBox="0 0 992 1358" enable-background="new 0 0 992 1358" xml:space="preserve">
<path id="fundo" fill="#808285" d="M0.759,318.697c0,0,245.801-95.992,509.5,30.063c263.698,126.057,480.981-30.063,480.981-30.063
	V0H0.759V318.697z"/>
<path id="borda" fill="#BCBEC0" d="M510.259,348.76c-263.699-126.055-509.5-30.063-509.5-30.063v43c0,0,245.801-95.992,509.5,30.063
	c263.698,126.057,480.981-30.063,480.981-30.063v-43C991.24,318.697,773.957,474.814,510.259,348.76z"/>
<text id="cargo" transform="matrix(1 0 0 1 552.5352 344.3232)" fill="#FFFFFF" font-family="Arial" font-weight="bold" font-size="74">vereador</text>
<text id="nome-do-candidato" transform="matrix(1 0 0 1 121.751 200.8203)" fill="#FFFFFF" font-family="Arial" font-weight="bold" font-size="99">Candidato</text>
<text id="slogan" transform="matrix(1 0 0 1 120.0918 259.1211)" fill="#FFFFFF" font-family="Arial" font-weight="bold" font-size="58">Lorem ipsum dolor</text>
<text id="numero" transform="matrix(1 0 0 1 118.9097 1209.4414)" font-family="Arial" font-weight="bold" font-size="271">00000</text>
<text id="coligação" transform="matrix(1 0 0 1 496 1277.0703)" style="text-anchor: middle;" font-family="Arial" font-size="33">coligação: partido, partido, partido, partido</text>
<g id="corte">
	<line fill="none" stroke="#000000" stroke-miterlimit="10" x1="61.183" y1="2" x2="61.183" y2="44.664"/>
	<line fill="none" stroke="#000000" stroke-miterlimit="10" x1="1.514" y1="60.558" x2="44.18" y2="60.558"/>
	<line fill="none" stroke="#000000" stroke-miterlimit="10" x1="1.514" y1="1298.334" x2="44.175" y2="1298.334"/>
	<line fill="none" stroke="#000000" stroke-miterlimit="10" x1="60.071" y1="1358" x2="60.071" y2="1315.33"/>
	<line fill="none" stroke="#000000" stroke-miterlimit="10" x1="932.329" y1="1358" x2="932.329" y2="1315.338"/>
	<line fill="none" stroke="#000000" stroke-miterlimit="10" x1="992" y1="1299.442" x2="949.33" y2="1299.442"/>
	<line fill="none" stroke="#000000" stroke-miterlimit="10" x1="991.99" y1="61.666" x2="949.334" y2="61.666"/>
	<line fill="none" stroke="#000000" stroke-miterlimit="10" x1="933.438" y1="2" x2="933.438" y2="44.67"/>
</g>
</svg>
