<?xml version="1.0" encoding="utf-8"?>
<!-- Generator: Adobe Illustrator 15.0.0, SVG Export Plug-In . SVG Version: 6.00 Build 0)  -->
<!DOCTYPE svg PUBLIC "-//W3C//DTD SVG 1.1//EN" "http://www.w3.org/Graphics/SVG/1.1/DTD/svg11.dtd">
<svg version="1.1" id="Layer_1" xmlns="http://www.w3.org/2000/svg" xmlns:xlink="http://www.w3.org/1999/xlink" x="0px" y="0px"
	 width="992px" height="1358px" viewBox="0 0 992 1358" enable-background="new 0 0 992 1358" xml:space="preserve">
<polygon id="fundo" fill="#808285" points="0.625,-0.078 992.614,-0.078 992.223,1357.922 0.233,1357.922 "/>
<rect id="borda" x="0.625" y="-0.078" fill="#BCBEC0" width="991.988" height="351.578"/>
<text id="numero" transform="matrix(1 0 0 1 543.0547 278.625)" font-family="Arial" font-size="120">00000</text>
<text id="nome-do-candidato" transform="matrix(1 0 0 1 116.9688 171.29)" font-family="Arial" font-size="85.5814">Nome do Candidato</text>
<text id="cargo" transform="matrix(1 0 0 1 803.207 314.123)" font-family="Arial" font-size="27">Cargo</text>
<text id="texto" transform="matrix(1 0 0 1 144.0332 438.8311)" font-family="Arial" font-size="27">
	<tspan x="0" y="0">Lorem ipsum dolor sit amet, consectetur adipiscing elit. </tspan>
	<tspan x="0" y="45">Fusce aliquam, diam nec tristique porttitor, odio nibh sagittis </tspan>
	<tspan x="0" y="90">elit, in laoreet nibh massa ac orci. Etiam porttitor urna eget </tspan>
	<tspan x="0" y="135">mauris placerat posuere. Vestibulum lacus magna, sagittis </tspan>
	<tspan x="0" y="180">quis porta at, consequat sed nulla. Quisque blandit elit at </tspan>
	<tspan x="0" y="225">leo luctus trices.</tspan>
</text>
<text id="topico-1" transform="matrix(1 0 0 1 144.0332 738.832)" font-family="Arial" font-size="27">
	<tspan x="0" y="0">Suspendisse quis purus sit amet augue laoreet vehicula. </tspan>
	<tspan x="0" y="32">Sed fringilla neque vitae nisl adipiscing non pretium metus </tspan>
	<tspan x="0" y="64">feugiat. Lorem ipsum dolor sit amet, consectetur adipiscing.</tspan>
</text>
<text id="topico-2" transform="matrix(1 0 0 1 144.0332 904.332)" font-family="Arial" font-size="27">
	<tspan x="0" y="0">Aliquam sed libero id leo aliquam interdum sed in risus. </tspan>
	<tspan x="0" y="32">Cras sit amet dui eget turpis cursus facilisis sit amet et </tspan>
	<tspan x="0" y="64">quam. Vestibulum eu elit lacus.</tspan>
</text>
<text id="topico-3" transform="matrix(1 0 0 1 144.0332 1067.832)" font-family="Arial" font-size="27">
	<tspan x="0" y="0">Nam elementum, leo in adipiscing tincidunt, urna tellus </tspan>
	<tspan x="0" y="32">dignissim magna, vitae sagittis enim nunc id leo. In porttitor </tspan>
	<tspan x="0" y="64">lacinia sapien at vulputate.</tspan>
</text>

<path id="forma-1" d="M126.529,738.388v-5.876h-9.626c-0.312,0-0.582-0.269-0.582-0.581v-5.645c0-0.313,0.27-0.579,0.582-0.579h9.626v-5.876
	c0-0.312,0.212-0.411,0.458-0.221l11.827,9.149c0.247,0.19,0.245,0.503-0.002,0.693l-11.824,9.152
	C126.741,738.799,126.529,738.699,126.529,738.388z"/>

<path id="forma-2" d="M126.53,1067.375v-5.876h-9.626c-0.312,0-0.582-0.269-0.582-0.581v-5.645c0-0.313,0.27-0.579,0.582-0.579h9.626v-5.876
	c0-0.313,0.212-0.411,0.458-0.224l11.827,9.152c0.247,0.188,0.245,0.503-0.002,0.692l-11.824,9.15
	C126.742,1067.786,126.53,1067.688,126.53,1067.375z"/>

<path id="forma-3" d="M126.529,902.321v-5.876h-9.626c-0.312,0-0.582-0.271-0.582-0.581v-5.646c0-0.312,0.27-0.579,0.582-0.579h9.626v-5.876
	c0-0.312,0.212-0.408,0.458-0.221l11.827,9.152c0.247,0.188,0.245,0.503-0.002,0.69l-11.824,9.152
	C126.741,902.732,126.529,902.633,126.529,902.321z"/>

<text id="grafica" transform="matrix(0 -1 1 0 910.625 1283.4238)" font-family="Arial" font-size="18">Gráfica</text>
<text id="tiragem" transform="matrix(0 -1 1 0 910.6309 939.0723)" font-family="Arial" font-size="18">tiragem</text>
<text id="cnpj" transform="matrix(0 -1 1 0 910.6309 639.959)" font-family="Arial" font-size="18">CNPJ: 00.000.000.000/0001 -00</text>
<g id="corte">
	<line fill="none" stroke="#000000" stroke-miterlimit="10" x1="61.183" y1="2" x2="61.183" y2="44.664"/>
	<line fill="none" stroke="#000000" stroke-miterlimit="10" x1="1.514" y1="60.558" x2="44.18" y2="60.558"/>
	<line fill="none" stroke="#000000" stroke-miterlimit="10" x1="1.514" y1="1298.334" x2="44.175" y2="1298.334"/>
	<line fill="none" stroke="#000000" stroke-miterlimit="10" x1="60.071" y1="1358" x2="60.071" y2="1315.33"/>
	<line fill="none" stroke="#000000" stroke-miterlimit="10" x1="932.327" y1="1358" x2="932.327" y2="1315.338"/>
	<line fill="none" stroke="#000000" stroke-miterlimit="10" x1="992" y1="1299.442" x2="949.328" y2="1299.442"/>
	<line fill="none" stroke="#000000" stroke-miterlimit="10" x1="991.99" y1="61.666" x2="949.331" y2="61.666"/>
	<line fill="none" stroke="#000000" stroke-miterlimit="10" x1="933.438" y1="2" x2="933.438" y2="44.67"/>
</g>
</svg>
