<?xml version="1.0" encoding="utf-8"?>
<!-- Generator: Adobe Illustrator 15.0.0, SVG Export Plug-In . SVG Version: 6.00 Build 0)  -->
<!DOCTYPE svg PUBLIC "-//W3C//DTD SVG 1.1//EN" "http://www.w3.org/Graphics/SVG/1.1/DTD/svg11.dtd">
<svg version="1.1" id="Layer_1" xmlns="http://www.w3.org/2000/svg" xmlns:xlink="http://www.w3.org/1999/xlink" x="0px" y="0px"
	 width="992px" height="1358px" viewBox="0 0 992 1358" enable-background="new 0 0 992 1358" xml:space="preserve">
<rect id="fundo" y="2" fill="#808285" width="991.99" height="1356"/>
<g id="corte">
	<line fill="none" stroke="#000000" stroke-miterlimit="10" x1="61.183" y1="2" x2="61.183" y2="44.664"/>
	<line fill="none" stroke="#000000" stroke-miterlimit="10" x1="1.514" y1="60.558" x2="44.18" y2="60.558"/>
	<line fill="none" stroke="#000000" stroke-miterlimit="10" x1="1.514" y1="1298.334" x2="44.175" y2="1298.334"/>
	<line fill="none" stroke="#000000" stroke-miterlimit="10" x1="60.071" y1="1358" x2="60.071" y2="1315.33"/>
	<line fill="none" stroke="#000000" stroke-miterlimit="10" x1="932.329" y1="1358" x2="932.329" y2="1315.338"/>
	<line fill="none" stroke="#000000" stroke-miterlimit="10" x1="992" y1="1299.442" x2="949.33" y2="1299.442"/>
	<line fill="none" stroke="#000000" stroke-miterlimit="10" x1="991.99" y1="61.666" x2="949.333" y2="61.666"/>
	<line fill="none" stroke="#000000" stroke-miterlimit="10" x1="933.438" y1="2" x2="933.438" y2="44.67"/>
</g>
<text id="grafica" transform="matrix(0 -1 1 0 908.625 1283.4238)" font-family="Arial" font-size="33.2781">Gráfica</text>
<text id="tiragem" transform="matrix(0 -1 1 0 908.6318 939.0723)" font-family="Arial" font-size="33.2781">tiragem</text>
<text id="cnpj" transform="matrix(0 -1 1 0 908.6318 639.958)" font-family="Arial" font-size="33.2781">CNPJ: 00.000.000.000/0001 -00</text>
<text id="nome-do-candidato" transform="matrix(1 0 0 1 262.4673 173.3652)" font-family="Arial" font-size="75">Nome do Candidato</text>
<text id="cargo" transform="matrix(1 0 0 1 421.751 260.2598)" font-family="Arial" font-size="75">Cargo</text>
<text id="numero" transform="matrix(1 0 0 1 421.751 342.2598)" font-family="Arial" font-size="75">00000</text>
<rect x="103.5" y="394.5" fill="none" width="711" height="667"/>
<text id="texto" transform="matrix(1 0 0 1 103.5 411.6836)">
	<tspan x="0" y="0" font-family="Arial" font-size="24">Cupcake ipsum dolor sit amet. Chocolate cake chocolate cake </tspan>
	<tspan x="0" y="36" font-family="Arial" font-size="24">cake cheesecake sesame snaps cake dessert danish. Dragée jelly </tspan>
	<tspan x="0" y="72" font-family="Arial" font-size="24">beans chocolate cake pudding marzipan wypas.</tspan>
	<tspan x="0" y="108" font-family="Arial" font-size="24">Oat cake powder bear claw topping tootsie roll. Jelly-o toffee </tspan>
	<tspan x="0" y="144" font-family="Arial" font-size="24">topping pie toffee marzipan. Wafer cupcake pudding jelly-o.</tspan>
	<tspan x="0" y="180" font-family="Arial" font-size="24">Pastry brownie carrot cake brownie jelly beans. Caramels soufflé </tspan>
	<tspan x="0" y="216" font-family="Arial" font-size="24">gummies. Sweet roll wafer carrot cake sweet roll macaroon jelly-o </tspan>
	<tspan x="0" y="252" font-family="Arial" font-size="24">macaroon soufflé toffee. Caramels applicake gummies chocolate </tspan>
	<tspan x="0" y="288" font-family="Arial" font-size="24">bar tiramisu dragée.</tspan>
	<tspan x="0" y="324" font-family="Arial" font-size="24">Pudding cupcake chocolate cake. Cookie dessert tart danish </tspan>
	<tspan x="0" y="360" font-family="Arial" font-size="24">marzipan lollipop caramels. Pudding chocolate biscuit macaroon. </tspan>
	<tspan x="0" y="396" font-family="Arial" font-size="24">Halvah sweet roll fruitcake wafer.</tspan>
	<tspan x="0" y="432" font-family="Arial" font-size="24">Biscuit gummies ice cream muffin jelly. Bonbon caramels faworki </tspan>
	<tspan x="0" y="468" font-family="Arial" font-size="24">lemon drops. Marshmallow jelly-o carrot cake croissant.</tspan>
</text>
</svg>
