<?xml version="1.0" encoding="UTF-8"?>
<svg width="594px" height="340px" viewBox="0 0 594 340" version="1.1" xmlns="http://www.w3.org/2000/svg" xmlns:xlink="http://www.w3.org/1999/xlink">
    <!-- Generator: Sketch 59 (86127) - https://sketch.com -->
    <title>3rd Party Plugin Support</title>
    <desc>Created with Sketch.</desc>
    <g id="Page-1" stroke="none" stroke-width="1" fill="none" fill-rule="evenodd">
        <g id="Artboard" transform="translate(-463.000000, -1283.000000)">
            <g id="3rd-Party-Plugin-Support" transform="translate(463.000000, 1283.000000)">
                <rect id="Rectangle-Copy-11" fill="#FFE9E9" transform="translate(297.000000, 170.000000) rotate(-360.000000) translate(-297.000000, -170.000000) " x="0" y="0" width="594" height="340" rx="15"></rect>
                <g id="puzzle" transform="translate(190.000000, 87.000000)" fill="#EE5252" fill-rule="nonzero" stroke="#9F2D2D">
                    <path d="M160.908988,0 L88.5,0 C86.2764407,0 84.4771527,1.79928793 84.4771527,4.02284727 L84.4771527,28.6815019 C83.1730367,28.3356735 81.8214022,28.1591766 80.4543055,28.1591766 C71.5838273,28.1591766 64.3632935,35.375562 64.3632935,44.2501886 C64.3632935,53.1248152 71.5838273,60.3408234 80.4543055,60.3408234 C81.8214022,60.3408234 83.1726596,60.1639493 84.4771527,59.8184981 L84.4771527,84.4771527 L53.1832703,84.4771527 C51.5963067,84.4771527 50.1503897,85.4162068 49.5062514,86.8696664 C48.8621131,88.323126 49.1291213,90.0202116 50.197531,91.1987433 C51.5487883,92.6914244 52.295506,94.5929146 52.295506,96.5453174 C52.295506,100.980368 48.6890104,104.590635 44.2501886,104.590635 C39.8106125,104.590635 36.204494,100.980368 36.204494,96.5453174 C36.204494,94.5929146 36.9508346,92.6914244 38.302469,91.1987433 C39.3708787,90.0202116 39.638264,88.323126 38.9937486,86.8696664 C38.3496103,85.4162068 36.9036933,84.4771527 35.3167297,84.4771527 L4.02284727,84.4771527 C1.79928793,84.4771527 0,86.2764407 0,88.5 L0,160.908988 C0,169.783238 7.22053378,177 16.0910119,177 L160.908988,177 C169.779466,177 177,169.783615 177,160.908988 L177,16.0910119 C177,7.21638535 169.779466,0 160.908988,0 Z M168.954305,160.908988 C168.954305,165.344039 165.34781,168.954305 160.908988,168.954305 L92.5224701,168.954305 L92.5224701,144.295651 C93.8269633,144.641102 95.1782206,144.817976 96.5453174,144.817976 C105.415796,144.817976 112.636329,137.601591 112.636329,128.726964 C112.636329,119.852338 105.415796,112.636329 96.5453174,112.636329 C95.1782206,112.636329 93.8269633,112.813203 92.5224701,113.158655 L92.5224701,92.5224701 L121.200201,92.5224701 C120.862292,93.8269633 120.681647,95.1782206 120.681647,96.5453174 C120.681647,105.419567 127.902181,112.636329 136.772659,112.636329 C145.643137,112.636329 152.863671,105.419944 152.863671,96.5453174 C152.863671,95.1782206 152.683025,93.8269633 152.345117,92.5224701 L168.954305,92.5224701 L168.954305,160.908988 Z" id="Shape"></path>
                </g>
            </g>
        </g>
    </g>
</svg>