<?xml version="1.0" encoding="UTF-8"?>
<svg width="594px" height="340px" viewBox="0 0 594 340" version="1.1" xmlns="http://www.w3.org/2000/svg" xmlns:xlink="http://www.w3.org/1999/xlink">
    <!-- Generator: Sketch 59 (86127) - https://sketch.com -->
    <title>Category Mapping</title>
    <desc>Created with Sketch.</desc>
    <g id="Page-1" stroke="none" stroke-width="1" fill="none" fill-rule="evenodd">
        <g id="Artboard" transform="translate(-1428.000000, -113.000000)">
            <g id="Category-Mapping" transform="translate(1428.000000, 113.000000)">
                <rect id="Rectangle-Copy-4" fill="#EAF3FF" transform="translate(297.000000, 170.000000) rotate(-360.000000) translate(-297.000000, -170.000000) " x="0" y="0" width="594" height="340" rx="15"></rect>
                <g id="maintenance-2" transform="translate(209.000000, 82.000000)" fill-rule="nonzero">
                    <g id="maintenance">
                        <path d="M119.735294,0 L57.2647059,0 C48.6527882,0 41.6470588,7.05705344 41.6470588,15.7320621 L41.6470588,47.8953889 C41.6470588,56.5703975 48.6527882,63.627451 57.2647059,63.627451 L119.735294,63.627451 C128.347212,63.627451 135.352941,56.5703975 135.352941,47.8953889 L135.352941,15.7320621 C135.352941,7.05705344 128.347212,0 119.735294,0 Z" id="Path" fill="#3A7FD4"></path>
                        <path d="M119.735294,0 L57.2647059,0 C48.6527882,0 41.6470588,7.05705344 41.6470588,15.7320621 L41.6470588,47.8953889 C41.6470588,56.5703975 48.6527882,63.627451 57.2647059,63.627451 L119.735294,63.627451 C128.347212,63.627451 135.352941,56.5703975 135.352941,47.8953889 L135.352941,15.7320621 C135.352941,7.05705344 128.347212,0 119.735294,0 Z" id="Path-Copy-2" stroke="#14427A" stroke-width="2"></path>
                        <path d="M166.628906,124.941176 L156.257813,124.941176 L156.257813,119.735294 C156.257813,111.123376 149.279449,104.117647 140.701172,104.117647 L93.6855469,104.117647 L93.6855469,93.6711765 C94.6618125,93.6711765 108.321234,93.6711765 109.242188,93.6711765 C112.108412,93.6711765 114.427734,91.3774647 114.427734,88.5 C114.427734,85.6225353 112.108412,83.2941176 109.242188,83.2941176 L104.056641,83.2941176 L104.056641,72.8823529 L72.9433594,72.8823529 L72.9433594,83.2941176 L67.7578125,83.2941176 C64.8915879,83.2941176 62.5722656,85.6225353 62.5722656,88.5 C62.5722656,91.3774647 64.8915879,93.6711765 67.7578125,93.6711765 C68.7340781,93.6711765 82.3935,93.6711765 83.3144531,93.6711765 L83.3144531,104.117647 L36.2988281,104.117647 C27.7205508,104.117647 20.7421875,111.123376 20.7421875,119.735294 L20.7421875,124.941176 L10.3710938,124.941176 C4.64313867,124.941176 0,129.602524 0,135.352941 L0,145.764706 C0,151.514429 4.64313867,156.176471 10.3710938,156.176471 L20.7421875,156.176471 L20.7421875,166.588235 L15.5566406,166.588235 C12.690416,166.588235 10.3710938,168.916653 10.3710938,171.794118 C10.3710938,174.671582 12.690416,177 15.5566406,177 L36.2988281,177 C39.1650527,177 41.484375,174.671582 41.484375,171.794118 C41.484375,168.916653 39.1650527,166.588235 36.2988281,166.588235 L31.1132813,166.588235 L31.1132813,156.176471 L41.484375,156.176471 C47.2123301,156.176471 51.8554688,151.514429 51.8554688,145.764706 L51.8554688,135.352941 C51.8554688,129.602524 47.2123301,124.941176 41.484375,124.941176 L31.1132813,124.941176 L31.1132813,119.735294 C31.1132813,116.863035 33.4377891,114.529412 36.2988281,114.529412 L83.3144531,114.529412 L83.3144531,124.941176 L72.9433594,124.941176 C67.2154043,124.941176 62.5722656,129.602524 62.5722656,135.352941 L62.5722656,145.764706 C62.5722656,151.514429 67.2154043,156.176471 72.9433594,156.176471 L83.3144531,156.176471 L83.3144531,166.588235 L78.1289063,166.588235 C75.2626816,166.588235 72.9433594,168.916653 72.9433594,171.794118 C72.9433594,174.671582 75.2626816,177 78.1289063,177 L98.8710938,177 C101.737318,177 104.056641,174.671582 104.056641,171.794118 C104.056641,168.916653 101.737318,166.588235 98.8710938,166.588235 L93.6855469,166.588235 L93.6855469,156.176471 L104.056641,156.176471 C109.784596,156.176471 114.427734,151.514429 114.427734,145.764706 L114.427734,135.352941 C114.427734,129.602524 109.784596,124.941176 104.056641,124.941176 L93.6855469,124.941176 L93.6855469,114.529412 L140.701172,114.529412 C143.562211,114.529412 145.886719,116.863035 145.886719,119.735294 L145.886719,124.941176 L135.515625,124.941176 C129.78767,124.941176 125.144531,129.602524 125.144531,135.352941 L125.144531,145.764706 C125.144531,151.514429 129.78767,156.176471 135.515625,156.176471 L145.886719,156.176471 L145.886719,166.588235 L140.701172,166.588235 C137.834947,166.588235 135.515625,168.916653 135.515625,171.794118 C135.515625,174.671582 137.834947,177 140.701172,177 L161.443359,177 C164.309584,177 166.628906,174.671582 166.628906,171.794118 C166.628906,168.916653 164.309584,166.588235 161.443359,166.588235 L156.257813,166.588235 L156.257813,156.176471 L166.628906,156.176471 C172.356861,156.176471 177,151.514429 177,145.764706 L177,135.352941 C177,129.602524 172.356861,124.941176 166.628906,124.941176 Z" id="Path" fill="#3A7FD4"></path>
                        <path d="M166.628906,124.941176 L156.257813,124.941176 L156.257813,119.735294 C156.257813,111.123376 149.279449,104.117647 140.701172,104.117647 L93.6855469,104.117647 L93.6855469,93.6711765 C94.6618125,93.6711765 108.321234,93.6711765 109.242188,93.6711765 C112.108412,93.6711765 114.427734,91.3774647 114.427734,88.5 C114.427734,85.6225353 112.108412,83.2941176 109.242188,83.2941176 L104.056641,83.2941176 L104.056641,72.8823529 L72.9433594,72.8823529 L72.9433594,83.2941176 L67.7578125,83.2941176 C64.8915879,83.2941176 62.5722656,85.6225353 62.5722656,88.5 C62.5722656,91.3774647 64.8915879,93.6711765 67.7578125,93.6711765 C68.7340781,93.6711765 82.3935,93.6711765 83.3144531,93.6711765 L83.3144531,104.117647 L36.2988281,104.117647 C27.7205508,104.117647 20.7421875,111.123376 20.7421875,119.735294 L20.7421875,124.941176 L10.3710938,124.941176 C4.64313867,124.941176 0,129.602524 0,135.352941 L0,145.764706 C0,151.514429 4.64313867,156.176471 10.3710938,156.176471 L20.7421875,156.176471 L20.7421875,166.588235 L15.5566406,166.588235 C12.690416,166.588235 10.3710938,168.916653 10.3710938,171.794118 C10.3710938,174.671582 12.690416,177 15.5566406,177 L36.2988281,177 C39.1650527,177 41.484375,174.671582 41.484375,171.794118 C41.484375,168.916653 39.1650527,166.588235 36.2988281,166.588235 L31.1132813,166.588235 L31.1132813,156.176471 L41.484375,156.176471 C47.2123301,156.176471 51.8554688,151.514429 51.8554688,145.764706 L51.8554688,135.352941 C51.8554688,129.602524 47.2123301,124.941176 41.484375,124.941176 L31.1132813,124.941176 L31.1132813,119.735294 C31.1132813,116.863035 33.4377891,114.529412 36.2988281,114.529412 L83.3144531,114.529412 L83.3144531,124.941176 L72.9433594,124.941176 C67.2154043,124.941176 62.5722656,129.602524 62.5722656,135.352941 L62.5722656,145.764706 C62.5722656,151.514429 67.2154043,156.176471 72.9433594,156.176471 L83.3144531,156.176471 L83.3144531,166.588235 L78.1289063,166.588235 C75.2626816,166.588235 72.9433594,168.916653 72.9433594,171.794118 C72.9433594,174.671582 75.2626816,177 78.1289063,177 L98.8710938,177 C101.737318,177 104.056641,174.671582 104.056641,171.794118 C104.056641,168.916653 101.737318,166.588235 98.8710938,166.588235 L93.6855469,166.588235 L93.6855469,156.176471 L104.056641,156.176471 C109.784596,156.176471 114.427734,151.514429 114.427734,145.764706 L114.427734,135.352941 C114.427734,129.602524 109.784596,124.941176 104.056641,124.941176 L93.6855469,124.941176 L93.6855469,114.529412 L140.701172,114.529412 C143.562211,114.529412 145.886719,116.863035 145.886719,119.735294 L145.886719,124.941176 L135.515625,124.941176 C129.78767,124.941176 125.144531,129.602524 125.144531,135.352941 L125.144531,145.764706 C125.144531,151.514429 129.78767,156.176471 135.515625,156.176471 L145.886719,156.176471 L145.886719,166.588235 L140.701172,166.588235 C137.834947,166.588235 135.515625,168.916653 135.515625,171.794118 C135.515625,174.671582 137.834947,177 140.701172,177 L161.443359,177 C164.309584,177 166.628906,174.671582 166.628906,171.794118 C166.628906,168.916653 164.309584,166.588235 161.443359,166.588235 L156.257813,166.588235 L156.257813,156.176471 L166.628906,156.176471 C172.356861,156.176471 177,151.514429 177,145.764706 L177,135.352941 C177,129.602524 172.356861,124.941176 166.628906,124.941176 Z" id="Path-Copy" stroke="#14427A" stroke-width="2"></path>
                    </g>
                </g>
            </g>
        </g>
    </g>
</svg>