<?xml version="1.0" encoding="UTF-8"?>
<svg width="594px" height="340px" viewBox="0 0 594 340" version="1.1" xmlns="http://www.w3.org/2000/svg" xmlns:xlink="http://www.w3.org/1999/xlink">
    <!-- Generator: Sketch 59 (86127) - https://sketch.com -->
    <title>Premium customer support</title>
    <desc>Created with Sketch.</desc>
    <g id="Page-1" stroke="none" stroke-width="1" fill="none" fill-rule="evenodd">
        <g id="Artboard-Copy" transform="translate(-1148.000000, -1283.000000)">
            <g id="Premium-customer-support" transform="translate(1148.000000, 1283.000000)">
                <rect id="Rectangle-Copy-12" fill="#FFF5EC" transform="translate(297.000000, 170.000000) rotate(-360.000000) translate(-297.000000, -170.000000) " x="0" y="0" width="594" height="340" rx="15"></rect>
                <g id="support" transform="translate(209.000000, 72.000000)" fill-rule="nonzero">
                    <path d="M139.791364,143.578082 L119.909091,137 L58.0909091,137 L38.2086364,143.578082 C17.7815909,150.340274 4,171.620274 4,193 L174,193 C174,171.620274 160.218409,150.340274 139.791364,143.578082 Z" id="Path" fill="#D6733A"></path>
                    <path d="M126.996186,62.7917857 L117.97581,61.4897959 C104.111513,59.4905867 91.2617685,52.999898 81.3603332,43 C71.7563987,43 62.7131386,47.5685204 56.9500151,55.3265306 L51,63.3387755 C51.3089431,72.3332908 52.1175349,81.6244133 53.4181471,90.380102 C55.0372378,101.203566 56.3931547,111.393755 67.0116431,120.687959 L66.8209375,120.903673 C64.0244304,126.552691 61.2427984,132.170508 58.4756599,137.760204 C63.4206564,152.736168 70.7830372,167.167069 80.5784402,180.363776 L88.9885577,194 L97.3986751,180.363776 C101.186089,175.263673 104.641674,169.932449 107.746362,164.408622 C112.506374,155.945689 116.442537,147.02051 119.501455,137.760204 L111.156178,120.903673 L110.965472,120.687959 C117.365553,115.067832 121.828064,107.082551 123.243099,98.5117602 C123.986851,93.9779082 124.245448,92.5322372 124.581853,90.2260204 C125.897722,81.3393622 126.702499,71.9057143 127,62.7917857 L126.996186,62.7917857 L126.996186,62.7917857 Z" id="Path" fill="#FFFFFF"></path>
                    <path d="M126.996186,61.882682 L117.97581,60.5747126 C104.111513,58.5663218 91.2617685,52.0458238 81.3603332,42 C71.7563987,42 62.7131386,46.5895019 56.9500151,54.3831418 L51,62.4321839 C51.3089431,71.4680077 52.1175349,80.8018008 53.4181471,89.5977011 C55.0372378,100.470874 56.3931547,110.707862 67.0116431,120.044751 L66.8209375,120.261456 C64.024049,125.936418 89.3699689,143 89.3699689,143 L111.156178,120.261456 L110.965472,120.044751 C117.365553,114.398812 121.828064,106.376858 123.243099,97.766705 C123.986851,93.2120307 124.245448,91.7597203 124.581853,89.4429119 C125.897722,80.5154406 126.702499,71.0384674 127,61.882682 L126.996186,61.882682 L126.996186,61.882682 Z" id="Path" fill="#F0C198"></path>
                    <path d="M142,58 L142,82.2891566 C142,86.5493976 138.548843,90 134.287918,90 L125.033419,90 L124,89.8457831 C125.330334,80.9513253 126.143959,71.5093976 126.44473,62.3874699 C126.494859,60.9146988 126.529563,59.453494 126.544987,58 L126.575835,58 L142,58 Z" id="Path" fill="#864848"></path>
                    <path d="M91.9457494,19 C111.299696,19 127.011544,35.0475177 127,54.656383 C127,56.6285816 126.959184,59.7670922 126.869094,62.4460993 C116.71472,60.9763121 117.84739,61.1401418 117.759995,61.1276596 C103.765247,59.1031915 90.7945996,52.5304965 80.8000013,42.4042553 C71.1057029,42.4042553 61.9773544,47.0304965 56.1600053,54.8865248 L50.1540063,63 C50.0539064,60.2780851 50,57.0974468 50,54.656383 C49.9884564,35.0475177 65.7003038,19 85.0542506,19 L88.5,19 L91.9457494,19 Z" id="Path" fill="#D6733A"></path>
                    <g id="Group" transform="translate(34.000000, 57.000000)" fill="#864848">
                        <path d="M54.25,39.6153846 C58.531875,39.6153846 62,43.0576923 62,47.3076923 C62,51.5538462 58.528,55 54.25,55 L46.5,55 C42.218125,55 38.75,51.5576923 38.75,47.3076923 C38.75,43.0615385 42.222,39.6153846 46.5,39.6153846 L54.25,39.6153846 Z" id="Path"></path>
                        <path d="M18.11175,31.9230769 L7.75,31.9230769 C3.468125,31.9230769 0,28.4807692 0,24.2307692 L0,0 L15.5,0 L15.531,0 C15.550375,1.62692308 15.593,3.26923077 15.655,4.92307692 C15.968875,13.9038462 16.790375,23.1807692 18.11175,31.9230769 Z" id="Path"></path>
                    </g>
                    <path d="M130.5,160 C132.432,160 134,158.432 134,156.5 C134,154.568 132.432,153 130.5,153 C128.568,153 127,154.568 127,156.5 C127,158.432 128.568,160 130.5,160 Z" id="Path" fill="#343131"></path>
                    <path d="M3.84782609,197 L173.152174,197 C175.276943,197 177,195.277404 177,193.152344 C177,169.401146 161.565985,147.015867 140.300204,139.925021 L122.011487,133.830334 L115.445941,120.699438 C121.36082,114.679395 125.467604,106.713977 126.852437,98.4057324 L127.671254,93.4980469 L134.673913,93.4980469 C141.038987,93.4980469 146.217391,88.3198711 146.217391,81.9550781 L146.217391,57.7148438 C146.217391,25.8908789 120.32537,0 88.5,0 C56.5930565,0 30.7826087,25.8166191 30.7826087,57.7148438 L30.7826087,81.9550781 C30.7826087,86.9708828 33.9997761,91.2479375 38.4782609,92.83625 L38.4782609,97.3457031 C38.4782609,103.710496 43.6566652,108.888672 50.0217391,108.888672 L53.4009,108.888672 C55.0689326,112.51201 57.2279478,115.867936 59.8552435,118.882574 C60.4000957,119.508973 60.9684196,120.116133 61.5505957,120.706748 L54.988513,133.830334 L36.6994109,139.925406 C15.4344,147.015867 0,169.401146 0,193.152344 C0,195.277404 1.72267174,197 3.84782609,197 Z M88.5,185.874887 L83.2815783,177.497385 C83.2230913,177.403502 83.1607565,177.312312 83.0945739,177.223816 C79.9786043,173.067578 77.0719565,168.720881 74.4246522,164.271836 L88.1471543,149.760785 L102.606515,164.219508 C99.9415109,168.700873 97.0248587,173.065654 93.9061957,177.223047 C93.7176522,177.474299 93.9850761,177.078375 88.5,185.874887 Z M106.499361,157.229086 L93.4367609,144.167062 L109.88083,126.777965 L115.115413,137.247053 C112.743613,144.110502 109.85582,150.805809 106.499361,157.229086 Z M87.9932413,138.723783 L80.4807457,131.211234 C83.1199696,131.767221 85.8107543,132.051563 88.5,132.051563 C90.6051457,132.051563 92.7106761,131.87534 94.79235,131.533668 L87.9932413,138.723783 Z M66.466963,128.081551 L82.70325,144.317506 L70.4987152,157.223314 C67.1387935,150.792342 64.2517696,144.099344 61.8838174,137.247437 L66.466963,128.081551 Z M169.150435,189.304688 L95.4299348,189.304688 L100.163146,181.706336 C104.021361,176.550477 107.589835,171.096809 110.769293,165.495391 C110.788533,165.461531 110.806617,165.426902 110.825857,165.393043 C110.828165,165.388811 110.830474,165.384963 110.832783,165.38073 C115.086554,157.877801 118.724289,149.972021 121.6698,141.828072 L137.866454,147.225564 C154.939643,152.918557 167.625541,170.243783 169.150435,189.304688 Z M42.326087,85.8027344 C40.2043957,85.8027344 38.4782609,84.0766758 38.4782609,81.9550781 L38.4782609,61.5625 L46.2885783,61.5625 C46.3012761,61.9638105 46.3147435,62.3670449 46.32975,62.7729727 C46.3301348,62.7868242 46.3309043,62.800291 46.3312891,62.8141426 C46.3312891,62.8152969 46.3312891,62.8164512 46.3312891,62.8176055 C46.600637,70.5406211 47.2439935,78.3933027 48.1997935,85.8023496 L42.326087,85.8023496 L42.326087,85.8027344 Z M123.100422,57.634043 C123.100422,57.6463555 123.100037,57.6590527 123.100037,57.67175 L118.287176,56.9841738 C105.212263,55.117291 92.8668978,48.9448809 83.5251457,39.603541 C82.8032935,38.8821055 81.8247913,38.4765625 80.8043478,38.4765625 C70.4706261,38.4765625 60.5786348,43.1845547 54.0396391,51.1384297 C55.6511087,35.4711582 68.8964804,23.0859375 85.0561957,23.0859375 L91.9438043,23.0859375 C109.185528,23.0859375 123.140439,37.1879824 123.13044,54.409707 C123.13044,55.6205645 123.120815,56.6748223 123.100422,57.634043 Z M138.521739,81.9550781 C138.521739,84.0766758 136.795604,85.8027344 134.673913,85.8027344 L128.801361,85.8027344 C129.779478,78.2266992 130.4313,70.1647051 130.693337,62.2242969 C130.701033,62.0003633 130.707189,61.7825859 130.714115,61.5625 L138.521739,61.5625 L138.521739,81.9550781 Z M88.5,7.6953125 C114.787578,7.6953125 136.403896,28.0771172 138.375137,53.8671875 L130.81993,53.8671875 C130.542887,32.6177363 113.238059,15.390625 91.9441891,15.390625 L85.0565804,15.390625 C63.7630957,15.390625 46.457113,32.6177363 46.1804543,53.8671875 L38.6244783,53.8671875 C40.5734022,28.0798105 62.095063,7.6953125 88.5,7.6953125 Z M46.173913,97.3457031 L46.173913,93.4980469 L49.3283609,93.4980469 L50.1471783,98.4072715 C50.3034,99.3403281 50.4954065,100.269922 50.7174261,101.193359 L50.0217391,101.193359 C47.9000478,101.193359 46.173913,99.4673008 46.173913,97.3457031 Z M69.9226957,108.888672 C71.5110783,113.366959 75.787937,116.583984 80.8043478,116.583984 L88.5,116.583984 C94.8777717,116.583984 100.043478,111.418891 100.043478,105.041016 C100.043478,98.6762227 94.8650739,93.4980469 88.5,93.4980469 L80.8043478,93.4980469 C75.67635,93.4980469 71.4625957,96.8101094 69.9161543,101.193359 L58.6947391,101.193359 C56.7685174,94.7858574 54.5644826,75.9323418 54.0773478,63.8507012 L59.256137,56.9456973 C64.0124348,50.6062988 71.4121891,46.6674531 79.283687,46.2153535 C89.6408804,56.0715098 103.03978,62.5802051 117.199011,64.6017637 L122.86378,65.4113105 C122.485154,73.4471406 121.711357,81.5110586 120.602798,88.927416 C120.602413,88.9297246 120.602028,88.932418 120.601643,88.9351113 C120.249183,91.3195039 119.97137,92.8539492 119.26183,97.1398535 C117.224022,109.361934 108.103904,120.414326 96.0644413,123.424348 C91.1095957,124.661369 85.8896348,124.660984 80.9374826,123.424348 C73.4199848,121.545152 66.5269891,116.343891 62.0785174,108.888672 L69.9226957,108.888672 Z M76.9565217,105.041016 C76.9565217,102.916725 78.6795783,101.193359 80.8043478,101.193359 L88.5,101.193359 C90.6216913,101.193359 92.3478261,102.919418 92.3478261,105.041016 C92.3478261,107.165691 90.6243848,108.888672 88.5,108.888672 L80.8043478,108.888672 C78.6826565,108.888672 76.9565217,107.162613 76.9565217,105.041016 Z M39.1331609,147.225564 L55.3302,141.828072 C58.2976435,150.033199 61.9738565,158.008236 66.2822674,165.583502 C66.2895783,165.596584 66.2965043,165.609666 66.3038152,165.622363 C66.3038152,165.622748 66.3042,165.622748 66.3042,165.623133 C69.4521065,171.159525 72.9951848,176.569715 76.8364696,181.705951 L81.5700652,189.304688 L7.84956522,189.304688 C9.3744587,170.243783 22.0603565,152.918557 39.1331609,147.225564 Z" id="Shape" fill="#343131"></path>
                    <path d="M142.459398,167.042344 C145.994592,169.899345 148.918026,173.628413 150.914471,177.826512 C151.839216,179.770593 154.086573,180.553096 155.930827,179.58518 C157.778072,178.615693 158.527814,176.256399 157.605313,174.315461 C155.106297,169.060668 151.445835,164.39236 147.019551,160.815315 C145.382458,159.491894 143.034886,159.813616 141.775843,161.533395 C140.516425,163.253174 140.822679,165.719316 142.459398,167.042344 Z" id="Path" fill="#343131"></path>
                </g>
            </g>
        </g>
    </g>
</svg>