<svg width="153" height="181" viewBox="0 0 153 181" fill="none" xmlns="http://www.w3.org/2000/svg">
<path d="M152.822 48.9309L152.816 48.7906C152.738 47.0583 152.686 45.2256 152.654 43.1866C152.508 33.2431 144.633 25.018 134.725 24.4622C114.067 23.3051 98.0863 16.544 84.432 3.18551L84.3154 3.07407C79.8618 -1.02469 73.1436 -1.02469 68.6885 3.07407L68.572 3.18551C54.9176 16.544 38.937 23.3051 18.2793 24.4636C8.37268 25.018 0.496159 33.2431 0.349486 43.188C0.319328 45.2133 0.265868 47.0459 0.187733 48.7906L0.179509 49.1166C-0.222131 70.2598 -0.721096 96.5736 8.04918 120.458C12.8716 133.592 20.1751 145.009 29.7555 154.394C40.667 165.082 54.9588 173.567 72.2334 179.612C72.7954 179.809 73.3793 179.969 73.9743 180.088C74.8132 180.256 75.6576 180.34 76.502 180.34C77.3464 180.34 78.1922 180.256 79.0297 180.088C79.6246 179.969 80.2127 179.808 80.7775 179.61C98.0315 173.553 112.308 165.064 123.21 154.377C132.786 144.99 140.09 133.57 144.916 120.433C153.72 96.4773 153.222 70.114 152.822 48.9309Z" fill="#AFD2DA" fill-opacity="0.3"/>
<path d="M141.806 55.1818L141.801 55.0627C141.734 53.5931 141.69 52.0382 141.663 50.3083C141.537 41.8723 134.799 34.8942 126.321 34.4226C108.645 33.4409 94.9705 27.7048 83.2869 16.3715L83.1872 16.277C79.3763 12.7996 73.6278 12.7996 69.8157 16.277L69.716 16.3715C58.0324 27.7048 44.3583 33.4409 26.6821 34.4237C18.2053 34.8942 11.4656 41.8723 11.3401 50.3095C11.3143 52.0277 11.2685 53.5826 11.2017 55.0627L11.1946 55.3393C10.8509 73.2772 10.424 95.6017 17.9285 115.865C22.0549 127.008 28.3043 136.694 36.5019 144.656C45.8385 153.724 58.0676 160.922 72.8489 166.051C73.3298 166.218 73.8295 166.354 74.3386 166.455C75.0564 166.598 75.7789 166.669 76.5015 166.669C77.224 166.669 77.9477 166.598 78.6644 166.455C79.1734 166.354 79.6766 166.217 80.1599 166.049C94.9236 160.911 107.14 153.708 116.468 144.642C124.662 136.678 130.912 126.989 135.042 115.844C142.574 95.52 142.148 73.1534 141.806 55.1818Z" fill="#4AA7C3" fill-opacity="0.15"/>
<path d="M132.035 55.5667V55.5669C132.058 57.0608 132.096 58.4043 132.154 59.6748C132.154 59.6749 132.154 59.675 132.154 59.6752L132.158 59.7713C132.158 59.7721 132.158 59.7728 132.158 59.7736C132.452 75.2819 132.814 94.5255 126.36 112.004L126.594 112.09L126.36 112.004C122.823 121.583 117.472 129.908 110.457 136.751C102.471 144.541 92.0052 150.736 79.3444 155.158C78.9402 155.299 78.5188 155.414 78.0924 155.5C77.4926 155.619 76.887 155.679 76.2826 155.679C75.6783 155.679 75.0738 155.619 74.4728 155.5C74.0463 155.414 73.628 155.3 73.2257 155.16L73.1435 155.396L73.2257 155.16C60.5498 150.746 50.0733 144.554 42.08 136.763C35.0624 129.922 29.7113 121.6 26.1773 112.022C19.7467 94.5954 20.1099 75.3874 20.4054 59.908C20.4054 59.9078 20.4054 59.9075 20.4054 59.9072L20.4112 59.6751C20.4113 59.6743 20.4113 59.6734 20.4114 59.6726C20.4689 58.3939 20.5082 57.051 20.5304 55.5677L20.5304 55.5677C20.6363 48.422 26.3251 42.51 33.4799 42.1115L33.4799 42.1115C48.7256 41.2607 60.5361 36.2918 70.6243 26.4712C70.6247 26.4709 70.625 26.4705 70.6253 26.4702L70.7055 26.3939C70.706 26.3934 70.7066 26.3928 70.7072 26.3923C73.8873 23.4825 78.6789 23.4825 81.8579 26.3922C81.8586 26.3928 81.8592 26.3933 81.8598 26.3939L81.9399 26.4702C81.9403 26.4705 81.9406 26.4709 81.941 26.4712C92.0292 36.2918 103.84 41.2607 119.085 42.1105C126.241 42.51 131.929 48.422 132.035 55.5667Z" fill="url(#paint0_linear)" stroke="url(#paint1_linear)" stroke-width="0.5"/>
<g filter="url(#filter0_d)">
<path d="M48.5189 88.3569V97.5394H46.7218V91.5839L44.1376 95.8472H43.9277L41.3435 91.597V97.5394H39.5332V88.3569H41.3959L44.0326 92.699L46.6562 88.3569H48.5189Z" fill="white"/>
<path d="M55.7394 96.7261C55.066 97.3908 54.244 97.7231 53.2733 97.7231C52.3025 97.7231 51.4805 97.3908 50.8071 96.7261C50.1425 96.0528 49.8101 95.2307 49.8101 94.26C49.8101 93.2893 50.1425 92.4716 50.8071 91.8069C51.4805 91.1336 52.3025 90.7969 53.2733 90.7969C54.244 90.7969 55.066 91.1336 55.7394 91.8069C56.4128 92.4716 56.7495 93.2893 56.7495 94.26C56.7495 95.2307 56.4128 96.0528 55.7394 96.7261ZM52.0008 95.5586C52.3419 95.8997 52.766 96.0702 53.2733 96.0702C53.7805 96.0702 54.2046 95.8997 54.5457 95.5586C54.8868 95.2176 55.0573 94.7847 55.0573 94.26C55.0573 93.7353 54.8868 93.3024 54.5457 92.9613C54.2046 92.6202 53.7805 92.4497 53.2733 92.4497C52.766 92.4497 52.3419 92.6202 52.0008 92.9613C51.6685 93.3024 51.5023 93.7353 51.5023 94.26C51.5023 94.7847 51.6685 95.2176 52.0008 95.5586Z" fill="white"/>
<path d="M61.5867 90.7969C62.3038 90.7969 62.8941 91.0374 63.3576 91.5183C63.8299 91.9993 64.066 92.664 64.066 93.5123V97.5394H62.3738V93.7221C62.3738 93.2849 62.2557 92.9526 62.0196 92.7252C61.7835 92.4891 61.4687 92.371 61.0751 92.371C60.6379 92.371 60.288 92.5066 60.0257 92.7777C59.7633 93.0488 59.6321 93.4554 59.6321 93.9976V97.5394H57.9399V90.9805H59.6321V91.7151C60.0432 91.1029 60.6947 90.7969 61.5867 90.7969Z" fill="white"/>
<path d="M66.9408 94.9552C67.1681 95.7773 67.7847 96.1883 68.7904 96.1883C69.4375 96.1883 69.9273 95.9697 70.2596 95.5324L71.6238 96.3195C70.9767 97.2552 70.0235 97.7231 68.7641 97.7231C67.6797 97.7231 66.8096 97.3952 66.1537 96.7393C65.4978 96.0834 65.1698 95.2569 65.1698 94.26C65.1698 93.2718 65.4934 92.4497 66.1406 91.7938C66.7877 91.1292 67.6185 90.7969 68.633 90.7969C69.5949 90.7969 70.3864 91.1292 71.0073 91.7938C71.637 92.4585 71.9518 93.2805 71.9518 94.26C71.9518 94.4786 71.9299 94.7104 71.8862 94.9552H66.9408ZM66.9145 93.6434H70.2596C70.1634 93.1974 69.9622 92.8651 69.6562 92.6465C69.3588 92.4278 69.0177 92.3185 68.633 92.3185C68.1782 92.3185 67.8022 92.4366 67.5048 92.6727C67.2075 92.9001 67.0107 93.2237 66.9145 93.6434Z" fill="white"/>
<path d="M77.1533 90.9805H78.9636L76.5761 97.5394C76.2351 98.4839 75.7803 99.1661 75.2119 99.5858C74.6522 100.014 73.9526 100.207 73.113 100.163V98.5889C73.5678 98.5976 73.9263 98.5014 74.1887 98.3003C74.4598 98.0991 74.674 97.7756 74.8315 97.3296L72.1423 90.9805H73.9919L75.6972 95.3881L77.1533 90.9805Z" fill="white"/>
<path d="M86.8657 90.7969C87.7489 90.7969 88.501 91.1336 89.122 91.8069C89.7516 92.4716 90.0664 93.2893 90.0664 94.26C90.0664 95.2307 89.7516 96.0528 89.122 96.7261C88.501 97.3908 87.7489 97.7231 86.8657 97.7231C85.9474 97.7231 85.2391 97.4039 84.7406 96.7655V97.5394H83.0484V88.3569H84.7406V91.7545C85.2391 91.1161 85.9474 90.7969 86.8657 90.7969ZM85.2522 95.598C85.5932 95.9391 86.0261 96.1096 86.5508 96.1096C87.0756 96.1096 87.5085 95.9391 87.8495 95.598C88.1993 95.2482 88.3742 94.8022 88.3742 94.26C88.3742 93.7178 88.1993 93.2761 87.8495 92.9351C87.5085 92.5853 87.0756 92.4104 86.5508 92.4104C86.0261 92.4104 85.5932 92.5853 85.2522 92.9351C84.9111 93.2761 84.7406 93.7178 84.7406 94.26C84.7406 94.8022 84.9111 95.2482 85.2522 95.598Z" fill="white"/>
<path d="M96.2447 90.9805H97.9369V97.5394H96.2447V96.7655C95.7374 97.4039 95.0247 97.7231 94.1064 97.7231C93.2319 97.7231 92.4798 97.3908 91.8502 96.7261C91.2293 96.0528 90.9188 95.2307 90.9188 94.26C90.9188 93.2893 91.2293 92.4716 91.8502 91.8069C92.4798 91.1336 93.2319 90.7969 94.1064 90.7969C95.0247 90.7969 95.7374 91.1161 96.2447 91.7545V90.9805ZM93.1226 95.598C93.4637 95.9391 93.8966 96.1096 94.4213 96.1096C94.946 96.1096 95.3789 95.9391 95.7199 95.598C96.0697 95.2482 96.2447 94.8022 96.2447 94.26C96.2447 93.7178 96.0697 93.2761 95.7199 92.9351C95.3789 92.5853 94.946 92.4104 94.4213 92.4104C93.8966 92.4104 93.4637 92.5853 93.1226 92.9351C92.7815 93.2761 92.611 93.7178 92.611 94.26C92.611 94.8022 92.7815 95.2482 93.1226 95.598Z" fill="white"/>
<path d="M102.593 97.7231C101.605 97.7231 100.779 97.3908 100.114 96.7261C99.4582 96.0615 99.1303 95.2394 99.1303 94.26C99.1303 93.2805 99.4582 92.4585 100.114 91.7938C100.779 91.1292 101.605 90.7969 102.593 90.7969C103.232 90.7969 103.813 90.9499 104.338 91.256C104.863 91.5621 105.261 91.9731 105.532 92.4891L104.076 93.3417C103.945 93.0706 103.743 92.8564 103.472 92.699C103.21 92.5415 102.913 92.4628 102.58 92.4628C102.073 92.4628 101.653 92.6334 101.321 92.9744C100.989 93.3067 100.822 93.7353 100.822 94.26C100.822 94.7759 100.989 95.2045 101.321 95.5455C101.653 95.8778 102.073 96.044 102.58 96.044C102.921 96.044 103.223 95.9697 103.485 95.821C103.757 95.6636 103.958 95.4493 104.089 95.1782L105.558 96.0178C105.269 96.5337 104.863 96.9491 104.338 97.264C103.813 97.5701 103.232 97.7231 102.593 97.7231Z" fill="white"/>
<path d="M112.5 97.5394H110.533L108.145 94.5617V97.5394H106.453V88.3569H108.145V93.8664L110.402 90.9805H112.422L109.785 94.2206L112.5 97.5394Z" fill="white"/>
<path d="M49.353 105.035H51.0059V111.279C51.0059 112.294 50.6692 113.068 49.9958 113.601C49.3311 114.135 48.5266 114.402 47.5821 114.402C46.8737 114.402 46.2484 114.266 45.7062 113.995C45.1728 113.724 44.7618 113.326 44.4732 112.801L45.9161 111.975C46.2484 112.587 46.8213 112.893 47.6346 112.893C48.168 112.893 48.5878 112.753 48.8939 112.473C49.2 112.193 49.353 111.795 49.353 111.279V110.571C48.8545 111.236 48.1549 111.568 47.2541 111.568C46.3272 111.568 45.5488 111.245 44.9192 110.597C44.2983 109.941 43.9878 109.146 43.9878 108.21C43.9878 107.283 44.3026 106.491 44.9323 105.836C45.5619 105.18 46.3359 104.852 47.2541 104.852C48.1549 104.852 48.8545 105.184 49.353 105.849V105.035ZM46.1916 109.509C46.5414 109.841 46.983 110.007 47.5165 110.007C48.05 110.007 48.4872 109.841 48.8283 109.509C49.1781 109.168 49.353 108.735 49.353 108.21C49.353 107.694 49.1781 107.27 48.8283 106.937C48.4872 106.596 48.05 106.426 47.5165 106.426C46.983 106.426 46.5414 106.596 46.1916 106.937C45.8505 107.27 45.68 107.694 45.68 108.21C45.68 108.735 45.8505 109.168 46.1916 109.509Z" fill="white"/>
<path d="M56.8692 105.035H58.5615V111.594H56.8692V110.86C56.4582 111.472 55.8067 111.778 54.9147 111.778C54.1976 111.778 53.6029 111.537 53.1306 111.056C52.6672 110.575 52.4354 109.911 52.4354 109.063V105.035H54.1276V108.853C54.1276 109.29 54.2457 109.627 54.4818 109.863C54.7179 110.09 55.0327 110.204 55.4263 110.204C55.8635 110.204 56.2134 110.068 56.4757 109.797C56.7381 109.526 56.8692 109.119 56.8692 108.577V105.035Z" fill="white"/>
<path d="M65.0961 105.035H66.7883V111.594H65.0961V110.82C64.5889 111.459 63.8761 111.778 62.9579 111.778C62.0834 111.778 61.3313 111.446 60.7016 110.781C60.0807 110.108 59.7702 109.286 59.7702 108.315C59.7702 107.344 60.0807 106.526 60.7016 105.862C61.3313 105.188 62.0834 104.852 62.9579 104.852C63.8761 104.852 64.5889 105.171 65.0961 105.809V105.035ZM61.974 109.653C62.3151 109.994 62.748 110.164 63.2727 110.164C63.7974 110.164 64.2303 109.994 64.5714 109.653C64.9212 109.303 65.0961 108.857 65.0961 108.315C65.0961 107.773 64.9212 107.331 64.5714 106.99C64.2303 106.64 63.7974 106.465 63.2727 106.465C62.748 106.465 62.3151 106.64 61.974 106.99C61.633 107.331 61.4625 107.773 61.4625 108.315C61.4625 108.857 61.633 109.303 61.974 109.653Z" fill="white"/>
<path d="M70.015 106.164C70.1724 105.744 70.4304 105.429 70.789 105.219C71.1563 105.009 71.5629 104.904 72.0089 104.904V106.793C71.4929 106.732 71.0294 106.837 70.6184 107.108C70.2161 107.379 70.015 107.829 70.015 108.459V111.594H68.3228V105.035H70.015V106.164Z" fill="white"/>
<path d="M77.74 105.035H79.4322V111.594H77.74V110.82C77.2328 111.459 76.52 111.778 75.6018 111.778C74.7273 111.778 73.9752 111.446 73.3455 110.781C72.7246 110.108 72.4141 109.286 72.4141 108.315C72.4141 107.344 72.7246 106.526 73.3455 105.862C73.9752 105.188 74.7273 104.852 75.6018 104.852C76.52 104.852 77.2328 105.171 77.74 105.809V105.035ZM74.6179 109.653C74.959 109.994 75.3919 110.164 75.9166 110.164C76.4413 110.164 76.8742 109.994 77.2153 109.653C77.5651 109.303 77.74 108.857 77.74 108.315C77.74 107.773 77.5651 107.331 77.2153 106.99C76.8742 106.64 76.4413 106.465 75.9166 106.465C75.3919 106.465 74.959 106.64 74.6179 106.99C74.2769 107.331 74.1063 107.773 74.1063 108.315C74.1063 108.857 74.2769 109.303 74.6179 109.653Z" fill="white"/>
<path d="M84.6134 104.852C85.3306 104.852 85.9209 105.092 86.3844 105.573C86.8566 106.054 87.0927 106.719 87.0927 107.567V111.594H85.4005V107.777C85.4005 107.34 85.2825 107.007 85.0463 106.78C84.8102 106.544 84.4954 106.426 84.1019 106.426C83.6646 106.426 83.3148 106.561 83.0524 106.833C82.7901 107.104 82.6589 107.51 82.6589 108.052V111.594H80.9667V105.035H82.6589V105.77C83.0699 105.158 83.7214 104.852 84.6134 104.852Z" fill="white"/>
<path d="M92.2894 106.662H90.807V109.391C90.807 109.618 90.8639 109.784 90.9776 109.889C91.0913 109.994 91.2574 110.055 91.476 110.073C91.6947 110.081 91.9658 110.077 92.2894 110.06V111.594C91.1262 111.725 90.3042 111.616 89.8232 111.266C89.351 110.917 89.1148 110.291 89.1148 109.391V106.662H87.9736V105.035H89.1148V103.71L90.807 103.199V105.035H92.2894V106.662Z" fill="white"/>
<path d="M94.7074 109.01C94.9347 109.832 95.5513 110.243 96.557 110.243C97.2041 110.243 97.6939 110.025 98.0262 109.587L99.3904 110.374C98.7433 111.31 97.7901 111.778 96.5307 111.778C95.4463 111.778 94.5762 111.45 93.9203 110.794C93.2644 110.138 92.9364 109.312 92.9364 108.315C92.9364 107.327 93.26 106.505 93.9072 105.849C94.5543 105.184 95.3851 104.852 96.3996 104.852C97.3615 104.852 98.153 105.184 98.7739 105.849C99.4036 106.513 99.7184 107.335 99.7184 108.315C99.7184 108.533 99.6965 108.765 99.6528 109.01H94.7074ZM94.6811 107.698H98.0262C97.93 107.252 97.7288 106.92 97.4228 106.701C97.1254 106.483 96.7843 106.373 96.3996 106.373C95.9448 106.373 95.5688 106.491 95.2714 106.728C94.9741 106.955 94.7773 107.279 94.6811 107.698Z" fill="white"/>
<path d="M102.278 109.01C102.506 109.832 103.122 110.243 104.128 110.243C104.775 110.243 105.265 110.025 105.597 109.587L106.961 110.374C106.314 111.31 105.361 111.778 104.102 111.778C103.017 111.778 102.147 111.45 101.491 110.794C100.835 110.138 100.507 109.312 100.507 108.315C100.507 107.327 100.831 106.505 101.478 105.849C102.125 105.184 102.956 104.852 103.971 104.852C104.932 104.852 105.724 105.184 106.345 105.849C106.975 106.513 107.289 107.335 107.289 108.315C107.289 108.533 107.267 108.765 107.224 109.01H102.278ZM102.252 107.698H105.597C105.501 107.252 105.3 106.92 104.994 106.701C104.696 106.483 104.355 106.373 103.971 106.373C103.516 106.373 103.14 106.491 102.842 106.728C102.545 106.955 102.348 107.279 102.252 107.698Z" fill="white"/>
</g>
<g filter="url(#filter1_d)">
<path d="M48.1369 65.2905V78.4084H44.4264V68.1577H41.9902V65.2905H48.1369Z" fill="white"/>
<path d="M62.478 75.8973H60.529V78.4084H56.9123V75.8973H49.9785V73.4798L55.8628 65.2905H59.7045L54.3636 72.9551H57.0247V70.7251H60.529V72.9551H62.478V75.8973Z" fill="white"/>
<path d="M69.3594 65.2905H75.5623C76.9991 65.2905 78.2734 65.5591 79.3853 66.0963C80.4971 66.6335 81.3592 67.3956 81.9714 68.3826C82.5835 69.3696 82.8896 70.5252 82.8896 71.8495C82.8896 73.1737 82.5835 74.3294 81.9714 75.3163C81.3592 76.3033 80.4971 77.0654 79.3853 77.6026C78.2734 78.1398 76.9991 78.4084 75.5623 78.4084H69.3594V65.2905ZM75.4124 75.4475C76.5368 75.4475 77.4363 75.1289 78.1109 74.4918C78.7981 73.8546 79.1416 72.9739 79.1416 71.8495C79.1416 70.7251 78.7981 69.8443 78.1109 69.2071C77.4363 68.57 76.5368 68.2514 75.4124 68.2514H73.0699V75.4475H75.4124Z" fill="white"/>
<path d="M95.411 68.2514V78.4084H92.0191V77.3965C91.357 78.1835 90.3575 78.5771 89.0207 78.5771C88.0962 78.5771 87.253 78.3647 86.4909 77.9399C85.7413 77.5026 85.1416 76.8842 84.6918 76.0847C84.2546 75.2851 84.036 74.3606 84.036 73.3112C84.036 72.2617 84.2546 71.3435 84.6918 70.5564C85.1416 69.7569 85.7413 69.1447 86.4909 68.7199C87.253 68.2951 88.0962 68.0828 89.0207 68.0828C90.2201 68.0828 91.1633 68.4326 91.8505 69.1322V68.2514H95.411ZM89.7703 75.7473C90.395 75.7473 90.9072 75.535 91.307 75.1102C91.7068 74.6729 91.9067 74.0733 91.9067 73.3112C91.9067 72.5616 91.7068 71.9744 91.307 71.5496C90.9072 71.1249 90.395 70.9125 89.7703 70.9125C89.1457 70.9125 88.6335 71.1249 88.2337 71.5496C87.8339 71.9744 87.634 72.5616 87.634 73.3112C87.634 74.0733 87.8339 74.6729 88.2337 75.1102C88.6335 75.535 89.1457 75.7473 89.7703 75.7473Z" fill="white"/>
<path d="M108.385 68.2514V76.5532C108.385 78.4396 107.879 79.8514 106.867 80.7884C105.867 81.7378 104.424 82.2126 102.538 82.2126C101.551 82.2126 100.627 82.1001 99.7645 81.8753C98.915 81.6504 98.1904 81.3193 97.5907 80.8821L98.8837 78.3897C99.2835 78.727 99.7833 78.9893 100.383 79.1767C100.995 79.3766 101.601 79.4766 102.201 79.4766C103.1 79.4766 103.762 79.2704 104.187 78.8582C104.612 78.4459 104.824 77.8337 104.824 77.0217V76.7968C104.062 77.5214 103.113 77.8837 101.976 77.8837C100.664 77.8837 99.6146 77.4964 98.8275 76.7218C98.0529 75.9472 97.6657 74.7854 97.6657 73.2362V68.2514H101.226V72.6553C101.226 73.4299 101.37 73.9921 101.657 74.3419C101.945 74.6917 102.363 74.8666 102.913 74.8666C103.475 74.8666 103.931 74.6667 104.281 74.2669C104.643 73.8671 104.824 73.2674 104.824 72.4679V68.2514H108.385Z" fill="white"/>
</g>
<path d="M74.7108 123.596C75.4882 122.304 77.3607 122.304 78.1381 123.596L79.0273 125.074C79.3066 125.538 79.7621 125.869 80.2897 125.991L81.9698 126.38C83.4385 126.72 84.0171 128.501 83.0289 129.639L81.8984 130.942C81.5433 131.351 81.3694 131.886 81.4162 132.426L81.5653 134.144C81.6956 135.646 80.1807 136.746 78.7926 136.158L77.2046 135.486C76.706 135.274 76.1429 135.274 75.6443 135.486L74.0563 136.158C72.6682 136.746 71.1533 135.646 71.2836 134.144L71.4327 132.426C71.4795 131.886 71.3055 131.351 70.9505 130.942L69.82 129.639C68.8318 128.501 69.4104 126.72 70.8791 126.38L72.5592 125.991C73.0868 125.869 73.5423 125.538 73.8216 125.074L74.7108 123.596Z" fill="white" fill-opacity="0.14"/>
<path d="M75.5655 125.25C75.9541 124.605 76.8904 124.605 77.2791 125.25L78.2304 126.831C78.37 127.063 78.5977 127.229 78.8615 127.29L80.6588 127.706C81.3931 127.876 81.6825 128.766 81.1883 129.336L79.979 130.729C79.8015 130.933 79.7145 131.201 79.7379 131.471L79.8974 133.309C79.9626 134.06 79.2051 134.61 78.5111 134.316L76.8124 133.596C76.563 133.491 76.2815 133.491 76.0322 133.596L74.3335 134.316C73.6395 134.61 72.882 134.06 72.9472 133.309L73.1067 131.471C73.1301 131.201 73.0431 130.933 72.8656 130.729L71.6562 129.336C71.1621 128.766 71.4514 127.876 72.1858 127.706L73.983 127.29C74.2468 127.229 74.4746 127.063 74.6142 126.831L75.5655 125.25Z" fill="white"/>
<path d="M57.9806 126.482C58.3693 125.836 59.3056 125.836 59.6942 126.482L60.2402 127.389C60.3798 127.621 60.6076 127.787 60.8714 127.848L61.9029 128.087C62.6372 128.257 62.9265 129.147 62.4324 129.716L61.7383 130.516C61.5608 130.72 61.4738 130.988 61.4973 131.258L61.5888 132.313C61.654 133.064 60.8965 133.614 60.2025 133.32L59.2275 132.907C58.9782 132.801 58.6967 132.801 58.4473 132.907L57.4724 133.32C56.7784 133.614 56.0209 133.064 56.0861 132.313L56.1776 131.258C56.201 130.988 56.114 130.72 55.9365 130.516L55.2424 129.716C54.7483 129.147 55.0377 128.257 55.772 128.087L56.8035 127.848C57.0673 127.787 57.295 127.621 57.4347 127.389L57.9806 126.482Z" fill="white" fill-opacity="0.26"/>
<path d="M57.9798 127.713C58.3684 127.067 59.3047 127.067 59.6934 127.713L59.834 127.947C59.9737 128.179 60.2014 128.344 60.4652 128.406L60.731 128.467C61.4653 128.637 61.7546 129.528 61.2605 130.097L61.0817 130.303C60.9042 130.507 60.8172 130.775 60.8406 131.045L60.8642 131.317C60.9294 132.068 60.1719 132.618 59.4778 132.324L59.2267 132.217C58.9773 132.112 58.6958 132.112 58.4465 132.217L58.1953 132.324C57.5013 132.618 56.7438 132.068 56.809 131.317L56.8326 131.045C56.856 130.775 56.769 130.507 56.5915 130.303L56.4126 130.097C55.9185 129.528 56.2079 128.637 56.9422 128.467L57.2079 128.406C57.4717 128.344 57.6995 128.179 57.8391 127.947L57.9798 127.713Z" fill="white"/>
<path d="M93.0607 126.482C93.4494 125.836 94.3857 125.836 94.7743 126.482L95.3203 127.389C95.4599 127.621 95.6877 127.787 95.9515 127.848L96.983 128.087C97.7173 128.257 98.0066 129.147 97.5125 129.716L96.8184 130.516C96.6409 130.72 96.5539 130.988 96.5773 131.258L96.6689 132.313C96.7341 133.064 95.9766 133.614 95.2825 133.32L94.3076 132.907C94.0583 132.801 93.7768 132.801 93.5274 132.907L92.5525 133.32C91.8585 133.614 91.101 133.064 91.1662 132.313L91.2577 131.258C91.2811 130.988 91.1941 130.72 91.0166 130.516L90.3225 129.716C89.8284 129.147 90.1177 128.257 90.8521 128.087L91.8836 127.848C92.1474 127.787 92.3751 127.621 92.5147 127.389L93.0607 126.482Z" fill="white" fill-opacity="0.23"/>
<path d="M93.0618 127.713C93.4505 127.067 94.3868 127.067 94.7754 127.713L94.9161 127.947C95.0557 128.179 95.2834 128.344 95.5472 128.406L95.813 128.467C96.5473 128.637 96.8366 129.528 96.3425 130.097L96.1637 130.303C95.9862 130.507 95.8992 130.775 95.9226 131.045L95.9462 131.317C96.0114 132.068 95.2539 132.618 94.5599 132.324L94.3087 132.217C94.0594 132.112 93.7779 132.112 93.5285 132.217L93.2773 132.324C92.5833 132.618 91.8258 132.068 91.891 131.317L91.9146 131.045C91.938 130.775 91.851 130.507 91.6735 130.303L91.4947 130.097C91.0006 129.528 91.2899 128.637 92.0242 128.467L92.29 128.406C92.5538 128.344 92.7815 128.179 92.9211 127.947L93.0618 127.713Z" fill="white"/>
<defs>
<filter id="filter0_d" x="39.5332" y="88.3569" width="72.9672" height="26.5446" filterUnits="userSpaceOnUse" color-interpolation-filters="sRGB">
<feFlood flood-opacity="0" result="BackgroundImageFix"/>
<feColorMatrix in="SourceAlpha" type="matrix" values="0 0 0 0 0 0 0 0 0 0 0 0 0 0 0 0 0 0 127 0"/>
<feOffset dy="0.5"/>
<feColorMatrix type="matrix" values="0 0 0 0 0 0 0 0 0 0.670065 0 0 0 0 0.683333 0 0 0 1 0"/>
<feBlend mode="normal" in2="BackgroundImageFix" result="effect1_dropShadow"/>
<feBlend mode="normal" in="SourceGraphic" in2="effect1_dropShadow" result="shape"/>
</filter>
<filter id="filter1_d" x="40.9902" y="65.2905" width="68.3946" height="18.9221" filterUnits="userSpaceOnUse" color-interpolation-filters="sRGB">
<feFlood flood-opacity="0" result="BackgroundImageFix"/>
<feColorMatrix in="SourceAlpha" type="matrix" values="0 0 0 0 0 0 0 0 0 0 0 0 0 0 0 0 0 0 127 0"/>
<feOffset dy="1"/>
<feGaussianBlur stdDeviation="0.5"/>
<feColorMatrix type="matrix" values="0 0 0 0 0 0 0 0 0 0 0 0 0 0 0 0 0 0 0.25 0"/>
<feBlend mode="normal" in2="BackgroundImageFix" result="effect1_dropShadow"/>
<feBlend mode="normal" in="SourceGraphic" in2="effect1_dropShadow" result="shape"/>
</filter>
<linearGradient id="paint0_linear" x1="38.6884" y1="29.2177" x2="70.5438" y2="190.734" gradientUnits="userSpaceOnUse">
<stop offset="0.149447" stop-color="#04C6C6"/>
<stop offset="1" stop-color="#7694C1"/>
</linearGradient>
<linearGradient id="paint1_linear" x1="76.2812" y1="23.96" x2="76.2812" y2="155.929" gradientUnits="userSpaceOnUse">
<stop stop-color="#0AB5B5"/>
<stop offset="0.540631" stop-color="#11B3C5"/>
<stop offset="1" stop-color="#1BB0DE"/>
</linearGradient>
</defs>
</svg>
