<svg xmlns="http://www.w3.org/2000/svg" width="29.328" height="20.703" viewBox="0 0 29.328 20.703">
  <g id="Quotemarks-left" transform="translate(-0.001 -9.412)">
    <path id="Path_1" data-name="Path 1" d="M42.443,17.117a7.49,7.49,0,0,1,1.649-4.788.458.458,0,0,0-.053-.584c-.678-.678-1.1-1.106-1.392-1.405-.387-.395-.564-.575-.823-.809a.459.459,0,0,0-.609-.006,17.564,17.564,0,0,0-5.652,14.119,6.611,6.611,0,0,0,6.5,6.471,6.5,6.5,0,0,0,.377-13ZM42.066,29.2a5.714,5.714,0,0,1-5.589-5.62h0A16.749,16.749,0,0,1,41.512,10.5c.126.124.269.27.481.486.255.26.6.615,1.132,1.145-2.019,3.11-1.638,5.326-1.471,5.644a.475.475,0,0,0,.412.252,5.588,5.588,0,1,1,0,11.175Z" transform="translate(-19.241)" fill="rgba(0,212,212,0.3)"/>
    <path id="Path_2" data-name="Path 2" d="M6.926,17.117a7.483,7.483,0,0,1,1.649-4.788.458.458,0,0,0-.053-.584c-.677-.677-1.1-1.1-1.39-1.4-.388-.4-.566-.576-.824-.811A.46.46,0,0,0,5.7,9.524,17.566,17.566,0,0,0,.046,23.644h0a6.612,6.612,0,0,0,6.5,6.47,6.5,6.5,0,0,0,.377-13ZM6.55,29.2A5.716,5.716,0,0,1,.96,23.577h0A16.75,16.75,0,0,1,6,10.5c.126.124.27.271.482.487.255.26.6.614,1.13,1.143C5.59,15.237,5.971,17.453,6.137,17.77a.476.476,0,0,0,.412.253,5.588,5.588,0,1,1,0,11.175Z" transform="translate(0 0)" fill="rgba(0,212,212,0.3)"/>
  </g>
</svg>
