<?xml version="1.0" encoding="UTF-8"?>
<svg width="107px" height="25px" viewBox="0 0 107 25" version="1.1" xmlns="http://www.w3.org/2000/svg" xmlns:xlink="http://www.w3.org/1999/xlink">
    <!-- Generator: Sketch 61.2 (89653) - https://sketch.com -->
    <title>CTA</title>
    <desc>Created with Sketch.</desc>
    <g id="Page-1" stroke="none" stroke-width="1" fill="none" fill-rule="evenodd">
        <g id="CTA" fill-rule="nonzero">
            <rect id="Rectangle" fill="#FF3355" x="0.132352941" y="0.360294118" width="106.481618" height="24.4007353" rx="12.1985294"></rect>
            <path d="M19.2022059,12.8492647 C19.1470588,12.8492647 19.1066176,12.8125 19.1066176,12.7536765 L19.1066176,11.9963235 C19.104345,11.9703416 19.1136834,11.9446854 19.1321255,11.9262432 C19.1505677,11.907801 19.1762239,11.8984627 19.2022059,11.9007353 L21.9632353,11.9007353 C22.0477941,11.9007353 22.0845588,11.9558824 22.0772059,12.0147059 C22.0477941,14.1801471 21.0845588,15.5220588 19.0330882,15.5110294 C17.0845588,15.5110294 15.7904412,14.1691176 15.7904412,12.1470588 C15.7904412,10.125 17.1433824,8.78308824 19.1654412,8.78308824 C20.0362991,8.75832837 20.8817831,9.07802702 21.5183824,9.67279412 C21.550596,9.70682032 21.550596,9.76009144 21.5183824,9.79411765 L20.9338235,10.5294118 C20.9201246,10.5462088 20.9002572,10.5568048 20.8786765,10.5588235 C20.8533232,10.5594394 20.8290321,10.5486434 20.8125,10.5294118 C20.350049,10.1409626 19.7657121,9.92752999 19.1617647,9.92647059 C18.5619039,9.88832985 17.9740956,10.1069024 17.5448863,10.5276958 C17.115677,10.9484892 16.8855087,11.5318546 16.9117647,12.1323529 C16.9117647,13.4742647 17.7610294,14.3713235 19.0183824,14.3713235 C19.9652733,14.459594 20.8093433,13.7755219 20.9191176,12.8308824 L19.2022059,12.8492647 Z" id="Path" fill="#FFFFFF"></path>
            <path d="M25.1176471,14.5220588 C25.4885221,14.528734 25.8487169,14.3977541 26.1286765,14.1544118 C26.155429,14.1316394 26.1891474,14.1186708 26.2242647,14.1176471 C26.249618,14.1170312 26.273909,14.1278272 26.2904412,14.1470588 L26.8382353,14.7389706 C26.8769925,14.7789075 26.8769925,14.8424161 26.8382353,14.8823529 C26.3568334,15.3412601 25.7037034,15.5749978 25.0404412,15.5257353 C24.4127108,15.5683847 23.7966414,15.3409501 23.3472045,14.9006424 C22.8977675,14.4603346 22.6577398,13.8490616 22.6875,13.2205882 C22.6493832,12.5966937 22.8808857,11.9864482 23.3232197,11.5448173 C23.7655538,11.1031865 24.3761669,10.8726552 25,10.9117647 C26.3897059,10.9117647 27.3051471,11.7426471 27.2977941,13.5477941 C27.3015245,13.5741138 27.292661,13.6006556 27.2738641,13.6194524 C27.2550673,13.6382492 27.2285255,13.6471127 27.2022059,13.6433824 L23.8529412,13.6433824 C24.0107685,14.2005798 24.5403974,14.5685487 25.1176471,14.5220588 Z M26.1764706,12.8382353 C26.0466714,12.2956235 25.5615971,11.9128992 25.0036765,11.9128992 C24.4457559,11.9128992 23.9606815,12.2956235 23.8308824,12.8382353 L26.1764706,12.8382353 Z" id="Shape" fill="#FFFFFF"></path>
            <path d="M29.8639706,14.4264706 C29.9997138,14.4097052 30.1275486,14.3534579 30.2316176,14.2647059 C30.2497404,14.2603367 30.268642,14.2603367 30.2867647,14.2647059 C30.3195966,14.2642964 30.3496973,14.2829302 30.3639706,14.3125 L30.6580882,15.0698529 C30.6875,15.1360294 30.6764706,15.1911765 30.6286765,15.2205882 C30.3485569,15.4224178 30.0106437,15.5281769 29.6654412,15.5220588 C28.8713235,15.5220588 28.4080882,14.9558824 28.4191176,13.9889706 L28.4191176,11.9889706 L27.8235294,11.9889706 C27.7975475,11.9912432 27.7718912,11.9819048 27.7534491,11.9634627 C27.7350069,11.9450205 27.7256685,11.9193643 27.7279412,11.8933824 L27.7279412,11.0808824 C27.7288603,11.056794 27.7395947,11.0341305 27.7576499,11.0181586 C27.7757051,11.0021867 27.7995089,10.9942972 27.8235294,10.9963235 L28.4191176,10.9963235 L28.4191176,9.61764706 C28.4191176,9.5625 28.4485294,9.52205882 28.5036765,9.52205882 L29.4117647,9.52205882 C29.4377466,9.51978619 29.4634029,9.52912457 29.481845,9.54756673 C29.5002872,9.56600888 29.5096256,9.59166512 29.5073529,9.61764706 L29.5073529,10.9963235 L30.4154412,10.9963235 C30.4394617,10.9942972 30.4632655,11.0021867 30.4813207,11.0181586 C30.4993759,11.0341305 30.5101103,11.056794 30.5110294,11.0808824 L30.5110294,11.8933824 C30.513302,11.9193643 30.5039637,11.9450205 30.4855215,11.9634627 C30.4670794,11.9819048 30.4414231,11.9912432 30.4154412,11.9889706 L29.5073529,11.9889706 L29.5073529,13.4338235 C29.4963235,14.1985294 29.5735294,14.4264706 29.8639706,14.4264706 Z" id="Path" fill="#FFFFFF"></path>
            <path d="M92.9227941,9.70955882 C93.0355116,9.83229938 93.0938491,9.99537908 93.0845588,10.1617647 C93.092784,10.3290999 93.0346534,10.4929225 92.9227941,10.6176471 C92.818376,10.7288538 92.6708042,10.7892241 92.5183824,10.7830882 C92.3648679,10.7893253 92.2161268,10.7290249 92.1102941,10.6176471 C91.9984348,10.4929225 91.9403042,10.3290999 91.9485294,10.1617647 C91.9392391,9.99537908 91.9975766,9.83229938 92.1102941,9.70955882 C92.2142161,9.59464144 92.3635367,9.53141556 92.5183824,9.53676471 C92.6721494,9.53149337 92.8203129,9.59479958 92.9227941,9.70955882 Z" id="Path" fill="#FFFFFF"></path>
            <path d="M93.4816176,7.37867647 L87.0441176,7.37867647 C86.2319342,7.37867647 85.5735294,8.03708125 85.5735294,8.84926471 L85.5735294,11.4669118 C85.5735294,12.2790952 86.2319342,12.9375 87.0441176,12.9375 L93.4816176,12.9375 C94.2938011,12.9375 94.9522059,12.2790952 94.9522059,11.4669118 L94.9522059,8.84926471 C94.9522059,8.03708125 94.2938011,7.37867647 93.4816176,7.37867647 Z M89.1397059,10.3198529 C89.0327388,10.4823493 88.8806962,10.6101162 88.7022059,10.6875 C88.4913577,10.7741698 88.264633,10.8155064 88.0367647,10.8088235 L87.4522059,10.8088235 L87.4522059,11.6176471 L86.7830882,11.6176471 L86.7830882,8.69852941 L88.0330882,8.69852941 C88.2616352,8.69233678 88.4887667,8.73625724 88.6985294,8.82720588 C88.8770197,8.90458965 89.0290623,9.03235655 89.1360294,9.19485294 C89.2395623,9.36385291 89.2919177,9.55922799 89.2867647,9.75735294 C89.2926927,9.95623538 89.2416705,10.152671 89.1397059,10.3235294 L89.1397059,10.3198529 Z M91.1029412,9.62132353 L90.9595588,9.62132353 C90.7993843,9.61225596 90.6425228,9.66941734 90.5257353,9.77941176 C90.4114703,9.90838441 90.3544232,10.0781991 90.3676471,10.25 L90.3676471,11.3051471 L89.7242647,11.3051471 L89.7242647,9.0625 L90.3382353,9.0625 L90.3382353,9.35661765 C90.4167807,9.24787729 90.5235761,9.1626952 90.6470588,9.11029412 C90.7920932,9.05279368 90.9469332,9.02407337 91.1029412,9.02573529 L91.1029412,9.62132353 Z M93.5808824,10.7536765 C93.4778856,10.929006 93.32752,11.0717259 93.1470588,11.1654412 C92.9529062,11.2657514 92.7368842,11.3162829 92.5183824,11.3125 C92.2987546,11.3158276 92.0816514,11.2653385 91.8860294,11.1654412 C91.7055682,11.0717259 91.5552027,10.929006 91.4522059,10.7536765 C91.2402711,10.3835858 91.2402711,9.9289142 91.4522059,9.55882353 C91.5566538,9.38558439 91.7067342,9.2444071 91.8860294,9.15073529 C92.0807266,9.04796026 92.2982584,8.99610675 92.5183824,9 C92.7373719,8.99576216 92.9538007,9.04765445 93.1470588,9.15073529 C93.326354,9.2444071 93.4764344,9.38558439 93.5808824,9.55882353 C93.787724,9.93025299 93.787724,10.382247 93.5808824,10.7536765 L93.5808824,10.7536765 Z M88,9.25 L87.4558824,9.25 L87.4558824,10.2647059 L88,10.2647059 C88.1635109,10.2767796 88.3260922,10.2312568 88.4595588,10.1360294 C88.5643344,10.0431083 88.6222807,9.90834946 88.6176471,9.76838235 C88.6244323,9.62801772 88.566103,9.49236826 88.4595588,9.40073529 C88.3300141,9.29588281 88.1664804,9.24224374 88,9.25 L88,9.25 Z" id="Shape" fill="#FFFFFF"></path>
            <g id="text-copy" transform="translate(42.647059, 9.191176)" fill="#FFFFFF">
                <path d="M4.82720588,1.40808824 C4.92279412,1.75612745 5.02696078,2.12377451 5.13970588,2.51102941 C5.25245098,2.89828431 5.36642157,3.27573529 5.48161765,3.64338235 L5.84926471,4.74632353 C5.96691176,5.10906863 6.08088235,5.45220588 6.19117647,5.77573529 C6.28431373,5.42769608 6.375,5.0502451 6.46323529,4.64338235 C6.55147059,4.23651961 6.63970588,3.8125 6.72794118,3.37132353 C6.81617647,2.93259804 6.90318627,2.48406863 6.98897059,2.02573529 C7.0747549,1.56740196 7.15318627,1.1127451 7.22426471,0.661764706 L8.42647059,0.661764706 C8.20588235,1.87254902 7.96078431,3.03431373 7.69117647,4.14705882 C7.42156863,5.25980392 7.12132353,6.3247549 6.79044118,7.34191176 L5.6875,7.34191176 C5.21446078,6.0502451 4.75735294,4.6372549 4.31617647,3.10294118 C4.08333333,3.88235294 3.84926471,4.61764706 3.61397059,5.30882353 C3.37867647,6 3.13235294,6.68137255 2.875,7.35294118 L1.77205882,7.35294118 C1.44362745,6.33578431 1.15073529,5.26838235 0.893382353,4.15073529 C0.636029412,3.03308824 0.403186275,1.86887255 0.194852941,0.658088235 L1.43382353,0.658088235 C1.50735294,1.09436275 1.58455882,1.54166667 1.66544118,2 C1.74632353,2.45833333 1.83088235,2.90686275 1.91911765,3.34558824 C2.00735294,3.78676471 2.09681373,4.21446078 2.1875,4.62867647 C2.27818627,5.04289216 2.36887255,5.42279412 2.45955882,5.76838235 C2.57965686,5.43995098 2.70220588,5.09436275 2.82720588,4.73161765 C2.95220588,4.36887255 3.0747549,4.00122549 3.19485294,3.62867647 C3.31495098,3.25122549 3.42892157,2.87745098 3.53676471,2.50735294 C3.64460784,2.1372549 3.74632353,1.77818627 3.84191176,1.43014706 L4.82720588,1.40808824 Z" id="Path"></path>
                <path d="M14.0808824,4.49632353 C14.0845238,4.89379694 14.0211357,5.28904053 13.8933824,5.66544118 C13.7807914,5.99812183 13.6019468,6.30453398 13.3676471,6.56617647 C13.1400718,6.81481717 12.8617321,7.01166102 12.5514706,7.14338235 C12.2187495,7.28282026 11.8607065,7.35167467 11.5,7.34558824 C11.1399205,7.34981155 10.7829626,7.27841998 10.4522059,7.13602941 C10.1417251,6.99818459 9.8646,6.79504309 9.63970588,6.54044118 C9.41103958,6.28505838 9.23378193,5.98796458 9.11764706,5.66544118 C8.98786391,5.28827725 8.92442527,4.89147478 8.93014706,4.49264706 C8.92631459,4.09455161 8.99226265,3.69886323 9.125,3.32352941 C9.2446805,2.9994223 9.42707929,2.70208729 9.66176471,2.44852941 C9.8897814,2.20130336 10.1680739,2.00574644 10.4779412,1.875 C10.8063426,1.73870735 11.1591854,1.67114172 11.5147059,1.67647059 C11.8718865,1.6738978 12.2258641,1.74394283 12.5551471,1.88235294 C12.8650065,2.01288891 13.1423847,2.20994042 13.3676471,2.45955882 C13.5988688,2.72279428 13.7762341,3.02881176 13.8897059,3.36029412 C14.0173641,3.72539666 14.0820109,4.10954813 14.0808824,4.49632353 Z M12.8088235,4.49632353 C12.8343612,4.04480035 12.7159304,3.59682303 12.4705882,3.21691176 C12.2416673,2.91861709 11.8870407,2.74374917 11.5110294,2.74374917 C11.1350181,2.74374917 10.7803915,2.91861709 10.5514706,3.21691176 C10.295768,3.59333329 10.1669618,4.04157892 10.1838235,4.49632353 C10.1542556,4.958648 10.2727279,5.41837216 10.5220588,5.80882353 C10.7492458,6.1098213 11.1045055,6.28677404 11.4816176,6.28677404 C11.8587298,6.28677404 12.2139895,6.1098213 12.4411765,5.80882353 C12.7016128,5.42083622 12.8304957,4.95943562 12.8088235,4.49264706 L12.8088235,4.49632353 Z" id="Shape"></path>
                <path d="M19.7463235,4.51470588 C19.7490744,4.91121083 19.6844288,5.30530046 19.5551471,5.68014706 C19.4368459,6.01205015 19.2516484,6.31612447 19.0110294,6.57352941 C18.7830881,6.82084157 18.5047756,7.01641251 18.1948529,7.14705882 C17.861772,7.28493071 17.5038037,7.35251912 17.1433824,7.34558824 C16.7833028,7.34981155 16.426345,7.27841998 16.0955882,7.13602941 C15.787455,7.00095235 15.5117036,6.80165933 15.2867647,6.55147059 C15.0592514,6.28530965 14.8868047,5.97665508 14.7794118,5.64338235 C14.6497443,5.26872866 14.5862969,4.87435952 14.5919118,4.47794118 C14.5881787,4.08225191 14.6541364,3.68899501 14.7867647,3.31617647 C14.9064409,2.99316304 15.0888679,2.69703155 15.3235294,2.44485294 C15.5519099,2.19895492 15.8301755,2.00467038 16.1397059,1.875 C16.4684605,1.74026503 16.8212314,1.67396412 17.1764706,1.68014706 C17.5336223,1.67788009 17.8875391,1.74791309 18.2169118,1.88602941 C18.5264242,2.0154948 18.8037739,2.21127105 19.0294118,2.45955882 C19.2606092,2.72142478 19.4380006,3.02623821 19.5514706,3.35661765 C19.6810988,3.72874097 19.7445573,4.12069062 19.7389706,4.51470588 L19.7463235,4.51470588 Z M18.4742647,4.51470588 C18.5054174,4.06300533 18.39072,3.61323673 18.1470588,3.23161765 C17.9172929,2.9346509 17.5629752,2.76080187 17.1875,2.76080187 C16.8120248,2.76080187 16.4577071,2.9346509 16.2279412,3.23161765 C15.971572,3.60634725 15.8426632,4.0536608 15.8602941,4.50735294 C15.8307603,4.96735997 15.949292,5.42473791 16.1985294,5.8125 C16.4265908,6.11213823 16.7815314,6.28804057 17.1580882,6.28804057 C17.5346451,6.28804057 17.8895857,6.11213823 18.1176471,5.8125 C18.3681751,5.42517315 18.4880038,4.96776287 18.4595588,4.50735294 L18.4742647,4.51470588 Z" id="Shape-2"></path>
                <polygon id="Path-2" points="20.7757353 7.32720588 20.8088235 0.650735294 24.8933824 0.676470588 24.8933824 1.70955882 21.9852941 1.70955882 21.9558824 3.40441176 24.5367647 3.40441176 24.5367647 4.4375 21.9558824 4.4375 21.9558824 7.34558824"></polygon>
                <path d="M25.4117647,5.05514706 C25.4048027,4.63069922 25.4745494,4.20848275 25.6176471,3.80882353 C25.7379286,3.48720136 25.9203139,3.19238685 26.1544118,2.94117647 C26.3698576,2.71193305 26.6318457,2.53142451 26.9227941,2.41176471 C27.1962113,2.2835811 27.4924057,2.21109472 27.7941176,2.19852941 C28.4233325,2.16646474 29.0326941,2.42375076 29.4485294,2.89705882 C29.8825554,3.49171867 30.0898661,4.22186928 30.0330882,4.95588235 L30.0330882,5.41544118 L26.6507353,5.41544118 C26.6541263,5.79152546 26.8014808,6.15201771 27.0625,6.42279412 C27.3710072,6.67936802 27.7646911,6.81059597 28.1654412,6.79044118 C28.4309897,6.79458981 28.6961555,6.7686899 28.9558824,6.71323529 C29.1496503,6.67368207 29.3392261,6.61582452 29.5220588,6.54044118 L29.6764706,7.55882353 C29.5899441,7.60134572 29.5002065,7.63699491 29.4080882,7.66544118 C29.272855,7.70641495 29.135372,7.73955818 28.9963235,7.76470588 C28.8492647,7.79411765 28.6911765,7.81862745 28.5220588,7.83823529 C28.3487196,7.85736148 28.1743799,7.86595569 28,7.86397059 C27.5985243,7.87049037 27.1997911,7.79674348 26.8272059,7.64705882 C26.5094935,7.51794826 26.2262606,7.31653814 26,7.05882353 C25.7841208,6.80516637 25.6226914,6.50983816 25.5257353,6.19117647 C25.4258544,5.82239923 25.3824692,5.44060878 25.3970588,5.05882353 L25.4117647,5.05514706 Z M28.8566176,4.51838235 C28.8583205,4.35304959 28.8360296,4.18834421 28.7904412,4.02941176 C28.7503398,3.88330199 28.6829808,3.74608928 28.5919118,3.625 C28.5051422,3.51281176 28.3946688,3.42116903 28.2683824,3.35661765 C28.1264663,3.28777982 27.9701891,3.25375172 27.8125,3.25735294 C27.6472044,3.25249645 27.4831988,3.28782075 27.3345588,3.36029412 C27.1933225,3.42751943 27.0680005,3.52401732 26.9669118,3.64338235 C26.8692513,3.76278676 26.7933412,3.89842936 26.7426471,4.04411765 C26.6896532,4.19420899 26.6526828,4.34948446 26.6323529,4.50735294 L28.8566176,4.51838235 Z" id="Shape-3"></path>
                <path d="M31.0735294,5.01470588 C31.0668088,4.59027589 31.1365484,4.1681023 31.2794118,3.76838235 C31.3997797,3.44680253 31.582155,3.15200401 31.8161765,2.90073529 C32.0316223,2.67149188 32.2936104,2.49098333 32.5845588,2.37132353 C32.8612302,2.25919575 33.1573674,2.20296717 33.4558824,2.20588235 C34.0840276,2.17386125 34.6922516,2.4312389 35.1066176,2.90441176 C35.5390459,3.49970945 35.7450091,4.22970528 35.6875,4.96323529 L35.6875,5.42279412 L32.3161765,5.42279412 C32.3194509,5.79531889 32.4639872,6.15271762 32.7205882,6.42279412 C33.0289169,6.67968883 33.4227297,6.81095978 33.8235294,6.79044118 C34.0878585,6.79450123 34.3517965,6.76860076 34.6102941,6.71323529 C34.8040785,6.67374674 34.9936603,6.61588734 35.1764706,6.54044118 L35.3272059,7.55882353 C35.2407169,7.60143012 35.1509725,7.63708201 35.0588235,7.66544118 C34.9236032,7.70646246 34.7861174,7.73960636 34.6470588,7.76470588 C34.502451,7.79411765 34.3443627,7.81862745 34.1727941,7.83823529 C34.0006784,7.85727599 33.8275671,7.86587017 33.6544118,7.86397059 C33.2529029,7.87088823 32.8540915,7.79712687 32.4816176,7.64705882 C32.1647675,7.51829143 31.8826574,7.3167842 31.6580882,7.05882353 C31.442382,6.80504743 31.2809731,6.50975684 31.1838235,6.19117647 C31.0857837,5.80719662 31.0485669,5.4102172 31.0735294,5.01470588 L31.0735294,5.01470588 Z M34.5073529,4.47794118 C34.50885,4.31262127 34.4865631,4.14794533 34.4411765,3.98897059 C34.4009923,3.84289217 34.3336407,3.7056944 34.2426471,3.58455882 C34.1569343,3.4727883 34.0477519,3.38117549 33.9227941,3.31617647 C33.782036,3.24777503 33.6270543,3.21375467 33.4705882,3.21691176 C33.3052656,3.21175906 33.1411897,3.24709849 32.9926471,3.31985294 C32.8514107,3.38707825 32.7260888,3.48357615 32.625,3.60294118 C32.5273396,3.72234558 32.4514295,3.85798819 32.4007353,4.00367647 C32.3477678,4.15377558 32.3107981,4.30904823 32.2904412,4.46691176 L34.5073529,4.47794118 Z" id="Shape-4"></path>
                <path d="M40.8308824,7.09191176 C40.1754331,7.26231365 39.5007639,7.34757405 38.8235294,7.34558824 C38.4481194,7.35127056 38.0746805,7.29027555 37.7205882,7.16544118 C37.4136377,7.05925096 37.1328777,6.8887895 36.8970588,6.66544118 C36.6760614,6.44337014 36.5055227,6.17627638 36.3970588,5.88235294 C36.2750785,5.55062575 36.2164651,5.19894542 36.2242647,4.84558824 C36.2219153,4.49622979 36.2752812,4.14873094 36.3823529,3.81617647 C36.4776697,3.53093885 36.6303059,3.26820438 36.8308824,3.04411765 C37.0302241,2.80881916 37.2821004,2.62369012 37.5661765,2.50367647 C37.8747566,2.38126308 38.2048969,2.3224881 38.5367647,2.33088235 C38.7577824,2.32833612 38.9780651,2.35679961 39.1911765,2.41544118 C39.3578507,2.46287507 39.5201981,2.5243703 39.6764706,2.59926471 L39.6764706,0.294117647 L40.8639706,0.136029412 L40.8308824,7.09191176 Z M37.4485294,4.81617647 C37.4197565,5.23486367 37.5511771,5.64883855 37.8161765,5.97426471 C38.0783276,6.25794044 38.4523949,6.41133494 38.8382353,6.39338235 C38.9989904,6.39611657 39.1597739,6.3899798 39.3198529,6.375 C39.4301471,6.375 39.5404412,6.35784314 39.6507353,6.32352941 L39.6507353,3.57720588 C39.5214351,3.49853468 39.3832011,3.43558884 39.2389706,3.38970588 C39.0611477,3.33058553 38.8748919,3.30078461 38.6875,3.30147059 C38.323894,3.27108017 37.9687895,3.42248132 37.7389706,3.70588235 C37.5316426,4.03490201 37.4326406,4.42062429 37.4558824,4.80882353 L37.4485294,4.81617647 Z" id="Shape-5"></path>
            </g>
            <g id="file-icon-copy" transform="translate(33.088235, 6.617647)">
                <path d="M6.61764706,0.470588235 L1.02205882,0.470588235 C0.729936541,0.47858696 0.497888925,0.718805267 0.5,1.01102941 L0.5,9.65808824 C0.489639114,10.0763006 0.817258018,10.4252148 1.23529412,10.4411765 L7.05882353,10.4411765 C7.51021658,10.4291442 7.8669025,10.0543774 7.85661765,9.60294118 L7.85661765,1.77573529 C7.87106821,1.07467102 7.31851455,0.492604106 6.61764706,0.470588235 L6.61764706,0.470588235 Z M6.31617647,5.08088235 L2.49264706,5.08088235 C2.35757017,5.05875098 2.25841252,4.94202498 2.25841252,4.80514706 C2.25841252,4.66826914 2.35757017,4.55154313 2.49264706,4.52941176 L6.31985294,4.52941176 C6.45492983,4.55154313 6.55408748,4.66826914 6.55408748,4.80514706 C6.55408748,4.94202498 6.45492983,5.05875098 6.31985294,5.08088235 L6.31617647,5.08088235 Z M6.55147059,5.98161765 C6.55482647,6.1208006 6.4539003,6.24065043 6.31617647,6.26102941 L2.49264706,6.26102941 C2.36036556,6.23453022 2.26516354,6.11836549 2.26516354,5.98345588 C2.26516354,5.84854627 2.36036556,5.73238155 2.49264706,5.70588235 L6.31985294,5.70588235 C6.4553509,5.72754852 6.55506282,5.84439844 6.55514706,5.98161765 L6.55147059,5.98161765 Z M3.125,2.04411765 C3.12508424,1.90689844 3.22479616,1.79004852 3.36029412,1.76838235 L5.44485294,1.76838235 C5.57713444,1.79488155 5.67233646,1.91104627 5.67233646,2.04595588 C5.67233646,2.18086549 5.57713444,2.29703022 5.44485294,2.32352941 L3.36029412,2.32352941 C3.22403624,2.3014921 3.12506552,2.18209885 3.12867647,2.04411765 L3.125,2.04411765 Z M2.48897059,6.85294118 L5.00367647,6.85294118 C5.14467782,6.86919545 5.25109027,6.98857957 5.25109027,7.13051471 C5.25109027,7.27244984 5.14467782,7.39183396 5.00367647,7.40808824 L2.48897059,7.40808824 C2.34796924,7.39183396 2.24155679,7.27244984 2.24155679,7.13051471 C2.24155679,6.98857957 2.34796924,6.86919545 2.48897059,6.85294118 L2.48897059,6.85294118 Z M6.30514706,7.41544118 C6.14271037,7.41544118 6.01102941,7.28376022 6.01102941,7.12132353 C6.01102941,6.95888684 6.14271037,6.82720588 6.30514706,6.82720588 C6.46758375,6.82720588 6.59926471,6.95888684 6.59926471,7.12132353 C6.59927729,7.28233523 6.46982266,7.41342853 6.30882353,7.41544118 L6.30514706,7.41544118 Z M6.46323529,1.23897059 L6.46323529,0.613970588 C7.10930467,0.736885829 7.61078656,1.24863197 7.72058824,1.89706007 L7.10661765,1.89706007 C6.93690364,1.89739394 6.77409438,1.82988766 6.65441176,1.70955882 C6.53231523,1.58354985 6.46492687,1.41441826 6.46691176,1.23897059 L6.46323529,1.23897059 Z" id="Shape" fill="#FFFFFF"></path>
                <path d="M6.13235294,0.470588235 L6.13235294,1.33823529 C6.13235294,1.56898801 6.22426792,1.79023642 6.38777933,1.95305791 C6.55129074,2.11587939 6.77292583,2.20686012 7.00367647,2.20589015 L7.87132353,2.20589015 C7.86728286,1.24775038 7.09049132,0.472601109 6.13235294,0.470588235 Z M6.65441176,1.70588235 C6.53321265,1.58078266 6.4658952,1.41314902 6.46690042,1.23897059 L6.46690042,0.613970588 C7.11155185,0.738256913 7.61128149,1.24971042 7.72058824,1.89705882 L7.10661765,1.89705882 C6.93637097,1.89642327 6.77348567,1.82756119 6.65441176,1.70588235 L6.65441176,1.70588235 Z" id="Shape" fill="#FFFFFF"></path>
                <path d="M7.88235294,0.911764706 L7.88235294,0.911764706 L7.83455882,0.845588235 C7.79411765,0.794117647 7.74264706,0.746323529 7.69852941,0.691176471 C7.3148135,0.288591476 6.78408624,0.0590519327 6.22794118,0.0551470588 L1.25367647,0.0551470588 C0.594622539,0.0612090419 0.0641268687,0.598274318 0.0661764706,1.25735294 L0.0661764706,9.66176471 C0.0428466163,10.2640913 0.477180733,10.7871944 1.07352941,10.875 L6.90441176,10.875 C7.24960023,10.9065855 7.59251573,10.7942661 7.85212752,10.5645828 C8.11173931,10.3348994 8.26501488,10.0082294 8.27573529,9.66176471 L8.27573529,3.39338235 C8.27790503,3.32057536 8.24997751,3.25009161 8.19852941,3.19852941 C8.15105621,3.14474713 8.08276669,3.1139499 8.01102941,3.11397059 C7.96132653,3.11210095 7.91234199,3.12628068 7.87132353,3.15441176 C7.85014959,3.16360094 7.83130514,3.17742021 7.81617647,3.19485294 C7.76167864,3.24590549 7.73328249,3.31892417 7.73897059,3.39338235 L7.73897059,9.64338235 C7.73897059,10.0367647 7.40808824,10.2941176 6.91544118,10.2941176 L1.07352941,10.2941176 C0.793081166,10.2029897 0.606053343,9.93815827 0.613970588,9.64338235 L0.613970588,1.23897059 C0.613700153,1.06710637 0.681049713,0.902033924 0.801470588,0.779411765 C0.918910272,0.655778491 1.08320905,0.587654609 1.25367647,0.591911765 L5.91911765,0.591911765 L5.91911765,1.23897059 C5.92356895,1.56404182 6.05561043,1.8743393 6.28676471,2.10294118 C6.50434676,2.33467584 6.80714272,2.46748109 7.125,2.47058824 L8.04044118,2.47058824 C8.15101531,2.46938013 8.25047396,2.40307436 8.29411765,2.30147059 C8.3132705,2.26785808 8.32340263,2.2298626 8.32352941,2.19117647 L8.32352941,2.16911765 C8.30960155,1.71454217 8.15551041,1.27538242 7.88235294,0.911764706 L7.88235294,0.911764706 Z M7.10661765,1.89338235 C6.93690364,1.89371747 6.77409438,1.82621119 6.65441176,1.70588235 C6.53321265,1.58078266 6.4658952,1.41314902 6.46690042,1.23897059 L6.46690042,0.613970588 C7.11155185,0.738256913 7.61128149,1.24971042 7.72058824,1.89705882 L7.10661765,1.89338235 Z" id="Shape-6" fill="#1E181A"></path>
                <path d="M7.72058824,1.89706007 L7.10661765,1.89706007 C6.93690364,1.89739394 6.77409438,1.82988766 6.65441176,1.70955882 C6.53321265,1.58445913 6.4658952,1.41682549 6.46690042,1.24264706 L6.46690042,0.617647059 C7.11045499,0.741442617 7.60989323,1.25113325 7.72058824,1.89706007 Z" id="Path" fill="#FFFFFF"></path>
            </g>
        </g>
    </g>
</svg>