<?xml version="1.0" encoding="UTF-8"?>
<svg width="123px" height="25px" viewBox="0 0 123 25" version="1.1" xmlns="http://www.w3.org/2000/svg" xmlns:xlink="http://www.w3.org/1999/xlink">
    <!-- Generator: Sketch 61.2 (89653) - https://sketch.com -->
    <title>Group 2</title>
    <desc>Created with Sketch.</desc>
    <g id="Page-1" stroke="none" stroke-width="1" fill="none" fill-rule="evenodd">
        <g id="Group-2" fill-rule="nonzero">
            <g id="logo-pro-copy">
                <g id="Group">
                    <g id="file-icon-copy">
                        <path d="M2.20818849,1 L15.1239861,1 C16.7123647,1 18,2.34876897 18,4.01255981 L18,22.0741627 C18,23.1377733 17.1768542,24 16.1614523,24 L2.72692159,24 C1.77316913,24 1,23.1901227 1,22.1910885 L1,2.24491627 C1.0107551,1.55404342 1.54854215,1 2.20818849,1 Z" id="Path" fill="#0088F7"></path>
                        <path d="M18,5 L16.0032415,5 C14.8968818,5 14,4.10311823 14,2.99675851 L14,1 C16.2076588,1.00356938 17.9964306,2.79234118 18,5 Z" id="Path" fill="#FFFFFF"></path>
                        <path d="M12.4217157,4 L7.60622285,4 C7.29791524,4.03394393 7.06370343,4.30873772 7.06370343,4.63652199 C7.06370343,4.96430626 7.29791524,5.23910005 7.60622285,5.27304398 L12.4217157,5.27304398 C12.7300234,5.23910005 12.9642352,4.96430626 12.9642352,4.63652199 C12.9642352,4.30873772 12.7300234,4.03394393 12.4217157,4 Z M14.8489845,15.870275 C14.7061086,15.7236907 14.5036756,15.6617927 14.3088684,15.7051233 C14.2698238,15.7051233 14.2307793,15.7051233 14.1852273,15.7464112 L14.087616,15.8083431 C14.051391,15.8306043 14.0184947,15.8584334 13.9900046,15.8909189 C13.8699366,16.0043604 13.8032723,16.1680088 13.8077968,16.3382047 C13.8077968,16.3794926 13.8077968,16.4207805 13.8077968,16.4689497 C13.8077968,16.5171189 13.8077968,16.5515255 13.8468413,16.5996948 C13.8858859,16.647864 13.8858859,16.6616266 13.9054082,16.7029146 C13.928525,16.7416341 13.9570463,16.7764341 13.9900046,16.8061343 C14.0967407,16.9338939 14.2518661,17.0045566 14.4129871,16.9988113 C14.574225,17.010968 14.7289016,16.9291861 14.8164473,16.7854904 C14.8487882,16.7569993 14.8753497,16.7218897 14.8945364,16.6822706 C14.9183677,16.6508117 14.9380683,16.6160908 14.9531032,16.5790508 C14.9758471,16.5394118 14.9892388,16.4945683 14.9921478,16.4483058 C15.0026174,16.4054272 15.0026174,16.3604393 14.9921478,16.3175607 C15.0028863,16.1542231 14.951328,15.9931395 14.8489845,15.870275 L14.8489845,15.870275 Z M11.4000504,15.7257673 L5.60193661,15.7257673 C5.2694962,15.7257673 5,16.0107479 5,16.3622893 C5,16.7138307 5.2694962,16.9988113 5.60193661,16.9988113 L11.4000504,16.9988113 C11.7324908,16.9988113 12.001987,16.7138307 12.001987,16.3622893 C12.001987,16.0107479 11.7324908,15.7257673 11.4000504,15.7257673 L11.4000504,15.7257673 Z M14.4064797,13.0833409 L5.60193661,13.0833409 C5.29362901,13.1172848 5.0594172,13.3920786 5.0594172,13.7198628 C5.0594172,14.0476471 5.29362901,14.3224409 5.60193661,14.3563848 L14.426002,14.3563848 C14.7343096,14.3224409 14.9685214,14.0476471 14.9685214,13.7198628 C14.9685214,13.3920786 14.7343096,13.1172848 14.426002,13.0833409 L14.4064797,13.0833409 Z M14.4064797,10.3652199 L5.60193661,10.3652199 C5.29362901,10.3991638 5.0594172,10.6739576 5.0594172,11.0017419 C5.0594172,11.3295262 5.29362901,11.60432 5.60193661,11.6382639 L14.426002,11.6382639 C14.7343096,11.60432 14.9685214,11.3295262 14.9685214,11.0017419 C14.9685214,10.6739576 14.7343096,10.3991638 14.426002,10.3652199 L14.4064797,10.3652199 Z" id="Shape" fill="#FFFFFF"></path>
                        <path d="M16.2426925,5.57810754 L18.3500005,5.57810754 C18.601712,5.56822361 18.8277555,5.41765557 18.9384047,5.18617025 C18.9792645,5.10627795 19.0004043,5.01737599 19,4.92721169 L19,4.87821953 C18.9728063,3.84759771 18.6359663,2.85054994 18.0352727,2.02267642 L18.0352727,1.97368426 L17.9189602,1.82670777 L17.9189602,1.82670777 C17.8231735,1.70772681 17.713703,1.58874585 17.6042324,1.46976488 C16.7032947,0.529537129 15.4703317,0 14.1832778,0 L2.73676369,0 C1.23327049,0 0.0112761984,1.24061154 0,2.77855548 L0,22.2004479 C0,23.775196 1.24522748,25 2.31940723,25 L15.7774427,25 C17.6110743,25 18.9384047,23.8171893 18.9384047,22.2004479 L18.9384047,14.7396417 L18.9384047,7.74076151 C18.9402293,7.57184262 18.8763762,7.40910183 18.7608945,7.28834549 C18.6454127,7.16758914 18.4877635,7.09871059 18.3226329,7.09686454 L18.3226329,7.09686454 C18.1551303,7.09497104 17.993948,7.16220179 17.8754986,7.28336879 C17.7570491,7.40453579 17.6913262,7.56941596 17.6931772,7.74076151 L17.6931772,14.7396417 L17.6931772,22.1934491 C17.6931772,23.0963046 16.9337253,23.6982083 15.7979684,23.6982083 L2.31940723,23.6982083 C1.67977578,23.4926422 1.25016606,22.8791019 1.26575321,22.1934491 L1.26575321,2.77855548 C1.26392323,2.37889758 1.41831653,1.99506757 1.69458219,1.71246366 C1.97084786,1.42985975 2.34606932,1.27192428 2.73676369,1.27379624 L13.4990869,1.27379624 L13.4990869,2.77855548 C13.4990846,3.52225707 13.7883604,4.23539681 14.3030839,4.76061632 C14.8178074,5.28583583 15.5156729,5.5799668 16.2426925,5.57810754 Z M16.2426925,4.28331471 C15.8508165,4.28706575 15.4738263,4.12996031 15.1960738,3.84715082 C14.9183213,3.56434134 14.7629917,3.17943523 14.7648078,2.77855548 L14.7648078,1.33678616 C16.2367884,1.60594277 17.3890058,2.78459504 17.6521258,4.29031359 L16.2426925,4.28331471 Z" id="Shape" fill="#2E3B50"></path>
                    </g>
                    <g id="text-copy" transform="translate(25.000000, 5.000000)">
                        <path d="M9.02369668,2.46990881 C9.2107425,3.14427558 9.41295419,3.84761905 9.63033175,4.57993921 C9.84770932,5.31225937 10.0701422,6.04457953 10.2976303,6.7768997 C10.5301738,7.50921986 10.7601896,8.22836879 10.9876777,8.9343465 C11.2151659,9.64032421 11.4375987,10.3067882 11.6549763,10.9337386 C11.8369668,10.2593718 12.0139021,9.52705167 12.185782,8.73677812 C12.3576619,7.94650456 12.5295419,7.12198582 12.7014218,6.26322188 C12.8733017,5.40972644 13.042654,4.53779129 13.2094787,3.64741641 C13.3763033,2.75704154 13.5279621,1.8745694 13.664455,1 L16,1 C15.5703002,3.34974671 15.0951027,5.60729483 14.5744076,7.77264438 C14.0537125,9.93799392 13.4698262,12.0058764 12.8227488,13.9762918 L10.6464455,13.9762918 C9.72638231,11.4684904 8.83917852,8.72360689 7.98483412,5.74164134 C7.53491311,7.25369807 7.07993681,8.6893617 6.61990521,10.0486322 C6.15987362,11.4079027 5.69731438,12.7250253 5.23222749,14 L3.06350711,14 C2.42654028,12.0243161 1.85781991,9.95116515 1.35734597,7.78054711 C0.856872038,5.60992908 0.404423381,3.34974671 0,1 L2.40379147,1 C2.54533965,1.84822695 2.69447077,2.71752786 2.85118483,3.60790274 C3.00789889,4.49827761 3.17219589,5.37021277 3.34407583,6.22370821 C3.51595577,7.08247214 3.69036335,7.91225937 3.86729858,8.71306991 C4.04423381,9.51388045 4.22116904,10.2514691 4.39810427,10.9258359 C4.63064771,10.2883485 4.86319115,9.61661601 5.0957346,8.9106383 C5.32827804,8.20466059 5.56082148,7.4881459 5.79336493,6.76109422 C6.02590837,6.02877406 6.24834123,5.30172239 6.46066351,4.57993921 C6.67298578,3.85815603 6.87014218,3.16008105 7.0521327,2.48571429 L9.02369668,2.46990881 Z" id="Path" fill="#2E3B50"></path>
                        <path d="M26.9996531,8.47024937 C27.0074002,9.24137774 26.885323,10.0082129 26.6386532,10.737891 C26.4183769,11.3854613 26.0698643,11.9807813 25.6144208,12.4874572 C25.1707559,12.9715337 24.6297019,13.3538098 24.0277001,13.6085384 C23.3812481,13.8785504 22.6869098,14.0115185 21.9876306,13.9992183 C21.2898029,14.007172 20.5979545,13.868349 19.9559565,13.5915524 C19.354251,13.3251484 18.8160351,12.9312701 18.3776312,12.4364989 C17.9336031,11.9420954 17.5886161,11.3652334 17.3617941,10.737891 C17.1110599,10.0063108 16.9888819,9.23596797 17.0007942,8.46175633 C16.99351,7.68924891 17.1214122,6.92153209 17.3785848,6.19411471 C17.6113591,5.56394749 17.9651704,4.98664352 18.4196079,4.49550675 C18.8642722,4.0146967 19.4052194,3.63539151 20.0063286,3.38291854 C20.6454978,3.1189924 21.3309469,2.98897514 22.021212,3.00073175 C22.7152838,2.99508464 23.4033775,3.1308387 24.0444908,3.39990462 C24.6451553,3.65262047 25.1838678,4.03526684 25.6228161,4.52098587 C26.0719328,5.0308693 26.4171431,5.62542172 26.6386532,6.27055206 C26.8822542,6.97755454 27.0043528,7.72154353 26.9996531,8.47024937 Z M24.531421,8.47024937 C24.5822345,7.59121999 24.3526877,6.71891431 23.8765838,5.98178871 C23.4278306,5.4022344 22.7405392,5.06366156 22.0128167,5.06366156 C21.2850942,5.06366156 20.5978027,5.4022344 20.1490495,5.98178871 C19.6640801,6.71586733 19.4256406,7.58840701 19.4690264,8.47024937 C19.4114356,9.36863088 19.6410211,10.2619275 20.1238635,11.0181613 C20.568813,11.60379 21.257496,11.9470101 21.9876306,11.9470101 C22.7177653,11.9470101 23.4064482,11.60379 23.8513978,11.0181613 C24.3448474,10.2625994 24.583402,9.36580325 24.531421,8.46175633 L24.531421,8.47024937 Z" id="Shape" fill="#2E3B50"></path>
                        <path d="M37.9992565,8.49997514 C38.0052591,9.27027664 37.8803324,10.0359406 37.6298759,10.7638742 C37.3983877,11.4076815 37.0384122,11.9970095 36.5721041,12.495588 C36.1284568,12.9770623 35.5874243,13.3572835 34.9854463,13.6106428 C34.3390199,13.8792033 33.6447091,14.0114565 32.9454577,13.9992225 C32.2476577,14.0071334 31.5558367,13.8690567 30.9138642,13.593748 C30.3167471,13.3326772 29.7816246,12.9468283 29.3439965,12.4617985 C28.9034894,11.9446538 28.5696061,11.3445091 28.3617798,10.6962951 C28.1110555,9.96864757 27.9888823,9.20244585 28.0007942,8.43239606 C27.9935103,7.66404135 28.1214073,6.90045147 28.3785698,6.1769444 C28.6113348,5.55016471 28.9651321,4.9759641 29.4195516,4.48746749 C29.8641983,4.00924209 30.405124,3.6319759 31.0062094,3.38086012 C31.6453532,3.11835275 32.3307752,2.98903441 33.0210129,3.00072782 C33.7150572,2.99511106 34.4031235,3.13013536 35.0442114,3.39775489 C35.6448521,3.64911224 36.1835432,4.02970165 36.6224741,4.51280965 C37.0715729,5.01995214 37.4167696,5.61130848 37.6382709,6.25297086 C37.8885761,6.9748872 38.0107654,7.73547146 37.9992565,8.49997514 L37.9992565,8.49997514 Z M35.5311222,8.49997514 C35.5905548,7.62186647 35.3667935,6.74790114 34.8931011,6.00799671 C34.4443657,5.43155785 33.7571015,5.09480505 33.0294079,5.09480505 C32.3017143,5.09480505 31.6144501,5.43155785 31.1657147,6.00799671 C30.6807644,6.7381292 30.4423344,7.60597846 30.4857185,8.48308037 C30.42813,9.37663254 30.6577064,10.2651271 31.1405296,11.0172957 C31.5854615,11.5997763 32.2741172,11.9411514 33.0042228,11.9411514 C33.7343285,11.9411514 34.4229842,11.5997763 34.8679161,11.0172957 C35.3536877,10.2661327 35.5862271,9.37756277 35.5311222,8.48308037 L35.5311222,8.49997514 Z" id="Shape" fill="#2E3B50"></path>
                        <polygon id="Path" fill="#0088F7" points="40 13.9684466 40.0687023 1 48 1.0473301 48 3.05097087 42.351145 3.05097087 42.2900763 6.34830097 47.3053435 6.34830097 47.3053435 8.35194175 42.2900763 8.35194175 42.2900763 14"></polygon>
                        <path d="M49.0054054,9.54891633 C48.9931281,8.72371947 49.1293347,7.90349841 49.4068813,7.13127314 C49.6438401,6.50205059 49.9987995,5.92914093 50.4507186,5.44650437 C50.874418,4.99794323 51.3832446,4.64780662 51.9442089,4.41879542 C52.4788002,4.16944986 53.0538158,4.02935761 53.6384371,4.00602707 C54.8473249,3.93889362 56.0227721,4.43524572 56.8502442,5.36226593 C57.6882209,6.50223635 58.0918031,7.92859041 57.9824062,9.36359176 C57.9824062,9.49837327 57.9824062,9.64719451 57.9824062,9.81005549 C57.9824062,9.97291647 57.9824062,10.1217377 57.9824062,10.2565192 L51.4142607,10.2565192 C51.4215515,10.994507 51.7108168,11.6985597 52.2172125,12.210851 C52.8368925,12.7147273 53.6108485,12.9634102 54.3932118,12.91003 C54.9081338,12.9174758 55.4223195,12.8666388 55.9268497,12.7584008 C56.3025333,12.6814039 56.6707399,12.5686188 57.0268936,12.4214471 L57.3239858,14.4010504 C57.1553967,14.4851344 56.9809129,14.5555393 56.8020671,14.6116465 C56.5380564,14.6918333 56.2699899,14.7565165 55.9991154,14.8053949 C55.7154057,14.8615539 55.4076075,14.909289 55.0757208,14.9486002 C54.7396884,14.9858483 54.4018872,15.002724 54.0640016,14.9991433 C53.2852337,15.0125012 52.5112122,14.8695376 51.7836185,14.5779511 C51.1711715,14.3312964 50.6215055,13.9391677 50.177715,13.4323084 C49.7604372,12.9450715 49.4457929,12.3709908 49.2543204,11.7475396 C49.0609684,11.0331023 48.9769511,10.2909922 49.0054054,9.54891633 L49.0054054,9.54891633 Z M55.6939937,8.50435969 C55.6974617,8.18206038 55.6541414,7.86108529 55.5655214,7.55246533 C55.486599,7.26761403 55.3557042,7.00155076 55.1801045,6.76904785 C55.0100379,6.54922961 54.7962989,6.37099103 54.5538022,6.24676953 C54.277217,6.11270217 53.975171,6.04644558 53.6705552,6.05302113 C53.3493104,6.04340229 53.0303642,6.11263184 52.7391311,6.25519338 C52.4785052,6.38712229 52.2462685,6.57343657 52.0566221,6.80274323 C51.8691199,7.03182457 51.7222673,7.29430469 51.6230282,7.57773686 C51.5192832,7.86887489 51.4465748,8.17116599 51.4062312,8.47908816 L55.6939937,8.50435969 Z" id="Shape" fill="#0088F7"></path>
                        <path d="M60.0050243,9.47310173 C59.9927794,8.64790487 60.1286279,7.82768382 60.4054449,7.05545855 C60.6417808,6.426236 60.9958071,5.85332633 61.4465382,5.37068977 C61.8691239,4.92212864 62.3766129,4.57199203 62.9361026,4.34298082 C63.4816487,4.11649258 64.0634138,4.00211054 64.6499024,4.00602707 C65.8556124,3.93889362 67.0279697,4.43524572 67.8532666,5.36226593 C68.6890404,6.50223635 69.0915617,7.92859041 68.9824525,9.36359176 C68.9824525,9.49837327 68.9824525,9.64719451 68.9824525,9.81005549 C68.9824525,9.97853237 68.9824525,10.1301616 68.9824525,10.2565192 L62.4315727,10.2565192 C62.4388443,10.994507 62.7273492,11.6985597 63.2324138,12.210851 C63.8504648,12.7147273 64.6223863,12.9634102 65.402693,12.91003 C65.9162639,12.9175414 66.4291047,12.8667037 66.9322994,12.7584008 C67.3069955,12.6814039 67.6742341,12.5686188 68.0294516,12.4214471 L68.3257628,14.4010504 C68.1576293,14.4851649 67.9836019,14.5555707 67.8052161,14.6116465 C67.5418828,14.6917659 67.2745246,14.7564482 67.0043751,14.8053949 C66.7214113,14.8615539 66.4144222,14.909289 66.0834079,14.9486002 C65.7482601,14.985867 65.411346,15.0027428 65.0743482,14.9991433 C64.2976275,15.0125012 63.5256406,14.8695376 62.7999596,14.5779511 C62.1891225,14.3312964 61.6409015,13.9391677 61.1982775,13.4323084 C60.7822919,12.9449228 60.4684998,12.3708881 60.2773103,11.7475396 C60.0686341,11.0102194 59.9766449,10.2418219 60.0050243,9.47310173 Z M66.6760303,8.4285451 C66.6792414,8.10626272 66.6360402,7.78532678 66.5478957,7.47665074 C66.4689918,7.19187879 66.3384591,6.9258522 66.163492,6.69323326 C65.9938724,6.47341502 65.7806953,6.29517643 65.538836,6.17095494 C65.2629778,6.03688757 64.9617259,5.97063099 64.6579108,5.97720653 C64.3375105,5.9675877 64.0194027,6.03681724 63.7289352,6.17937878 C63.4689944,6.3113077 63.2373682,6.49762197 63.0482203,6.72692863 C62.8612109,6.95600997 62.7147444,7.21849009 62.6157662,7.50192227 C62.5122939,7.7930603 62.4397767,8.0953514 62.3995391,8.40327356 L66.6760303,8.4285451 Z" id="Shape" fill="#0088F7"></path>
                        <path d="M78.9519219,13.5051782 C78.3862429,13.6547831 77.8107644,13.7698782 77.2291217,13.8497363 C76.5082085,13.9552705 75.7792523,14.0053743 75.0495792,13.9995442 C74.3298235,14.005418 73.6151833,13.8860363 72.9421539,13.6474957 C72.3379434,13.4368504 71.7907808,13.1043915 71.3395491,12.6737446 C70.8974095,12.2452579 70.5562049,11.7349374 70.3379211,11.1756661 C70.0999147,10.5277398 69.9859883,9.84565938 70.0013741,9.1607504 C69.9956862,8.48364594 70.0983188,7.8095509 70.305869,7.16081552 C70.4890015,6.61270899 70.7857852,6.10366927 71.1792886,5.66273696 C71.5541354,5.21392394 72.0374419,4.85455041 72.5895808,4.61408197 C73.1841814,4.37690263 73.8263689,4.26195113 74.4726415,4.27701429 C74.9037576,4.27207957 75.3332267,4.32762721 75.7467123,4.44180294 C76.0727361,4.53503689 76.3891777,4.65536331 76.6922491,4.80134179 L76.6922491,0.307106105 L79,0 L78.9519219,13.5051782 Z M72.3812422,9.08584648 C72.3214361,9.88959129 72.5715928,10.686776 73.0863883,11.3329643 C73.5775864,11.8783651 74.3116281,12.1799459 75.0736182,12.1494171 C75.3866427,12.1542194 75.6996971,12.1417136 76.0111421,12.1119652 C76.226472,12.0898337 76.440437,12.0573321 76.652184,12.0145901 L76.652184,6.68143038 C76.4024939,6.52834302 76.1333047,6.40504336 75.8508816,6.31440114 C75.5063502,6.1992465 75.1430269,6.14095243 74.7771364,6.1421221 C74.0577886,6.08414974 73.3585015,6.38256782 72.9341408,6.92861335 C72.525183,7.58057088 72.3327361,8.33143666 72.3812422,9.08584648 L72.3812422,9.08584648 Z" id="Shape" fill="#0088F7"></path>
                    </g>
                </g>
                <g id="Group-2" transform="translate(107.000000, 0.000000)" fill="#0088F7">
                    <rect id="Rectangle" x="0" y="0" width="16" height="8" rx="2"></rect>
                </g>
            </g>
            <path d="M112.4192,6.05600008 L112.4192,5.36480007 L110.9024,5.36480007 L110.9024,1.53760001 L110,1.53760001 L110,6.05600008 L112.4192,6.05600008 Z M113.4112,1.97920001 C113.5776,1.97920001 113.712,1.93333335 113.8144,1.84160001 C113.9168,1.74986668 113.968,1.63360001 113.968,1.49280001 C113.968,1.34773334 113.9168,1.22933334 113.8144,1.1376 C113.712,1.04586667 113.5776,1 113.4112,1 C113.2448,1 113.1104,1.04586667 113.008,1.1376 C112.9056,1.22933334 112.8544,1.34773334 112.8544,1.49280001 C112.8544,1.63360001 112.9056,1.74986668 113.008,1.84160001 C113.1104,1.93333335 113.2448,1.97920001 113.4112,1.97920001 Z M113.8592,6.05600008 L113.8592,2.51040002 L112.9568,2.51040002 L112.9568,6.05600008 L113.8592,6.05600008 Z M116.5728,6.05600008 L116.5728,5.28160006 L116.2208,5.28160006 C116.058667,5.28160006 115.943467,5.24746673 115.8752,5.17920006 C115.806933,5.11093339 115.7728,4.99146673 115.7728,4.82080006 L115.7728,4.82080006 L115.7728,3.27200003 L116.5664,3.27200003 L116.5664,2.51040002 L115.7728,2.51040002 L115.7728,1.63360001 L114.8704,1.63360001 L114.8704,2.51040002 L114.3776,2.51040002 L114.3776,3.27200003 L114.8704,3.27200003 L114.8704,4.80800006 C114.8704,5.25600006 114.976,5.57600007 115.1872,5.76800007 C115.3984,5.96000007 115.7024,6.05600008 116.0992,6.05600008 L116.0992,6.05600008 L116.5728,6.05600008 Z M118.8128,6.10080008 C119.1072,6.10080008 119.374933,6.04533341 119.616,5.93440007 C119.857067,5.82346674 120.0544,5.66986674 120.208,5.47360007 C120.3616,5.2773334 120.461867,5.05546673 120.5088,4.80800006 L120.5088,4.80800006 L119.5552,4.80800006 C119.5168,4.98293339 119.428267,5.12160006 119.2896,5.22400006 C119.150933,5.32640006 118.977067,5.37760007 118.768,5.37760007 C118.533333,5.37760007 118.337067,5.3029334 118.1792,5.15360006 C118.021333,5.00426673 117.936,4.77173339 117.9232,4.45600005 L117.9232,4.45600005 L120.5216,4.45600005 C120.542933,4.34080005 120.5536,4.23840005 120.5536,4.14880005 C120.5536,3.82453338 120.482133,3.5354667 120.3392,3.28160003 C120.196267,3.02773336 119.9936,2.82826669 119.7312,2.68320003 C119.4688,2.53813336 119.162667,2.46560002 118.8128,2.46560002 C118.4672,2.46560002 118.16,2.53813336 117.8912,2.68320003 C117.6224,2.82826669 117.413333,3.03840003 117.264,3.31360003 C117.114667,3.58880004 117.04,3.91200004 117.04,4.28320005 C117.04,4.65440005 117.114667,4.97653339 117.264,5.24960006 C117.413333,5.52266673 117.6224,5.73280007 117.8912,5.88000007 C118.16,6.02720007 118.4672,6.10080008 118.8128,6.10080008 Z M119.6448,4.05920005 L117.9232,4.05920005 C117.940267,3.76906671 118.032,3.54933337 118.1984,3.40000004 C118.3648,3.2506667 118.5696,3.17600003 118.8128,3.17600003 C119.051733,3.17600003 119.253333,3.2506667 119.4176,3.40000004 C119.581867,3.54933337 119.6576,3.76906671 119.6448,4.05920005 L119.6448,4.05920005 Z" id="Lite" fill="#FFFFFF"></path>
        </g>
    </g>
</svg>