<?xml version="1.0" encoding="UTF-8"?>
<svg width="58px" height="75px" viewBox="0 0 58 75" version="1.1" xmlns="http://www.w3.org/2000/svg" xmlns:xlink="http://www.w3.org/1999/xlink">
    <!-- Generator: Sketch 61 (89581) - https://sketch.com -->
    <title>file-icon copy</title>
    <desc>Created with Sketch.</desc>
    <g id="Wordpress-Banner_design" stroke="none" stroke-width="1" fill="none" fill-rule="evenodd">
        <g id="icon-128x128-" transform="translate(-35.000000, -10.000000)" fill-rule="nonzero">
            <g id="file-icon-copy" transform="translate(35.000000, 10.000000)">
                <path d="M6.8377752,4 L47.8644264,4 C52.9098644,4 57,8.10494903 57,13.1686603 L57,68.138756 C57,71.3758317 54.3853014,74 51.1599073,74 L8.48551564,74 C5.45594901,74 3,71.5351562 3,68.4946172 L3,7.7888756 C3.03416325,5.68621911 4.74242801,4 6.8377752,4 Z" id="Path" fill="#0088F7"></path>
                <path d="M56,15 L49.5105348,15 C45.9148657,15 43,12.0851343 43,8.48946515 L43,2 C50.1748912,2.01160049 55.9883995,7.82510883 56,15 Z" id="Path" fill="#FFFFFF"></path>
                <path d="M36.7494904,13 L21.3399131,13 C20.3533288,13.1044429 19.603851,13.9499622 19.603851,14.9585292 C19.603851,15.9670962 20.3533288,16.8126155 21.3399131,16.9170584 L36.7494904,16.9170584 C37.7360747,16.8126155 38.4855525,15.9670962 38.4855525,14.9585292 C38.4855525,13.9499622 37.7360747,13.1044429 36.7494904,13 Z M44.5167503,49.523923 C44.0595474,49.0728946 43.4117619,48.882439 42.7883788,49.0157641 C42.6634363,49.0157641 42.5384937,49.0157641 42.3927275,49.1428038 L42.0803712,49.3333634 C41.9644511,49.4018595 41.859183,49.4874875 41.7680149,49.5874429 C41.3837972,49.9364937 41.1704713,50.440027 41.1849498,50.9637066 C41.1849498,51.0907464 41.1849498,51.2177861 41.1849498,51.3659991 C41.1849498,51.5142121 41.1849498,51.6200786 41.3098923,51.7682916 C41.4348348,51.9165046 41.4348348,51.9588512 41.4973061,52.0858909 C41.57128,52.2050279 41.6625482,52.3121051 41.7680149,52.4034903 C42.1095704,52.7965966 42.6059714,53.0140202 43.1215588,52.9963423 C43.63752,53.0337477 44.132485,52.7821111 44.4126315,52.3399704 C44.5161224,52.2523054 44.6011192,52.1442761 44.6625166,52.0223711 C44.7387767,51.9255745 44.8018187,51.8187409 44.8499303,51.7047717 C44.9227107,51.5828055 44.965564,51.4448256 44.9748728,51.3024793 C45.0083757,51.1705452 45.0083757,51.0321208 44.9748728,50.9001868 C45.0092361,50.3976096 44.8442498,49.9019678 44.5167503,49.523923 L44.5167503,49.523923 Z M33.4801611,49.0792839 L14.9261972,49.0792839 C13.8623878,49.0792839 13,49.9561473 13,51.0378131 C13,52.119479 13.8623878,52.9963423 14.9261972,52.9963423 L33.4801611,52.9963423 C34.5439705,52.9963423 35.4063583,52.119479 35.4063583,51.0378131 C35.4063583,49.9561473 34.5439705,49.0792839 33.4801611,49.0792839 L33.4801611,49.0792839 Z M43.1007351,40.9487411 L14.9261972,40.9487411 C13.9396128,41.0531839 13.190135,41.8987033 13.190135,42.9072703 C13.190135,43.9158373 13.9396128,44.7613566 14.9261972,44.8657995 L43.1632063,44.8657995 C44.1497907,44.7613566 44.8992685,43.9158373 44.8992685,42.9072703 C44.8992685,41.8987033 44.1497907,41.0531839 43.1632063,40.9487411 L43.1007351,40.9487411 Z M43.1007351,32.585292 L14.9261972,32.585292 C13.9396128,32.6897349 13.190135,33.5352543 13.190135,34.5438212 C13.190135,35.5523882 13.9396128,36.3979076 14.9261972,36.5023505 L43.1632063,36.5023505 C44.1497907,36.3979076 44.8992685,35.5523882 44.8992685,34.5438212 C44.8992685,33.5352543 44.1497907,32.6897349 43.1632063,32.585292 L43.1007351,32.585292 Z" id="Shape" fill="#FFFFFF"></path>
                <path d="M49.5829713,16.7343226 L56.0158084,16.7343226 C56.784191,16.7046708 57.4742187,16.2529667 57.8119901,15.5585108 C57.9367201,15.3188338 58.0012521,15.052128 57.9999816,14.7816351 L57.9999816,14.6346586 C57.9170055,11.5427931 56.8887567,8.55164981 55.05506,6.06802925 L55.05506,5.92105277 L54.7000008,5.48012332 L54.7000008,5.48012332 C54.4075991,5.12318043 54.0734257,4.76623754 53.7392524,4.40929465 C50.9890207,1.58861139 47.2252375,0 43.2963351,0 L8.35433383,0 C3.76472159,0 0.03442209,3.72183462 0,8.33566643 L0,66.6013438 C0,71.3255879 3.80122189,75 7.08029792,75 L48.1627346,75 C53.7601382,75 57.8119901,71.4515678 57.8119901,66.6013438 L57.8119901,44.218925 L57.8119901,23.2222845 C57.8175599,22.7155279 57.6226399,22.2273055 57.2701166,21.8650365 C56.9175932,21.5027674 56.436348,21.2961318 55.932265,21.2905936 L55.932265,21.2905936 C55.4209411,21.2849131 54.9289109,21.4866054 54.5673283,21.8501064 C54.2057456,22.2136074 54.0051177,22.7082479 54.0107682,23.2222845 L54.0107682,44.218925 L54.0107682,66.5803472 C54.0107682,69.2889138 51.6924406,71.0946249 48.2253921,71.0946249 L7.08029792,71.0946249 C5.12773818,70.4779266 3.81629757,68.6373057 3.8638794,66.5803472 L3.8638794,8.33566643 C3.85829314,7.13669274 4.32959915,5.98520271 5.1729367,5.13739099 C6.01627426,4.28957926 7.16168751,3.81577283 8.35433383,3.82138872 L41.2077516,3.82138872 L41.2077516,8.33566643 C41.2077447,10.5667712 42.0907974,12.7061904 43.662059,14.281849 C45.2333206,15.8575075 47.3636477,16.7399004 49.5829713,16.7343226 Z M49.5829713,12.8499441 C48.3867178,12.8611973 47.2359054,12.3898809 46.388029,11.5414525 C45.5401526,10.693024 45.0659885,9.53830569 45.0715812,8.33566643 L45.0715812,4.01035848 C49.5649482,4.81782831 53.0822447,8.35378511 53.8854532,12.8709408 L49.5829713,12.8499441 Z" id="Shape" fill="#2E3B50"></path>
            </g>
        </g>
    </g>
</svg>