<?xml version="1.0" encoding="UTF-8"?>
<!DOCTYPE svg  PUBLIC '-//W3C//DTD SVG 1.1//EN'  'http://www.w3.org/Graphics/SVG/1.1/DTD/svg11.dtd'>
<svg clip-rule="evenodd" fill-rule="evenodd" stroke-linejoin="round" stroke-miterlimit="1.4142" version="1.1" viewBox="0 0 2230 399" xml:space="preserve" xmlns="http://www.w3.org/2000/svg"><g fill-rule="nonzero"><path d="m764.54 369.3l4.3-1.8c1.4 3.8 3.3 6.6 5.5 8.4 2.3 1.8 5 2.7 8.3 2.7 3.4 0 6.1-0.9 8.1-2.8 2.1-1.9 3.1-4.4 3.1-7.5 0-2.5-0.7-4.5-2-6.1s-3.6-3.1-6.8-4.4c-1.8-0.7-4.1-1.5-7-2.5s-4.8-1.7-5.6-2.2c-2.6-1.5-4.4-3.1-5.5-4.8s-1.6-3.8-1.6-6.2c0-4.4 1.4-7.9 4.1-10.5 2.7-2.5 6.5-3.8 11.2-3.8 4.2 0 7.7 1 10.5 3.1 2.7 2.1 4.8 5.3 6.3 9.6l-4.2 1.3c-1.3-3.3-3-5.8-5.1-7.4s-4.6-2.4-7.7-2.4c-3 0-5.4 0.9-7.2 2.6s-2.8 3.9-2.8 6.7c0 2.1 0.6 3.8 1.8 5.2s3 2.6 5.5 3.5c1 0.4 2.4 0.9 4.2 1.5 5.2 1.8 8.6 3.2 10.1 4.2 2.4 1.6 4.2 3.3 5.3 5.2s1.6 4.1 1.6 6.7c0 4.7-1.5 8.4-4.4 11.2-3 2.8-6.9 4.1-12 4.1-4.5 0-8.2-1.1-11.2-3.3-2.7-2.2-5.1-5.6-6.8-10.3z" fill="#2d2d2d"/><path d="m839.04 370.9l3.4 1.8c-1.7 3.5-3.7 6-6 7.6s-5.1 2.4-8.5 2.4c-4.8 0-8.6-1.8-11.5-5.3-2.8-3.6-4.3-8.3-4.3-14.4 0-6.2 1.4-11.2 4.2-14.9s6.6-5.5 11.4-5.5c4.7 0 8.3 1.6 10.7 4.8 2.5 3.2 3.7 7.8 3.7 13.9v1.2h-25.5c0 5.3 1 9.3 3 12.1s4.8 4.2 8.5 4.2c2.4 0 4.5-0.6 6.2-1.9 1.8-1 3.3-3.1 4.7-6zm-1.1-11.6c-0.1-4.1-1-7.2-2.8-9.5-1.8-2.2-4.2-3.4-7.3-3.4s-5.6 1.1-7.6 3.4-3.1 5.4-3.5 9.5h21.2z" fill="#2d2d2d"/><path d="m880.74 370.9l3.5 1.9c-1.7 3.5-3.6 6-5.8 7.5-2.2 1.6-4.8 2.3-8 2.3-4.8 0-8.7-1.8-11.5-5.3s-4.2-8.3-4.2-14.4c0-6.2 1.4-11.2 4.2-14.9s6.5-5.5 11.1-5.5c3.3 0 6.2 0.9 8.5 2.6s4.1 4.3 5.5 7.8l-4 1.6c-1-2.8-2.4-4.8-4-6.1s-3.6-2-5.9-2c-3.4 0-6 1.4-7.9 4.3-1.9 2.8-2.8 6.8-2.8 11.9 0 5.3 1 9.3 2.9 12.2 1.9 2.8 4.7 4.3 8.2 4.3 2.3 0 4.3-0.6 5.9-1.9 1.4-1.3 2.9-3.4 4.3-6.3z" fill="#2d2d2d"/><path d="m927.84 343.4v38.6h-4.6v-6.1c-2.3 2.2-4.5 3.9-6.7 5s-4.4 1.7-6.6 1.7c-3.5 0-6.1-1-7.8-3.1s-2.6-5.2-2.6-9.3v-26.9h4.6v25.3c0 3.8 0.5 6.4 1.6 7.9 1.1 1.4 2.9 2.2 5.6 2.2 1.9 0 3.9-0.6 5.9-1.8s4.1-3 6.1-5.4v-28.1h4.5z" fill="#2d2d2d"/><path d="m947.64 382.1v-38.6h4.6v6.7h0.4c1.3-2.6 2.9-4.4 4.6-5.6 1.8-1.2 3.9-1.8 6.4-1.8h0.2v4.4h-0.6c-2.7 0-5 0.9-6.8 2.5-1.8 1.7-3.2 4.3-4.3 7.9v24.5h-4.5z" fill="#2d2d2d"/><path d="m977.64 335.3v-6.5h5.5v6.5h-5.5zm0.5 46.8v-38.6h4.6v38.6h-4.6z" fill="#2d2d2d"/><path d="m1002.8 382.1v-38.6h4.6v6.1c2.3-2.2 4.5-3.9 6.7-5.1 2.2-1.1 4.4-1.7 6.6-1.7 3.5 0 6.1 1 7.8 3.1s2.6 5.2 2.6 9.3v26.9h-4.6v-25.2c0-3.9-0.5-6.5-1.6-7.9s-2.9-2.1-5.6-2.1c-1.9 0-3.9 0.6-5.9 1.8s-4 3-6.1 5.4v28.1h-4.5v-0.1z" fill="#2d2d2d"/><path d="m1052.8 366.9v-0.4c-1.6-1.4-2.7-3-3.5-4.7s-1.1-3.6-1.1-5.7c0-3.9 1.3-7.1 3.9-9.7s5.9-3.9 9.9-3.9c1.8 0 3.5 0.3 5 0.7 1.5 0.5 2.9 1.2 4.3 2.2 1.2-1.2 2.4-2 3.7-2.6s2.6-0.9 4.1-0.9v4.3h-0.9c-1 0-1.9 0.1-2.7 0.3s-1.5 0.6-2.1 1.1c0.8 1.2 1.4 2.5 1.8 3.8s0.6 2.7 0.6 4.2c0 4.2-1.2 7.5-3.7 10.1s-5.7 3.9-9.6 3.9c-0.9 0-1.9-0.1-2.8-0.2-1-0.2-2-0.4-3-0.8-1.4 0.4-2.5 0.8-3.2 1.4-0.8 0.6-1.1 1.3-1.1 2 0 1.7 3.2 2.8 9.5 3.1 2 0.1 3.5 0.2 4.7 0.3 4.2 0.3 7.3 1.3 9.5 2.9 2.2 1.7 3.3 4 3.3 6.9 0 3.5-1.4 6.2-4.3 8.1-2.9 1.8-7.1 2.8-12.5 2.8-5 0-8.9-0.9-11.8-2.6-2.8-1.7-4.2-4-4.2-7.1 0-1.6 0.5-3 1.4-4.2s2.4-2.4 4.3-3.5v-0.8c-1.3-0.4-2.3-1-3-1.8-0.7-0.9-1.1-1.9-1.1-3s0.4-2.2 1.2-3.2c0.6-0.9 1.8-1.9 3.4-3zm4.4 12.3c-2.2 1-3.8 2-4.9 3.2s-1.6 2.5-1.6 3.9c0 2 1 3.6 3.2 4.7 2.1 1.1 5 1.7 8.8 1.7 3.9 0 7-0.6 9.2-1.9s3.3-3 3.3-5.2c0-2.3-1.3-4-3.9-5-2.8-0.9-7.4-1.4-14.1-1.4zm-4.7-23.1c0 2.8 0.9 5.2 2.8 7.2s4.1 3 6.7 3c2.7 0 5-1 6.8-2.9s2.7-4.3 2.7-7.3c0-2.9-0.9-5.3-2.7-7.2s-4-2.8-6.8-2.8c-2.6 0-4.9 1-6.7 2.9-1.9 2-2.8 4.3-2.8 7.1z" fill="#2d2d2d"/><path d="m1131 381.9l-13.4-38.4h4.6l11.4 32.9 11.3-32.9h4.4l-14.5 41.7c-1.4 4-3 6.9-4.9 8.5s-4.4 2.4-7.5 2.4c-0.7 0-1.4 0-2-0.1-0.7 0-1.3-0.1-2-0.2v-3.7c0.5 0.1 1.1 0.2 1.6 0.3 0.5 0 1.1 0.1 1.6 0.1 2.7 0 4.8-0.8 6.2-2.4 1.4-1.8 2.5-4.5 3.2-8.2z" fill="#2d2d2d"/><path d="m1160.3 362.7c0-6.1 1.4-11 4.3-14.5 2.9-3.6 6.7-5.4 11.5-5.4s8.6 1.8 11.5 5.4 4.3 8.4 4.3 14.5-1.4 11-4.3 14.6-6.7 5.4-11.5 5.4-8.6-1.8-11.5-5.4c-2.8-3.6-4.3-8.5-4.3-14.6zm4.6 0c0 5.1 1 9.1 2.9 12 2 2.9 4.7 4.3 8.3 4.3 3.5 0 6.2-1.4 8.2-4.3 2-2.8 2.9-6.8 2.9-12 0-5.1-1-9.1-2.9-11.9-2-2.8-4.7-4.2-8.2-4.2s-6.3 1.4-8.3 4.3c-1.9 2.7-2.9 6.7-2.9 11.8z" fill="#2d2d2d"/><path d="m1236.2 343.4v38.6h-4.6v-6.1c-2.3 2.2-4.5 3.9-6.7 5s-4.4 1.7-6.6 1.7c-3.5 0-6.1-1-7.8-3.1-1.8-2.1-2.6-5.2-2.6-9.3v-26.9h4.6v25.3c0 3.8 0.5 6.4 1.6 7.9 1.1 1.4 2.9 2.2 5.5 2.2 1.9 0 3.9-0.6 6-1.8 2-1.2 4.1-3 6.1-5.4v-28.1h4.5z" fill="#2d2d2d"/><path d="m1256 382.1v-38.6h4.6v6.7h0.4c1.3-2.6 2.9-4.4 4.6-5.6 1.8-1.2 3.9-1.8 6.4-1.8h0.2v4.4h-0.6c-2.7 0-5 0.9-6.8 2.5-1.8 1.7-3.2 4.3-4.3 7.9v24.5h-4.5z" fill="#2d2d2d"/><path d="m1324.1 382.1l-13.8-53.7h9.9l7.7 30.9c0.3 1.2 0.6 2.8 1 4.9s0.8 4.4 1.1 7.1c0.2-2.7 0.8-6.1 1.8-10.2 0.2-0.7 0.3-1.2 0.4-1.5l7.8-31.2h8.7l7.4 30.9c0.3 1.2 0.6 2.8 1 4.9s0.8 4.5 1.2 7.2c0.1-1.7 0.4-3.6 0.7-5.5s0.8-4 1.3-6.2l7.8-31.2h9.9l-13.8 53.7h-11.2l-6.7-26.9c-0.6-2.5-1.1-4.7-1.4-6.6-0.4-1.9-0.6-3.7-0.8-5.4-0.3 2.5-0.7 4.7-1 6.7-0.4 2-0.7 3.7-1 5.1l-6.9 27h-11.1z" fill="#00719e"/><path d="m1385.4 362.7c0-6.3 1.5-11.2 4.4-14.8s7-5.3 12.2-5.3 9.3 1.8 12.2 5.3 4.4 8.5 4.4 14.8-1.5 11.2-4.4 14.8c-2.9 3.5-7 5.3-12.2 5.3s-9.2-1.8-12.2-5.4c-2.9-3.5-4.4-8.4-4.4-14.7zm9.3 0c0 4.1 0.6 7.2 1.8 9.2s3 3 5.5 3 4.3-1 5.5-3 1.8-5.1 1.8-9.2-0.6-7.2-1.8-9.2-3-3-5.5-3c-2.4 0-4.3 1-5.5 3-1.2 2.1-1.8 5.1-1.8 9.2z" fill="#00719e"/><path d="m1432.9 382.1v-38.7h8.7v6.4c1.3-2.3 2.7-4.1 4.3-5.3s3.4-1.8 5.3-1.8h0.7c0.2 0 0.3 0.1 0.4 0.1v9.5h-0.4c-2.1 0-3.9 0.5-5.6 1.6-1.7 1-3.1 2.5-4.2 4.5v23.7h-9.2z" fill="#00719e"/><path d="m1488.7 377.9c-1.4 1.7-2.9 2.9-4.6 3.7s-3.6 1.2-5.8 1.2c-4.4 0-8.1-1.9-10.9-5.6s-4.2-8.6-4.2-14.5c0-6 1.4-10.8 4.1-14.5s6.3-5.6 10.7-5.6c1.9 0 3.7 0.4 5.2 1 1.5 0.7 2.9 1.8 4.3 3.4v-18.7h8.9v44.7c0 0.9 0 2.2 0.1 3.7s0.2 3.3 0.3 5.3h-7.1l-1-4.1zm-1.3-6.1v-18.4c-1.3-1.2-2.5-2-3.5-2.5-1.1-0.5-2.2-0.8-3.3-0.8-2.6 0-4.6 1.1-6 3.3s-2.2 5.3-2.2 9.2c0 4 0.7 7 2.2 9.2 1.4 2.2 3.5 3.2 6.1 3.2 1.2 0 2.3-0.2 3.4-0.8 0.9-0.4 2-1.2 3.3-2.4z" fill="#00719e"/><path d="m1514.6 382.1v-53.7h19.2c6.3 0 11 1.3 14.1 4 3.1 2.6 4.6 6.6 4.6 12 0 5.2-1.5 9.2-4.5 12-3 2.7-7.5 4.1-13.3 4.1h-10v21.7h-10.1v-0.1zm10.2-30.3h7.5c3.7 0 6.3-0.6 7.9-1.7 1.5-1.2 2.3-3.1 2.3-5.8s-0.8-4.7-2.3-5.8c-1.5-1.2-4.1-1.7-7.9-1.7h-7.5v15z" fill="#00719e"/><path d="m1566.4 382.1v-38.7h8.7v6.4c1.3-2.3 2.7-4.1 4.3-5.3s3.4-1.8 5.3-1.8h0.7c0.2 0 0.3 0.1 0.4 0.1v9.5h-0.4c-2.1 0-3.9 0.5-5.6 1.6-1.7 1-3.1 2.5-4.2 4.5v23.7h-9.2z" fill="#00719e"/><path d="m1628.3 374.5c-1.5 2.7-3.5 4.8-6.1 6.2s-5.7 2.1-9.3 2.1c-5.2 0-9.2-1.8-12.1-5.3s-4.3-8.4-4.3-14.8c0-6.3 1.4-11.3 4.3-14.8 2.9-3.6 6.9-5.3 12-5.3s9 1.7 11.8 5.2c2.8 3.4 4.2 8.3 4.2 14.5v2h-23.2c0.1 3.7 0.8 6.4 2.1 8.2 1.4 1.8 3.4 2.8 6.1 2.8 1.7 0 3.1-0.4 4.4-1.2 1.2-0.8 2.4-2.1 3.5-3.8l6.6 4.2zm-22.7-16.8h14.2c0-2.6-0.6-4.6-1.9-6s-3-2.2-5.2-2.2c-2.1 0-3.7 0.7-5 2.1-1.2 1.5-1.9 3.5-2.1 6.1z" fill="#00719e"/><path d="m1639.9 375l6.2-4.9c1.5 1.9 2.9 3.3 4.4 4.2 1.4 0.9 2.9 1.4 4.5 1.4s3-0.4 3.9-1.1c1-0.8 1.4-1.8 1.4-3.1 0-1.9-2-3.7-6.1-5.2-0.4-0.2-0.8-0.3-1-0.4-4.8-1.8-8.1-3.6-9.7-5.3s-2.4-3.9-2.4-6.6c0-3.3 1.2-6 3.7-8.2 2.5-2.1 5.7-3.2 9.6-3.2 2.6 0 5 0.5 7.2 1.4 2.1 1 4.1 2.5 5.9 4.5l-5.8 5c-1.2-1.3-2.5-2.3-3.7-2.9s-2.5-0.9-3.8-0.9c-1.5 0-2.7 0.3-3.6 1s-1.3 1.6-1.3 2.8c0 1.4 2 2.9 6.1 4.4 1.1 0.4 1.9 0.7 2.6 1 4.1 1.6 6.9 3.3 8.4 5 1.5 1.8 2.2 4.1 2.2 7.1 0 3.6-1.2 6.5-3.7 8.6-2.5 2.2-5.7 3.3-9.8 3.3-3.2 0-6-0.6-8.4-1.9-2.5-1.3-4.8-3.2-6.8-6z" fill="#00719e"/><path d="m1679.8 375l6.2-4.9c1.5 1.9 2.9 3.3 4.4 4.2 1.4 0.9 3 1.4 4.5 1.4 1.7 0 3-0.4 3.9-1.1 1-0.8 1.4-1.8 1.4-3.1 0-1.9-2-3.7-6.1-5.2-0.4-0.2-0.8-0.3-1-0.4-4.8-1.8-8.1-3.6-9.7-5.3s-2.4-3.9-2.4-6.6c0-3.3 1.2-6 3.7-8.2 2.5-2.1 5.7-3.2 9.6-3.2 2.6 0 5 0.5 7.2 1.4 2.1 1 4.1 2.5 5.9 4.5l-5.8 5c-1.2-1.3-2.5-2.3-3.7-2.9s-2.5-0.9-3.8-0.9c-1.5 0-2.7 0.3-3.6 1s-1.3 1.6-1.3 2.8c0 1.4 2 2.9 6.1 4.4 1.1 0.4 1.9 0.7 2.6 1 4.1 1.6 6.9 3.3 8.4 5 1.5 1.8 2.2 4.1 2.2 7.1 0 3.6-1.2 6.5-3.7 8.6-2.5 2.2-5.7 3.3-9.8 3.3-3.2 0-6-0.6-8.4-1.9-2.5-1.3-4.8-3.2-6.8-6z" fill="#00719e"/><path d="m1760.3 382.1l-11.3-38.6h4.5l9.3 31.5 9.3-31.5h4.1l9.3 32 9.2-32h4.4l-11.3 38.6h-4.4l-9.2-31-9.4 31h-4.5z" fill="#2d2d2d"/><path d="m1838 370.9l3.4 1.8c-1.7 3.5-3.7 6-6 7.6s-5.2 2.4-8.5 2.4c-4.8 0-8.6-1.8-11.5-5.3-2.8-3.6-4.3-8.3-4.3-14.4 0-6.2 1.4-11.2 4.2-14.9s6.6-5.5 11.3-5.5 8.3 1.6 10.8 4.8 3.7 7.8 3.7 13.9v1.2h-25.5c0 5.3 1 9.3 3 12.1s4.8 4.2 8.5 4.2c2.5 0 4.5-0.6 6.2-1.9 1.8-1 3.3-3.1 4.7-6zm-1.1-11.6c-0.1-4.1-1-7.2-2.8-9.5-1.8-2.2-4.2-3.4-7.3-3.4s-5.6 1.1-7.6 3.4-3.1 5.4-3.5 9.5h21.2z" fill="#2d2d2d"/><path d="m1856.8 382.1c0.1-0.6 0.2-1.3 0.2-2s0.1-1.9 0.1-3.6v-47.7h4.6v19.7h0.4c1.8-1.9 3.6-3.4 5.5-4.3s3.9-1.4 6.1-1.4c4.2 0 7.5 1.8 10 5.4s3.8 8.4 3.8 14.5-1.3 11-3.8 14.6-5.9 5.4-10 5.4c-2.2 0-4.2-0.5-6.1-1.4s-3.7-2.3-5.5-4.3h-0.4l-1.2 5h-3.7v0.1zm4.9-10.4c1.9 2.5 3.8 4.4 5.6 5.5s3.7 1.7 5.7 1.7c3.2 0 5.6-1.4 7.3-4.2s2.6-6.8 2.6-12-0.9-9.2-2.6-12-4.2-4.3-7.3-4.3c-1.9 0-3.8 0.6-5.6 1.8s-3.7 3-5.6 5.5v18h-0.1z" fill="#2d2d2d"/><path d="m1902.5 372.4c1.7 2.2 3.5 3.9 5.5 5 1.9 1.1 4 1.7 6.2 1.7 2.4 0 4.3-0.7 5.8-2s2.2-3 2.2-5.1c0-2.9-2.9-5.5-8.8-7.6-0.5-0.2-0.9-0.3-1.1-0.4-4.8-1.8-8-3.4-9.6-5-1.5-1.5-2.3-3.6-2.3-6 0-3 1.1-5.5 3.4-7.4s5.3-2.9 9-2.9c2.5 0 4.9 0.6 7 1.8 2.2 1.2 4.1 3 5.8 5.3l-3.2 2.4c-1.5-2-3.1-3.5-4.8-4.4s-3.5-1.4-5.7-1.4c-2.1 0-3.7 0.6-5 1.8-1.3 1.1-1.9 2.7-1.9 4.6 0 2.5 2.8 4.8 8.4 6.9 0.8 0.3 1.4 0.5 1.8 0.7 4.6 1.7 7.7 3.4 9.2 5 1.6 1.6 2.3 3.7 2.3 6.3 0 3.3-1.2 5.9-3.6 8s-5.6 3.1-9.5 3.1c-3 0-5.7-0.6-8.1-1.9-2.4-1.2-4.5-3.1-6.5-5.8l3.5-2.7z" fill="#2d2d2d"/><path d="m1942.8 335.3v-6.5h5.6v6.5h-5.6zm0.5 46.8v-38.6h4.6v38.6h-4.6z" fill="#2d2d2d"/><path d="m1973.3 374.8c0 1.5 0.3 2.6 1 3.3s1.7 1.1 3.2 1.1c0.5 0 1 0 1.6-0.1s1.4-0.3 2.5-0.6v3.7c-1 0.3-1.9 0.4-2.7 0.6-0.9 0.1-1.7 0.2-2.5 0.2-2.6 0-4.6-0.7-5.8-2s-1.9-3.4-1.9-6.3v-27.4h-5.7v-3.7h5.7v-11.5h4.6v11.5h8.1v3.7h-8.1v27.5z" fill="#2d2d2d"/><path d="m2019.1 370.9l3.4 1.8c-1.7 3.5-3.7 6-6 7.6s-5.1 2.4-8.5 2.4c-4.8 0-8.6-1.8-11.5-5.3-2.8-3.6-4.3-8.3-4.3-14.4 0-6.2 1.4-11.2 4.2-14.9s6.6-5.5 11.3-5.5 8.3 1.6 10.8 4.8 3.7 7.8 3.7 13.9v1.2h-25.5c0 5.3 1 9.3 3 12.1s4.8 4.2 8.5 4.2c2.5 0 4.5-0.6 6.2-1.9 1.7-1 3.3-3.1 4.7-6zm-1.2-11.6c-0.1-4.1-1-7.2-2.8-9.5-1.8-2.2-4.2-3.4-7.3-3.4s-5.6 1.1-7.6 3.4-3.1 5.4-3.5 9.5h21.2z" fill="#2d2d2d"/><path d="m1440.3 254.3v34.2h-92.2v-34.2h21.5v-80.1h-19.9v-34.2h19.9v-13.7c0-15.6 4.8-28.7 14.5-39.2s24-15.7 43.2-15.7c23.2 0 39.7 7 49.5 20.9l-34.4 26.8c-3.1-10.6-7.5-16-13.2-16-8.2 0-12.3 6.9-12.3 20.6v16.3h23.3v34.2h-23.3v80.1h23.4zm140-10.6l36.8 11.8c-15.4 24.2-39.6 36.3-72.4 36.3-26.2 0-46.6-6.9-61.3-20.7s-22-32-22-54.5c0-22.9 7.6-42 22.7-57.4 15.1-15.3 34.4-23 57.8-23 17 0 31.7 4.3 44 12.9 12.4 8.6 21 19.3 25.8 32.1s7.2 27 7.2 42.8h-110.6c0.7 13.5 5 23.1 12.8 28.7s16.1 8.4 24.8 8.4c11.4 0.1 22.9-5.8 34.4-17.4zm-9-46c-1.1-8.3-4.3-15.3-9.7-21.2-5.4-5.8-12.7-8.7-22-8.7-17.4 0-27.5 10-30.4 29.9h62.1zm69.5-23.5v-34.2h70.1v13.8c14.3-10.7 28.8-16.1 43.6-16.1 30 0 44.9 19.1 44.9 57.4v59.2h22.4v34.2h-69.8v-89.9c0-8.1-1.1-13.6-3.3-16.6s-5.8-4.4-10.8-4.4c-8.8 0-17.8 3.2-27 9.7v67h22.8v34.2h-92.9v-34.2h22.7v-80.1h-22.7zm349.7-34.2v60.3h-33.7c-7.7-16.6-19.7-24.8-36-24.8-10.4 0-18.7 3.5-24.9 10.4s-9.3 16.1-9.3 27.7c0 14 3.3 24.4 9.8 31.1s14.6 10 24.1 10c7.6 0 14.7-2.2 21.5-6.5 6.7-4.3 12.2-10.1 16.3-17.3l36.8 16.2c-13.7 29.9-37.7 44.9-72.1 44.9-25.9 0-46.5-7.1-61.9-21.2s-23.1-33-23.1-56.6 7.5-42.3 22.6-55.9c15.1-13.7 32.6-20.5 52.7-20.5 16.1 0 31 4.9 44.9 14.6v-12.3h32.3v-0.1zm143.1 103.7l36.8 11.8c-15.4 24.2-39.6 36.3-72.4 36.3-26.2 0-46.6-6.9-61.3-20.7s-22-32-22-54.5c0-22.9 7.6-42 22.7-57.4 15.1-15.3 34.4-23 57.8-23 17 0 31.7 4.3 44 12.9 12.4 8.6 21 19.3 25.8 32.1s7.2 27 7.2 42.8h-110.6c0.7 13.5 5 23.1 12.8 28.7s16.1 8.4 24.8 8.4c11.4 0.1 22.8-5.8 34.4-17.4zm-9-46c-1.1-8.3-4.3-15.3-9.7-21.2-5.4-5.8-12.7-8.7-22-8.7-17.4 0-27.5 10-30.4 29.9h62.1z" fill="#2d2d2d"/><path d="m639.74 289.8l-60.9-178.7h-22.5v-36h96.2v36h-22.1l34.7 102.5 32.5-102.5h-19.3v-36h76.7v36h-19.8l35 102.5 33.6-102.5h-21.3v-36h85.4v36h-23.2l-58.9 178.7h-39.9l-33.6-97.4-31.8 97.4h-40.8zm286.5 2c-21.9 0-40.4-6.9-55.4-20.8-15.1-13.9-22.6-32.8-22.6-57 0-24.1 7.5-43.1 22.6-57s33.6-20.8 55.4-20.8c22 0 40.5 6.9 55.5 20.8s22.5 32.9 22.5 57c0 23.8-7.4 42.7-22.3 56.8-14.8 14-33.4 21-55.7 21zm-0.1-36.8c8.8 0 15.9-3.4 21.4-10.1s8.2-17.3 8.2-31.8c0-12.7-2.7-22.6-8-29.7s-12.5-10.7-21.6-10.7c-19.5 0-29.3 14.1-29.3 42.3 0 11.6 2.4 21.1 7.3 28.6 4.8 7.7 12.2 11.4 22 11.4zm203.1-0.7v34.2h-104.5v-34.2h27.4v-80.1h-25.8v-34.2h69.2v37.7c2.7-10.8 8.7-20.2 18.2-28.1s20.6-11.9 33.5-11.9c2.1 0 4.7 0.1 7.7 0.2v44.8c-12 0-21.7 1.3-29.3 4s-13.8 8.5-18.7 17.5-7.4 19.6-7.4 31.9v18.2h29.7zm218.7 0v34.2h-71.8v-17.7c-13.2 13.2-27.5 19.8-42.9 19.8-18.5 0-33.9-7.5-46-22.5-12.2-15-18.3-33.2-18.3-54.6 0-21.7 6.2-40 18.7-54.8 12.5-14.9 27.7-22.3 45.7-22.3 17.3 0 31.5 6.7 42.8 20.2v-47.3h-23.2v-34.2h70.6v179.2h24.4zm-71.3-40.4c0-14.2-3.1-24.3-9.1-30.4-6.1-6-13-9.1-20.8-9.1-9.3 0-16.5 3.6-21.6 10.8s-7.6 16.7-7.6 28.5c0 11.1 2.5 20.5 7.5 28.1s12.3 11.4 21.8 11.4c7.9 0 14.8-3.1 20.8-9.3 6-6 9-16.1 9-30z" fill="#00719e"/></g><g fill="#2d2d2d" fill-rule="nonzero"><path d="m2179.9 165.6v-27.2h-8.6v-5.4h23.3v5.4h-8.6v27.2h-6.1z"/><path d="m2199.2 165.6v-32.6h8.8l4.7 15.8c0.4 1.4 0.8 2.8 1.1 4.2s0.5 2.7 0.7 4c0.3-1.2 0.6-2.5 0.9-3.7 0.3-1.3 0.7-2.7 1.2-4.3l4.8-15.9h8.4v32.6h-5.3v-27.4l-0.9 3.6c-0.3 1.2-0.7 2.4-1 3.6l-5.9 20.1h-4.5l-5.8-20.1c-0.6-2.1-1-3.6-1.3-4.6-0.2-1-0.5-1.8-0.6-2.6v27.3h-5.3z"/></g><clipPath id="b"><path d="m488.74 70.6c-119.9-3.9-226.9-65.2-235.4-70.2v-0.4s-111.1 66.5-236 70.6c0 0-43.5 163 7.3 327.9h456.9c50.7-164.9 7.2-327.9 7.2-327.9z"/></clipPath><g clip-path="url(#b)" fill-rule="nonzero"><path d="m24.539 398.6h228.8v-398.6s-111.1 66.5-236 70.6c-0.1 0-43.6 163 7.2 328z" fill="#00719e"/><path d="m488.74 70.6c-119.9-3.9-226.9-65.2-235.4-70.2v398.1h228.1c50.8-164.9 7.3-327.9 7.3-327.9z" fill="#008dc2"/></g><clipPath id="a"><path d="m488.74 70.6c-119.9-3.9-226.9-65.2-235.4-70.2v-0.4s-111.1 66.5-236 70.6c0 0-43.5 163 7.3 327.9h456.9c50.7-164.9 7.2-327.9 7.2-327.9z"/></clipPath><g clip-path="url(#a)" fill="#fff" fill-rule="nonzero"><path d="m537.94 363.5c-135.5-83.6-283.1-78.1-284.6-78l-0.3-6c0.4 0 38-1.6 92.1 7.4 49.8 8.2 124.3 27.3 196 71.5l-3.2 5.1z"/><path d="m543.04 338.2c-138-85.1-288.1-79.5-289.6-79.4l-0.4-9.2c1.6-0.1 39-1.6 94.3 7.5 51 8.4 127.2 28 200.6 73.2l-4.9 7.9z"/><path d="m-32.061 363.5c135.5-83.6 283.1-78.1 284.6-78l0.3-6c-0.4 0-38-1.6-92.1 7.4-49.8 8.2-124.3 27.3-196 71.5l3.2 5.1z"/><path d="m-37.161 338.2c138-85.1 288.1-79.5 289.6-79.4l0.4-9.2c-1.6-0.1-39-1.6-94.3 7.5-51 8.4-127.2 28-200.6 73.2l4.9 7.9z"/><path d="m326.14 530.9c-67.8-219.6-60.2-369.5-58.8-389.9 2.9-3.3 4.7-7.7 4.7-12.4 0-0.9-0.1-2.6-0.2-2.6h9.5l-28.1-68-27.9 68h9.3c-0.1 0-0.2 1.7-0.2 2.6 0 4.8 1.8 9.3 4.9 12.6 1.5 21.1 8.9 170.7-58.8 389.8-4.1 13.4 34.3 20.1 72.7 20.1 39.1-0.1 77-6.8 72.9-20.2z"/><path d="m181.04 163.9l-16.9-36.6-17.2 36.6h10v252h14v-252h10.1z"/><path d="m113.04 189.9l-12.8-32.8-13.3 32.8h7v223h12v-223h7.1z"/><path d="m47.939 212.9l-11.8-28.9-12.2 28.9h7v198h10v-198h7z"/><path d="m324.94 163.9l16.9-36.6 17.1 36.6h-10v252h-14v-252h-10z"/><path d="m392.94 189.9l12.8-32.8 13.2 32.8h-7v223h-12v-223h-7z"/><path d="m458.04 212.9l11.7-28.9 12.3 28.9h-7.1v198h-10v-198h-6.9z"/></g></svg>
